G75*
%MOIN*%
%OFA0B0*%
%FSLAX25Y25*%
%IPPOS*%
%LPD*%
%AMOC8*
5,1,8,0,0,1.08239X$1,22.5*
%
%ADD10C,0.00394*%
%ADD11C,0.00402*%
%ADD12C,0.00396*%
%ADD13C,0.00409*%
%ADD14C,0.00390*%
%ADD15C,0.00406*%
D10*
X0342917Y0258737D02*
X0342917Y0263067D01*
X0346459Y0263067D01*
X0346459Y0258737D01*
X0342917Y0258737D01*
X0342917Y0259130D02*
X0346459Y0259130D01*
X0346459Y0259523D02*
X0342917Y0259523D01*
X0342917Y0259916D02*
X0346459Y0259916D01*
X0346459Y0260309D02*
X0342917Y0260309D01*
X0342917Y0260702D02*
X0346459Y0260702D01*
X0346459Y0261095D02*
X0342917Y0261095D01*
X0342917Y0261488D02*
X0346459Y0261488D01*
X0346459Y0261881D02*
X0342917Y0261881D01*
X0342917Y0262274D02*
X0346459Y0262274D01*
X0346459Y0262667D02*
X0342917Y0262667D01*
X0342917Y0263060D02*
X0346459Y0263060D01*
X0342917Y0268973D02*
X0342917Y0273303D01*
X0346459Y0273303D01*
X0346459Y0268973D01*
X0342917Y0268973D01*
X0342917Y0269366D02*
X0346459Y0269366D01*
X0346459Y0269759D02*
X0342917Y0269759D01*
X0342917Y0270152D02*
X0346459Y0270152D01*
X0346459Y0270545D02*
X0342917Y0270545D01*
X0342917Y0270938D02*
X0346459Y0270938D01*
X0346459Y0271331D02*
X0342917Y0271331D01*
X0342917Y0271724D02*
X0346459Y0271724D01*
X0346459Y0272117D02*
X0342917Y0272117D01*
X0342917Y0272510D02*
X0346459Y0272510D01*
X0346459Y0272903D02*
X0342917Y0272903D01*
X0342917Y0273296D02*
X0346459Y0273296D01*
X0346459Y0366237D02*
X0346459Y0370567D01*
X0346459Y0366237D02*
X0342917Y0366237D01*
X0342917Y0370567D01*
X0346459Y0370567D01*
X0346459Y0366630D02*
X0342917Y0366630D01*
X0342917Y0367023D02*
X0346459Y0367023D01*
X0346459Y0367416D02*
X0342917Y0367416D01*
X0342917Y0367809D02*
X0346459Y0367809D01*
X0346459Y0368202D02*
X0342917Y0368202D01*
X0342917Y0368595D02*
X0346459Y0368595D01*
X0346459Y0368988D02*
X0342917Y0368988D01*
X0342917Y0369381D02*
X0346459Y0369381D01*
X0346459Y0369774D02*
X0342917Y0369774D01*
X0342917Y0370167D02*
X0346459Y0370167D01*
X0346459Y0370560D02*
X0342917Y0370560D01*
X0346459Y0376473D02*
X0346459Y0380803D01*
X0346459Y0376473D02*
X0342917Y0376473D01*
X0342917Y0380803D01*
X0346459Y0380803D01*
X0346459Y0376866D02*
X0342917Y0376866D01*
X0342917Y0377259D02*
X0346459Y0377259D01*
X0346459Y0377652D02*
X0342917Y0377652D01*
X0342917Y0378045D02*
X0346459Y0378045D01*
X0346459Y0378438D02*
X0342917Y0378438D01*
X0342917Y0378831D02*
X0346459Y0378831D01*
X0346459Y0379224D02*
X0342917Y0379224D01*
X0342917Y0379617D02*
X0346459Y0379617D01*
X0346459Y0380010D02*
X0342917Y0380010D01*
X0342917Y0380403D02*
X0346459Y0380403D01*
X0346459Y0380796D02*
X0342917Y0380796D01*
X0486459Y0380803D02*
X0486459Y0376473D01*
X0482917Y0376473D01*
X0482917Y0380803D01*
X0486459Y0380803D01*
X0486459Y0376866D02*
X0482917Y0376866D01*
X0482917Y0377259D02*
X0486459Y0377259D01*
X0486459Y0377652D02*
X0482917Y0377652D01*
X0482917Y0378045D02*
X0486459Y0378045D01*
X0486459Y0378438D02*
X0482917Y0378438D01*
X0482917Y0378831D02*
X0486459Y0378831D01*
X0486459Y0379224D02*
X0482917Y0379224D01*
X0482917Y0379617D02*
X0486459Y0379617D01*
X0486459Y0380010D02*
X0482917Y0380010D01*
X0482917Y0380403D02*
X0486459Y0380403D01*
X0486459Y0380796D02*
X0482917Y0380796D01*
X0486459Y0370567D02*
X0486459Y0366237D01*
X0482917Y0366237D01*
X0482917Y0370567D01*
X0486459Y0370567D01*
X0486459Y0366630D02*
X0482917Y0366630D01*
X0482917Y0367023D02*
X0486459Y0367023D01*
X0486459Y0367416D02*
X0482917Y0367416D01*
X0482917Y0367809D02*
X0486459Y0367809D01*
X0486459Y0368202D02*
X0482917Y0368202D01*
X0482917Y0368595D02*
X0486459Y0368595D01*
X0486459Y0368988D02*
X0482917Y0368988D01*
X0482917Y0369381D02*
X0486459Y0369381D01*
X0486459Y0369774D02*
X0482917Y0369774D01*
X0482917Y0370167D02*
X0486459Y0370167D01*
X0486459Y0370560D02*
X0482917Y0370560D01*
X0608155Y0321291D02*
X0612485Y0321291D01*
X0612485Y0317749D01*
X0608155Y0317749D01*
X0608155Y0321291D01*
X0608155Y0318142D02*
X0612485Y0318142D01*
X0612485Y0318535D02*
X0608155Y0318535D01*
X0608155Y0318928D02*
X0612485Y0318928D01*
X0612485Y0319321D02*
X0608155Y0319321D01*
X0608155Y0319714D02*
X0612485Y0319714D01*
X0612485Y0320107D02*
X0608155Y0320107D01*
X0608155Y0320500D02*
X0612485Y0320500D01*
X0612485Y0320893D02*
X0608155Y0320893D01*
X0608155Y0321286D02*
X0612485Y0321286D01*
X0618391Y0321291D02*
X0622721Y0321291D01*
X0622721Y0317749D01*
X0618391Y0317749D01*
X0618391Y0321291D01*
X0618391Y0318142D02*
X0622721Y0318142D01*
X0622721Y0318535D02*
X0618391Y0318535D01*
X0618391Y0318928D02*
X0622721Y0318928D01*
X0622721Y0319321D02*
X0618391Y0319321D01*
X0618391Y0319714D02*
X0622721Y0319714D01*
X0622721Y0320107D02*
X0618391Y0320107D01*
X0618391Y0320500D02*
X0622721Y0320500D01*
X0622721Y0320893D02*
X0618391Y0320893D01*
X0618391Y0321286D02*
X0622721Y0321286D01*
X0627459Y0366237D02*
X0627459Y0370567D01*
X0627459Y0366237D02*
X0623917Y0366237D01*
X0623917Y0370567D01*
X0627459Y0370567D01*
X0627459Y0366630D02*
X0623917Y0366630D01*
X0623917Y0367023D02*
X0627459Y0367023D01*
X0627459Y0367416D02*
X0623917Y0367416D01*
X0623917Y0367809D02*
X0627459Y0367809D01*
X0627459Y0368202D02*
X0623917Y0368202D01*
X0623917Y0368595D02*
X0627459Y0368595D01*
X0627459Y0368988D02*
X0623917Y0368988D01*
X0623917Y0369381D02*
X0627459Y0369381D01*
X0627459Y0369774D02*
X0623917Y0369774D01*
X0623917Y0370167D02*
X0627459Y0370167D01*
X0627459Y0370560D02*
X0623917Y0370560D01*
X0627459Y0376473D02*
X0627459Y0380803D01*
X0627459Y0376473D02*
X0623917Y0376473D01*
X0623917Y0380803D01*
X0627459Y0380803D01*
X0627459Y0376866D02*
X0623917Y0376866D01*
X0623917Y0377259D02*
X0627459Y0377259D01*
X0627459Y0377652D02*
X0623917Y0377652D01*
X0623917Y0378045D02*
X0627459Y0378045D01*
X0627459Y0378438D02*
X0623917Y0378438D01*
X0623917Y0378831D02*
X0627459Y0378831D01*
X0627459Y0379224D02*
X0623917Y0379224D01*
X0623917Y0379617D02*
X0627459Y0379617D01*
X0627459Y0380010D02*
X0623917Y0380010D01*
X0623917Y0380403D02*
X0627459Y0380403D01*
X0627459Y0380796D02*
X0623917Y0380796D01*
X0623917Y0273303D02*
X0623917Y0268973D01*
X0623917Y0273303D02*
X0627459Y0273303D01*
X0627459Y0268973D01*
X0623917Y0268973D01*
X0623917Y0269366D02*
X0627459Y0269366D01*
X0627459Y0269759D02*
X0623917Y0269759D01*
X0623917Y0270152D02*
X0627459Y0270152D01*
X0627459Y0270545D02*
X0623917Y0270545D01*
X0623917Y0270938D02*
X0627459Y0270938D01*
X0627459Y0271331D02*
X0623917Y0271331D01*
X0623917Y0271724D02*
X0627459Y0271724D01*
X0627459Y0272117D02*
X0623917Y0272117D01*
X0623917Y0272510D02*
X0627459Y0272510D01*
X0627459Y0272903D02*
X0623917Y0272903D01*
X0623917Y0273296D02*
X0627459Y0273296D01*
X0623917Y0263067D02*
X0623917Y0258737D01*
X0623917Y0263067D02*
X0627459Y0263067D01*
X0627459Y0258737D01*
X0623917Y0258737D01*
X0623917Y0259130D02*
X0627459Y0259130D01*
X0627459Y0259523D02*
X0623917Y0259523D01*
X0623917Y0259916D02*
X0627459Y0259916D01*
X0627459Y0260309D02*
X0623917Y0260309D01*
X0623917Y0260702D02*
X0627459Y0260702D01*
X0627459Y0261095D02*
X0623917Y0261095D01*
X0623917Y0261488D02*
X0627459Y0261488D01*
X0627459Y0261881D02*
X0623917Y0261881D01*
X0623917Y0262274D02*
X0627459Y0262274D01*
X0627459Y0262667D02*
X0623917Y0262667D01*
X0623917Y0263060D02*
X0627459Y0263060D01*
X0482917Y0263067D02*
X0482917Y0258737D01*
X0482917Y0263067D02*
X0486459Y0263067D01*
X0486459Y0258737D01*
X0482917Y0258737D01*
X0482917Y0259130D02*
X0486459Y0259130D01*
X0486459Y0259523D02*
X0482917Y0259523D01*
X0482917Y0259916D02*
X0486459Y0259916D01*
X0486459Y0260309D02*
X0482917Y0260309D01*
X0482917Y0260702D02*
X0486459Y0260702D01*
X0486459Y0261095D02*
X0482917Y0261095D01*
X0482917Y0261488D02*
X0486459Y0261488D01*
X0486459Y0261881D02*
X0482917Y0261881D01*
X0482917Y0262274D02*
X0486459Y0262274D01*
X0486459Y0262667D02*
X0482917Y0262667D01*
X0482917Y0263060D02*
X0486459Y0263060D01*
X0482917Y0268973D02*
X0482917Y0273303D01*
X0486459Y0273303D01*
X0486459Y0268973D01*
X0482917Y0268973D01*
X0482917Y0269366D02*
X0486459Y0269366D01*
X0486459Y0269759D02*
X0482917Y0269759D01*
X0482917Y0270152D02*
X0486459Y0270152D01*
X0486459Y0270545D02*
X0482917Y0270545D01*
X0482917Y0270938D02*
X0486459Y0270938D01*
X0486459Y0271331D02*
X0482917Y0271331D01*
X0482917Y0271724D02*
X0486459Y0271724D01*
X0486459Y0272117D02*
X0482917Y0272117D01*
X0482917Y0272510D02*
X0486459Y0272510D01*
X0486459Y0272903D02*
X0482917Y0272903D01*
X0482917Y0273296D02*
X0486459Y0273296D01*
X0550873Y0153249D02*
X0554809Y0153249D01*
X0550873Y0153249D02*
X0550873Y0156791D01*
X0554809Y0156791D01*
X0554809Y0153249D01*
X0554809Y0153642D02*
X0550873Y0153642D01*
X0550873Y0154035D02*
X0554809Y0154035D01*
X0554809Y0154428D02*
X0550873Y0154428D01*
X0550873Y0154821D02*
X0554809Y0154821D01*
X0554809Y0155214D02*
X0550873Y0155214D01*
X0550873Y0155607D02*
X0554809Y0155607D01*
X0554809Y0156000D02*
X0550873Y0156000D01*
X0550873Y0156393D02*
X0554809Y0156393D01*
X0554809Y0156786D02*
X0550873Y0156786D01*
X0557566Y0153249D02*
X0561502Y0153249D01*
X0557566Y0153249D02*
X0557566Y0156791D01*
X0561502Y0156791D01*
X0561502Y0153249D01*
X0561502Y0153642D02*
X0557566Y0153642D01*
X0557566Y0154035D02*
X0561502Y0154035D01*
X0561502Y0154428D02*
X0557566Y0154428D01*
X0557566Y0154821D02*
X0561502Y0154821D01*
X0561502Y0155214D02*
X0557566Y0155214D01*
X0557566Y0155607D02*
X0561502Y0155607D01*
X0561502Y0156000D02*
X0557566Y0156000D01*
X0557566Y0156393D02*
X0561502Y0156393D01*
X0561502Y0156786D02*
X0557566Y0156786D01*
X0515002Y0139249D02*
X0511066Y0139249D01*
X0511066Y0142791D01*
X0515002Y0142791D01*
X0515002Y0139249D01*
X0515002Y0139642D02*
X0511066Y0139642D01*
X0511066Y0140035D02*
X0515002Y0140035D01*
X0515002Y0140428D02*
X0511066Y0140428D01*
X0511066Y0140821D02*
X0515002Y0140821D01*
X0515002Y0141214D02*
X0511066Y0141214D01*
X0511066Y0141607D02*
X0515002Y0141607D01*
X0515002Y0142000D02*
X0511066Y0142000D01*
X0511066Y0142393D02*
X0515002Y0142393D01*
X0515002Y0142786D02*
X0511066Y0142786D01*
X0508309Y0139249D02*
X0504373Y0139249D01*
X0504373Y0142791D01*
X0508309Y0142791D01*
X0508309Y0139249D01*
X0508309Y0139642D02*
X0504373Y0139642D01*
X0504373Y0140035D02*
X0508309Y0140035D01*
X0508309Y0140428D02*
X0504373Y0140428D01*
X0504373Y0140821D02*
X0508309Y0140821D01*
X0508309Y0141214D02*
X0504373Y0141214D01*
X0504373Y0141607D02*
X0508309Y0141607D01*
X0508309Y0142000D02*
X0504373Y0142000D01*
X0504373Y0142393D02*
X0508309Y0142393D01*
X0508309Y0142786D02*
X0504373Y0142786D01*
X0504070Y0118622D02*
X0504070Y0117048D01*
X0504070Y0118622D02*
X0507612Y0118622D01*
X0507612Y0117048D01*
X0504070Y0117048D01*
X0504070Y0117441D02*
X0507612Y0117441D01*
X0507612Y0117834D02*
X0504070Y0117834D01*
X0504070Y0118227D02*
X0507612Y0118227D01*
X0507612Y0118620D02*
X0504070Y0118620D01*
X0504070Y0115078D02*
X0504070Y0113504D01*
X0504070Y0115078D02*
X0507612Y0115078D01*
X0507612Y0113504D01*
X0504070Y0113504D01*
X0504070Y0113897D02*
X0507612Y0113897D01*
X0507612Y0114290D02*
X0504070Y0114290D01*
X0504070Y0114683D02*
X0507612Y0114683D01*
X0507612Y0115076D02*
X0504070Y0115076D01*
X0504070Y0111535D02*
X0504070Y0109961D01*
X0504070Y0111535D02*
X0507612Y0111535D01*
X0507612Y0109961D01*
X0504070Y0109961D01*
X0504070Y0110354D02*
X0507612Y0110354D01*
X0507612Y0110747D02*
X0504070Y0110747D01*
X0504070Y0111140D02*
X0507612Y0111140D01*
X0507612Y0111533D02*
X0504070Y0111533D01*
X0504070Y0107992D02*
X0504070Y0106418D01*
X0504070Y0107992D02*
X0507612Y0107992D01*
X0507612Y0106418D01*
X0504070Y0106418D01*
X0504070Y0106811D02*
X0507612Y0106811D01*
X0507612Y0107204D02*
X0504070Y0107204D01*
X0504070Y0107597D02*
X0507612Y0107597D01*
X0507612Y0107990D02*
X0504070Y0107990D01*
X0510763Y0107992D02*
X0510763Y0106418D01*
X0510763Y0107992D02*
X0514305Y0107992D01*
X0514305Y0106418D01*
X0510763Y0106418D01*
X0510763Y0106811D02*
X0514305Y0106811D01*
X0514305Y0107204D02*
X0510763Y0107204D01*
X0510763Y0107597D02*
X0514305Y0107597D01*
X0514305Y0107990D02*
X0510763Y0107990D01*
X0510763Y0109961D02*
X0510763Y0111535D01*
X0514305Y0111535D01*
X0514305Y0109961D01*
X0510763Y0109961D01*
X0510763Y0110354D02*
X0514305Y0110354D01*
X0514305Y0110747D02*
X0510763Y0110747D01*
X0510763Y0111140D02*
X0514305Y0111140D01*
X0514305Y0111533D02*
X0510763Y0111533D01*
X0510763Y0113504D02*
X0510763Y0115078D01*
X0514305Y0115078D01*
X0514305Y0113504D01*
X0510763Y0113504D01*
X0510763Y0113897D02*
X0514305Y0113897D01*
X0514305Y0114290D02*
X0510763Y0114290D01*
X0510763Y0114683D02*
X0514305Y0114683D01*
X0514305Y0115076D02*
X0510763Y0115076D01*
X0510763Y0117048D02*
X0510763Y0118622D01*
X0514305Y0118622D01*
X0514305Y0117048D01*
X0510763Y0117048D01*
X0510763Y0117441D02*
X0514305Y0117441D01*
X0514305Y0117834D02*
X0510763Y0117834D01*
X0510763Y0118227D02*
X0514305Y0118227D01*
X0514305Y0118620D02*
X0510763Y0118620D01*
X0545373Y0120541D02*
X0549309Y0120541D01*
X0549309Y0116999D01*
X0545373Y0116999D01*
X0545373Y0120541D01*
X0545373Y0117392D02*
X0549309Y0117392D01*
X0549309Y0117785D02*
X0545373Y0117785D01*
X0545373Y0118178D02*
X0549309Y0118178D01*
X0549309Y0118571D02*
X0545373Y0118571D01*
X0545373Y0118964D02*
X0549309Y0118964D01*
X0549309Y0119357D02*
X0545373Y0119357D01*
X0545373Y0119750D02*
X0549309Y0119750D01*
X0549309Y0120143D02*
X0545373Y0120143D01*
X0545373Y0120536D02*
X0549309Y0120536D01*
X0552066Y0120541D02*
X0556002Y0120541D01*
X0556002Y0116999D01*
X0552066Y0116999D01*
X0552066Y0120541D01*
X0552066Y0117392D02*
X0556002Y0117392D01*
X0556002Y0117785D02*
X0552066Y0117785D01*
X0552066Y0118178D02*
X0556002Y0118178D01*
X0556002Y0118571D02*
X0552066Y0118571D01*
X0552066Y0118964D02*
X0556002Y0118964D01*
X0556002Y0119357D02*
X0552066Y0119357D01*
X0552066Y0119750D02*
X0556002Y0119750D01*
X0556002Y0120143D02*
X0552066Y0120143D01*
X0552066Y0120536D02*
X0556002Y0120536D01*
X0594586Y0111637D02*
X0596160Y0111637D01*
X0596160Y0108095D01*
X0594586Y0108095D01*
X0594586Y0111637D01*
X0594586Y0108488D02*
X0596160Y0108488D01*
X0596160Y0108881D02*
X0594586Y0108881D01*
X0594586Y0109274D02*
X0596160Y0109274D01*
X0596160Y0109667D02*
X0594586Y0109667D01*
X0594586Y0110060D02*
X0596160Y0110060D01*
X0596160Y0110453D02*
X0594586Y0110453D01*
X0594586Y0110846D02*
X0596160Y0110846D01*
X0596160Y0111239D02*
X0594586Y0111239D01*
X0594586Y0111632D02*
X0596160Y0111632D01*
X0598129Y0111637D02*
X0599703Y0111637D01*
X0599703Y0108095D01*
X0598129Y0108095D01*
X0598129Y0111637D01*
X0598129Y0108488D02*
X0599703Y0108488D01*
X0599703Y0108881D02*
X0598129Y0108881D01*
X0598129Y0109274D02*
X0599703Y0109274D01*
X0599703Y0109667D02*
X0598129Y0109667D01*
X0598129Y0110060D02*
X0599703Y0110060D01*
X0599703Y0110453D02*
X0598129Y0110453D01*
X0598129Y0110846D02*
X0599703Y0110846D01*
X0599703Y0111239D02*
X0598129Y0111239D01*
X0598129Y0111632D02*
X0599703Y0111632D01*
X0601672Y0111637D02*
X0603246Y0111637D01*
X0603246Y0108095D01*
X0601672Y0108095D01*
X0601672Y0111637D01*
X0601672Y0108488D02*
X0603246Y0108488D01*
X0603246Y0108881D02*
X0601672Y0108881D01*
X0601672Y0109274D02*
X0603246Y0109274D01*
X0603246Y0109667D02*
X0601672Y0109667D01*
X0601672Y0110060D02*
X0603246Y0110060D01*
X0603246Y0110453D02*
X0601672Y0110453D01*
X0601672Y0110846D02*
X0603246Y0110846D01*
X0603246Y0111239D02*
X0601672Y0111239D01*
X0601672Y0111632D02*
X0603246Y0111632D01*
X0605216Y0111637D02*
X0606790Y0111637D01*
X0606790Y0108095D01*
X0605216Y0108095D01*
X0605216Y0111637D01*
X0605216Y0108488D02*
X0606790Y0108488D01*
X0606790Y0108881D02*
X0605216Y0108881D01*
X0605216Y0109274D02*
X0606790Y0109274D01*
X0606790Y0109667D02*
X0605216Y0109667D01*
X0605216Y0110060D02*
X0606790Y0110060D01*
X0606790Y0110453D02*
X0605216Y0110453D01*
X0605216Y0110846D02*
X0606790Y0110846D01*
X0606790Y0111239D02*
X0605216Y0111239D01*
X0605216Y0111632D02*
X0606790Y0111632D01*
X0606790Y0104944D02*
X0605216Y0104944D01*
X0606790Y0104944D02*
X0606790Y0101402D01*
X0605216Y0101402D01*
X0605216Y0104944D01*
X0605216Y0101795D02*
X0606790Y0101795D01*
X0606790Y0102188D02*
X0605216Y0102188D01*
X0605216Y0102581D02*
X0606790Y0102581D01*
X0606790Y0102974D02*
X0605216Y0102974D01*
X0605216Y0103367D02*
X0606790Y0103367D01*
X0606790Y0103760D02*
X0605216Y0103760D01*
X0605216Y0104153D02*
X0606790Y0104153D01*
X0606790Y0104546D02*
X0605216Y0104546D01*
X0605216Y0104939D02*
X0606790Y0104939D01*
X0603246Y0104944D02*
X0601672Y0104944D01*
X0603246Y0104944D02*
X0603246Y0101402D01*
X0601672Y0101402D01*
X0601672Y0104944D01*
X0601672Y0101795D02*
X0603246Y0101795D01*
X0603246Y0102188D02*
X0601672Y0102188D01*
X0601672Y0102581D02*
X0603246Y0102581D01*
X0603246Y0102974D02*
X0601672Y0102974D01*
X0601672Y0103367D02*
X0603246Y0103367D01*
X0603246Y0103760D02*
X0601672Y0103760D01*
X0601672Y0104153D02*
X0603246Y0104153D01*
X0603246Y0104546D02*
X0601672Y0104546D01*
X0601672Y0104939D02*
X0603246Y0104939D01*
X0599703Y0104944D02*
X0598129Y0104944D01*
X0599703Y0104944D02*
X0599703Y0101402D01*
X0598129Y0101402D01*
X0598129Y0104944D01*
X0598129Y0101795D02*
X0599703Y0101795D01*
X0599703Y0102188D02*
X0598129Y0102188D01*
X0598129Y0102581D02*
X0599703Y0102581D01*
X0599703Y0102974D02*
X0598129Y0102974D01*
X0598129Y0103367D02*
X0599703Y0103367D01*
X0599703Y0103760D02*
X0598129Y0103760D01*
X0598129Y0104153D02*
X0599703Y0104153D01*
X0599703Y0104546D02*
X0598129Y0104546D01*
X0598129Y0104939D02*
X0599703Y0104939D01*
X0596160Y0104944D02*
X0594586Y0104944D01*
X0596160Y0104944D02*
X0596160Y0101402D01*
X0594586Y0101402D01*
X0594586Y0104944D01*
X0594586Y0101795D02*
X0596160Y0101795D01*
X0596160Y0102188D02*
X0594586Y0102188D01*
X0594586Y0102581D02*
X0596160Y0102581D01*
X0596160Y0102974D02*
X0594586Y0102974D01*
X0594586Y0103367D02*
X0596160Y0103367D01*
X0596160Y0103760D02*
X0594586Y0103760D01*
X0594586Y0104153D02*
X0596160Y0104153D01*
X0596160Y0104546D02*
X0594586Y0104546D01*
X0594586Y0104939D02*
X0596160Y0104939D01*
X0465252Y0106249D02*
X0461316Y0106249D01*
X0461316Y0109791D01*
X0465252Y0109791D01*
X0465252Y0106249D01*
X0465252Y0106642D02*
X0461316Y0106642D01*
X0461316Y0107035D02*
X0465252Y0107035D01*
X0465252Y0107428D02*
X0461316Y0107428D01*
X0461316Y0107821D02*
X0465252Y0107821D01*
X0465252Y0108214D02*
X0461316Y0108214D01*
X0461316Y0108607D02*
X0465252Y0108607D01*
X0465252Y0109000D02*
X0461316Y0109000D01*
X0461316Y0109393D02*
X0465252Y0109393D01*
X0465252Y0109786D02*
X0461316Y0109786D01*
X0458559Y0106249D02*
X0454623Y0106249D01*
X0454623Y0109791D01*
X0458559Y0109791D01*
X0458559Y0106249D01*
X0458559Y0106642D02*
X0454623Y0106642D01*
X0454623Y0107035D02*
X0458559Y0107035D01*
X0458559Y0107428D02*
X0454623Y0107428D01*
X0454623Y0107821D02*
X0458559Y0107821D01*
X0458559Y0108214D02*
X0454623Y0108214D01*
X0454623Y0108607D02*
X0458559Y0108607D01*
X0458559Y0109000D02*
X0454623Y0109000D01*
X0454623Y0109393D02*
X0458559Y0109393D01*
X0458559Y0109786D02*
X0454623Y0109786D01*
D11*
X0468708Y0108769D02*
X0474408Y0108769D01*
X0474408Y0106809D01*
X0468708Y0106809D01*
X0468708Y0108769D01*
X0468708Y0107210D02*
X0474408Y0107210D01*
X0474408Y0107611D02*
X0468708Y0107611D01*
X0468708Y0108012D02*
X0474408Y0108012D01*
X0474408Y0108413D02*
X0468708Y0108413D01*
X0468708Y0113769D02*
X0474408Y0113769D01*
X0474408Y0111809D01*
X0468708Y0111809D01*
X0468708Y0113769D01*
X0468708Y0112210D02*
X0474408Y0112210D01*
X0474408Y0112611D02*
X0468708Y0112611D01*
X0468708Y0113012D02*
X0474408Y0113012D01*
X0474408Y0113413D02*
X0468708Y0113413D01*
X0468708Y0118769D02*
X0474408Y0118769D01*
X0474408Y0116809D01*
X0468708Y0116809D01*
X0468708Y0118769D01*
X0468708Y0117210D02*
X0474408Y0117210D01*
X0474408Y0117611D02*
X0468708Y0117611D01*
X0468708Y0118012D02*
X0474408Y0118012D01*
X0474408Y0118413D02*
X0468708Y0118413D01*
X0468708Y0123769D02*
X0474408Y0123769D01*
X0474408Y0121809D01*
X0468708Y0121809D01*
X0468708Y0123769D01*
X0468708Y0122210D02*
X0474408Y0122210D01*
X0474408Y0122611D02*
X0468708Y0122611D01*
X0468708Y0123012D02*
X0474408Y0123012D01*
X0474408Y0123413D02*
X0468708Y0123413D01*
X0489968Y0123769D02*
X0495668Y0123769D01*
X0495668Y0121809D01*
X0489968Y0121809D01*
X0489968Y0123769D01*
X0489968Y0122210D02*
X0495668Y0122210D01*
X0495668Y0122611D02*
X0489968Y0122611D01*
X0489968Y0123012D02*
X0495668Y0123012D01*
X0495668Y0123413D02*
X0489968Y0123413D01*
X0489968Y0118769D02*
X0495668Y0118769D01*
X0495668Y0116809D01*
X0489968Y0116809D01*
X0489968Y0118769D01*
X0489968Y0117210D02*
X0495668Y0117210D01*
X0495668Y0117611D02*
X0489968Y0117611D01*
X0489968Y0118012D02*
X0495668Y0118012D01*
X0495668Y0118413D02*
X0489968Y0118413D01*
X0489968Y0113769D02*
X0495668Y0113769D01*
X0495668Y0111809D01*
X0489968Y0111809D01*
X0489968Y0113769D01*
X0489968Y0112210D02*
X0495668Y0112210D01*
X0495668Y0112611D02*
X0489968Y0112611D01*
X0489968Y0113012D02*
X0495668Y0113012D01*
X0495668Y0113413D02*
X0489968Y0113413D01*
X0489968Y0108769D02*
X0495668Y0108769D01*
X0495668Y0106809D01*
X0489968Y0106809D01*
X0489968Y0108769D01*
X0489968Y0107210D02*
X0495668Y0107210D01*
X0495668Y0107611D02*
X0489968Y0107611D01*
X0489968Y0108012D02*
X0495668Y0108012D01*
X0495668Y0108413D02*
X0489968Y0108413D01*
D12*
X0450790Y0125968D02*
X0450790Y0130772D01*
X0450790Y0125968D02*
X0448986Y0125968D01*
X0448986Y0130772D01*
X0450790Y0130772D01*
X0450790Y0126363D02*
X0448986Y0126363D01*
X0448986Y0126758D02*
X0450790Y0126758D01*
X0450790Y0127153D02*
X0448986Y0127153D01*
X0448986Y0127548D02*
X0450790Y0127548D01*
X0450790Y0127943D02*
X0448986Y0127943D01*
X0448986Y0128338D02*
X0450790Y0128338D01*
X0450790Y0128733D02*
X0448986Y0128733D01*
X0448986Y0129128D02*
X0450790Y0129128D01*
X0450790Y0129523D02*
X0448986Y0129523D01*
X0448986Y0129918D02*
X0450790Y0129918D01*
X0450790Y0130313D02*
X0448986Y0130313D01*
X0448986Y0130708D02*
X0450790Y0130708D01*
X0447090Y0130772D02*
X0447090Y0125968D01*
X0445286Y0125968D01*
X0445286Y0130772D01*
X0447090Y0130772D01*
X0447090Y0126363D02*
X0445286Y0126363D01*
X0445286Y0126758D02*
X0447090Y0126758D01*
X0447090Y0127153D02*
X0445286Y0127153D01*
X0445286Y0127548D02*
X0447090Y0127548D01*
X0447090Y0127943D02*
X0445286Y0127943D01*
X0445286Y0128338D02*
X0447090Y0128338D01*
X0447090Y0128733D02*
X0445286Y0128733D01*
X0445286Y0129128D02*
X0447090Y0129128D01*
X0447090Y0129523D02*
X0445286Y0129523D01*
X0445286Y0129918D02*
X0447090Y0129918D01*
X0447090Y0130313D02*
X0445286Y0130313D01*
X0445286Y0130708D02*
X0447090Y0130708D01*
X0443390Y0130772D02*
X0443390Y0125968D01*
X0441586Y0125968D01*
X0441586Y0130772D01*
X0443390Y0130772D01*
X0443390Y0126363D02*
X0441586Y0126363D01*
X0441586Y0126758D02*
X0443390Y0126758D01*
X0443390Y0127153D02*
X0441586Y0127153D01*
X0441586Y0127548D02*
X0443390Y0127548D01*
X0443390Y0127943D02*
X0441586Y0127943D01*
X0441586Y0128338D02*
X0443390Y0128338D01*
X0443390Y0128733D02*
X0441586Y0128733D01*
X0441586Y0129128D02*
X0443390Y0129128D01*
X0443390Y0129523D02*
X0441586Y0129523D01*
X0441586Y0129918D02*
X0443390Y0129918D01*
X0443390Y0130313D02*
X0441586Y0130313D01*
X0441586Y0130708D02*
X0443390Y0130708D01*
X0443390Y0136768D02*
X0443390Y0141572D01*
X0443390Y0136768D02*
X0441586Y0136768D01*
X0441586Y0141572D01*
X0443390Y0141572D01*
X0443390Y0137163D02*
X0441586Y0137163D01*
X0441586Y0137558D02*
X0443390Y0137558D01*
X0443390Y0137953D02*
X0441586Y0137953D01*
X0441586Y0138348D02*
X0443390Y0138348D01*
X0443390Y0138743D02*
X0441586Y0138743D01*
X0441586Y0139138D02*
X0443390Y0139138D01*
X0443390Y0139533D02*
X0441586Y0139533D01*
X0441586Y0139928D02*
X0443390Y0139928D01*
X0443390Y0140323D02*
X0441586Y0140323D01*
X0441586Y0140718D02*
X0443390Y0140718D01*
X0443390Y0141113D02*
X0441586Y0141113D01*
X0441586Y0141508D02*
X0443390Y0141508D01*
X0450790Y0141572D02*
X0450790Y0136768D01*
X0448986Y0136768D01*
X0448986Y0141572D01*
X0450790Y0141572D01*
X0450790Y0137163D02*
X0448986Y0137163D01*
X0448986Y0137558D02*
X0450790Y0137558D01*
X0450790Y0137953D02*
X0448986Y0137953D01*
X0448986Y0138348D02*
X0450790Y0138348D01*
X0450790Y0138743D02*
X0448986Y0138743D01*
X0448986Y0139138D02*
X0450790Y0139138D01*
X0450790Y0139533D02*
X0448986Y0139533D01*
X0448986Y0139928D02*
X0450790Y0139928D01*
X0450790Y0140323D02*
X0448986Y0140323D01*
X0448986Y0140718D02*
X0450790Y0140718D01*
X0450790Y0141113D02*
X0448986Y0141113D01*
X0448986Y0141508D02*
X0450790Y0141508D01*
X0456636Y0160172D02*
X0462240Y0160172D01*
X0462240Y0158368D01*
X0456636Y0158368D01*
X0456636Y0160172D01*
X0456636Y0158763D02*
X0462240Y0158763D01*
X0462240Y0159158D02*
X0456636Y0159158D01*
X0456636Y0159553D02*
X0462240Y0159553D01*
X0462240Y0159948D02*
X0456636Y0159948D01*
X0453740Y0164172D02*
X0448136Y0164172D01*
X0453740Y0164172D02*
X0453740Y0162368D01*
X0448136Y0162368D01*
X0448136Y0164172D01*
X0448136Y0162763D02*
X0453740Y0162763D01*
X0453740Y0163158D02*
X0448136Y0163158D01*
X0448136Y0163553D02*
X0453740Y0163553D01*
X0453740Y0163948D02*
X0448136Y0163948D01*
X0456636Y0168172D02*
X0462240Y0168172D01*
X0462240Y0166368D01*
X0456636Y0166368D01*
X0456636Y0168172D01*
X0456636Y0166763D02*
X0462240Y0166763D01*
X0462240Y0167158D02*
X0456636Y0167158D01*
X0456636Y0167553D02*
X0462240Y0167553D01*
X0462240Y0167948D02*
X0456636Y0167948D01*
X0560136Y0140672D02*
X0560136Y0139968D01*
X0560136Y0140672D02*
X0565540Y0140672D01*
X0565540Y0139968D01*
X0560136Y0139968D01*
X0560136Y0140363D02*
X0565540Y0140363D01*
X0560136Y0138772D02*
X0560136Y0138068D01*
X0560136Y0138772D02*
X0565540Y0138772D01*
X0565540Y0138068D01*
X0560136Y0138068D01*
X0560136Y0138463D02*
X0565540Y0138463D01*
X0560136Y0136772D02*
X0560136Y0136068D01*
X0560136Y0136772D02*
X0565540Y0136772D01*
X0565540Y0136068D01*
X0560136Y0136068D01*
X0560136Y0136463D02*
X0565540Y0136463D01*
X0560136Y0134772D02*
X0560136Y0134068D01*
X0560136Y0134772D02*
X0565540Y0134772D01*
X0565540Y0134068D01*
X0560136Y0134068D01*
X0560136Y0134463D02*
X0565540Y0134463D01*
X0560136Y0132872D02*
X0560136Y0132168D01*
X0560136Y0132872D02*
X0565540Y0132872D01*
X0565540Y0132168D01*
X0560136Y0132168D01*
X0560136Y0132563D02*
X0565540Y0132563D01*
X0560136Y0130872D02*
X0560136Y0130168D01*
X0560136Y0130872D02*
X0565540Y0130872D01*
X0565540Y0130168D01*
X0560136Y0130168D01*
X0560136Y0130563D02*
X0565540Y0130563D01*
X0560136Y0128872D02*
X0560136Y0128168D01*
X0560136Y0128872D02*
X0565540Y0128872D01*
X0565540Y0128168D01*
X0560136Y0128168D01*
X0560136Y0128563D02*
X0565540Y0128563D01*
X0560136Y0126872D02*
X0560136Y0126168D01*
X0560136Y0126872D02*
X0565540Y0126872D01*
X0565540Y0126168D01*
X0560136Y0126168D01*
X0560136Y0126563D02*
X0565540Y0126563D01*
X0560136Y0124972D02*
X0560136Y0124268D01*
X0560136Y0124972D02*
X0565540Y0124972D01*
X0565540Y0124268D01*
X0560136Y0124268D01*
X0560136Y0124663D02*
X0565540Y0124663D01*
X0560136Y0122972D02*
X0560136Y0122268D01*
X0560136Y0122972D02*
X0565540Y0122972D01*
X0565540Y0122268D01*
X0560136Y0122268D01*
X0560136Y0122663D02*
X0565540Y0122663D01*
X0560136Y0120972D02*
X0560136Y0120268D01*
X0560136Y0120972D02*
X0565540Y0120972D01*
X0565540Y0120268D01*
X0560136Y0120268D01*
X0560136Y0120663D02*
X0565540Y0120663D01*
X0560136Y0119072D02*
X0560136Y0118368D01*
X0560136Y0119072D02*
X0565540Y0119072D01*
X0565540Y0118368D01*
X0560136Y0118368D01*
X0560136Y0118763D02*
X0565540Y0118763D01*
X0568286Y0115622D02*
X0568990Y0115622D01*
X0568990Y0110218D01*
X0568286Y0110218D01*
X0568286Y0115622D01*
X0568286Y0110613D02*
X0568990Y0110613D01*
X0568990Y0111008D02*
X0568286Y0111008D01*
X0568286Y0111403D02*
X0568990Y0111403D01*
X0568990Y0111798D02*
X0568286Y0111798D01*
X0568286Y0112193D02*
X0568990Y0112193D01*
X0568990Y0112588D02*
X0568286Y0112588D01*
X0568286Y0112983D02*
X0568990Y0112983D01*
X0568990Y0113378D02*
X0568286Y0113378D01*
X0568286Y0113773D02*
X0568990Y0113773D01*
X0568990Y0114168D02*
X0568286Y0114168D01*
X0568286Y0114563D02*
X0568990Y0114563D01*
X0568990Y0114958D02*
X0568286Y0114958D01*
X0568286Y0115353D02*
X0568990Y0115353D01*
X0570186Y0115622D02*
X0570890Y0115622D01*
X0570890Y0110218D01*
X0570186Y0110218D01*
X0570186Y0115622D01*
X0570186Y0110613D02*
X0570890Y0110613D01*
X0570890Y0111008D02*
X0570186Y0111008D01*
X0570186Y0111403D02*
X0570890Y0111403D01*
X0570890Y0111798D02*
X0570186Y0111798D01*
X0570186Y0112193D02*
X0570890Y0112193D01*
X0570890Y0112588D02*
X0570186Y0112588D01*
X0570186Y0112983D02*
X0570890Y0112983D01*
X0570890Y0113378D02*
X0570186Y0113378D01*
X0570186Y0113773D02*
X0570890Y0113773D01*
X0570890Y0114168D02*
X0570186Y0114168D01*
X0570186Y0114563D02*
X0570890Y0114563D01*
X0570890Y0114958D02*
X0570186Y0114958D01*
X0570186Y0115353D02*
X0570890Y0115353D01*
X0572186Y0115622D02*
X0572890Y0115622D01*
X0572890Y0110218D01*
X0572186Y0110218D01*
X0572186Y0115622D01*
X0572186Y0110613D02*
X0572890Y0110613D01*
X0572890Y0111008D02*
X0572186Y0111008D01*
X0572186Y0111403D02*
X0572890Y0111403D01*
X0572890Y0111798D02*
X0572186Y0111798D01*
X0572186Y0112193D02*
X0572890Y0112193D01*
X0572890Y0112588D02*
X0572186Y0112588D01*
X0572186Y0112983D02*
X0572890Y0112983D01*
X0572890Y0113378D02*
X0572186Y0113378D01*
X0572186Y0113773D02*
X0572890Y0113773D01*
X0572890Y0114168D02*
X0572186Y0114168D01*
X0572186Y0114563D02*
X0572890Y0114563D01*
X0572890Y0114958D02*
X0572186Y0114958D01*
X0572186Y0115353D02*
X0572890Y0115353D01*
X0574186Y0115622D02*
X0574890Y0115622D01*
X0574890Y0110218D01*
X0574186Y0110218D01*
X0574186Y0115622D01*
X0574186Y0110613D02*
X0574890Y0110613D01*
X0574890Y0111008D02*
X0574186Y0111008D01*
X0574186Y0111403D02*
X0574890Y0111403D01*
X0574890Y0111798D02*
X0574186Y0111798D01*
X0574186Y0112193D02*
X0574890Y0112193D01*
X0574890Y0112588D02*
X0574186Y0112588D01*
X0574186Y0112983D02*
X0574890Y0112983D01*
X0574890Y0113378D02*
X0574186Y0113378D01*
X0574186Y0113773D02*
X0574890Y0113773D01*
X0574890Y0114168D02*
X0574186Y0114168D01*
X0574186Y0114563D02*
X0574890Y0114563D01*
X0574890Y0114958D02*
X0574186Y0114958D01*
X0574186Y0115353D02*
X0574890Y0115353D01*
X0576086Y0115622D02*
X0576790Y0115622D01*
X0576790Y0110218D01*
X0576086Y0110218D01*
X0576086Y0115622D01*
X0576086Y0110613D02*
X0576790Y0110613D01*
X0576790Y0111008D02*
X0576086Y0111008D01*
X0576086Y0111403D02*
X0576790Y0111403D01*
X0576790Y0111798D02*
X0576086Y0111798D01*
X0576086Y0112193D02*
X0576790Y0112193D01*
X0576790Y0112588D02*
X0576086Y0112588D01*
X0576086Y0112983D02*
X0576790Y0112983D01*
X0576790Y0113378D02*
X0576086Y0113378D01*
X0576086Y0113773D02*
X0576790Y0113773D01*
X0576790Y0114168D02*
X0576086Y0114168D01*
X0576086Y0114563D02*
X0576790Y0114563D01*
X0576790Y0114958D02*
X0576086Y0114958D01*
X0576086Y0115353D02*
X0576790Y0115353D01*
X0578086Y0115622D02*
X0578790Y0115622D01*
X0578790Y0110218D01*
X0578086Y0110218D01*
X0578086Y0115622D01*
X0578086Y0110613D02*
X0578790Y0110613D01*
X0578790Y0111008D02*
X0578086Y0111008D01*
X0578086Y0111403D02*
X0578790Y0111403D01*
X0578790Y0111798D02*
X0578086Y0111798D01*
X0578086Y0112193D02*
X0578790Y0112193D01*
X0578790Y0112588D02*
X0578086Y0112588D01*
X0578086Y0112983D02*
X0578790Y0112983D01*
X0578790Y0113378D02*
X0578086Y0113378D01*
X0578086Y0113773D02*
X0578790Y0113773D01*
X0578790Y0114168D02*
X0578086Y0114168D01*
X0578086Y0114563D02*
X0578790Y0114563D01*
X0578790Y0114958D02*
X0578086Y0114958D01*
X0578086Y0115353D02*
X0578790Y0115353D01*
X0580086Y0115622D02*
X0580790Y0115622D01*
X0580790Y0110218D01*
X0580086Y0110218D01*
X0580086Y0115622D01*
X0580086Y0110613D02*
X0580790Y0110613D01*
X0580790Y0111008D02*
X0580086Y0111008D01*
X0580086Y0111403D02*
X0580790Y0111403D01*
X0580790Y0111798D02*
X0580086Y0111798D01*
X0580086Y0112193D02*
X0580790Y0112193D01*
X0580790Y0112588D02*
X0580086Y0112588D01*
X0580086Y0112983D02*
X0580790Y0112983D01*
X0580790Y0113378D02*
X0580086Y0113378D01*
X0580086Y0113773D02*
X0580790Y0113773D01*
X0580790Y0114168D02*
X0580086Y0114168D01*
X0580086Y0114563D02*
X0580790Y0114563D01*
X0580790Y0114958D02*
X0580086Y0114958D01*
X0580086Y0115353D02*
X0580790Y0115353D01*
X0582086Y0115622D02*
X0582790Y0115622D01*
X0582790Y0110218D01*
X0582086Y0110218D01*
X0582086Y0115622D01*
X0582086Y0110613D02*
X0582790Y0110613D01*
X0582790Y0111008D02*
X0582086Y0111008D01*
X0582086Y0111403D02*
X0582790Y0111403D01*
X0582790Y0111798D02*
X0582086Y0111798D01*
X0582086Y0112193D02*
X0582790Y0112193D01*
X0582790Y0112588D02*
X0582086Y0112588D01*
X0582086Y0112983D02*
X0582790Y0112983D01*
X0582790Y0113378D02*
X0582086Y0113378D01*
X0582086Y0113773D02*
X0582790Y0113773D01*
X0582790Y0114168D02*
X0582086Y0114168D01*
X0582086Y0114563D02*
X0582790Y0114563D01*
X0582790Y0114958D02*
X0582086Y0114958D01*
X0582086Y0115353D02*
X0582790Y0115353D01*
X0583986Y0115622D02*
X0584690Y0115622D01*
X0584690Y0110218D01*
X0583986Y0110218D01*
X0583986Y0115622D01*
X0583986Y0110613D02*
X0584690Y0110613D01*
X0584690Y0111008D02*
X0583986Y0111008D01*
X0583986Y0111403D02*
X0584690Y0111403D01*
X0584690Y0111798D02*
X0583986Y0111798D01*
X0583986Y0112193D02*
X0584690Y0112193D01*
X0584690Y0112588D02*
X0583986Y0112588D01*
X0583986Y0112983D02*
X0584690Y0112983D01*
X0584690Y0113378D02*
X0583986Y0113378D01*
X0583986Y0113773D02*
X0584690Y0113773D01*
X0584690Y0114168D02*
X0583986Y0114168D01*
X0583986Y0114563D02*
X0584690Y0114563D01*
X0584690Y0114958D02*
X0583986Y0114958D01*
X0583986Y0115353D02*
X0584690Y0115353D01*
X0585986Y0115622D02*
X0586690Y0115622D01*
X0586690Y0110218D01*
X0585986Y0110218D01*
X0585986Y0115622D01*
X0585986Y0110613D02*
X0586690Y0110613D01*
X0586690Y0111008D02*
X0585986Y0111008D01*
X0585986Y0111403D02*
X0586690Y0111403D01*
X0586690Y0111798D02*
X0585986Y0111798D01*
X0585986Y0112193D02*
X0586690Y0112193D01*
X0586690Y0112588D02*
X0585986Y0112588D01*
X0585986Y0112983D02*
X0586690Y0112983D01*
X0586690Y0113378D02*
X0585986Y0113378D01*
X0585986Y0113773D02*
X0586690Y0113773D01*
X0586690Y0114168D02*
X0585986Y0114168D01*
X0585986Y0114563D02*
X0586690Y0114563D01*
X0586690Y0114958D02*
X0585986Y0114958D01*
X0585986Y0115353D02*
X0586690Y0115353D01*
X0587986Y0115622D02*
X0588690Y0115622D01*
X0588690Y0110218D01*
X0587986Y0110218D01*
X0587986Y0115622D01*
X0587986Y0110613D02*
X0588690Y0110613D01*
X0588690Y0111008D02*
X0587986Y0111008D01*
X0587986Y0111403D02*
X0588690Y0111403D01*
X0588690Y0111798D02*
X0587986Y0111798D01*
X0587986Y0112193D02*
X0588690Y0112193D01*
X0588690Y0112588D02*
X0587986Y0112588D01*
X0587986Y0112983D02*
X0588690Y0112983D01*
X0588690Y0113378D02*
X0587986Y0113378D01*
X0587986Y0113773D02*
X0588690Y0113773D01*
X0588690Y0114168D02*
X0587986Y0114168D01*
X0587986Y0114563D02*
X0588690Y0114563D01*
X0588690Y0114958D02*
X0587986Y0114958D01*
X0587986Y0115353D02*
X0588690Y0115353D01*
X0589886Y0115622D02*
X0590590Y0115622D01*
X0590590Y0110218D01*
X0589886Y0110218D01*
X0589886Y0115622D01*
X0589886Y0110613D02*
X0590590Y0110613D01*
X0590590Y0111008D02*
X0589886Y0111008D01*
X0589886Y0111403D02*
X0590590Y0111403D01*
X0590590Y0111798D02*
X0589886Y0111798D01*
X0589886Y0112193D02*
X0590590Y0112193D01*
X0590590Y0112588D02*
X0589886Y0112588D01*
X0589886Y0112983D02*
X0590590Y0112983D01*
X0590590Y0113378D02*
X0589886Y0113378D01*
X0589886Y0113773D02*
X0590590Y0113773D01*
X0590590Y0114168D02*
X0589886Y0114168D01*
X0589886Y0114563D02*
X0590590Y0114563D01*
X0590590Y0114958D02*
X0589886Y0114958D01*
X0589886Y0115353D02*
X0590590Y0115353D01*
X0593336Y0118368D02*
X0593336Y0119072D01*
X0598740Y0119072D01*
X0598740Y0118368D01*
X0593336Y0118368D01*
X0593336Y0118763D02*
X0598740Y0118763D01*
X0593336Y0120268D02*
X0593336Y0120972D01*
X0598740Y0120972D01*
X0598740Y0120268D01*
X0593336Y0120268D01*
X0593336Y0120663D02*
X0598740Y0120663D01*
X0593336Y0122268D02*
X0593336Y0122972D01*
X0598740Y0122972D01*
X0598740Y0122268D01*
X0593336Y0122268D01*
X0593336Y0122663D02*
X0598740Y0122663D01*
X0593336Y0124268D02*
X0593336Y0124972D01*
X0598740Y0124972D01*
X0598740Y0124268D01*
X0593336Y0124268D01*
X0593336Y0124663D02*
X0598740Y0124663D01*
X0593336Y0126168D02*
X0593336Y0126872D01*
X0598740Y0126872D01*
X0598740Y0126168D01*
X0593336Y0126168D01*
X0593336Y0126563D02*
X0598740Y0126563D01*
X0593336Y0128168D02*
X0593336Y0128872D01*
X0598740Y0128872D01*
X0598740Y0128168D01*
X0593336Y0128168D01*
X0593336Y0128563D02*
X0598740Y0128563D01*
X0593336Y0130168D02*
X0593336Y0130872D01*
X0598740Y0130872D01*
X0598740Y0130168D01*
X0593336Y0130168D01*
X0593336Y0130563D02*
X0598740Y0130563D01*
X0593336Y0132168D02*
X0593336Y0132872D01*
X0598740Y0132872D01*
X0598740Y0132168D01*
X0593336Y0132168D01*
X0593336Y0132563D02*
X0598740Y0132563D01*
X0593336Y0134068D02*
X0593336Y0134772D01*
X0598740Y0134772D01*
X0598740Y0134068D01*
X0593336Y0134068D01*
X0593336Y0134463D02*
X0598740Y0134463D01*
X0593336Y0136068D02*
X0593336Y0136772D01*
X0598740Y0136772D01*
X0598740Y0136068D01*
X0593336Y0136068D01*
X0593336Y0136463D02*
X0598740Y0136463D01*
X0593336Y0138068D02*
X0593336Y0138772D01*
X0598740Y0138772D01*
X0598740Y0138068D01*
X0593336Y0138068D01*
X0593336Y0138463D02*
X0598740Y0138463D01*
X0593336Y0139968D02*
X0593336Y0140672D01*
X0598740Y0140672D01*
X0598740Y0139968D01*
X0593336Y0139968D01*
X0593336Y0140363D02*
X0598740Y0140363D01*
X0590590Y0148822D02*
X0589886Y0148822D01*
X0590590Y0148822D02*
X0590590Y0143418D01*
X0589886Y0143418D01*
X0589886Y0148822D01*
X0589886Y0143813D02*
X0590590Y0143813D01*
X0590590Y0144208D02*
X0589886Y0144208D01*
X0589886Y0144603D02*
X0590590Y0144603D01*
X0590590Y0144998D02*
X0589886Y0144998D01*
X0589886Y0145393D02*
X0590590Y0145393D01*
X0590590Y0145788D02*
X0589886Y0145788D01*
X0589886Y0146183D02*
X0590590Y0146183D01*
X0590590Y0146578D02*
X0589886Y0146578D01*
X0589886Y0146973D02*
X0590590Y0146973D01*
X0590590Y0147368D02*
X0589886Y0147368D01*
X0589886Y0147763D02*
X0590590Y0147763D01*
X0590590Y0148158D02*
X0589886Y0148158D01*
X0589886Y0148553D02*
X0590590Y0148553D01*
X0588690Y0148822D02*
X0587986Y0148822D01*
X0588690Y0148822D02*
X0588690Y0143418D01*
X0587986Y0143418D01*
X0587986Y0148822D01*
X0587986Y0143813D02*
X0588690Y0143813D01*
X0588690Y0144208D02*
X0587986Y0144208D01*
X0587986Y0144603D02*
X0588690Y0144603D01*
X0588690Y0144998D02*
X0587986Y0144998D01*
X0587986Y0145393D02*
X0588690Y0145393D01*
X0588690Y0145788D02*
X0587986Y0145788D01*
X0587986Y0146183D02*
X0588690Y0146183D01*
X0588690Y0146578D02*
X0587986Y0146578D01*
X0587986Y0146973D02*
X0588690Y0146973D01*
X0588690Y0147368D02*
X0587986Y0147368D01*
X0587986Y0147763D02*
X0588690Y0147763D01*
X0588690Y0148158D02*
X0587986Y0148158D01*
X0587986Y0148553D02*
X0588690Y0148553D01*
X0586690Y0148822D02*
X0585986Y0148822D01*
X0586690Y0148822D02*
X0586690Y0143418D01*
X0585986Y0143418D01*
X0585986Y0148822D01*
X0585986Y0143813D02*
X0586690Y0143813D01*
X0586690Y0144208D02*
X0585986Y0144208D01*
X0585986Y0144603D02*
X0586690Y0144603D01*
X0586690Y0144998D02*
X0585986Y0144998D01*
X0585986Y0145393D02*
X0586690Y0145393D01*
X0586690Y0145788D02*
X0585986Y0145788D01*
X0585986Y0146183D02*
X0586690Y0146183D01*
X0586690Y0146578D02*
X0585986Y0146578D01*
X0585986Y0146973D02*
X0586690Y0146973D01*
X0586690Y0147368D02*
X0585986Y0147368D01*
X0585986Y0147763D02*
X0586690Y0147763D01*
X0586690Y0148158D02*
X0585986Y0148158D01*
X0585986Y0148553D02*
X0586690Y0148553D01*
X0584690Y0148822D02*
X0583986Y0148822D01*
X0584690Y0148822D02*
X0584690Y0143418D01*
X0583986Y0143418D01*
X0583986Y0148822D01*
X0583986Y0143813D02*
X0584690Y0143813D01*
X0584690Y0144208D02*
X0583986Y0144208D01*
X0583986Y0144603D02*
X0584690Y0144603D01*
X0584690Y0144998D02*
X0583986Y0144998D01*
X0583986Y0145393D02*
X0584690Y0145393D01*
X0584690Y0145788D02*
X0583986Y0145788D01*
X0583986Y0146183D02*
X0584690Y0146183D01*
X0584690Y0146578D02*
X0583986Y0146578D01*
X0583986Y0146973D02*
X0584690Y0146973D01*
X0584690Y0147368D02*
X0583986Y0147368D01*
X0583986Y0147763D02*
X0584690Y0147763D01*
X0584690Y0148158D02*
X0583986Y0148158D01*
X0583986Y0148553D02*
X0584690Y0148553D01*
X0582790Y0148822D02*
X0582086Y0148822D01*
X0582790Y0148822D02*
X0582790Y0143418D01*
X0582086Y0143418D01*
X0582086Y0148822D01*
X0582086Y0143813D02*
X0582790Y0143813D01*
X0582790Y0144208D02*
X0582086Y0144208D01*
X0582086Y0144603D02*
X0582790Y0144603D01*
X0582790Y0144998D02*
X0582086Y0144998D01*
X0582086Y0145393D02*
X0582790Y0145393D01*
X0582790Y0145788D02*
X0582086Y0145788D01*
X0582086Y0146183D02*
X0582790Y0146183D01*
X0582790Y0146578D02*
X0582086Y0146578D01*
X0582086Y0146973D02*
X0582790Y0146973D01*
X0582790Y0147368D02*
X0582086Y0147368D01*
X0582086Y0147763D02*
X0582790Y0147763D01*
X0582790Y0148158D02*
X0582086Y0148158D01*
X0582086Y0148553D02*
X0582790Y0148553D01*
X0580790Y0148822D02*
X0580086Y0148822D01*
X0580790Y0148822D02*
X0580790Y0143418D01*
X0580086Y0143418D01*
X0580086Y0148822D01*
X0580086Y0143813D02*
X0580790Y0143813D01*
X0580790Y0144208D02*
X0580086Y0144208D01*
X0580086Y0144603D02*
X0580790Y0144603D01*
X0580790Y0144998D02*
X0580086Y0144998D01*
X0580086Y0145393D02*
X0580790Y0145393D01*
X0580790Y0145788D02*
X0580086Y0145788D01*
X0580086Y0146183D02*
X0580790Y0146183D01*
X0580790Y0146578D02*
X0580086Y0146578D01*
X0580086Y0146973D02*
X0580790Y0146973D01*
X0580790Y0147368D02*
X0580086Y0147368D01*
X0580086Y0147763D02*
X0580790Y0147763D01*
X0580790Y0148158D02*
X0580086Y0148158D01*
X0580086Y0148553D02*
X0580790Y0148553D01*
X0578790Y0148822D02*
X0578086Y0148822D01*
X0578790Y0148822D02*
X0578790Y0143418D01*
X0578086Y0143418D01*
X0578086Y0148822D01*
X0578086Y0143813D02*
X0578790Y0143813D01*
X0578790Y0144208D02*
X0578086Y0144208D01*
X0578086Y0144603D02*
X0578790Y0144603D01*
X0578790Y0144998D02*
X0578086Y0144998D01*
X0578086Y0145393D02*
X0578790Y0145393D01*
X0578790Y0145788D02*
X0578086Y0145788D01*
X0578086Y0146183D02*
X0578790Y0146183D01*
X0578790Y0146578D02*
X0578086Y0146578D01*
X0578086Y0146973D02*
X0578790Y0146973D01*
X0578790Y0147368D02*
X0578086Y0147368D01*
X0578086Y0147763D02*
X0578790Y0147763D01*
X0578790Y0148158D02*
X0578086Y0148158D01*
X0578086Y0148553D02*
X0578790Y0148553D01*
X0576790Y0148822D02*
X0576086Y0148822D01*
X0576790Y0148822D02*
X0576790Y0143418D01*
X0576086Y0143418D01*
X0576086Y0148822D01*
X0576086Y0143813D02*
X0576790Y0143813D01*
X0576790Y0144208D02*
X0576086Y0144208D01*
X0576086Y0144603D02*
X0576790Y0144603D01*
X0576790Y0144998D02*
X0576086Y0144998D01*
X0576086Y0145393D02*
X0576790Y0145393D01*
X0576790Y0145788D02*
X0576086Y0145788D01*
X0576086Y0146183D02*
X0576790Y0146183D01*
X0576790Y0146578D02*
X0576086Y0146578D01*
X0576086Y0146973D02*
X0576790Y0146973D01*
X0576790Y0147368D02*
X0576086Y0147368D01*
X0576086Y0147763D02*
X0576790Y0147763D01*
X0576790Y0148158D02*
X0576086Y0148158D01*
X0576086Y0148553D02*
X0576790Y0148553D01*
X0574890Y0148822D02*
X0574186Y0148822D01*
X0574890Y0148822D02*
X0574890Y0143418D01*
X0574186Y0143418D01*
X0574186Y0148822D01*
X0574186Y0143813D02*
X0574890Y0143813D01*
X0574890Y0144208D02*
X0574186Y0144208D01*
X0574186Y0144603D02*
X0574890Y0144603D01*
X0574890Y0144998D02*
X0574186Y0144998D01*
X0574186Y0145393D02*
X0574890Y0145393D01*
X0574890Y0145788D02*
X0574186Y0145788D01*
X0574186Y0146183D02*
X0574890Y0146183D01*
X0574890Y0146578D02*
X0574186Y0146578D01*
X0574186Y0146973D02*
X0574890Y0146973D01*
X0574890Y0147368D02*
X0574186Y0147368D01*
X0574186Y0147763D02*
X0574890Y0147763D01*
X0574890Y0148158D02*
X0574186Y0148158D01*
X0574186Y0148553D02*
X0574890Y0148553D01*
X0572890Y0148822D02*
X0572186Y0148822D01*
X0572890Y0148822D02*
X0572890Y0143418D01*
X0572186Y0143418D01*
X0572186Y0148822D01*
X0572186Y0143813D02*
X0572890Y0143813D01*
X0572890Y0144208D02*
X0572186Y0144208D01*
X0572186Y0144603D02*
X0572890Y0144603D01*
X0572890Y0144998D02*
X0572186Y0144998D01*
X0572186Y0145393D02*
X0572890Y0145393D01*
X0572890Y0145788D02*
X0572186Y0145788D01*
X0572186Y0146183D02*
X0572890Y0146183D01*
X0572890Y0146578D02*
X0572186Y0146578D01*
X0572186Y0146973D02*
X0572890Y0146973D01*
X0572890Y0147368D02*
X0572186Y0147368D01*
X0572186Y0147763D02*
X0572890Y0147763D01*
X0572890Y0148158D02*
X0572186Y0148158D01*
X0572186Y0148553D02*
X0572890Y0148553D01*
X0570890Y0148822D02*
X0570186Y0148822D01*
X0570890Y0148822D02*
X0570890Y0143418D01*
X0570186Y0143418D01*
X0570186Y0148822D01*
X0570186Y0143813D02*
X0570890Y0143813D01*
X0570890Y0144208D02*
X0570186Y0144208D01*
X0570186Y0144603D02*
X0570890Y0144603D01*
X0570890Y0144998D02*
X0570186Y0144998D01*
X0570186Y0145393D02*
X0570890Y0145393D01*
X0570890Y0145788D02*
X0570186Y0145788D01*
X0570186Y0146183D02*
X0570890Y0146183D01*
X0570890Y0146578D02*
X0570186Y0146578D01*
X0570186Y0146973D02*
X0570890Y0146973D01*
X0570890Y0147368D02*
X0570186Y0147368D01*
X0570186Y0147763D02*
X0570890Y0147763D01*
X0570890Y0148158D02*
X0570186Y0148158D01*
X0570186Y0148553D02*
X0570890Y0148553D01*
X0568990Y0148822D02*
X0568286Y0148822D01*
X0568990Y0148822D02*
X0568990Y0143418D01*
X0568286Y0143418D01*
X0568286Y0148822D01*
X0568286Y0143813D02*
X0568990Y0143813D01*
X0568990Y0144208D02*
X0568286Y0144208D01*
X0568286Y0144603D02*
X0568990Y0144603D01*
X0568990Y0144998D02*
X0568286Y0144998D01*
X0568286Y0145393D02*
X0568990Y0145393D01*
X0568990Y0145788D02*
X0568286Y0145788D01*
X0568286Y0146183D02*
X0568990Y0146183D01*
X0568990Y0146578D02*
X0568286Y0146578D01*
X0568286Y0146973D02*
X0568990Y0146973D01*
X0568990Y0147368D02*
X0568286Y0147368D01*
X0568286Y0147763D02*
X0568990Y0147763D01*
X0568990Y0148158D02*
X0568286Y0148158D01*
X0568286Y0148553D02*
X0568990Y0148553D01*
X0598136Y0272118D02*
X0603740Y0272118D01*
X0598136Y0272118D02*
X0598136Y0273922D01*
X0603740Y0273922D01*
X0603740Y0272118D01*
X0603740Y0272513D02*
X0598136Y0272513D01*
X0598136Y0272908D02*
X0603740Y0272908D01*
X0603740Y0273303D02*
X0598136Y0273303D01*
X0598136Y0273698D02*
X0603740Y0273698D01*
X0606636Y0276118D02*
X0612240Y0276118D01*
X0606636Y0276118D02*
X0606636Y0277922D01*
X0612240Y0277922D01*
X0612240Y0276118D01*
X0612240Y0276513D02*
X0606636Y0276513D01*
X0606636Y0276908D02*
X0612240Y0276908D01*
X0612240Y0277303D02*
X0606636Y0277303D01*
X0606636Y0277698D02*
X0612240Y0277698D01*
X0603740Y0280118D02*
X0598136Y0280118D01*
X0598136Y0281922D01*
X0603740Y0281922D01*
X0603740Y0280118D01*
X0603740Y0280513D02*
X0598136Y0280513D01*
X0598136Y0280908D02*
X0603740Y0280908D01*
X0603740Y0281303D02*
X0598136Y0281303D01*
X0598136Y0281698D02*
X0603740Y0281698D01*
X0573740Y0286672D02*
X0568136Y0286672D01*
X0573740Y0286672D02*
X0573740Y0284868D01*
X0568136Y0284868D01*
X0568136Y0286672D01*
X0568136Y0285263D02*
X0573740Y0285263D01*
X0573740Y0285658D02*
X0568136Y0285658D01*
X0568136Y0286053D02*
X0573740Y0286053D01*
X0573740Y0286448D02*
X0568136Y0286448D01*
X0565240Y0290672D02*
X0559636Y0290672D01*
X0565240Y0290672D02*
X0565240Y0288868D01*
X0559636Y0288868D01*
X0559636Y0290672D01*
X0559636Y0289263D02*
X0565240Y0289263D01*
X0565240Y0289658D02*
X0559636Y0289658D01*
X0559636Y0290053D02*
X0565240Y0290053D01*
X0565240Y0290448D02*
X0559636Y0290448D01*
X0568136Y0294672D02*
X0573740Y0294672D01*
X0573740Y0292868D01*
X0568136Y0292868D01*
X0568136Y0294672D01*
X0568136Y0293263D02*
X0573740Y0293263D01*
X0573740Y0293658D02*
X0568136Y0293658D01*
X0568136Y0294053D02*
X0573740Y0294053D01*
X0573740Y0294448D02*
X0568136Y0294448D01*
X0598136Y0410618D02*
X0603740Y0410618D01*
X0598136Y0410618D02*
X0598136Y0412422D01*
X0603740Y0412422D01*
X0603740Y0410618D01*
X0603740Y0411013D02*
X0598136Y0411013D01*
X0598136Y0411408D02*
X0603740Y0411408D01*
X0603740Y0411803D02*
X0598136Y0411803D01*
X0598136Y0412198D02*
X0603740Y0412198D01*
X0606636Y0414618D02*
X0612240Y0414618D01*
X0606636Y0414618D02*
X0606636Y0416422D01*
X0612240Y0416422D01*
X0612240Y0414618D01*
X0612240Y0415013D02*
X0606636Y0415013D01*
X0606636Y0415408D02*
X0612240Y0415408D01*
X0612240Y0415803D02*
X0606636Y0415803D01*
X0606636Y0416198D02*
X0612240Y0416198D01*
X0603740Y0418618D02*
X0598136Y0418618D01*
X0598136Y0420422D01*
X0603740Y0420422D01*
X0603740Y0418618D01*
X0603740Y0419013D02*
X0598136Y0419013D01*
X0598136Y0419408D02*
X0603740Y0419408D01*
X0603740Y0419803D02*
X0598136Y0419803D01*
X0598136Y0420198D02*
X0603740Y0420198D01*
X0472240Y0414618D02*
X0466636Y0414618D01*
X0466636Y0416422D01*
X0472240Y0416422D01*
X0472240Y0414618D01*
X0472240Y0415013D02*
X0466636Y0415013D01*
X0466636Y0415408D02*
X0472240Y0415408D01*
X0472240Y0415803D02*
X0466636Y0415803D01*
X0466636Y0416198D02*
X0472240Y0416198D01*
X0463740Y0418618D02*
X0458136Y0418618D01*
X0458136Y0420422D01*
X0463740Y0420422D01*
X0463740Y0418618D01*
X0463740Y0419013D02*
X0458136Y0419013D01*
X0458136Y0419408D02*
X0463740Y0419408D01*
X0463740Y0419803D02*
X0458136Y0419803D01*
X0458136Y0420198D02*
X0463740Y0420198D01*
X0463740Y0410618D02*
X0458136Y0410618D01*
X0458136Y0412422D01*
X0463740Y0412422D01*
X0463740Y0410618D01*
X0463740Y0411013D02*
X0458136Y0411013D01*
X0458136Y0411408D02*
X0463740Y0411408D01*
X0463740Y0411803D02*
X0458136Y0411803D01*
X0458136Y0412198D02*
X0463740Y0412198D01*
X0332240Y0414618D02*
X0326636Y0414618D01*
X0326636Y0416422D01*
X0332240Y0416422D01*
X0332240Y0414618D01*
X0332240Y0415013D02*
X0326636Y0415013D01*
X0326636Y0415408D02*
X0332240Y0415408D01*
X0332240Y0415803D02*
X0326636Y0415803D01*
X0326636Y0416198D02*
X0332240Y0416198D01*
X0323740Y0418618D02*
X0318136Y0418618D01*
X0318136Y0420422D01*
X0323740Y0420422D01*
X0323740Y0418618D01*
X0323740Y0419013D02*
X0318136Y0419013D01*
X0318136Y0419408D02*
X0323740Y0419408D01*
X0323740Y0419803D02*
X0318136Y0419803D01*
X0318136Y0420198D02*
X0323740Y0420198D01*
X0323740Y0410618D02*
X0318136Y0410618D01*
X0318136Y0412422D01*
X0323740Y0412422D01*
X0323740Y0410618D01*
X0323740Y0411013D02*
X0318136Y0411013D01*
X0318136Y0411408D02*
X0323740Y0411408D01*
X0323740Y0411803D02*
X0318136Y0411803D01*
X0318136Y0412198D02*
X0323740Y0412198D01*
D13*
X0324602Y0125271D02*
X0329312Y0125271D01*
X0324602Y0125271D02*
X0324602Y0130769D01*
X0329312Y0130769D01*
X0329312Y0125271D01*
X0329312Y0125679D02*
X0324602Y0125679D01*
X0324602Y0126087D02*
X0329312Y0126087D01*
X0329312Y0126495D02*
X0324602Y0126495D01*
X0324602Y0126903D02*
X0329312Y0126903D01*
X0329312Y0127311D02*
X0324602Y0127311D01*
X0324602Y0127719D02*
X0329312Y0127719D01*
X0329312Y0128127D02*
X0324602Y0128127D01*
X0324602Y0128535D02*
X0329312Y0128535D01*
X0329312Y0128943D02*
X0324602Y0128943D01*
X0324602Y0129351D02*
X0329312Y0129351D01*
X0329312Y0129759D02*
X0324602Y0129759D01*
X0324602Y0130167D02*
X0329312Y0130167D01*
X0329312Y0130575D02*
X0324602Y0130575D01*
X0332083Y0125271D02*
X0336793Y0125271D01*
X0332083Y0125271D02*
X0332083Y0130769D01*
X0336793Y0130769D01*
X0336793Y0125271D01*
X0336793Y0125679D02*
X0332083Y0125679D01*
X0332083Y0126087D02*
X0336793Y0126087D01*
X0336793Y0126495D02*
X0332083Y0126495D01*
X0332083Y0126903D02*
X0336793Y0126903D01*
X0336793Y0127311D02*
X0332083Y0127311D01*
X0332083Y0127719D02*
X0336793Y0127719D01*
X0336793Y0128127D02*
X0332083Y0128127D01*
X0332083Y0128535D02*
X0336793Y0128535D01*
X0336793Y0128943D02*
X0332083Y0128943D01*
X0332083Y0129351D02*
X0336793Y0129351D01*
X0336793Y0129759D02*
X0332083Y0129759D01*
X0332083Y0130167D02*
X0336793Y0130167D01*
X0336793Y0130575D02*
X0332083Y0130575D01*
X0339563Y0125271D02*
X0344273Y0125271D01*
X0339563Y0125271D02*
X0339563Y0130769D01*
X0344273Y0130769D01*
X0344273Y0125271D01*
X0344273Y0125679D02*
X0339563Y0125679D01*
X0339563Y0126087D02*
X0344273Y0126087D01*
X0344273Y0126495D02*
X0339563Y0126495D01*
X0339563Y0126903D02*
X0344273Y0126903D01*
X0344273Y0127311D02*
X0339563Y0127311D01*
X0339563Y0127719D02*
X0344273Y0127719D01*
X0344273Y0128127D02*
X0339563Y0128127D01*
X0339563Y0128535D02*
X0344273Y0128535D01*
X0344273Y0128943D02*
X0339563Y0128943D01*
X0339563Y0129351D02*
X0344273Y0129351D01*
X0344273Y0129759D02*
X0339563Y0129759D01*
X0339563Y0130167D02*
X0344273Y0130167D01*
X0344273Y0130575D02*
X0339563Y0130575D01*
X0431689Y0130885D02*
X0431689Y0126175D01*
X0431689Y0130885D02*
X0437187Y0130885D01*
X0437187Y0126175D01*
X0431689Y0126175D01*
X0431689Y0126583D02*
X0437187Y0126583D01*
X0437187Y0126991D02*
X0431689Y0126991D01*
X0431689Y0127399D02*
X0437187Y0127399D01*
X0437187Y0127807D02*
X0431689Y0127807D01*
X0431689Y0128215D02*
X0437187Y0128215D01*
X0437187Y0128623D02*
X0431689Y0128623D01*
X0431689Y0129031D02*
X0437187Y0129031D01*
X0437187Y0129439D02*
X0431689Y0129439D01*
X0431689Y0129847D02*
X0437187Y0129847D01*
X0437187Y0130255D02*
X0431689Y0130255D01*
X0431689Y0130663D02*
X0437187Y0130663D01*
X0431689Y0133655D02*
X0431689Y0138365D01*
X0437187Y0138365D01*
X0437187Y0133655D01*
X0431689Y0133655D01*
X0431689Y0134063D02*
X0437187Y0134063D01*
X0437187Y0134471D02*
X0431689Y0134471D01*
X0431689Y0134879D02*
X0437187Y0134879D01*
X0437187Y0135287D02*
X0431689Y0135287D01*
X0431689Y0135695D02*
X0437187Y0135695D01*
X0437187Y0136103D02*
X0431689Y0136103D01*
X0431689Y0136511D02*
X0437187Y0136511D01*
X0437187Y0136919D02*
X0431689Y0136919D01*
X0431689Y0137327D02*
X0437187Y0137327D01*
X0437187Y0137735D02*
X0431689Y0137735D01*
X0431689Y0138143D02*
X0437187Y0138143D01*
X0438323Y0150269D02*
X0443033Y0150269D01*
X0443033Y0144771D01*
X0438323Y0144771D01*
X0438323Y0150269D01*
X0438323Y0145179D02*
X0443033Y0145179D01*
X0443033Y0145587D02*
X0438323Y0145587D01*
X0438323Y0145995D02*
X0443033Y0145995D01*
X0443033Y0146403D02*
X0438323Y0146403D01*
X0438323Y0146811D02*
X0443033Y0146811D01*
X0443033Y0147219D02*
X0438323Y0147219D01*
X0438323Y0147627D02*
X0443033Y0147627D01*
X0443033Y0148035D02*
X0438323Y0148035D01*
X0438323Y0148443D02*
X0443033Y0148443D01*
X0443033Y0148851D02*
X0438323Y0148851D01*
X0438323Y0149259D02*
X0443033Y0149259D01*
X0443033Y0149667D02*
X0438323Y0149667D01*
X0438323Y0150075D02*
X0443033Y0150075D01*
X0435553Y0150269D02*
X0430843Y0150269D01*
X0435553Y0150269D02*
X0435553Y0144771D01*
X0430843Y0144771D01*
X0430843Y0150269D01*
X0430843Y0145179D02*
X0435553Y0145179D01*
X0435553Y0145587D02*
X0430843Y0145587D01*
X0430843Y0145995D02*
X0435553Y0145995D01*
X0435553Y0146403D02*
X0430843Y0146403D01*
X0430843Y0146811D02*
X0435553Y0146811D01*
X0435553Y0147219D02*
X0430843Y0147219D01*
X0430843Y0147627D02*
X0435553Y0147627D01*
X0435553Y0148035D02*
X0430843Y0148035D01*
X0430843Y0148443D02*
X0435553Y0148443D01*
X0435553Y0148851D02*
X0430843Y0148851D01*
X0430843Y0149259D02*
X0435553Y0149259D01*
X0435553Y0149667D02*
X0430843Y0149667D01*
X0430843Y0150075D02*
X0435553Y0150075D01*
X0460687Y0140365D02*
X0460687Y0135655D01*
X0455189Y0135655D01*
X0455189Y0140365D01*
X0460687Y0140365D01*
X0460687Y0136063D02*
X0455189Y0136063D01*
X0455189Y0136471D02*
X0460687Y0136471D01*
X0460687Y0136879D02*
X0455189Y0136879D01*
X0455189Y0137287D02*
X0460687Y0137287D01*
X0460687Y0137695D02*
X0455189Y0137695D01*
X0455189Y0138103D02*
X0460687Y0138103D01*
X0460687Y0138511D02*
X0455189Y0138511D01*
X0455189Y0138919D02*
X0460687Y0138919D01*
X0460687Y0139327D02*
X0455189Y0139327D01*
X0455189Y0139735D02*
X0460687Y0139735D01*
X0460687Y0140143D02*
X0455189Y0140143D01*
X0460687Y0132885D02*
X0460687Y0128175D01*
X0455189Y0128175D01*
X0455189Y0132885D01*
X0460687Y0132885D01*
X0460687Y0128583D02*
X0455189Y0128583D01*
X0455189Y0128991D02*
X0460687Y0128991D01*
X0460687Y0129399D02*
X0455189Y0129399D01*
X0455189Y0129807D02*
X0460687Y0129807D01*
X0460687Y0130215D02*
X0455189Y0130215D01*
X0455189Y0130623D02*
X0460687Y0130623D01*
X0460687Y0131031D02*
X0455189Y0131031D01*
X0455189Y0131439D02*
X0460687Y0131439D01*
X0460687Y0131847D02*
X0455189Y0131847D01*
X0455189Y0132255D02*
X0460687Y0132255D01*
X0460687Y0132663D02*
X0455189Y0132663D01*
X0471187Y0157425D02*
X0471187Y0162135D01*
X0471187Y0157425D02*
X0465689Y0157425D01*
X0465689Y0162135D01*
X0471187Y0162135D01*
X0471187Y0157833D02*
X0465689Y0157833D01*
X0465689Y0158241D02*
X0471187Y0158241D01*
X0471187Y0158649D02*
X0465689Y0158649D01*
X0465689Y0159057D02*
X0471187Y0159057D01*
X0471187Y0159465D02*
X0465689Y0159465D01*
X0465689Y0159873D02*
X0471187Y0159873D01*
X0471187Y0160281D02*
X0465689Y0160281D01*
X0465689Y0160689D02*
X0471187Y0160689D01*
X0471187Y0161097D02*
X0465689Y0161097D01*
X0465689Y0161505D02*
X0471187Y0161505D01*
X0471187Y0161913D02*
X0465689Y0161913D01*
X0471187Y0164905D02*
X0471187Y0169615D01*
X0471187Y0164905D02*
X0465689Y0164905D01*
X0465689Y0169615D01*
X0471187Y0169615D01*
X0471187Y0165313D02*
X0465689Y0165313D01*
X0465689Y0165721D02*
X0471187Y0165721D01*
X0471187Y0166129D02*
X0465689Y0166129D01*
X0465689Y0166537D02*
X0471187Y0166537D01*
X0471187Y0166945D02*
X0465689Y0166945D01*
X0465689Y0167353D02*
X0471187Y0167353D01*
X0471187Y0167761D02*
X0465689Y0167761D01*
X0465689Y0168169D02*
X0471187Y0168169D01*
X0471187Y0168577D02*
X0465689Y0168577D01*
X0465689Y0168985D02*
X0471187Y0168985D01*
X0471187Y0169393D02*
X0465689Y0169393D01*
X0525937Y0145115D02*
X0525937Y0140405D01*
X0520439Y0140405D01*
X0520439Y0145115D01*
X0525937Y0145115D01*
X0525937Y0140813D02*
X0520439Y0140813D01*
X0520439Y0141221D02*
X0525937Y0141221D01*
X0525937Y0141629D02*
X0520439Y0141629D01*
X0520439Y0142037D02*
X0525937Y0142037D01*
X0525937Y0142445D02*
X0520439Y0142445D01*
X0520439Y0142853D02*
X0525937Y0142853D01*
X0525937Y0143261D02*
X0520439Y0143261D01*
X0520439Y0143669D02*
X0525937Y0143669D01*
X0525937Y0144077D02*
X0520439Y0144077D01*
X0520439Y0144485D02*
X0525937Y0144485D01*
X0525937Y0144893D02*
X0520439Y0144893D01*
X0525937Y0137635D02*
X0525937Y0132925D01*
X0520439Y0132925D01*
X0520439Y0137635D01*
X0525937Y0137635D01*
X0525937Y0133333D02*
X0520439Y0133333D01*
X0520439Y0133741D02*
X0525937Y0133741D01*
X0525937Y0134149D02*
X0520439Y0134149D01*
X0520439Y0134557D02*
X0525937Y0134557D01*
X0525937Y0134965D02*
X0520439Y0134965D01*
X0520439Y0135373D02*
X0525937Y0135373D01*
X0525937Y0135781D02*
X0520439Y0135781D01*
X0520439Y0136189D02*
X0525937Y0136189D01*
X0525937Y0136597D02*
X0520439Y0136597D01*
X0520439Y0137005D02*
X0525937Y0137005D01*
X0525937Y0137413D02*
X0520439Y0137413D01*
X0543343Y0123521D02*
X0548053Y0123521D01*
X0543343Y0123521D02*
X0543343Y0129019D01*
X0548053Y0129019D01*
X0548053Y0123521D01*
X0548053Y0123929D02*
X0543343Y0123929D01*
X0543343Y0124337D02*
X0548053Y0124337D01*
X0548053Y0124745D02*
X0543343Y0124745D01*
X0543343Y0125153D02*
X0548053Y0125153D01*
X0548053Y0125561D02*
X0543343Y0125561D01*
X0543343Y0125969D02*
X0548053Y0125969D01*
X0548053Y0126377D02*
X0543343Y0126377D01*
X0543343Y0126785D02*
X0548053Y0126785D01*
X0548053Y0127193D02*
X0543343Y0127193D01*
X0543343Y0127601D02*
X0548053Y0127601D01*
X0548053Y0128009D02*
X0543343Y0128009D01*
X0543343Y0128417D02*
X0548053Y0128417D01*
X0548053Y0128825D02*
X0543343Y0128825D01*
X0550823Y0123521D02*
X0555533Y0123521D01*
X0550823Y0123521D02*
X0550823Y0129019D01*
X0555533Y0129019D01*
X0555533Y0123521D01*
X0555533Y0123929D02*
X0550823Y0123929D01*
X0550823Y0124337D02*
X0555533Y0124337D01*
X0555533Y0124745D02*
X0550823Y0124745D01*
X0550823Y0125153D02*
X0555533Y0125153D01*
X0555533Y0125561D02*
X0550823Y0125561D01*
X0550823Y0125969D02*
X0555533Y0125969D01*
X0555533Y0126377D02*
X0550823Y0126377D01*
X0550823Y0126785D02*
X0555533Y0126785D01*
X0555533Y0127193D02*
X0550823Y0127193D01*
X0550823Y0127601D02*
X0555533Y0127601D01*
X0555533Y0128009D02*
X0550823Y0128009D01*
X0550823Y0128417D02*
X0555533Y0128417D01*
X0555533Y0128825D02*
X0550823Y0128825D01*
X0548593Y0150519D02*
X0553303Y0150519D01*
X0553303Y0145021D01*
X0548593Y0145021D01*
X0548593Y0150519D01*
X0548593Y0145429D02*
X0553303Y0145429D01*
X0553303Y0145837D02*
X0548593Y0145837D01*
X0548593Y0146245D02*
X0553303Y0146245D01*
X0553303Y0146653D02*
X0548593Y0146653D01*
X0548593Y0147061D02*
X0553303Y0147061D01*
X0553303Y0147469D02*
X0548593Y0147469D01*
X0548593Y0147877D02*
X0553303Y0147877D01*
X0553303Y0148285D02*
X0548593Y0148285D01*
X0548593Y0148693D02*
X0553303Y0148693D01*
X0553303Y0149101D02*
X0548593Y0149101D01*
X0548593Y0149509D02*
X0553303Y0149509D01*
X0553303Y0149917D02*
X0548593Y0149917D01*
X0548593Y0150325D02*
X0553303Y0150325D01*
X0556073Y0150519D02*
X0560783Y0150519D01*
X0560783Y0145021D01*
X0556073Y0145021D01*
X0556073Y0150519D01*
X0556073Y0145429D02*
X0560783Y0145429D01*
X0560783Y0145837D02*
X0556073Y0145837D01*
X0556073Y0146245D02*
X0560783Y0146245D01*
X0560783Y0146653D02*
X0556073Y0146653D01*
X0556073Y0147061D02*
X0560783Y0147061D01*
X0560783Y0147469D02*
X0556073Y0147469D01*
X0556073Y0147877D02*
X0560783Y0147877D01*
X0560783Y0148285D02*
X0556073Y0148285D01*
X0556073Y0148693D02*
X0560783Y0148693D01*
X0560783Y0149101D02*
X0556073Y0149101D01*
X0556073Y0149509D02*
X0560783Y0149509D01*
X0560783Y0149917D02*
X0556073Y0149917D01*
X0556073Y0150325D02*
X0560783Y0150325D01*
X0588939Y0270925D02*
X0588939Y0275635D01*
X0594437Y0275635D01*
X0594437Y0270925D01*
X0588939Y0270925D01*
X0588939Y0271333D02*
X0594437Y0271333D01*
X0594437Y0271741D02*
X0588939Y0271741D01*
X0588939Y0272149D02*
X0594437Y0272149D01*
X0594437Y0272557D02*
X0588939Y0272557D01*
X0588939Y0272965D02*
X0594437Y0272965D01*
X0594437Y0273373D02*
X0588939Y0273373D01*
X0588939Y0273781D02*
X0594437Y0273781D01*
X0594437Y0274189D02*
X0588939Y0274189D01*
X0588939Y0274597D02*
X0594437Y0274597D01*
X0594437Y0275005D02*
X0588939Y0275005D01*
X0588939Y0275413D02*
X0594437Y0275413D01*
X0588939Y0278405D02*
X0588939Y0283115D01*
X0594437Y0283115D01*
X0594437Y0278405D01*
X0588939Y0278405D01*
X0588939Y0278813D02*
X0594437Y0278813D01*
X0594437Y0279221D02*
X0588939Y0279221D01*
X0588939Y0279629D02*
X0594437Y0279629D01*
X0594437Y0280037D02*
X0588939Y0280037D01*
X0588939Y0280445D02*
X0594437Y0280445D01*
X0594437Y0280853D02*
X0588939Y0280853D01*
X0588939Y0281261D02*
X0594437Y0281261D01*
X0594437Y0281669D02*
X0588939Y0281669D01*
X0588939Y0282077D02*
X0594437Y0282077D01*
X0594437Y0282485D02*
X0588939Y0282485D01*
X0588939Y0282893D02*
X0594437Y0282893D01*
X0583187Y0283425D02*
X0583187Y0288135D01*
X0583187Y0283425D02*
X0577689Y0283425D01*
X0577689Y0288135D01*
X0583187Y0288135D01*
X0583187Y0283833D02*
X0577689Y0283833D01*
X0577689Y0284241D02*
X0583187Y0284241D01*
X0583187Y0284649D02*
X0577689Y0284649D01*
X0577689Y0285057D02*
X0583187Y0285057D01*
X0583187Y0285465D02*
X0577689Y0285465D01*
X0577689Y0285873D02*
X0583187Y0285873D01*
X0583187Y0286281D02*
X0577689Y0286281D01*
X0577689Y0286689D02*
X0583187Y0286689D01*
X0583187Y0287097D02*
X0577689Y0287097D01*
X0577689Y0287505D02*
X0583187Y0287505D01*
X0583187Y0287913D02*
X0577689Y0287913D01*
X0583187Y0290905D02*
X0583187Y0295615D01*
X0583187Y0290905D02*
X0577689Y0290905D01*
X0577689Y0295615D01*
X0583187Y0295615D01*
X0583187Y0291313D02*
X0577689Y0291313D01*
X0577689Y0291721D02*
X0583187Y0291721D01*
X0583187Y0292129D02*
X0577689Y0292129D01*
X0577689Y0292537D02*
X0583187Y0292537D01*
X0583187Y0292945D02*
X0577689Y0292945D01*
X0577689Y0293353D02*
X0583187Y0293353D01*
X0583187Y0293761D02*
X0577689Y0293761D01*
X0577689Y0294169D02*
X0583187Y0294169D01*
X0583187Y0294577D02*
X0577689Y0294577D01*
X0577689Y0294985D02*
X0583187Y0294985D01*
X0583187Y0295393D02*
X0577689Y0295393D01*
X0588939Y0409425D02*
X0588939Y0414135D01*
X0594437Y0414135D01*
X0594437Y0409425D01*
X0588939Y0409425D01*
X0588939Y0409833D02*
X0594437Y0409833D01*
X0594437Y0410241D02*
X0588939Y0410241D01*
X0588939Y0410649D02*
X0594437Y0410649D01*
X0594437Y0411057D02*
X0588939Y0411057D01*
X0588939Y0411465D02*
X0594437Y0411465D01*
X0594437Y0411873D02*
X0588939Y0411873D01*
X0588939Y0412281D02*
X0594437Y0412281D01*
X0594437Y0412689D02*
X0588939Y0412689D01*
X0588939Y0413097D02*
X0594437Y0413097D01*
X0594437Y0413505D02*
X0588939Y0413505D01*
X0588939Y0413913D02*
X0594437Y0413913D01*
X0588939Y0416905D02*
X0588939Y0421615D01*
X0594437Y0421615D01*
X0594437Y0416905D01*
X0588939Y0416905D01*
X0588939Y0417313D02*
X0594437Y0417313D01*
X0594437Y0417721D02*
X0588939Y0417721D01*
X0588939Y0418129D02*
X0594437Y0418129D01*
X0594437Y0418537D02*
X0588939Y0418537D01*
X0588939Y0418945D02*
X0594437Y0418945D01*
X0594437Y0419353D02*
X0588939Y0419353D01*
X0588939Y0419761D02*
X0594437Y0419761D01*
X0594437Y0420169D02*
X0588939Y0420169D01*
X0588939Y0420577D02*
X0594437Y0420577D01*
X0594437Y0420985D02*
X0588939Y0420985D01*
X0588939Y0421393D02*
X0594437Y0421393D01*
X0448939Y0421615D02*
X0448939Y0416905D01*
X0448939Y0421615D02*
X0454437Y0421615D01*
X0454437Y0416905D01*
X0448939Y0416905D01*
X0448939Y0417313D02*
X0454437Y0417313D01*
X0454437Y0417721D02*
X0448939Y0417721D01*
X0448939Y0418129D02*
X0454437Y0418129D01*
X0454437Y0418537D02*
X0448939Y0418537D01*
X0448939Y0418945D02*
X0454437Y0418945D01*
X0454437Y0419353D02*
X0448939Y0419353D01*
X0448939Y0419761D02*
X0454437Y0419761D01*
X0454437Y0420169D02*
X0448939Y0420169D01*
X0448939Y0420577D02*
X0454437Y0420577D01*
X0454437Y0420985D02*
X0448939Y0420985D01*
X0448939Y0421393D02*
X0454437Y0421393D01*
X0448939Y0414135D02*
X0448939Y0409425D01*
X0448939Y0414135D02*
X0454437Y0414135D01*
X0454437Y0409425D01*
X0448939Y0409425D01*
X0448939Y0409833D02*
X0454437Y0409833D01*
X0454437Y0410241D02*
X0448939Y0410241D01*
X0448939Y0410649D02*
X0454437Y0410649D01*
X0454437Y0411057D02*
X0448939Y0411057D01*
X0448939Y0411465D02*
X0454437Y0411465D01*
X0454437Y0411873D02*
X0448939Y0411873D01*
X0448939Y0412281D02*
X0454437Y0412281D01*
X0454437Y0412689D02*
X0448939Y0412689D01*
X0448939Y0413097D02*
X0454437Y0413097D01*
X0454437Y0413505D02*
X0448939Y0413505D01*
X0448939Y0413913D02*
X0454437Y0413913D01*
X0308939Y0414135D02*
X0308939Y0409425D01*
X0308939Y0414135D02*
X0314437Y0414135D01*
X0314437Y0409425D01*
X0308939Y0409425D01*
X0308939Y0409833D02*
X0314437Y0409833D01*
X0314437Y0410241D02*
X0308939Y0410241D01*
X0308939Y0410649D02*
X0314437Y0410649D01*
X0314437Y0411057D02*
X0308939Y0411057D01*
X0308939Y0411465D02*
X0314437Y0411465D01*
X0314437Y0411873D02*
X0308939Y0411873D01*
X0308939Y0412281D02*
X0314437Y0412281D01*
X0314437Y0412689D02*
X0308939Y0412689D01*
X0308939Y0413097D02*
X0314437Y0413097D01*
X0314437Y0413505D02*
X0308939Y0413505D01*
X0308939Y0413913D02*
X0314437Y0413913D01*
X0308939Y0416905D02*
X0308939Y0421615D01*
X0314437Y0421615D01*
X0314437Y0416905D01*
X0308939Y0416905D01*
X0308939Y0417313D02*
X0314437Y0417313D01*
X0314437Y0417721D02*
X0308939Y0417721D01*
X0308939Y0418129D02*
X0314437Y0418129D01*
X0314437Y0418537D02*
X0308939Y0418537D01*
X0308939Y0418945D02*
X0314437Y0418945D01*
X0314437Y0419353D02*
X0308939Y0419353D01*
X0308939Y0419761D02*
X0314437Y0419761D01*
X0314437Y0420169D02*
X0308939Y0420169D01*
X0308939Y0420577D02*
X0314437Y0420577D01*
X0314437Y0420985D02*
X0308939Y0420985D01*
X0308939Y0421393D02*
X0314437Y0421393D01*
D14*
X0625133Y0197975D02*
X0625133Y0185565D01*
X0625133Y0197975D02*
X0627743Y0197975D01*
X0627743Y0185565D01*
X0625133Y0185565D01*
X0625133Y0185954D02*
X0627743Y0185954D01*
X0627743Y0186343D02*
X0625133Y0186343D01*
X0625133Y0186732D02*
X0627743Y0186732D01*
X0627743Y0187121D02*
X0625133Y0187121D01*
X0625133Y0187510D02*
X0627743Y0187510D01*
X0627743Y0187899D02*
X0625133Y0187899D01*
X0625133Y0188288D02*
X0627743Y0188288D01*
X0627743Y0188677D02*
X0625133Y0188677D01*
X0625133Y0189066D02*
X0627743Y0189066D01*
X0627743Y0189455D02*
X0625133Y0189455D01*
X0625133Y0189844D02*
X0627743Y0189844D01*
X0627743Y0190233D02*
X0625133Y0190233D01*
X0625133Y0190622D02*
X0627743Y0190622D01*
X0627743Y0191011D02*
X0625133Y0191011D01*
X0625133Y0191400D02*
X0627743Y0191400D01*
X0627743Y0191789D02*
X0625133Y0191789D01*
X0625133Y0192178D02*
X0627743Y0192178D01*
X0627743Y0192567D02*
X0625133Y0192567D01*
X0625133Y0192956D02*
X0627743Y0192956D01*
X0627743Y0193345D02*
X0625133Y0193345D01*
X0625133Y0193734D02*
X0627743Y0193734D01*
X0627743Y0194123D02*
X0625133Y0194123D01*
X0625133Y0194512D02*
X0627743Y0194512D01*
X0627743Y0194901D02*
X0625133Y0194901D01*
X0625133Y0195290D02*
X0627743Y0195290D01*
X0627743Y0195679D02*
X0625133Y0195679D01*
X0625133Y0196068D02*
X0627743Y0196068D01*
X0627743Y0196457D02*
X0625133Y0196457D01*
X0625133Y0196846D02*
X0627743Y0196846D01*
X0627743Y0197235D02*
X0625133Y0197235D01*
X0625133Y0197624D02*
X0627743Y0197624D01*
X0625133Y0178975D02*
X0625133Y0166565D01*
X0625133Y0178975D02*
X0627743Y0178975D01*
X0627743Y0166565D01*
X0625133Y0166565D01*
X0625133Y0166954D02*
X0627743Y0166954D01*
X0627743Y0167343D02*
X0625133Y0167343D01*
X0625133Y0167732D02*
X0627743Y0167732D01*
X0627743Y0168121D02*
X0625133Y0168121D01*
X0625133Y0168510D02*
X0627743Y0168510D01*
X0627743Y0168899D02*
X0625133Y0168899D01*
X0625133Y0169288D02*
X0627743Y0169288D01*
X0627743Y0169677D02*
X0625133Y0169677D01*
X0625133Y0170066D02*
X0627743Y0170066D01*
X0627743Y0170455D02*
X0625133Y0170455D01*
X0625133Y0170844D02*
X0627743Y0170844D01*
X0627743Y0171233D02*
X0625133Y0171233D01*
X0625133Y0171622D02*
X0627743Y0171622D01*
X0627743Y0172011D02*
X0625133Y0172011D01*
X0625133Y0172400D02*
X0627743Y0172400D01*
X0627743Y0172789D02*
X0625133Y0172789D01*
X0625133Y0173178D02*
X0627743Y0173178D01*
X0627743Y0173567D02*
X0625133Y0173567D01*
X0625133Y0173956D02*
X0627743Y0173956D01*
X0627743Y0174345D02*
X0625133Y0174345D01*
X0625133Y0174734D02*
X0627743Y0174734D01*
X0627743Y0175123D02*
X0625133Y0175123D01*
X0625133Y0175512D02*
X0627743Y0175512D01*
X0627743Y0175901D02*
X0625133Y0175901D01*
X0625133Y0176290D02*
X0627743Y0176290D01*
X0627743Y0176679D02*
X0625133Y0176679D01*
X0625133Y0177068D02*
X0627743Y0177068D01*
X0627743Y0177457D02*
X0625133Y0177457D01*
X0625133Y0177846D02*
X0627743Y0177846D01*
X0627743Y0178235D02*
X0625133Y0178235D01*
X0625133Y0178624D02*
X0627743Y0178624D01*
D15*
X0500635Y0140123D02*
X0496441Y0140123D01*
X0496441Y0141117D01*
X0500635Y0141117D01*
X0500635Y0140123D01*
X0500635Y0140528D02*
X0496441Y0140528D01*
X0496441Y0140933D02*
X0500635Y0140933D01*
X0500635Y0134923D02*
X0496441Y0134923D01*
X0496441Y0135917D01*
X0500635Y0135917D01*
X0500635Y0134923D01*
X0500635Y0135328D02*
X0496441Y0135328D01*
X0496441Y0135733D02*
X0500635Y0135733D01*
X0492435Y0134923D02*
X0488241Y0134923D01*
X0488241Y0135917D01*
X0492435Y0135917D01*
X0492435Y0134923D01*
X0492435Y0135328D02*
X0488241Y0135328D01*
X0488241Y0135733D02*
X0492435Y0135733D01*
X0492435Y0137523D02*
X0488241Y0137523D01*
X0488241Y0138517D01*
X0492435Y0138517D01*
X0492435Y0137523D01*
X0492435Y0137928D02*
X0488241Y0137928D01*
X0488241Y0138333D02*
X0492435Y0138333D01*
X0492435Y0140123D02*
X0488241Y0140123D01*
X0488241Y0141117D01*
X0492435Y0141117D01*
X0492435Y0140123D01*
X0492435Y0140528D02*
X0488241Y0140528D01*
X0488241Y0140933D02*
X0492435Y0140933D01*
M02*
