G75*
%MOIN*%
%OFA0B0*%
%FSLAX25Y25*%
%IPPOS*%
%LPD*%
%AMOC8*
5,1,8,0,0,1.08239X$1,22.5*
%
%ADD10OC8,0.05906*%
%ADD11R,0.05906X0.05906*%
%ADD12C,0.00394*%
%ADD13C,0.00402*%
%ADD14C,0.00396*%
%ADD15C,0.00409*%
%ADD16C,0.00390*%
%ADD17C,0.00406*%
%ADD18C,0.04000*%
%ADD19C,0.11811*%
%ADD20C,0.07677*%
%ADD21C,0.06000*%
%ADD22OC8,0.07677*%
%ADD23OC8,0.06496*%
%ADD24C,0.00100*%
%ADD25C,0.21654*%
%ADD26R,0.03175X0.03175*%
%ADD27C,0.01600*%
%ADD28C,0.00800*%
%ADD29C,0.01000*%
%ADD30OC8,0.03175*%
%ADD31C,0.02400*%
%ADD32C,0.01200*%
%ADD33C,0.03200*%
%ADD34C,0.04000*%
%ADD35C,0.07000*%
%ADD36OC8,0.02781*%
D10*
X0309333Y0115232D03*
X0319333Y0115232D03*
X0329333Y0115232D03*
X0339333Y0115232D03*
X0349333Y0115232D03*
X0359333Y0115232D03*
X0369333Y0115232D03*
X0379333Y0115232D03*
X0389333Y0115232D03*
X0399333Y0115232D03*
X0409333Y0115232D03*
X0419333Y0115232D03*
X0429333Y0115232D03*
X0439333Y0115232D03*
X0439333Y0105232D03*
X0429333Y0105232D03*
X0419333Y0105232D03*
X0409333Y0105232D03*
X0399333Y0105232D03*
X0389333Y0105232D03*
X0379333Y0105232D03*
X0369333Y0105232D03*
X0359333Y0105232D03*
X0349333Y0105232D03*
X0339333Y0105232D03*
X0329333Y0105232D03*
X0319333Y0105232D03*
X0617188Y0100770D03*
X0617188Y0110770D03*
X0617188Y0120770D03*
X0617188Y0130770D03*
X0617188Y0140770D03*
X0617188Y0150770D03*
D11*
X0309333Y0105232D03*
D12*
X0454623Y0106249D02*
X0458559Y0106249D01*
X0454623Y0106249D02*
X0454623Y0109791D01*
X0458559Y0109791D01*
X0458559Y0106249D01*
X0458559Y0106642D02*
X0454623Y0106642D01*
X0454623Y0107035D02*
X0458559Y0107035D01*
X0458559Y0107428D02*
X0454623Y0107428D01*
X0454623Y0107821D02*
X0458559Y0107821D01*
X0458559Y0108214D02*
X0454623Y0108214D01*
X0454623Y0108607D02*
X0458559Y0108607D01*
X0458559Y0109000D02*
X0454623Y0109000D01*
X0454623Y0109393D02*
X0458559Y0109393D01*
X0458559Y0109786D02*
X0454623Y0109786D01*
X0461316Y0106249D02*
X0465252Y0106249D01*
X0461316Y0106249D02*
X0461316Y0109791D01*
X0465252Y0109791D01*
X0465252Y0106249D01*
X0465252Y0106642D02*
X0461316Y0106642D01*
X0461316Y0107035D02*
X0465252Y0107035D01*
X0465252Y0107428D02*
X0461316Y0107428D01*
X0461316Y0107821D02*
X0465252Y0107821D01*
X0465252Y0108214D02*
X0461316Y0108214D01*
X0461316Y0108607D02*
X0465252Y0108607D01*
X0465252Y0109000D02*
X0461316Y0109000D01*
X0461316Y0109393D02*
X0465252Y0109393D01*
X0465252Y0109786D02*
X0461316Y0109786D01*
X0504070Y0109961D02*
X0504070Y0111535D01*
X0507612Y0111535D01*
X0507612Y0109961D01*
X0504070Y0109961D01*
X0504070Y0110354D02*
X0507612Y0110354D01*
X0507612Y0110747D02*
X0504070Y0110747D01*
X0504070Y0111140D02*
X0507612Y0111140D01*
X0507612Y0111533D02*
X0504070Y0111533D01*
X0504070Y0113504D02*
X0504070Y0115078D01*
X0507612Y0115078D01*
X0507612Y0113504D01*
X0504070Y0113504D01*
X0504070Y0113897D02*
X0507612Y0113897D01*
X0507612Y0114290D02*
X0504070Y0114290D01*
X0504070Y0114683D02*
X0507612Y0114683D01*
X0507612Y0115076D02*
X0504070Y0115076D01*
X0504070Y0117048D02*
X0504070Y0118622D01*
X0507612Y0118622D01*
X0507612Y0117048D01*
X0504070Y0117048D01*
X0504070Y0117441D02*
X0507612Y0117441D01*
X0507612Y0117834D02*
X0504070Y0117834D01*
X0504070Y0118227D02*
X0507612Y0118227D01*
X0507612Y0118620D02*
X0504070Y0118620D01*
X0510763Y0118622D02*
X0510763Y0117048D01*
X0510763Y0118622D02*
X0514305Y0118622D01*
X0514305Y0117048D01*
X0510763Y0117048D01*
X0510763Y0117441D02*
X0514305Y0117441D01*
X0514305Y0117834D02*
X0510763Y0117834D01*
X0510763Y0118227D02*
X0514305Y0118227D01*
X0514305Y0118620D02*
X0510763Y0118620D01*
X0510763Y0115078D02*
X0510763Y0113504D01*
X0510763Y0115078D02*
X0514305Y0115078D01*
X0514305Y0113504D01*
X0510763Y0113504D01*
X0510763Y0113897D02*
X0514305Y0113897D01*
X0514305Y0114290D02*
X0510763Y0114290D01*
X0510763Y0114683D02*
X0514305Y0114683D01*
X0514305Y0115076D02*
X0510763Y0115076D01*
X0510763Y0111535D02*
X0510763Y0109961D01*
X0510763Y0111535D02*
X0514305Y0111535D01*
X0514305Y0109961D01*
X0510763Y0109961D01*
X0510763Y0110354D02*
X0514305Y0110354D01*
X0514305Y0110747D02*
X0510763Y0110747D01*
X0510763Y0111140D02*
X0514305Y0111140D01*
X0514305Y0111533D02*
X0510763Y0111533D01*
X0510763Y0107992D02*
X0510763Y0106418D01*
X0510763Y0107992D02*
X0514305Y0107992D01*
X0514305Y0106418D01*
X0510763Y0106418D01*
X0510763Y0106811D02*
X0514305Y0106811D01*
X0514305Y0107204D02*
X0510763Y0107204D01*
X0510763Y0107597D02*
X0514305Y0107597D01*
X0514305Y0107990D02*
X0510763Y0107990D01*
X0504070Y0107992D02*
X0504070Y0106418D01*
X0504070Y0107992D02*
X0507612Y0107992D01*
X0507612Y0106418D01*
X0504070Y0106418D01*
X0504070Y0106811D02*
X0507612Y0106811D01*
X0507612Y0107204D02*
X0504070Y0107204D01*
X0504070Y0107597D02*
X0507612Y0107597D01*
X0507612Y0107990D02*
X0504070Y0107990D01*
X0545373Y0120541D02*
X0549309Y0120541D01*
X0549309Y0116999D01*
X0545373Y0116999D01*
X0545373Y0120541D01*
X0545373Y0117392D02*
X0549309Y0117392D01*
X0549309Y0117785D02*
X0545373Y0117785D01*
X0545373Y0118178D02*
X0549309Y0118178D01*
X0549309Y0118571D02*
X0545373Y0118571D01*
X0545373Y0118964D02*
X0549309Y0118964D01*
X0549309Y0119357D02*
X0545373Y0119357D01*
X0545373Y0119750D02*
X0549309Y0119750D01*
X0549309Y0120143D02*
X0545373Y0120143D01*
X0545373Y0120536D02*
X0549309Y0120536D01*
X0552066Y0120541D02*
X0556002Y0120541D01*
X0556002Y0116999D01*
X0552066Y0116999D01*
X0552066Y0120541D01*
X0552066Y0117392D02*
X0556002Y0117392D01*
X0556002Y0117785D02*
X0552066Y0117785D01*
X0552066Y0118178D02*
X0556002Y0118178D01*
X0556002Y0118571D02*
X0552066Y0118571D01*
X0552066Y0118964D02*
X0556002Y0118964D01*
X0556002Y0119357D02*
X0552066Y0119357D01*
X0552066Y0119750D02*
X0556002Y0119750D01*
X0556002Y0120143D02*
X0552066Y0120143D01*
X0552066Y0120536D02*
X0556002Y0120536D01*
X0594586Y0111637D02*
X0596160Y0111637D01*
X0596160Y0108095D01*
X0594586Y0108095D01*
X0594586Y0111637D01*
X0594586Y0108488D02*
X0596160Y0108488D01*
X0596160Y0108881D02*
X0594586Y0108881D01*
X0594586Y0109274D02*
X0596160Y0109274D01*
X0596160Y0109667D02*
X0594586Y0109667D01*
X0594586Y0110060D02*
X0596160Y0110060D01*
X0596160Y0110453D02*
X0594586Y0110453D01*
X0594586Y0110846D02*
X0596160Y0110846D01*
X0596160Y0111239D02*
X0594586Y0111239D01*
X0594586Y0111632D02*
X0596160Y0111632D01*
X0598129Y0111637D02*
X0599703Y0111637D01*
X0599703Y0108095D01*
X0598129Y0108095D01*
X0598129Y0111637D01*
X0598129Y0108488D02*
X0599703Y0108488D01*
X0599703Y0108881D02*
X0598129Y0108881D01*
X0598129Y0109274D02*
X0599703Y0109274D01*
X0599703Y0109667D02*
X0598129Y0109667D01*
X0598129Y0110060D02*
X0599703Y0110060D01*
X0599703Y0110453D02*
X0598129Y0110453D01*
X0598129Y0110846D02*
X0599703Y0110846D01*
X0599703Y0111239D02*
X0598129Y0111239D01*
X0598129Y0111632D02*
X0599703Y0111632D01*
X0601672Y0111637D02*
X0603246Y0111637D01*
X0603246Y0108095D01*
X0601672Y0108095D01*
X0601672Y0111637D01*
X0601672Y0108488D02*
X0603246Y0108488D01*
X0603246Y0108881D02*
X0601672Y0108881D01*
X0601672Y0109274D02*
X0603246Y0109274D01*
X0603246Y0109667D02*
X0601672Y0109667D01*
X0601672Y0110060D02*
X0603246Y0110060D01*
X0603246Y0110453D02*
X0601672Y0110453D01*
X0601672Y0110846D02*
X0603246Y0110846D01*
X0603246Y0111239D02*
X0601672Y0111239D01*
X0601672Y0111632D02*
X0603246Y0111632D01*
X0605216Y0111637D02*
X0606790Y0111637D01*
X0606790Y0108095D01*
X0605216Y0108095D01*
X0605216Y0111637D01*
X0605216Y0108488D02*
X0606790Y0108488D01*
X0606790Y0108881D02*
X0605216Y0108881D01*
X0605216Y0109274D02*
X0606790Y0109274D01*
X0606790Y0109667D02*
X0605216Y0109667D01*
X0605216Y0110060D02*
X0606790Y0110060D01*
X0606790Y0110453D02*
X0605216Y0110453D01*
X0605216Y0110846D02*
X0606790Y0110846D01*
X0606790Y0111239D02*
X0605216Y0111239D01*
X0605216Y0111632D02*
X0606790Y0111632D01*
X0606790Y0104944D02*
X0605216Y0104944D01*
X0606790Y0104944D02*
X0606790Y0101402D01*
X0605216Y0101402D01*
X0605216Y0104944D01*
X0605216Y0101795D02*
X0606790Y0101795D01*
X0606790Y0102188D02*
X0605216Y0102188D01*
X0605216Y0102581D02*
X0606790Y0102581D01*
X0606790Y0102974D02*
X0605216Y0102974D01*
X0605216Y0103367D02*
X0606790Y0103367D01*
X0606790Y0103760D02*
X0605216Y0103760D01*
X0605216Y0104153D02*
X0606790Y0104153D01*
X0606790Y0104546D02*
X0605216Y0104546D01*
X0605216Y0104939D02*
X0606790Y0104939D01*
X0603246Y0104944D02*
X0601672Y0104944D01*
X0603246Y0104944D02*
X0603246Y0101402D01*
X0601672Y0101402D01*
X0601672Y0104944D01*
X0601672Y0101795D02*
X0603246Y0101795D01*
X0603246Y0102188D02*
X0601672Y0102188D01*
X0601672Y0102581D02*
X0603246Y0102581D01*
X0603246Y0102974D02*
X0601672Y0102974D01*
X0601672Y0103367D02*
X0603246Y0103367D01*
X0603246Y0103760D02*
X0601672Y0103760D01*
X0601672Y0104153D02*
X0603246Y0104153D01*
X0603246Y0104546D02*
X0601672Y0104546D01*
X0601672Y0104939D02*
X0603246Y0104939D01*
X0599703Y0104944D02*
X0598129Y0104944D01*
X0599703Y0104944D02*
X0599703Y0101402D01*
X0598129Y0101402D01*
X0598129Y0104944D01*
X0598129Y0101795D02*
X0599703Y0101795D01*
X0599703Y0102188D02*
X0598129Y0102188D01*
X0598129Y0102581D02*
X0599703Y0102581D01*
X0599703Y0102974D02*
X0598129Y0102974D01*
X0598129Y0103367D02*
X0599703Y0103367D01*
X0599703Y0103760D02*
X0598129Y0103760D01*
X0598129Y0104153D02*
X0599703Y0104153D01*
X0599703Y0104546D02*
X0598129Y0104546D01*
X0598129Y0104939D02*
X0599703Y0104939D01*
X0596160Y0104944D02*
X0594586Y0104944D01*
X0596160Y0104944D02*
X0596160Y0101402D01*
X0594586Y0101402D01*
X0594586Y0104944D01*
X0594586Y0101795D02*
X0596160Y0101795D01*
X0596160Y0102188D02*
X0594586Y0102188D01*
X0594586Y0102581D02*
X0596160Y0102581D01*
X0596160Y0102974D02*
X0594586Y0102974D01*
X0594586Y0103367D02*
X0596160Y0103367D01*
X0596160Y0103760D02*
X0594586Y0103760D01*
X0594586Y0104153D02*
X0596160Y0104153D01*
X0596160Y0104546D02*
X0594586Y0104546D01*
X0594586Y0104939D02*
X0596160Y0104939D01*
X0561502Y0153249D02*
X0557566Y0153249D01*
X0557566Y0156791D01*
X0561502Y0156791D01*
X0561502Y0153249D01*
X0561502Y0153642D02*
X0557566Y0153642D01*
X0557566Y0154035D02*
X0561502Y0154035D01*
X0561502Y0154428D02*
X0557566Y0154428D01*
X0557566Y0154821D02*
X0561502Y0154821D01*
X0561502Y0155214D02*
X0557566Y0155214D01*
X0557566Y0155607D02*
X0561502Y0155607D01*
X0561502Y0156000D02*
X0557566Y0156000D01*
X0557566Y0156393D02*
X0561502Y0156393D01*
X0561502Y0156786D02*
X0557566Y0156786D01*
X0554809Y0153249D02*
X0550873Y0153249D01*
X0550873Y0156791D01*
X0554809Y0156791D01*
X0554809Y0153249D01*
X0554809Y0153642D02*
X0550873Y0153642D01*
X0550873Y0154035D02*
X0554809Y0154035D01*
X0554809Y0154428D02*
X0550873Y0154428D01*
X0550873Y0154821D02*
X0554809Y0154821D01*
X0554809Y0155214D02*
X0550873Y0155214D01*
X0550873Y0155607D02*
X0554809Y0155607D01*
X0554809Y0156000D02*
X0550873Y0156000D01*
X0550873Y0156393D02*
X0554809Y0156393D01*
X0554809Y0156786D02*
X0550873Y0156786D01*
X0515002Y0139249D02*
X0511066Y0139249D01*
X0511066Y0142791D01*
X0515002Y0142791D01*
X0515002Y0139249D01*
X0515002Y0139642D02*
X0511066Y0139642D01*
X0511066Y0140035D02*
X0515002Y0140035D01*
X0515002Y0140428D02*
X0511066Y0140428D01*
X0511066Y0140821D02*
X0515002Y0140821D01*
X0515002Y0141214D02*
X0511066Y0141214D01*
X0511066Y0141607D02*
X0515002Y0141607D01*
X0515002Y0142000D02*
X0511066Y0142000D01*
X0511066Y0142393D02*
X0515002Y0142393D01*
X0515002Y0142786D02*
X0511066Y0142786D01*
X0508309Y0139249D02*
X0504373Y0139249D01*
X0504373Y0142791D01*
X0508309Y0142791D01*
X0508309Y0139249D01*
X0508309Y0139642D02*
X0504373Y0139642D01*
X0504373Y0140035D02*
X0508309Y0140035D01*
X0508309Y0140428D02*
X0504373Y0140428D01*
X0504373Y0140821D02*
X0508309Y0140821D01*
X0508309Y0141214D02*
X0504373Y0141214D01*
X0504373Y0141607D02*
X0508309Y0141607D01*
X0508309Y0142000D02*
X0504373Y0142000D01*
X0504373Y0142393D02*
X0508309Y0142393D01*
X0508309Y0142786D02*
X0504373Y0142786D01*
X0482917Y0258737D02*
X0482917Y0263067D01*
X0486459Y0263067D01*
X0486459Y0258737D01*
X0482917Y0258737D01*
X0482917Y0259130D02*
X0486459Y0259130D01*
X0486459Y0259523D02*
X0482917Y0259523D01*
X0482917Y0259916D02*
X0486459Y0259916D01*
X0486459Y0260309D02*
X0482917Y0260309D01*
X0482917Y0260702D02*
X0486459Y0260702D01*
X0486459Y0261095D02*
X0482917Y0261095D01*
X0482917Y0261488D02*
X0486459Y0261488D01*
X0486459Y0261881D02*
X0482917Y0261881D01*
X0482917Y0262274D02*
X0486459Y0262274D01*
X0486459Y0262667D02*
X0482917Y0262667D01*
X0482917Y0263060D02*
X0486459Y0263060D01*
X0482917Y0268973D02*
X0482917Y0273303D01*
X0486459Y0273303D01*
X0486459Y0268973D01*
X0482917Y0268973D01*
X0482917Y0269366D02*
X0486459Y0269366D01*
X0486459Y0269759D02*
X0482917Y0269759D01*
X0482917Y0270152D02*
X0486459Y0270152D01*
X0486459Y0270545D02*
X0482917Y0270545D01*
X0482917Y0270938D02*
X0486459Y0270938D01*
X0486459Y0271331D02*
X0482917Y0271331D01*
X0482917Y0271724D02*
X0486459Y0271724D01*
X0486459Y0272117D02*
X0482917Y0272117D01*
X0482917Y0272510D02*
X0486459Y0272510D01*
X0486459Y0272903D02*
X0482917Y0272903D01*
X0482917Y0273296D02*
X0486459Y0273296D01*
X0608155Y0321291D02*
X0612485Y0321291D01*
X0612485Y0317749D01*
X0608155Y0317749D01*
X0608155Y0321291D01*
X0608155Y0318142D02*
X0612485Y0318142D01*
X0612485Y0318535D02*
X0608155Y0318535D01*
X0608155Y0318928D02*
X0612485Y0318928D01*
X0612485Y0319321D02*
X0608155Y0319321D01*
X0608155Y0319714D02*
X0612485Y0319714D01*
X0612485Y0320107D02*
X0608155Y0320107D01*
X0608155Y0320500D02*
X0612485Y0320500D01*
X0612485Y0320893D02*
X0608155Y0320893D01*
X0608155Y0321286D02*
X0612485Y0321286D01*
X0618391Y0321291D02*
X0622721Y0321291D01*
X0622721Y0317749D01*
X0618391Y0317749D01*
X0618391Y0321291D01*
X0618391Y0318142D02*
X0622721Y0318142D01*
X0622721Y0318535D02*
X0618391Y0318535D01*
X0618391Y0318928D02*
X0622721Y0318928D01*
X0622721Y0319321D02*
X0618391Y0319321D01*
X0618391Y0319714D02*
X0622721Y0319714D01*
X0622721Y0320107D02*
X0618391Y0320107D01*
X0618391Y0320500D02*
X0622721Y0320500D01*
X0622721Y0320893D02*
X0618391Y0320893D01*
X0618391Y0321286D02*
X0622721Y0321286D01*
X0627459Y0366237D02*
X0627459Y0370567D01*
X0627459Y0366237D02*
X0623917Y0366237D01*
X0623917Y0370567D01*
X0627459Y0370567D01*
X0627459Y0366630D02*
X0623917Y0366630D01*
X0623917Y0367023D02*
X0627459Y0367023D01*
X0627459Y0367416D02*
X0623917Y0367416D01*
X0623917Y0367809D02*
X0627459Y0367809D01*
X0627459Y0368202D02*
X0623917Y0368202D01*
X0623917Y0368595D02*
X0627459Y0368595D01*
X0627459Y0368988D02*
X0623917Y0368988D01*
X0623917Y0369381D02*
X0627459Y0369381D01*
X0627459Y0369774D02*
X0623917Y0369774D01*
X0623917Y0370167D02*
X0627459Y0370167D01*
X0627459Y0370560D02*
X0623917Y0370560D01*
X0627459Y0376473D02*
X0627459Y0380803D01*
X0627459Y0376473D02*
X0623917Y0376473D01*
X0623917Y0380803D01*
X0627459Y0380803D01*
X0627459Y0376866D02*
X0623917Y0376866D01*
X0623917Y0377259D02*
X0627459Y0377259D01*
X0627459Y0377652D02*
X0623917Y0377652D01*
X0623917Y0378045D02*
X0627459Y0378045D01*
X0627459Y0378438D02*
X0623917Y0378438D01*
X0623917Y0378831D02*
X0627459Y0378831D01*
X0627459Y0379224D02*
X0623917Y0379224D01*
X0623917Y0379617D02*
X0627459Y0379617D01*
X0627459Y0380010D02*
X0623917Y0380010D01*
X0623917Y0380403D02*
X0627459Y0380403D01*
X0627459Y0380796D02*
X0623917Y0380796D01*
X0486459Y0380803D02*
X0486459Y0376473D01*
X0482917Y0376473D01*
X0482917Y0380803D01*
X0486459Y0380803D01*
X0486459Y0376866D02*
X0482917Y0376866D01*
X0482917Y0377259D02*
X0486459Y0377259D01*
X0486459Y0377652D02*
X0482917Y0377652D01*
X0482917Y0378045D02*
X0486459Y0378045D01*
X0486459Y0378438D02*
X0482917Y0378438D01*
X0482917Y0378831D02*
X0486459Y0378831D01*
X0486459Y0379224D02*
X0482917Y0379224D01*
X0482917Y0379617D02*
X0486459Y0379617D01*
X0486459Y0380010D02*
X0482917Y0380010D01*
X0482917Y0380403D02*
X0486459Y0380403D01*
X0486459Y0380796D02*
X0482917Y0380796D01*
X0486459Y0370567D02*
X0486459Y0366237D01*
X0482917Y0366237D01*
X0482917Y0370567D01*
X0486459Y0370567D01*
X0486459Y0366630D02*
X0482917Y0366630D01*
X0482917Y0367023D02*
X0486459Y0367023D01*
X0486459Y0367416D02*
X0482917Y0367416D01*
X0482917Y0367809D02*
X0486459Y0367809D01*
X0486459Y0368202D02*
X0482917Y0368202D01*
X0482917Y0368595D02*
X0486459Y0368595D01*
X0486459Y0368988D02*
X0482917Y0368988D01*
X0482917Y0369381D02*
X0486459Y0369381D01*
X0486459Y0369774D02*
X0482917Y0369774D01*
X0482917Y0370167D02*
X0486459Y0370167D01*
X0486459Y0370560D02*
X0482917Y0370560D01*
X0346459Y0370567D02*
X0346459Y0366237D01*
X0342917Y0366237D01*
X0342917Y0370567D01*
X0346459Y0370567D01*
X0346459Y0366630D02*
X0342917Y0366630D01*
X0342917Y0367023D02*
X0346459Y0367023D01*
X0346459Y0367416D02*
X0342917Y0367416D01*
X0342917Y0367809D02*
X0346459Y0367809D01*
X0346459Y0368202D02*
X0342917Y0368202D01*
X0342917Y0368595D02*
X0346459Y0368595D01*
X0346459Y0368988D02*
X0342917Y0368988D01*
X0342917Y0369381D02*
X0346459Y0369381D01*
X0346459Y0369774D02*
X0342917Y0369774D01*
X0342917Y0370167D02*
X0346459Y0370167D01*
X0346459Y0370560D02*
X0342917Y0370560D01*
X0346459Y0376473D02*
X0346459Y0380803D01*
X0346459Y0376473D02*
X0342917Y0376473D01*
X0342917Y0380803D01*
X0346459Y0380803D01*
X0346459Y0376866D02*
X0342917Y0376866D01*
X0342917Y0377259D02*
X0346459Y0377259D01*
X0346459Y0377652D02*
X0342917Y0377652D01*
X0342917Y0378045D02*
X0346459Y0378045D01*
X0346459Y0378438D02*
X0342917Y0378438D01*
X0342917Y0378831D02*
X0346459Y0378831D01*
X0346459Y0379224D02*
X0342917Y0379224D01*
X0342917Y0379617D02*
X0346459Y0379617D01*
X0346459Y0380010D02*
X0342917Y0380010D01*
X0342917Y0380403D02*
X0346459Y0380403D01*
X0346459Y0380796D02*
X0342917Y0380796D01*
X0342917Y0273303D02*
X0342917Y0268973D01*
X0342917Y0273303D02*
X0346459Y0273303D01*
X0346459Y0268973D01*
X0342917Y0268973D01*
X0342917Y0269366D02*
X0346459Y0269366D01*
X0346459Y0269759D02*
X0342917Y0269759D01*
X0342917Y0270152D02*
X0346459Y0270152D01*
X0346459Y0270545D02*
X0342917Y0270545D01*
X0342917Y0270938D02*
X0346459Y0270938D01*
X0346459Y0271331D02*
X0342917Y0271331D01*
X0342917Y0271724D02*
X0346459Y0271724D01*
X0346459Y0272117D02*
X0342917Y0272117D01*
X0342917Y0272510D02*
X0346459Y0272510D01*
X0346459Y0272903D02*
X0342917Y0272903D01*
X0342917Y0273296D02*
X0346459Y0273296D01*
X0342917Y0263067D02*
X0342917Y0258737D01*
X0342917Y0263067D02*
X0346459Y0263067D01*
X0346459Y0258737D01*
X0342917Y0258737D01*
X0342917Y0259130D02*
X0346459Y0259130D01*
X0346459Y0259523D02*
X0342917Y0259523D01*
X0342917Y0259916D02*
X0346459Y0259916D01*
X0346459Y0260309D02*
X0342917Y0260309D01*
X0342917Y0260702D02*
X0346459Y0260702D01*
X0346459Y0261095D02*
X0342917Y0261095D01*
X0342917Y0261488D02*
X0346459Y0261488D01*
X0346459Y0261881D02*
X0342917Y0261881D01*
X0342917Y0262274D02*
X0346459Y0262274D01*
X0346459Y0262667D02*
X0342917Y0262667D01*
X0342917Y0263060D02*
X0346459Y0263060D01*
X0623917Y0263067D02*
X0623917Y0258737D01*
X0623917Y0263067D02*
X0627459Y0263067D01*
X0627459Y0258737D01*
X0623917Y0258737D01*
X0623917Y0259130D02*
X0627459Y0259130D01*
X0627459Y0259523D02*
X0623917Y0259523D01*
X0623917Y0259916D02*
X0627459Y0259916D01*
X0627459Y0260309D02*
X0623917Y0260309D01*
X0623917Y0260702D02*
X0627459Y0260702D01*
X0627459Y0261095D02*
X0623917Y0261095D01*
X0623917Y0261488D02*
X0627459Y0261488D01*
X0627459Y0261881D02*
X0623917Y0261881D01*
X0623917Y0262274D02*
X0627459Y0262274D01*
X0627459Y0262667D02*
X0623917Y0262667D01*
X0623917Y0263060D02*
X0627459Y0263060D01*
X0623917Y0268973D02*
X0623917Y0273303D01*
X0627459Y0273303D01*
X0627459Y0268973D01*
X0623917Y0268973D01*
X0623917Y0269366D02*
X0627459Y0269366D01*
X0627459Y0269759D02*
X0623917Y0269759D01*
X0623917Y0270152D02*
X0627459Y0270152D01*
X0627459Y0270545D02*
X0623917Y0270545D01*
X0623917Y0270938D02*
X0627459Y0270938D01*
X0627459Y0271331D02*
X0623917Y0271331D01*
X0623917Y0271724D02*
X0627459Y0271724D01*
X0627459Y0272117D02*
X0623917Y0272117D01*
X0623917Y0272510D02*
X0627459Y0272510D01*
X0627459Y0272903D02*
X0623917Y0272903D01*
X0623917Y0273296D02*
X0627459Y0273296D01*
D13*
X0495668Y0123769D02*
X0489968Y0123769D01*
X0495668Y0123769D02*
X0495668Y0121809D01*
X0489968Y0121809D01*
X0489968Y0123769D01*
X0489968Y0122210D02*
X0495668Y0122210D01*
X0495668Y0122611D02*
X0489968Y0122611D01*
X0489968Y0123012D02*
X0495668Y0123012D01*
X0495668Y0123413D02*
X0489968Y0123413D01*
X0489968Y0118769D02*
X0495668Y0118769D01*
X0495668Y0116809D01*
X0489968Y0116809D01*
X0489968Y0118769D01*
X0489968Y0117210D02*
X0495668Y0117210D01*
X0495668Y0117611D02*
X0489968Y0117611D01*
X0489968Y0118012D02*
X0495668Y0118012D01*
X0495668Y0118413D02*
X0489968Y0118413D01*
X0489968Y0113769D02*
X0495668Y0113769D01*
X0495668Y0111809D01*
X0489968Y0111809D01*
X0489968Y0113769D01*
X0489968Y0112210D02*
X0495668Y0112210D01*
X0495668Y0112611D02*
X0489968Y0112611D01*
X0489968Y0113012D02*
X0495668Y0113012D01*
X0495668Y0113413D02*
X0489968Y0113413D01*
X0489968Y0108769D02*
X0495668Y0108769D01*
X0495668Y0106809D01*
X0489968Y0106809D01*
X0489968Y0108769D01*
X0489968Y0107210D02*
X0495668Y0107210D01*
X0495668Y0107611D02*
X0489968Y0107611D01*
X0489968Y0108012D02*
X0495668Y0108012D01*
X0495668Y0108413D02*
X0489968Y0108413D01*
X0474408Y0108769D02*
X0468708Y0108769D01*
X0474408Y0108769D02*
X0474408Y0106809D01*
X0468708Y0106809D01*
X0468708Y0108769D01*
X0468708Y0107210D02*
X0474408Y0107210D01*
X0474408Y0107611D02*
X0468708Y0107611D01*
X0468708Y0108012D02*
X0474408Y0108012D01*
X0474408Y0108413D02*
X0468708Y0108413D01*
X0468708Y0113769D02*
X0474408Y0113769D01*
X0474408Y0111809D01*
X0468708Y0111809D01*
X0468708Y0113769D01*
X0468708Y0112210D02*
X0474408Y0112210D01*
X0474408Y0112611D02*
X0468708Y0112611D01*
X0468708Y0113012D02*
X0474408Y0113012D01*
X0474408Y0113413D02*
X0468708Y0113413D01*
X0468708Y0118769D02*
X0474408Y0118769D01*
X0474408Y0116809D01*
X0468708Y0116809D01*
X0468708Y0118769D01*
X0468708Y0117210D02*
X0474408Y0117210D01*
X0474408Y0117611D02*
X0468708Y0117611D01*
X0468708Y0118012D02*
X0474408Y0118012D01*
X0474408Y0118413D02*
X0468708Y0118413D01*
X0468708Y0123769D02*
X0474408Y0123769D01*
X0474408Y0121809D01*
X0468708Y0121809D01*
X0468708Y0123769D01*
X0468708Y0122210D02*
X0474408Y0122210D01*
X0474408Y0122611D02*
X0468708Y0122611D01*
X0468708Y0123012D02*
X0474408Y0123012D01*
X0474408Y0123413D02*
X0468708Y0123413D01*
D14*
X0450790Y0125968D02*
X0450790Y0130772D01*
X0450790Y0125968D02*
X0448986Y0125968D01*
X0448986Y0130772D01*
X0450790Y0130772D01*
X0450790Y0126363D02*
X0448986Y0126363D01*
X0448986Y0126758D02*
X0450790Y0126758D01*
X0450790Y0127153D02*
X0448986Y0127153D01*
X0448986Y0127548D02*
X0450790Y0127548D01*
X0450790Y0127943D02*
X0448986Y0127943D01*
X0448986Y0128338D02*
X0450790Y0128338D01*
X0450790Y0128733D02*
X0448986Y0128733D01*
X0448986Y0129128D02*
X0450790Y0129128D01*
X0450790Y0129523D02*
X0448986Y0129523D01*
X0448986Y0129918D02*
X0450790Y0129918D01*
X0450790Y0130313D02*
X0448986Y0130313D01*
X0448986Y0130708D02*
X0450790Y0130708D01*
X0447090Y0130772D02*
X0447090Y0125968D01*
X0445286Y0125968D01*
X0445286Y0130772D01*
X0447090Y0130772D01*
X0447090Y0126363D02*
X0445286Y0126363D01*
X0445286Y0126758D02*
X0447090Y0126758D01*
X0447090Y0127153D02*
X0445286Y0127153D01*
X0445286Y0127548D02*
X0447090Y0127548D01*
X0447090Y0127943D02*
X0445286Y0127943D01*
X0445286Y0128338D02*
X0447090Y0128338D01*
X0447090Y0128733D02*
X0445286Y0128733D01*
X0445286Y0129128D02*
X0447090Y0129128D01*
X0447090Y0129523D02*
X0445286Y0129523D01*
X0445286Y0129918D02*
X0447090Y0129918D01*
X0447090Y0130313D02*
X0445286Y0130313D01*
X0445286Y0130708D02*
X0447090Y0130708D01*
X0443390Y0130772D02*
X0443390Y0125968D01*
X0441586Y0125968D01*
X0441586Y0130772D01*
X0443390Y0130772D01*
X0443390Y0126363D02*
X0441586Y0126363D01*
X0441586Y0126758D02*
X0443390Y0126758D01*
X0443390Y0127153D02*
X0441586Y0127153D01*
X0441586Y0127548D02*
X0443390Y0127548D01*
X0443390Y0127943D02*
X0441586Y0127943D01*
X0441586Y0128338D02*
X0443390Y0128338D01*
X0443390Y0128733D02*
X0441586Y0128733D01*
X0441586Y0129128D02*
X0443390Y0129128D01*
X0443390Y0129523D02*
X0441586Y0129523D01*
X0441586Y0129918D02*
X0443390Y0129918D01*
X0443390Y0130313D02*
X0441586Y0130313D01*
X0441586Y0130708D02*
X0443390Y0130708D01*
X0443390Y0136768D02*
X0443390Y0141572D01*
X0443390Y0136768D02*
X0441586Y0136768D01*
X0441586Y0141572D01*
X0443390Y0141572D01*
X0443390Y0137163D02*
X0441586Y0137163D01*
X0441586Y0137558D02*
X0443390Y0137558D01*
X0443390Y0137953D02*
X0441586Y0137953D01*
X0441586Y0138348D02*
X0443390Y0138348D01*
X0443390Y0138743D02*
X0441586Y0138743D01*
X0441586Y0139138D02*
X0443390Y0139138D01*
X0443390Y0139533D02*
X0441586Y0139533D01*
X0441586Y0139928D02*
X0443390Y0139928D01*
X0443390Y0140323D02*
X0441586Y0140323D01*
X0441586Y0140718D02*
X0443390Y0140718D01*
X0443390Y0141113D02*
X0441586Y0141113D01*
X0441586Y0141508D02*
X0443390Y0141508D01*
X0450790Y0141572D02*
X0450790Y0136768D01*
X0448986Y0136768D01*
X0448986Y0141572D01*
X0450790Y0141572D01*
X0450790Y0137163D02*
X0448986Y0137163D01*
X0448986Y0137558D02*
X0450790Y0137558D01*
X0450790Y0137953D02*
X0448986Y0137953D01*
X0448986Y0138348D02*
X0450790Y0138348D01*
X0450790Y0138743D02*
X0448986Y0138743D01*
X0448986Y0139138D02*
X0450790Y0139138D01*
X0450790Y0139533D02*
X0448986Y0139533D01*
X0448986Y0139928D02*
X0450790Y0139928D01*
X0450790Y0140323D02*
X0448986Y0140323D01*
X0448986Y0140718D02*
X0450790Y0140718D01*
X0450790Y0141113D02*
X0448986Y0141113D01*
X0448986Y0141508D02*
X0450790Y0141508D01*
X0456636Y0160172D02*
X0462240Y0160172D01*
X0462240Y0158368D01*
X0456636Y0158368D01*
X0456636Y0160172D01*
X0456636Y0158763D02*
X0462240Y0158763D01*
X0462240Y0159158D02*
X0456636Y0159158D01*
X0456636Y0159553D02*
X0462240Y0159553D01*
X0462240Y0159948D02*
X0456636Y0159948D01*
X0453740Y0164172D02*
X0448136Y0164172D01*
X0453740Y0164172D02*
X0453740Y0162368D01*
X0448136Y0162368D01*
X0448136Y0164172D01*
X0448136Y0162763D02*
X0453740Y0162763D01*
X0453740Y0163158D02*
X0448136Y0163158D01*
X0448136Y0163553D02*
X0453740Y0163553D01*
X0453740Y0163948D02*
X0448136Y0163948D01*
X0456636Y0168172D02*
X0462240Y0168172D01*
X0462240Y0166368D01*
X0456636Y0166368D01*
X0456636Y0168172D01*
X0456636Y0166763D02*
X0462240Y0166763D01*
X0462240Y0167158D02*
X0456636Y0167158D01*
X0456636Y0167553D02*
X0462240Y0167553D01*
X0462240Y0167948D02*
X0456636Y0167948D01*
X0560136Y0140672D02*
X0560136Y0139968D01*
X0560136Y0140672D02*
X0565540Y0140672D01*
X0565540Y0139968D01*
X0560136Y0139968D01*
X0560136Y0140363D02*
X0565540Y0140363D01*
X0560136Y0138772D02*
X0560136Y0138068D01*
X0560136Y0138772D02*
X0565540Y0138772D01*
X0565540Y0138068D01*
X0560136Y0138068D01*
X0560136Y0138463D02*
X0565540Y0138463D01*
X0560136Y0136772D02*
X0560136Y0136068D01*
X0560136Y0136772D02*
X0565540Y0136772D01*
X0565540Y0136068D01*
X0560136Y0136068D01*
X0560136Y0136463D02*
X0565540Y0136463D01*
X0560136Y0134772D02*
X0560136Y0134068D01*
X0560136Y0134772D02*
X0565540Y0134772D01*
X0565540Y0134068D01*
X0560136Y0134068D01*
X0560136Y0134463D02*
X0565540Y0134463D01*
X0560136Y0132872D02*
X0560136Y0132168D01*
X0560136Y0132872D02*
X0565540Y0132872D01*
X0565540Y0132168D01*
X0560136Y0132168D01*
X0560136Y0132563D02*
X0565540Y0132563D01*
X0560136Y0130872D02*
X0560136Y0130168D01*
X0560136Y0130872D02*
X0565540Y0130872D01*
X0565540Y0130168D01*
X0560136Y0130168D01*
X0560136Y0130563D02*
X0565540Y0130563D01*
X0560136Y0128872D02*
X0560136Y0128168D01*
X0560136Y0128872D02*
X0565540Y0128872D01*
X0565540Y0128168D01*
X0560136Y0128168D01*
X0560136Y0128563D02*
X0565540Y0128563D01*
X0560136Y0126872D02*
X0560136Y0126168D01*
X0560136Y0126872D02*
X0565540Y0126872D01*
X0565540Y0126168D01*
X0560136Y0126168D01*
X0560136Y0126563D02*
X0565540Y0126563D01*
X0560136Y0124972D02*
X0560136Y0124268D01*
X0560136Y0124972D02*
X0565540Y0124972D01*
X0565540Y0124268D01*
X0560136Y0124268D01*
X0560136Y0124663D02*
X0565540Y0124663D01*
X0560136Y0122972D02*
X0560136Y0122268D01*
X0560136Y0122972D02*
X0565540Y0122972D01*
X0565540Y0122268D01*
X0560136Y0122268D01*
X0560136Y0122663D02*
X0565540Y0122663D01*
X0560136Y0120972D02*
X0560136Y0120268D01*
X0560136Y0120972D02*
X0565540Y0120972D01*
X0565540Y0120268D01*
X0560136Y0120268D01*
X0560136Y0120663D02*
X0565540Y0120663D01*
X0560136Y0119072D02*
X0560136Y0118368D01*
X0560136Y0119072D02*
X0565540Y0119072D01*
X0565540Y0118368D01*
X0560136Y0118368D01*
X0560136Y0118763D02*
X0565540Y0118763D01*
X0568286Y0115622D02*
X0568990Y0115622D01*
X0568990Y0110218D01*
X0568286Y0110218D01*
X0568286Y0115622D01*
X0568286Y0110613D02*
X0568990Y0110613D01*
X0568990Y0111008D02*
X0568286Y0111008D01*
X0568286Y0111403D02*
X0568990Y0111403D01*
X0568990Y0111798D02*
X0568286Y0111798D01*
X0568286Y0112193D02*
X0568990Y0112193D01*
X0568990Y0112588D02*
X0568286Y0112588D01*
X0568286Y0112983D02*
X0568990Y0112983D01*
X0568990Y0113378D02*
X0568286Y0113378D01*
X0568286Y0113773D02*
X0568990Y0113773D01*
X0568990Y0114168D02*
X0568286Y0114168D01*
X0568286Y0114563D02*
X0568990Y0114563D01*
X0568990Y0114958D02*
X0568286Y0114958D01*
X0568286Y0115353D02*
X0568990Y0115353D01*
X0570186Y0115622D02*
X0570890Y0115622D01*
X0570890Y0110218D01*
X0570186Y0110218D01*
X0570186Y0115622D01*
X0570186Y0110613D02*
X0570890Y0110613D01*
X0570890Y0111008D02*
X0570186Y0111008D01*
X0570186Y0111403D02*
X0570890Y0111403D01*
X0570890Y0111798D02*
X0570186Y0111798D01*
X0570186Y0112193D02*
X0570890Y0112193D01*
X0570890Y0112588D02*
X0570186Y0112588D01*
X0570186Y0112983D02*
X0570890Y0112983D01*
X0570890Y0113378D02*
X0570186Y0113378D01*
X0570186Y0113773D02*
X0570890Y0113773D01*
X0570890Y0114168D02*
X0570186Y0114168D01*
X0570186Y0114563D02*
X0570890Y0114563D01*
X0570890Y0114958D02*
X0570186Y0114958D01*
X0570186Y0115353D02*
X0570890Y0115353D01*
X0572186Y0115622D02*
X0572890Y0115622D01*
X0572890Y0110218D01*
X0572186Y0110218D01*
X0572186Y0115622D01*
X0572186Y0110613D02*
X0572890Y0110613D01*
X0572890Y0111008D02*
X0572186Y0111008D01*
X0572186Y0111403D02*
X0572890Y0111403D01*
X0572890Y0111798D02*
X0572186Y0111798D01*
X0572186Y0112193D02*
X0572890Y0112193D01*
X0572890Y0112588D02*
X0572186Y0112588D01*
X0572186Y0112983D02*
X0572890Y0112983D01*
X0572890Y0113378D02*
X0572186Y0113378D01*
X0572186Y0113773D02*
X0572890Y0113773D01*
X0572890Y0114168D02*
X0572186Y0114168D01*
X0572186Y0114563D02*
X0572890Y0114563D01*
X0572890Y0114958D02*
X0572186Y0114958D01*
X0572186Y0115353D02*
X0572890Y0115353D01*
X0574186Y0115622D02*
X0574890Y0115622D01*
X0574890Y0110218D01*
X0574186Y0110218D01*
X0574186Y0115622D01*
X0574186Y0110613D02*
X0574890Y0110613D01*
X0574890Y0111008D02*
X0574186Y0111008D01*
X0574186Y0111403D02*
X0574890Y0111403D01*
X0574890Y0111798D02*
X0574186Y0111798D01*
X0574186Y0112193D02*
X0574890Y0112193D01*
X0574890Y0112588D02*
X0574186Y0112588D01*
X0574186Y0112983D02*
X0574890Y0112983D01*
X0574890Y0113378D02*
X0574186Y0113378D01*
X0574186Y0113773D02*
X0574890Y0113773D01*
X0574890Y0114168D02*
X0574186Y0114168D01*
X0574186Y0114563D02*
X0574890Y0114563D01*
X0574890Y0114958D02*
X0574186Y0114958D01*
X0574186Y0115353D02*
X0574890Y0115353D01*
X0576086Y0115622D02*
X0576790Y0115622D01*
X0576790Y0110218D01*
X0576086Y0110218D01*
X0576086Y0115622D01*
X0576086Y0110613D02*
X0576790Y0110613D01*
X0576790Y0111008D02*
X0576086Y0111008D01*
X0576086Y0111403D02*
X0576790Y0111403D01*
X0576790Y0111798D02*
X0576086Y0111798D01*
X0576086Y0112193D02*
X0576790Y0112193D01*
X0576790Y0112588D02*
X0576086Y0112588D01*
X0576086Y0112983D02*
X0576790Y0112983D01*
X0576790Y0113378D02*
X0576086Y0113378D01*
X0576086Y0113773D02*
X0576790Y0113773D01*
X0576790Y0114168D02*
X0576086Y0114168D01*
X0576086Y0114563D02*
X0576790Y0114563D01*
X0576790Y0114958D02*
X0576086Y0114958D01*
X0576086Y0115353D02*
X0576790Y0115353D01*
X0578086Y0115622D02*
X0578790Y0115622D01*
X0578790Y0110218D01*
X0578086Y0110218D01*
X0578086Y0115622D01*
X0578086Y0110613D02*
X0578790Y0110613D01*
X0578790Y0111008D02*
X0578086Y0111008D01*
X0578086Y0111403D02*
X0578790Y0111403D01*
X0578790Y0111798D02*
X0578086Y0111798D01*
X0578086Y0112193D02*
X0578790Y0112193D01*
X0578790Y0112588D02*
X0578086Y0112588D01*
X0578086Y0112983D02*
X0578790Y0112983D01*
X0578790Y0113378D02*
X0578086Y0113378D01*
X0578086Y0113773D02*
X0578790Y0113773D01*
X0578790Y0114168D02*
X0578086Y0114168D01*
X0578086Y0114563D02*
X0578790Y0114563D01*
X0578790Y0114958D02*
X0578086Y0114958D01*
X0578086Y0115353D02*
X0578790Y0115353D01*
X0580086Y0115622D02*
X0580790Y0115622D01*
X0580790Y0110218D01*
X0580086Y0110218D01*
X0580086Y0115622D01*
X0580086Y0110613D02*
X0580790Y0110613D01*
X0580790Y0111008D02*
X0580086Y0111008D01*
X0580086Y0111403D02*
X0580790Y0111403D01*
X0580790Y0111798D02*
X0580086Y0111798D01*
X0580086Y0112193D02*
X0580790Y0112193D01*
X0580790Y0112588D02*
X0580086Y0112588D01*
X0580086Y0112983D02*
X0580790Y0112983D01*
X0580790Y0113378D02*
X0580086Y0113378D01*
X0580086Y0113773D02*
X0580790Y0113773D01*
X0580790Y0114168D02*
X0580086Y0114168D01*
X0580086Y0114563D02*
X0580790Y0114563D01*
X0580790Y0114958D02*
X0580086Y0114958D01*
X0580086Y0115353D02*
X0580790Y0115353D01*
X0582086Y0115622D02*
X0582790Y0115622D01*
X0582790Y0110218D01*
X0582086Y0110218D01*
X0582086Y0115622D01*
X0582086Y0110613D02*
X0582790Y0110613D01*
X0582790Y0111008D02*
X0582086Y0111008D01*
X0582086Y0111403D02*
X0582790Y0111403D01*
X0582790Y0111798D02*
X0582086Y0111798D01*
X0582086Y0112193D02*
X0582790Y0112193D01*
X0582790Y0112588D02*
X0582086Y0112588D01*
X0582086Y0112983D02*
X0582790Y0112983D01*
X0582790Y0113378D02*
X0582086Y0113378D01*
X0582086Y0113773D02*
X0582790Y0113773D01*
X0582790Y0114168D02*
X0582086Y0114168D01*
X0582086Y0114563D02*
X0582790Y0114563D01*
X0582790Y0114958D02*
X0582086Y0114958D01*
X0582086Y0115353D02*
X0582790Y0115353D01*
X0583986Y0115622D02*
X0584690Y0115622D01*
X0584690Y0110218D01*
X0583986Y0110218D01*
X0583986Y0115622D01*
X0583986Y0110613D02*
X0584690Y0110613D01*
X0584690Y0111008D02*
X0583986Y0111008D01*
X0583986Y0111403D02*
X0584690Y0111403D01*
X0584690Y0111798D02*
X0583986Y0111798D01*
X0583986Y0112193D02*
X0584690Y0112193D01*
X0584690Y0112588D02*
X0583986Y0112588D01*
X0583986Y0112983D02*
X0584690Y0112983D01*
X0584690Y0113378D02*
X0583986Y0113378D01*
X0583986Y0113773D02*
X0584690Y0113773D01*
X0584690Y0114168D02*
X0583986Y0114168D01*
X0583986Y0114563D02*
X0584690Y0114563D01*
X0584690Y0114958D02*
X0583986Y0114958D01*
X0583986Y0115353D02*
X0584690Y0115353D01*
X0585986Y0115622D02*
X0586690Y0115622D01*
X0586690Y0110218D01*
X0585986Y0110218D01*
X0585986Y0115622D01*
X0585986Y0110613D02*
X0586690Y0110613D01*
X0586690Y0111008D02*
X0585986Y0111008D01*
X0585986Y0111403D02*
X0586690Y0111403D01*
X0586690Y0111798D02*
X0585986Y0111798D01*
X0585986Y0112193D02*
X0586690Y0112193D01*
X0586690Y0112588D02*
X0585986Y0112588D01*
X0585986Y0112983D02*
X0586690Y0112983D01*
X0586690Y0113378D02*
X0585986Y0113378D01*
X0585986Y0113773D02*
X0586690Y0113773D01*
X0586690Y0114168D02*
X0585986Y0114168D01*
X0585986Y0114563D02*
X0586690Y0114563D01*
X0586690Y0114958D02*
X0585986Y0114958D01*
X0585986Y0115353D02*
X0586690Y0115353D01*
X0587986Y0115622D02*
X0588690Y0115622D01*
X0588690Y0110218D01*
X0587986Y0110218D01*
X0587986Y0115622D01*
X0587986Y0110613D02*
X0588690Y0110613D01*
X0588690Y0111008D02*
X0587986Y0111008D01*
X0587986Y0111403D02*
X0588690Y0111403D01*
X0588690Y0111798D02*
X0587986Y0111798D01*
X0587986Y0112193D02*
X0588690Y0112193D01*
X0588690Y0112588D02*
X0587986Y0112588D01*
X0587986Y0112983D02*
X0588690Y0112983D01*
X0588690Y0113378D02*
X0587986Y0113378D01*
X0587986Y0113773D02*
X0588690Y0113773D01*
X0588690Y0114168D02*
X0587986Y0114168D01*
X0587986Y0114563D02*
X0588690Y0114563D01*
X0588690Y0114958D02*
X0587986Y0114958D01*
X0587986Y0115353D02*
X0588690Y0115353D01*
X0589886Y0115622D02*
X0590590Y0115622D01*
X0590590Y0110218D01*
X0589886Y0110218D01*
X0589886Y0115622D01*
X0589886Y0110613D02*
X0590590Y0110613D01*
X0590590Y0111008D02*
X0589886Y0111008D01*
X0589886Y0111403D02*
X0590590Y0111403D01*
X0590590Y0111798D02*
X0589886Y0111798D01*
X0589886Y0112193D02*
X0590590Y0112193D01*
X0590590Y0112588D02*
X0589886Y0112588D01*
X0589886Y0112983D02*
X0590590Y0112983D01*
X0590590Y0113378D02*
X0589886Y0113378D01*
X0589886Y0113773D02*
X0590590Y0113773D01*
X0590590Y0114168D02*
X0589886Y0114168D01*
X0589886Y0114563D02*
X0590590Y0114563D01*
X0590590Y0114958D02*
X0589886Y0114958D01*
X0589886Y0115353D02*
X0590590Y0115353D01*
X0593336Y0118368D02*
X0593336Y0119072D01*
X0598740Y0119072D01*
X0598740Y0118368D01*
X0593336Y0118368D01*
X0593336Y0118763D02*
X0598740Y0118763D01*
X0593336Y0120268D02*
X0593336Y0120972D01*
X0598740Y0120972D01*
X0598740Y0120268D01*
X0593336Y0120268D01*
X0593336Y0120663D02*
X0598740Y0120663D01*
X0593336Y0122268D02*
X0593336Y0122972D01*
X0598740Y0122972D01*
X0598740Y0122268D01*
X0593336Y0122268D01*
X0593336Y0122663D02*
X0598740Y0122663D01*
X0593336Y0124268D02*
X0593336Y0124972D01*
X0598740Y0124972D01*
X0598740Y0124268D01*
X0593336Y0124268D01*
X0593336Y0124663D02*
X0598740Y0124663D01*
X0593336Y0126168D02*
X0593336Y0126872D01*
X0598740Y0126872D01*
X0598740Y0126168D01*
X0593336Y0126168D01*
X0593336Y0126563D02*
X0598740Y0126563D01*
X0593336Y0128168D02*
X0593336Y0128872D01*
X0598740Y0128872D01*
X0598740Y0128168D01*
X0593336Y0128168D01*
X0593336Y0128563D02*
X0598740Y0128563D01*
X0593336Y0130168D02*
X0593336Y0130872D01*
X0598740Y0130872D01*
X0598740Y0130168D01*
X0593336Y0130168D01*
X0593336Y0130563D02*
X0598740Y0130563D01*
X0593336Y0132168D02*
X0593336Y0132872D01*
X0598740Y0132872D01*
X0598740Y0132168D01*
X0593336Y0132168D01*
X0593336Y0132563D02*
X0598740Y0132563D01*
X0593336Y0134068D02*
X0593336Y0134772D01*
X0598740Y0134772D01*
X0598740Y0134068D01*
X0593336Y0134068D01*
X0593336Y0134463D02*
X0598740Y0134463D01*
X0593336Y0136068D02*
X0593336Y0136772D01*
X0598740Y0136772D01*
X0598740Y0136068D01*
X0593336Y0136068D01*
X0593336Y0136463D02*
X0598740Y0136463D01*
X0593336Y0138068D02*
X0593336Y0138772D01*
X0598740Y0138772D01*
X0598740Y0138068D01*
X0593336Y0138068D01*
X0593336Y0138463D02*
X0598740Y0138463D01*
X0593336Y0139968D02*
X0593336Y0140672D01*
X0598740Y0140672D01*
X0598740Y0139968D01*
X0593336Y0139968D01*
X0593336Y0140363D02*
X0598740Y0140363D01*
X0590590Y0148822D02*
X0589886Y0148822D01*
X0590590Y0148822D02*
X0590590Y0143418D01*
X0589886Y0143418D01*
X0589886Y0148822D01*
X0589886Y0143813D02*
X0590590Y0143813D01*
X0590590Y0144208D02*
X0589886Y0144208D01*
X0589886Y0144603D02*
X0590590Y0144603D01*
X0590590Y0144998D02*
X0589886Y0144998D01*
X0589886Y0145393D02*
X0590590Y0145393D01*
X0590590Y0145788D02*
X0589886Y0145788D01*
X0589886Y0146183D02*
X0590590Y0146183D01*
X0590590Y0146578D02*
X0589886Y0146578D01*
X0589886Y0146973D02*
X0590590Y0146973D01*
X0590590Y0147368D02*
X0589886Y0147368D01*
X0589886Y0147763D02*
X0590590Y0147763D01*
X0590590Y0148158D02*
X0589886Y0148158D01*
X0589886Y0148553D02*
X0590590Y0148553D01*
X0588690Y0148822D02*
X0587986Y0148822D01*
X0588690Y0148822D02*
X0588690Y0143418D01*
X0587986Y0143418D01*
X0587986Y0148822D01*
X0587986Y0143813D02*
X0588690Y0143813D01*
X0588690Y0144208D02*
X0587986Y0144208D01*
X0587986Y0144603D02*
X0588690Y0144603D01*
X0588690Y0144998D02*
X0587986Y0144998D01*
X0587986Y0145393D02*
X0588690Y0145393D01*
X0588690Y0145788D02*
X0587986Y0145788D01*
X0587986Y0146183D02*
X0588690Y0146183D01*
X0588690Y0146578D02*
X0587986Y0146578D01*
X0587986Y0146973D02*
X0588690Y0146973D01*
X0588690Y0147368D02*
X0587986Y0147368D01*
X0587986Y0147763D02*
X0588690Y0147763D01*
X0588690Y0148158D02*
X0587986Y0148158D01*
X0587986Y0148553D02*
X0588690Y0148553D01*
X0586690Y0148822D02*
X0585986Y0148822D01*
X0586690Y0148822D02*
X0586690Y0143418D01*
X0585986Y0143418D01*
X0585986Y0148822D01*
X0585986Y0143813D02*
X0586690Y0143813D01*
X0586690Y0144208D02*
X0585986Y0144208D01*
X0585986Y0144603D02*
X0586690Y0144603D01*
X0586690Y0144998D02*
X0585986Y0144998D01*
X0585986Y0145393D02*
X0586690Y0145393D01*
X0586690Y0145788D02*
X0585986Y0145788D01*
X0585986Y0146183D02*
X0586690Y0146183D01*
X0586690Y0146578D02*
X0585986Y0146578D01*
X0585986Y0146973D02*
X0586690Y0146973D01*
X0586690Y0147368D02*
X0585986Y0147368D01*
X0585986Y0147763D02*
X0586690Y0147763D01*
X0586690Y0148158D02*
X0585986Y0148158D01*
X0585986Y0148553D02*
X0586690Y0148553D01*
X0584690Y0148822D02*
X0583986Y0148822D01*
X0584690Y0148822D02*
X0584690Y0143418D01*
X0583986Y0143418D01*
X0583986Y0148822D01*
X0583986Y0143813D02*
X0584690Y0143813D01*
X0584690Y0144208D02*
X0583986Y0144208D01*
X0583986Y0144603D02*
X0584690Y0144603D01*
X0584690Y0144998D02*
X0583986Y0144998D01*
X0583986Y0145393D02*
X0584690Y0145393D01*
X0584690Y0145788D02*
X0583986Y0145788D01*
X0583986Y0146183D02*
X0584690Y0146183D01*
X0584690Y0146578D02*
X0583986Y0146578D01*
X0583986Y0146973D02*
X0584690Y0146973D01*
X0584690Y0147368D02*
X0583986Y0147368D01*
X0583986Y0147763D02*
X0584690Y0147763D01*
X0584690Y0148158D02*
X0583986Y0148158D01*
X0583986Y0148553D02*
X0584690Y0148553D01*
X0582790Y0148822D02*
X0582086Y0148822D01*
X0582790Y0148822D02*
X0582790Y0143418D01*
X0582086Y0143418D01*
X0582086Y0148822D01*
X0582086Y0143813D02*
X0582790Y0143813D01*
X0582790Y0144208D02*
X0582086Y0144208D01*
X0582086Y0144603D02*
X0582790Y0144603D01*
X0582790Y0144998D02*
X0582086Y0144998D01*
X0582086Y0145393D02*
X0582790Y0145393D01*
X0582790Y0145788D02*
X0582086Y0145788D01*
X0582086Y0146183D02*
X0582790Y0146183D01*
X0582790Y0146578D02*
X0582086Y0146578D01*
X0582086Y0146973D02*
X0582790Y0146973D01*
X0582790Y0147368D02*
X0582086Y0147368D01*
X0582086Y0147763D02*
X0582790Y0147763D01*
X0582790Y0148158D02*
X0582086Y0148158D01*
X0582086Y0148553D02*
X0582790Y0148553D01*
X0580790Y0148822D02*
X0580086Y0148822D01*
X0580790Y0148822D02*
X0580790Y0143418D01*
X0580086Y0143418D01*
X0580086Y0148822D01*
X0580086Y0143813D02*
X0580790Y0143813D01*
X0580790Y0144208D02*
X0580086Y0144208D01*
X0580086Y0144603D02*
X0580790Y0144603D01*
X0580790Y0144998D02*
X0580086Y0144998D01*
X0580086Y0145393D02*
X0580790Y0145393D01*
X0580790Y0145788D02*
X0580086Y0145788D01*
X0580086Y0146183D02*
X0580790Y0146183D01*
X0580790Y0146578D02*
X0580086Y0146578D01*
X0580086Y0146973D02*
X0580790Y0146973D01*
X0580790Y0147368D02*
X0580086Y0147368D01*
X0580086Y0147763D02*
X0580790Y0147763D01*
X0580790Y0148158D02*
X0580086Y0148158D01*
X0580086Y0148553D02*
X0580790Y0148553D01*
X0578790Y0148822D02*
X0578086Y0148822D01*
X0578790Y0148822D02*
X0578790Y0143418D01*
X0578086Y0143418D01*
X0578086Y0148822D01*
X0578086Y0143813D02*
X0578790Y0143813D01*
X0578790Y0144208D02*
X0578086Y0144208D01*
X0578086Y0144603D02*
X0578790Y0144603D01*
X0578790Y0144998D02*
X0578086Y0144998D01*
X0578086Y0145393D02*
X0578790Y0145393D01*
X0578790Y0145788D02*
X0578086Y0145788D01*
X0578086Y0146183D02*
X0578790Y0146183D01*
X0578790Y0146578D02*
X0578086Y0146578D01*
X0578086Y0146973D02*
X0578790Y0146973D01*
X0578790Y0147368D02*
X0578086Y0147368D01*
X0578086Y0147763D02*
X0578790Y0147763D01*
X0578790Y0148158D02*
X0578086Y0148158D01*
X0578086Y0148553D02*
X0578790Y0148553D01*
X0576790Y0148822D02*
X0576086Y0148822D01*
X0576790Y0148822D02*
X0576790Y0143418D01*
X0576086Y0143418D01*
X0576086Y0148822D01*
X0576086Y0143813D02*
X0576790Y0143813D01*
X0576790Y0144208D02*
X0576086Y0144208D01*
X0576086Y0144603D02*
X0576790Y0144603D01*
X0576790Y0144998D02*
X0576086Y0144998D01*
X0576086Y0145393D02*
X0576790Y0145393D01*
X0576790Y0145788D02*
X0576086Y0145788D01*
X0576086Y0146183D02*
X0576790Y0146183D01*
X0576790Y0146578D02*
X0576086Y0146578D01*
X0576086Y0146973D02*
X0576790Y0146973D01*
X0576790Y0147368D02*
X0576086Y0147368D01*
X0576086Y0147763D02*
X0576790Y0147763D01*
X0576790Y0148158D02*
X0576086Y0148158D01*
X0576086Y0148553D02*
X0576790Y0148553D01*
X0574890Y0148822D02*
X0574186Y0148822D01*
X0574890Y0148822D02*
X0574890Y0143418D01*
X0574186Y0143418D01*
X0574186Y0148822D01*
X0574186Y0143813D02*
X0574890Y0143813D01*
X0574890Y0144208D02*
X0574186Y0144208D01*
X0574186Y0144603D02*
X0574890Y0144603D01*
X0574890Y0144998D02*
X0574186Y0144998D01*
X0574186Y0145393D02*
X0574890Y0145393D01*
X0574890Y0145788D02*
X0574186Y0145788D01*
X0574186Y0146183D02*
X0574890Y0146183D01*
X0574890Y0146578D02*
X0574186Y0146578D01*
X0574186Y0146973D02*
X0574890Y0146973D01*
X0574890Y0147368D02*
X0574186Y0147368D01*
X0574186Y0147763D02*
X0574890Y0147763D01*
X0574890Y0148158D02*
X0574186Y0148158D01*
X0574186Y0148553D02*
X0574890Y0148553D01*
X0572890Y0148822D02*
X0572186Y0148822D01*
X0572890Y0148822D02*
X0572890Y0143418D01*
X0572186Y0143418D01*
X0572186Y0148822D01*
X0572186Y0143813D02*
X0572890Y0143813D01*
X0572890Y0144208D02*
X0572186Y0144208D01*
X0572186Y0144603D02*
X0572890Y0144603D01*
X0572890Y0144998D02*
X0572186Y0144998D01*
X0572186Y0145393D02*
X0572890Y0145393D01*
X0572890Y0145788D02*
X0572186Y0145788D01*
X0572186Y0146183D02*
X0572890Y0146183D01*
X0572890Y0146578D02*
X0572186Y0146578D01*
X0572186Y0146973D02*
X0572890Y0146973D01*
X0572890Y0147368D02*
X0572186Y0147368D01*
X0572186Y0147763D02*
X0572890Y0147763D01*
X0572890Y0148158D02*
X0572186Y0148158D01*
X0572186Y0148553D02*
X0572890Y0148553D01*
X0570890Y0148822D02*
X0570186Y0148822D01*
X0570890Y0148822D02*
X0570890Y0143418D01*
X0570186Y0143418D01*
X0570186Y0148822D01*
X0570186Y0143813D02*
X0570890Y0143813D01*
X0570890Y0144208D02*
X0570186Y0144208D01*
X0570186Y0144603D02*
X0570890Y0144603D01*
X0570890Y0144998D02*
X0570186Y0144998D01*
X0570186Y0145393D02*
X0570890Y0145393D01*
X0570890Y0145788D02*
X0570186Y0145788D01*
X0570186Y0146183D02*
X0570890Y0146183D01*
X0570890Y0146578D02*
X0570186Y0146578D01*
X0570186Y0146973D02*
X0570890Y0146973D01*
X0570890Y0147368D02*
X0570186Y0147368D01*
X0570186Y0147763D02*
X0570890Y0147763D01*
X0570890Y0148158D02*
X0570186Y0148158D01*
X0570186Y0148553D02*
X0570890Y0148553D01*
X0568990Y0148822D02*
X0568286Y0148822D01*
X0568990Y0148822D02*
X0568990Y0143418D01*
X0568286Y0143418D01*
X0568286Y0148822D01*
X0568286Y0143813D02*
X0568990Y0143813D01*
X0568990Y0144208D02*
X0568286Y0144208D01*
X0568286Y0144603D02*
X0568990Y0144603D01*
X0568990Y0144998D02*
X0568286Y0144998D01*
X0568286Y0145393D02*
X0568990Y0145393D01*
X0568990Y0145788D02*
X0568286Y0145788D01*
X0568286Y0146183D02*
X0568990Y0146183D01*
X0568990Y0146578D02*
X0568286Y0146578D01*
X0568286Y0146973D02*
X0568990Y0146973D01*
X0568990Y0147368D02*
X0568286Y0147368D01*
X0568286Y0147763D02*
X0568990Y0147763D01*
X0568990Y0148158D02*
X0568286Y0148158D01*
X0568286Y0148553D02*
X0568990Y0148553D01*
X0598136Y0272118D02*
X0603740Y0272118D01*
X0598136Y0272118D02*
X0598136Y0273922D01*
X0603740Y0273922D01*
X0603740Y0272118D01*
X0603740Y0272513D02*
X0598136Y0272513D01*
X0598136Y0272908D02*
X0603740Y0272908D01*
X0603740Y0273303D02*
X0598136Y0273303D01*
X0598136Y0273698D02*
X0603740Y0273698D01*
X0606636Y0276118D02*
X0612240Y0276118D01*
X0606636Y0276118D02*
X0606636Y0277922D01*
X0612240Y0277922D01*
X0612240Y0276118D01*
X0612240Y0276513D02*
X0606636Y0276513D01*
X0606636Y0276908D02*
X0612240Y0276908D01*
X0612240Y0277303D02*
X0606636Y0277303D01*
X0606636Y0277698D02*
X0612240Y0277698D01*
X0603740Y0280118D02*
X0598136Y0280118D01*
X0598136Y0281922D01*
X0603740Y0281922D01*
X0603740Y0280118D01*
X0603740Y0280513D02*
X0598136Y0280513D01*
X0598136Y0280908D02*
X0603740Y0280908D01*
X0603740Y0281303D02*
X0598136Y0281303D01*
X0598136Y0281698D02*
X0603740Y0281698D01*
X0573740Y0286672D02*
X0568136Y0286672D01*
X0573740Y0286672D02*
X0573740Y0284868D01*
X0568136Y0284868D01*
X0568136Y0286672D01*
X0568136Y0285263D02*
X0573740Y0285263D01*
X0573740Y0285658D02*
X0568136Y0285658D01*
X0568136Y0286053D02*
X0573740Y0286053D01*
X0573740Y0286448D02*
X0568136Y0286448D01*
X0565240Y0290672D02*
X0559636Y0290672D01*
X0565240Y0290672D02*
X0565240Y0288868D01*
X0559636Y0288868D01*
X0559636Y0290672D01*
X0559636Y0289263D02*
X0565240Y0289263D01*
X0565240Y0289658D02*
X0559636Y0289658D01*
X0559636Y0290053D02*
X0565240Y0290053D01*
X0565240Y0290448D02*
X0559636Y0290448D01*
X0568136Y0294672D02*
X0573740Y0294672D01*
X0573740Y0292868D01*
X0568136Y0292868D01*
X0568136Y0294672D01*
X0568136Y0293263D02*
X0573740Y0293263D01*
X0573740Y0293658D02*
X0568136Y0293658D01*
X0568136Y0294053D02*
X0573740Y0294053D01*
X0573740Y0294448D02*
X0568136Y0294448D01*
X0598136Y0410618D02*
X0603740Y0410618D01*
X0598136Y0410618D02*
X0598136Y0412422D01*
X0603740Y0412422D01*
X0603740Y0410618D01*
X0603740Y0411013D02*
X0598136Y0411013D01*
X0598136Y0411408D02*
X0603740Y0411408D01*
X0603740Y0411803D02*
X0598136Y0411803D01*
X0598136Y0412198D02*
X0603740Y0412198D01*
X0606636Y0414618D02*
X0612240Y0414618D01*
X0606636Y0414618D02*
X0606636Y0416422D01*
X0612240Y0416422D01*
X0612240Y0414618D01*
X0612240Y0415013D02*
X0606636Y0415013D01*
X0606636Y0415408D02*
X0612240Y0415408D01*
X0612240Y0415803D02*
X0606636Y0415803D01*
X0606636Y0416198D02*
X0612240Y0416198D01*
X0603740Y0418618D02*
X0598136Y0418618D01*
X0598136Y0420422D01*
X0603740Y0420422D01*
X0603740Y0418618D01*
X0603740Y0419013D02*
X0598136Y0419013D01*
X0598136Y0419408D02*
X0603740Y0419408D01*
X0603740Y0419803D02*
X0598136Y0419803D01*
X0598136Y0420198D02*
X0603740Y0420198D01*
X0472240Y0414618D02*
X0466636Y0414618D01*
X0466636Y0416422D01*
X0472240Y0416422D01*
X0472240Y0414618D01*
X0472240Y0415013D02*
X0466636Y0415013D01*
X0466636Y0415408D02*
X0472240Y0415408D01*
X0472240Y0415803D02*
X0466636Y0415803D01*
X0466636Y0416198D02*
X0472240Y0416198D01*
X0463740Y0418618D02*
X0458136Y0418618D01*
X0458136Y0420422D01*
X0463740Y0420422D01*
X0463740Y0418618D01*
X0463740Y0419013D02*
X0458136Y0419013D01*
X0458136Y0419408D02*
X0463740Y0419408D01*
X0463740Y0419803D02*
X0458136Y0419803D01*
X0458136Y0420198D02*
X0463740Y0420198D01*
X0463740Y0410618D02*
X0458136Y0410618D01*
X0458136Y0412422D01*
X0463740Y0412422D01*
X0463740Y0410618D01*
X0463740Y0411013D02*
X0458136Y0411013D01*
X0458136Y0411408D02*
X0463740Y0411408D01*
X0463740Y0411803D02*
X0458136Y0411803D01*
X0458136Y0412198D02*
X0463740Y0412198D01*
X0332240Y0414618D02*
X0326636Y0414618D01*
X0326636Y0416422D01*
X0332240Y0416422D01*
X0332240Y0414618D01*
X0332240Y0415013D02*
X0326636Y0415013D01*
X0326636Y0415408D02*
X0332240Y0415408D01*
X0332240Y0415803D02*
X0326636Y0415803D01*
X0326636Y0416198D02*
X0332240Y0416198D01*
X0323740Y0418618D02*
X0318136Y0418618D01*
X0318136Y0420422D01*
X0323740Y0420422D01*
X0323740Y0418618D01*
X0323740Y0419013D02*
X0318136Y0419013D01*
X0318136Y0419408D02*
X0323740Y0419408D01*
X0323740Y0419803D02*
X0318136Y0419803D01*
X0318136Y0420198D02*
X0323740Y0420198D01*
X0323740Y0410618D02*
X0318136Y0410618D01*
X0318136Y0412422D01*
X0323740Y0412422D01*
X0323740Y0410618D01*
X0323740Y0411013D02*
X0318136Y0411013D01*
X0318136Y0411408D02*
X0323740Y0411408D01*
X0323740Y0411803D02*
X0318136Y0411803D01*
X0318136Y0412198D02*
X0323740Y0412198D01*
D15*
X0308939Y0414135D02*
X0308939Y0409425D01*
X0308939Y0414135D02*
X0314437Y0414135D01*
X0314437Y0409425D01*
X0308939Y0409425D01*
X0308939Y0409833D02*
X0314437Y0409833D01*
X0314437Y0410241D02*
X0308939Y0410241D01*
X0308939Y0410649D02*
X0314437Y0410649D01*
X0314437Y0411057D02*
X0308939Y0411057D01*
X0308939Y0411465D02*
X0314437Y0411465D01*
X0314437Y0411873D02*
X0308939Y0411873D01*
X0308939Y0412281D02*
X0314437Y0412281D01*
X0314437Y0412689D02*
X0308939Y0412689D01*
X0308939Y0413097D02*
X0314437Y0413097D01*
X0314437Y0413505D02*
X0308939Y0413505D01*
X0308939Y0413913D02*
X0314437Y0413913D01*
X0308939Y0416905D02*
X0308939Y0421615D01*
X0314437Y0421615D01*
X0314437Y0416905D01*
X0308939Y0416905D01*
X0308939Y0417313D02*
X0314437Y0417313D01*
X0314437Y0417721D02*
X0308939Y0417721D01*
X0308939Y0418129D02*
X0314437Y0418129D01*
X0314437Y0418537D02*
X0308939Y0418537D01*
X0308939Y0418945D02*
X0314437Y0418945D01*
X0314437Y0419353D02*
X0308939Y0419353D01*
X0308939Y0419761D02*
X0314437Y0419761D01*
X0314437Y0420169D02*
X0308939Y0420169D01*
X0308939Y0420577D02*
X0314437Y0420577D01*
X0314437Y0420985D02*
X0308939Y0420985D01*
X0308939Y0421393D02*
X0314437Y0421393D01*
X0448939Y0421615D02*
X0448939Y0416905D01*
X0448939Y0421615D02*
X0454437Y0421615D01*
X0454437Y0416905D01*
X0448939Y0416905D01*
X0448939Y0417313D02*
X0454437Y0417313D01*
X0454437Y0417721D02*
X0448939Y0417721D01*
X0448939Y0418129D02*
X0454437Y0418129D01*
X0454437Y0418537D02*
X0448939Y0418537D01*
X0448939Y0418945D02*
X0454437Y0418945D01*
X0454437Y0419353D02*
X0448939Y0419353D01*
X0448939Y0419761D02*
X0454437Y0419761D01*
X0454437Y0420169D02*
X0448939Y0420169D01*
X0448939Y0420577D02*
X0454437Y0420577D01*
X0454437Y0420985D02*
X0448939Y0420985D01*
X0448939Y0421393D02*
X0454437Y0421393D01*
X0448939Y0414135D02*
X0448939Y0409425D01*
X0448939Y0414135D02*
X0454437Y0414135D01*
X0454437Y0409425D01*
X0448939Y0409425D01*
X0448939Y0409833D02*
X0454437Y0409833D01*
X0454437Y0410241D02*
X0448939Y0410241D01*
X0448939Y0410649D02*
X0454437Y0410649D01*
X0454437Y0411057D02*
X0448939Y0411057D01*
X0448939Y0411465D02*
X0454437Y0411465D01*
X0454437Y0411873D02*
X0448939Y0411873D01*
X0448939Y0412281D02*
X0454437Y0412281D01*
X0454437Y0412689D02*
X0448939Y0412689D01*
X0448939Y0413097D02*
X0454437Y0413097D01*
X0454437Y0413505D02*
X0448939Y0413505D01*
X0448939Y0413913D02*
X0454437Y0413913D01*
X0588939Y0414135D02*
X0588939Y0409425D01*
X0588939Y0414135D02*
X0594437Y0414135D01*
X0594437Y0409425D01*
X0588939Y0409425D01*
X0588939Y0409833D02*
X0594437Y0409833D01*
X0594437Y0410241D02*
X0588939Y0410241D01*
X0588939Y0410649D02*
X0594437Y0410649D01*
X0594437Y0411057D02*
X0588939Y0411057D01*
X0588939Y0411465D02*
X0594437Y0411465D01*
X0594437Y0411873D02*
X0588939Y0411873D01*
X0588939Y0412281D02*
X0594437Y0412281D01*
X0594437Y0412689D02*
X0588939Y0412689D01*
X0588939Y0413097D02*
X0594437Y0413097D01*
X0594437Y0413505D02*
X0588939Y0413505D01*
X0588939Y0413913D02*
X0594437Y0413913D01*
X0588939Y0416905D02*
X0588939Y0421615D01*
X0594437Y0421615D01*
X0594437Y0416905D01*
X0588939Y0416905D01*
X0588939Y0417313D02*
X0594437Y0417313D01*
X0594437Y0417721D02*
X0588939Y0417721D01*
X0588939Y0418129D02*
X0594437Y0418129D01*
X0594437Y0418537D02*
X0588939Y0418537D01*
X0588939Y0418945D02*
X0594437Y0418945D01*
X0594437Y0419353D02*
X0588939Y0419353D01*
X0588939Y0419761D02*
X0594437Y0419761D01*
X0594437Y0420169D02*
X0588939Y0420169D01*
X0588939Y0420577D02*
X0594437Y0420577D01*
X0594437Y0420985D02*
X0588939Y0420985D01*
X0588939Y0421393D02*
X0594437Y0421393D01*
X0583187Y0295615D02*
X0583187Y0290905D01*
X0577689Y0290905D01*
X0577689Y0295615D01*
X0583187Y0295615D01*
X0583187Y0291313D02*
X0577689Y0291313D01*
X0577689Y0291721D02*
X0583187Y0291721D01*
X0583187Y0292129D02*
X0577689Y0292129D01*
X0577689Y0292537D02*
X0583187Y0292537D01*
X0583187Y0292945D02*
X0577689Y0292945D01*
X0577689Y0293353D02*
X0583187Y0293353D01*
X0583187Y0293761D02*
X0577689Y0293761D01*
X0577689Y0294169D02*
X0583187Y0294169D01*
X0583187Y0294577D02*
X0577689Y0294577D01*
X0577689Y0294985D02*
X0583187Y0294985D01*
X0583187Y0295393D02*
X0577689Y0295393D01*
X0583187Y0288135D02*
X0583187Y0283425D01*
X0577689Y0283425D01*
X0577689Y0288135D01*
X0583187Y0288135D01*
X0583187Y0283833D02*
X0577689Y0283833D01*
X0577689Y0284241D02*
X0583187Y0284241D01*
X0583187Y0284649D02*
X0577689Y0284649D01*
X0577689Y0285057D02*
X0583187Y0285057D01*
X0583187Y0285465D02*
X0577689Y0285465D01*
X0577689Y0285873D02*
X0583187Y0285873D01*
X0583187Y0286281D02*
X0577689Y0286281D01*
X0577689Y0286689D02*
X0583187Y0286689D01*
X0583187Y0287097D02*
X0577689Y0287097D01*
X0577689Y0287505D02*
X0583187Y0287505D01*
X0583187Y0287913D02*
X0577689Y0287913D01*
X0588939Y0283115D02*
X0588939Y0278405D01*
X0588939Y0283115D02*
X0594437Y0283115D01*
X0594437Y0278405D01*
X0588939Y0278405D01*
X0588939Y0278813D02*
X0594437Y0278813D01*
X0594437Y0279221D02*
X0588939Y0279221D01*
X0588939Y0279629D02*
X0594437Y0279629D01*
X0594437Y0280037D02*
X0588939Y0280037D01*
X0588939Y0280445D02*
X0594437Y0280445D01*
X0594437Y0280853D02*
X0588939Y0280853D01*
X0588939Y0281261D02*
X0594437Y0281261D01*
X0594437Y0281669D02*
X0588939Y0281669D01*
X0588939Y0282077D02*
X0594437Y0282077D01*
X0594437Y0282485D02*
X0588939Y0282485D01*
X0588939Y0282893D02*
X0594437Y0282893D01*
X0588939Y0275635D02*
X0588939Y0270925D01*
X0588939Y0275635D02*
X0594437Y0275635D01*
X0594437Y0270925D01*
X0588939Y0270925D01*
X0588939Y0271333D02*
X0594437Y0271333D01*
X0594437Y0271741D02*
X0588939Y0271741D01*
X0588939Y0272149D02*
X0594437Y0272149D01*
X0594437Y0272557D02*
X0588939Y0272557D01*
X0588939Y0272965D02*
X0594437Y0272965D01*
X0594437Y0273373D02*
X0588939Y0273373D01*
X0588939Y0273781D02*
X0594437Y0273781D01*
X0594437Y0274189D02*
X0588939Y0274189D01*
X0588939Y0274597D02*
X0594437Y0274597D01*
X0594437Y0275005D02*
X0588939Y0275005D01*
X0588939Y0275413D02*
X0594437Y0275413D01*
X0471187Y0169615D02*
X0471187Y0164905D01*
X0465689Y0164905D01*
X0465689Y0169615D01*
X0471187Y0169615D01*
X0471187Y0165313D02*
X0465689Y0165313D01*
X0465689Y0165721D02*
X0471187Y0165721D01*
X0471187Y0166129D02*
X0465689Y0166129D01*
X0465689Y0166537D02*
X0471187Y0166537D01*
X0471187Y0166945D02*
X0465689Y0166945D01*
X0465689Y0167353D02*
X0471187Y0167353D01*
X0471187Y0167761D02*
X0465689Y0167761D01*
X0465689Y0168169D02*
X0471187Y0168169D01*
X0471187Y0168577D02*
X0465689Y0168577D01*
X0465689Y0168985D02*
X0471187Y0168985D01*
X0471187Y0169393D02*
X0465689Y0169393D01*
X0471187Y0162135D02*
X0471187Y0157425D01*
X0465689Y0157425D01*
X0465689Y0162135D01*
X0471187Y0162135D01*
X0471187Y0157833D02*
X0465689Y0157833D01*
X0465689Y0158241D02*
X0471187Y0158241D01*
X0471187Y0158649D02*
X0465689Y0158649D01*
X0465689Y0159057D02*
X0471187Y0159057D01*
X0471187Y0159465D02*
X0465689Y0159465D01*
X0465689Y0159873D02*
X0471187Y0159873D01*
X0471187Y0160281D02*
X0465689Y0160281D01*
X0465689Y0160689D02*
X0471187Y0160689D01*
X0471187Y0161097D02*
X0465689Y0161097D01*
X0465689Y0161505D02*
X0471187Y0161505D01*
X0471187Y0161913D02*
X0465689Y0161913D01*
X0443033Y0150269D02*
X0438323Y0150269D01*
X0443033Y0150269D02*
X0443033Y0144771D01*
X0438323Y0144771D01*
X0438323Y0150269D01*
X0438323Y0145179D02*
X0443033Y0145179D01*
X0443033Y0145587D02*
X0438323Y0145587D01*
X0438323Y0145995D02*
X0443033Y0145995D01*
X0443033Y0146403D02*
X0438323Y0146403D01*
X0438323Y0146811D02*
X0443033Y0146811D01*
X0443033Y0147219D02*
X0438323Y0147219D01*
X0438323Y0147627D02*
X0443033Y0147627D01*
X0443033Y0148035D02*
X0438323Y0148035D01*
X0438323Y0148443D02*
X0443033Y0148443D01*
X0443033Y0148851D02*
X0438323Y0148851D01*
X0438323Y0149259D02*
X0443033Y0149259D01*
X0443033Y0149667D02*
X0438323Y0149667D01*
X0438323Y0150075D02*
X0443033Y0150075D01*
X0435553Y0150269D02*
X0430843Y0150269D01*
X0435553Y0150269D02*
X0435553Y0144771D01*
X0430843Y0144771D01*
X0430843Y0150269D01*
X0430843Y0145179D02*
X0435553Y0145179D01*
X0435553Y0145587D02*
X0430843Y0145587D01*
X0430843Y0145995D02*
X0435553Y0145995D01*
X0435553Y0146403D02*
X0430843Y0146403D01*
X0430843Y0146811D02*
X0435553Y0146811D01*
X0435553Y0147219D02*
X0430843Y0147219D01*
X0430843Y0147627D02*
X0435553Y0147627D01*
X0435553Y0148035D02*
X0430843Y0148035D01*
X0430843Y0148443D02*
X0435553Y0148443D01*
X0435553Y0148851D02*
X0430843Y0148851D01*
X0430843Y0149259D02*
X0435553Y0149259D01*
X0435553Y0149667D02*
X0430843Y0149667D01*
X0430843Y0150075D02*
X0435553Y0150075D01*
X0431689Y0138365D02*
X0431689Y0133655D01*
X0431689Y0138365D02*
X0437187Y0138365D01*
X0437187Y0133655D01*
X0431689Y0133655D01*
X0431689Y0134063D02*
X0437187Y0134063D01*
X0437187Y0134471D02*
X0431689Y0134471D01*
X0431689Y0134879D02*
X0437187Y0134879D01*
X0437187Y0135287D02*
X0431689Y0135287D01*
X0431689Y0135695D02*
X0437187Y0135695D01*
X0437187Y0136103D02*
X0431689Y0136103D01*
X0431689Y0136511D02*
X0437187Y0136511D01*
X0437187Y0136919D02*
X0431689Y0136919D01*
X0431689Y0137327D02*
X0437187Y0137327D01*
X0437187Y0137735D02*
X0431689Y0137735D01*
X0431689Y0138143D02*
X0437187Y0138143D01*
X0431689Y0130885D02*
X0431689Y0126175D01*
X0431689Y0130885D02*
X0437187Y0130885D01*
X0437187Y0126175D01*
X0431689Y0126175D01*
X0431689Y0126583D02*
X0437187Y0126583D01*
X0437187Y0126991D02*
X0431689Y0126991D01*
X0431689Y0127399D02*
X0437187Y0127399D01*
X0437187Y0127807D02*
X0431689Y0127807D01*
X0431689Y0128215D02*
X0437187Y0128215D01*
X0437187Y0128623D02*
X0431689Y0128623D01*
X0431689Y0129031D02*
X0437187Y0129031D01*
X0437187Y0129439D02*
X0431689Y0129439D01*
X0431689Y0129847D02*
X0437187Y0129847D01*
X0437187Y0130255D02*
X0431689Y0130255D01*
X0431689Y0130663D02*
X0437187Y0130663D01*
X0460687Y0132885D02*
X0460687Y0128175D01*
X0455189Y0128175D01*
X0455189Y0132885D01*
X0460687Y0132885D01*
X0460687Y0128583D02*
X0455189Y0128583D01*
X0455189Y0128991D02*
X0460687Y0128991D01*
X0460687Y0129399D02*
X0455189Y0129399D01*
X0455189Y0129807D02*
X0460687Y0129807D01*
X0460687Y0130215D02*
X0455189Y0130215D01*
X0455189Y0130623D02*
X0460687Y0130623D01*
X0460687Y0131031D02*
X0455189Y0131031D01*
X0455189Y0131439D02*
X0460687Y0131439D01*
X0460687Y0131847D02*
X0455189Y0131847D01*
X0455189Y0132255D02*
X0460687Y0132255D01*
X0460687Y0132663D02*
X0455189Y0132663D01*
X0460687Y0135655D02*
X0460687Y0140365D01*
X0460687Y0135655D02*
X0455189Y0135655D01*
X0455189Y0140365D01*
X0460687Y0140365D01*
X0460687Y0136063D02*
X0455189Y0136063D01*
X0455189Y0136471D02*
X0460687Y0136471D01*
X0460687Y0136879D02*
X0455189Y0136879D01*
X0455189Y0137287D02*
X0460687Y0137287D01*
X0460687Y0137695D02*
X0455189Y0137695D01*
X0455189Y0138103D02*
X0460687Y0138103D01*
X0460687Y0138511D02*
X0455189Y0138511D01*
X0455189Y0138919D02*
X0460687Y0138919D01*
X0460687Y0139327D02*
X0455189Y0139327D01*
X0455189Y0139735D02*
X0460687Y0139735D01*
X0460687Y0140143D02*
X0455189Y0140143D01*
X0525937Y0140405D02*
X0525937Y0145115D01*
X0525937Y0140405D02*
X0520439Y0140405D01*
X0520439Y0145115D01*
X0525937Y0145115D01*
X0525937Y0140813D02*
X0520439Y0140813D01*
X0520439Y0141221D02*
X0525937Y0141221D01*
X0525937Y0141629D02*
X0520439Y0141629D01*
X0520439Y0142037D02*
X0525937Y0142037D01*
X0525937Y0142445D02*
X0520439Y0142445D01*
X0520439Y0142853D02*
X0525937Y0142853D01*
X0525937Y0143261D02*
X0520439Y0143261D01*
X0520439Y0143669D02*
X0525937Y0143669D01*
X0525937Y0144077D02*
X0520439Y0144077D01*
X0520439Y0144485D02*
X0525937Y0144485D01*
X0525937Y0144893D02*
X0520439Y0144893D01*
X0525937Y0137635D02*
X0525937Y0132925D01*
X0520439Y0132925D01*
X0520439Y0137635D01*
X0525937Y0137635D01*
X0525937Y0133333D02*
X0520439Y0133333D01*
X0520439Y0133741D02*
X0525937Y0133741D01*
X0525937Y0134149D02*
X0520439Y0134149D01*
X0520439Y0134557D02*
X0525937Y0134557D01*
X0525937Y0134965D02*
X0520439Y0134965D01*
X0520439Y0135373D02*
X0525937Y0135373D01*
X0525937Y0135781D02*
X0520439Y0135781D01*
X0520439Y0136189D02*
X0525937Y0136189D01*
X0525937Y0136597D02*
X0520439Y0136597D01*
X0520439Y0137005D02*
X0525937Y0137005D01*
X0525937Y0137413D02*
X0520439Y0137413D01*
X0543343Y0123521D02*
X0548053Y0123521D01*
X0543343Y0123521D02*
X0543343Y0129019D01*
X0548053Y0129019D01*
X0548053Y0123521D01*
X0548053Y0123929D02*
X0543343Y0123929D01*
X0543343Y0124337D02*
X0548053Y0124337D01*
X0548053Y0124745D02*
X0543343Y0124745D01*
X0543343Y0125153D02*
X0548053Y0125153D01*
X0548053Y0125561D02*
X0543343Y0125561D01*
X0543343Y0125969D02*
X0548053Y0125969D01*
X0548053Y0126377D02*
X0543343Y0126377D01*
X0543343Y0126785D02*
X0548053Y0126785D01*
X0548053Y0127193D02*
X0543343Y0127193D01*
X0543343Y0127601D02*
X0548053Y0127601D01*
X0548053Y0128009D02*
X0543343Y0128009D01*
X0543343Y0128417D02*
X0548053Y0128417D01*
X0548053Y0128825D02*
X0543343Y0128825D01*
X0550823Y0123521D02*
X0555533Y0123521D01*
X0550823Y0123521D02*
X0550823Y0129019D01*
X0555533Y0129019D01*
X0555533Y0123521D01*
X0555533Y0123929D02*
X0550823Y0123929D01*
X0550823Y0124337D02*
X0555533Y0124337D01*
X0555533Y0124745D02*
X0550823Y0124745D01*
X0550823Y0125153D02*
X0555533Y0125153D01*
X0555533Y0125561D02*
X0550823Y0125561D01*
X0550823Y0125969D02*
X0555533Y0125969D01*
X0555533Y0126377D02*
X0550823Y0126377D01*
X0550823Y0126785D02*
X0555533Y0126785D01*
X0555533Y0127193D02*
X0550823Y0127193D01*
X0550823Y0127601D02*
X0555533Y0127601D01*
X0555533Y0128009D02*
X0550823Y0128009D01*
X0550823Y0128417D02*
X0555533Y0128417D01*
X0555533Y0128825D02*
X0550823Y0128825D01*
X0548593Y0150519D02*
X0553303Y0150519D01*
X0553303Y0145021D01*
X0548593Y0145021D01*
X0548593Y0150519D01*
X0548593Y0145429D02*
X0553303Y0145429D01*
X0553303Y0145837D02*
X0548593Y0145837D01*
X0548593Y0146245D02*
X0553303Y0146245D01*
X0553303Y0146653D02*
X0548593Y0146653D01*
X0548593Y0147061D02*
X0553303Y0147061D01*
X0553303Y0147469D02*
X0548593Y0147469D01*
X0548593Y0147877D02*
X0553303Y0147877D01*
X0553303Y0148285D02*
X0548593Y0148285D01*
X0548593Y0148693D02*
X0553303Y0148693D01*
X0553303Y0149101D02*
X0548593Y0149101D01*
X0548593Y0149509D02*
X0553303Y0149509D01*
X0553303Y0149917D02*
X0548593Y0149917D01*
X0548593Y0150325D02*
X0553303Y0150325D01*
X0556073Y0150519D02*
X0560783Y0150519D01*
X0560783Y0145021D01*
X0556073Y0145021D01*
X0556073Y0150519D01*
X0556073Y0145429D02*
X0560783Y0145429D01*
X0560783Y0145837D02*
X0556073Y0145837D01*
X0556073Y0146245D02*
X0560783Y0146245D01*
X0560783Y0146653D02*
X0556073Y0146653D01*
X0556073Y0147061D02*
X0560783Y0147061D01*
X0560783Y0147469D02*
X0556073Y0147469D01*
X0556073Y0147877D02*
X0560783Y0147877D01*
X0560783Y0148285D02*
X0556073Y0148285D01*
X0556073Y0148693D02*
X0560783Y0148693D01*
X0560783Y0149101D02*
X0556073Y0149101D01*
X0556073Y0149509D02*
X0560783Y0149509D01*
X0560783Y0149917D02*
X0556073Y0149917D01*
X0556073Y0150325D02*
X0560783Y0150325D01*
X0344273Y0125271D02*
X0339563Y0125271D01*
X0339563Y0130769D01*
X0344273Y0130769D01*
X0344273Y0125271D01*
X0344273Y0125679D02*
X0339563Y0125679D01*
X0339563Y0126087D02*
X0344273Y0126087D01*
X0344273Y0126495D02*
X0339563Y0126495D01*
X0339563Y0126903D02*
X0344273Y0126903D01*
X0344273Y0127311D02*
X0339563Y0127311D01*
X0339563Y0127719D02*
X0344273Y0127719D01*
X0344273Y0128127D02*
X0339563Y0128127D01*
X0339563Y0128535D02*
X0344273Y0128535D01*
X0344273Y0128943D02*
X0339563Y0128943D01*
X0339563Y0129351D02*
X0344273Y0129351D01*
X0344273Y0129759D02*
X0339563Y0129759D01*
X0339563Y0130167D02*
X0344273Y0130167D01*
X0344273Y0130575D02*
X0339563Y0130575D01*
X0336793Y0125271D02*
X0332083Y0125271D01*
X0332083Y0130769D01*
X0336793Y0130769D01*
X0336793Y0125271D01*
X0336793Y0125679D02*
X0332083Y0125679D01*
X0332083Y0126087D02*
X0336793Y0126087D01*
X0336793Y0126495D02*
X0332083Y0126495D01*
X0332083Y0126903D02*
X0336793Y0126903D01*
X0336793Y0127311D02*
X0332083Y0127311D01*
X0332083Y0127719D02*
X0336793Y0127719D01*
X0336793Y0128127D02*
X0332083Y0128127D01*
X0332083Y0128535D02*
X0336793Y0128535D01*
X0336793Y0128943D02*
X0332083Y0128943D01*
X0332083Y0129351D02*
X0336793Y0129351D01*
X0336793Y0129759D02*
X0332083Y0129759D01*
X0332083Y0130167D02*
X0336793Y0130167D01*
X0336793Y0130575D02*
X0332083Y0130575D01*
X0329312Y0125271D02*
X0324602Y0125271D01*
X0324602Y0130769D01*
X0329312Y0130769D01*
X0329312Y0125271D01*
X0329312Y0125679D02*
X0324602Y0125679D01*
X0324602Y0126087D02*
X0329312Y0126087D01*
X0329312Y0126495D02*
X0324602Y0126495D01*
X0324602Y0126903D02*
X0329312Y0126903D01*
X0329312Y0127311D02*
X0324602Y0127311D01*
X0324602Y0127719D02*
X0329312Y0127719D01*
X0329312Y0128127D02*
X0324602Y0128127D01*
X0324602Y0128535D02*
X0329312Y0128535D01*
X0329312Y0128943D02*
X0324602Y0128943D01*
X0324602Y0129351D02*
X0329312Y0129351D01*
X0329312Y0129759D02*
X0324602Y0129759D01*
X0324602Y0130167D02*
X0329312Y0130167D01*
X0329312Y0130575D02*
X0324602Y0130575D01*
D16*
X0625133Y0166565D02*
X0625133Y0178975D01*
X0627743Y0178975D01*
X0627743Y0166565D01*
X0625133Y0166565D01*
X0625133Y0166954D02*
X0627743Y0166954D01*
X0627743Y0167343D02*
X0625133Y0167343D01*
X0625133Y0167732D02*
X0627743Y0167732D01*
X0627743Y0168121D02*
X0625133Y0168121D01*
X0625133Y0168510D02*
X0627743Y0168510D01*
X0627743Y0168899D02*
X0625133Y0168899D01*
X0625133Y0169288D02*
X0627743Y0169288D01*
X0627743Y0169677D02*
X0625133Y0169677D01*
X0625133Y0170066D02*
X0627743Y0170066D01*
X0627743Y0170455D02*
X0625133Y0170455D01*
X0625133Y0170844D02*
X0627743Y0170844D01*
X0627743Y0171233D02*
X0625133Y0171233D01*
X0625133Y0171622D02*
X0627743Y0171622D01*
X0627743Y0172011D02*
X0625133Y0172011D01*
X0625133Y0172400D02*
X0627743Y0172400D01*
X0627743Y0172789D02*
X0625133Y0172789D01*
X0625133Y0173178D02*
X0627743Y0173178D01*
X0627743Y0173567D02*
X0625133Y0173567D01*
X0625133Y0173956D02*
X0627743Y0173956D01*
X0627743Y0174345D02*
X0625133Y0174345D01*
X0625133Y0174734D02*
X0627743Y0174734D01*
X0627743Y0175123D02*
X0625133Y0175123D01*
X0625133Y0175512D02*
X0627743Y0175512D01*
X0627743Y0175901D02*
X0625133Y0175901D01*
X0625133Y0176290D02*
X0627743Y0176290D01*
X0627743Y0176679D02*
X0625133Y0176679D01*
X0625133Y0177068D02*
X0627743Y0177068D01*
X0627743Y0177457D02*
X0625133Y0177457D01*
X0625133Y0177846D02*
X0627743Y0177846D01*
X0627743Y0178235D02*
X0625133Y0178235D01*
X0625133Y0178624D02*
X0627743Y0178624D01*
X0625133Y0185565D02*
X0625133Y0197975D01*
X0627743Y0197975D01*
X0627743Y0185565D01*
X0625133Y0185565D01*
X0625133Y0185954D02*
X0627743Y0185954D01*
X0627743Y0186343D02*
X0625133Y0186343D01*
X0625133Y0186732D02*
X0627743Y0186732D01*
X0627743Y0187121D02*
X0625133Y0187121D01*
X0625133Y0187510D02*
X0627743Y0187510D01*
X0627743Y0187899D02*
X0625133Y0187899D01*
X0625133Y0188288D02*
X0627743Y0188288D01*
X0627743Y0188677D02*
X0625133Y0188677D01*
X0625133Y0189066D02*
X0627743Y0189066D01*
X0627743Y0189455D02*
X0625133Y0189455D01*
X0625133Y0189844D02*
X0627743Y0189844D01*
X0627743Y0190233D02*
X0625133Y0190233D01*
X0625133Y0190622D02*
X0627743Y0190622D01*
X0627743Y0191011D02*
X0625133Y0191011D01*
X0625133Y0191400D02*
X0627743Y0191400D01*
X0627743Y0191789D02*
X0625133Y0191789D01*
X0625133Y0192178D02*
X0627743Y0192178D01*
X0627743Y0192567D02*
X0625133Y0192567D01*
X0625133Y0192956D02*
X0627743Y0192956D01*
X0627743Y0193345D02*
X0625133Y0193345D01*
X0625133Y0193734D02*
X0627743Y0193734D01*
X0627743Y0194123D02*
X0625133Y0194123D01*
X0625133Y0194512D02*
X0627743Y0194512D01*
X0627743Y0194901D02*
X0625133Y0194901D01*
X0625133Y0195290D02*
X0627743Y0195290D01*
X0627743Y0195679D02*
X0625133Y0195679D01*
X0625133Y0196068D02*
X0627743Y0196068D01*
X0627743Y0196457D02*
X0625133Y0196457D01*
X0625133Y0196846D02*
X0627743Y0196846D01*
X0627743Y0197235D02*
X0625133Y0197235D01*
X0625133Y0197624D02*
X0627743Y0197624D01*
D17*
X0500635Y0140123D02*
X0496441Y0140123D01*
X0496441Y0141117D01*
X0500635Y0141117D01*
X0500635Y0140123D01*
X0500635Y0140528D02*
X0496441Y0140528D01*
X0496441Y0140933D02*
X0500635Y0140933D01*
X0500635Y0134923D02*
X0496441Y0134923D01*
X0496441Y0135917D01*
X0500635Y0135917D01*
X0500635Y0134923D01*
X0500635Y0135328D02*
X0496441Y0135328D01*
X0496441Y0135733D02*
X0500635Y0135733D01*
X0492435Y0134923D02*
X0488241Y0134923D01*
X0488241Y0135917D01*
X0492435Y0135917D01*
X0492435Y0134923D01*
X0492435Y0135328D02*
X0488241Y0135328D01*
X0488241Y0135733D02*
X0492435Y0135733D01*
X0492435Y0137523D02*
X0488241Y0137523D01*
X0488241Y0138517D01*
X0492435Y0138517D01*
X0492435Y0137523D01*
X0492435Y0137928D02*
X0488241Y0137928D01*
X0488241Y0138333D02*
X0492435Y0138333D01*
X0492435Y0140123D02*
X0488241Y0140123D01*
X0488241Y0141117D01*
X0492435Y0141117D01*
X0492435Y0140123D01*
X0492435Y0140528D02*
X0488241Y0140528D01*
X0488241Y0140933D02*
X0492435Y0140933D01*
D18*
X0657680Y0077831D03*
X0153743Y0430193D03*
X0104530Y0111295D03*
D19*
X0230081Y0227638D03*
X0249924Y0227638D03*
X0269766Y0227638D03*
X0269766Y0257402D03*
X0249924Y0257402D03*
X0230081Y0257402D03*
X0370081Y0257402D03*
X0389924Y0257402D03*
X0409766Y0257402D03*
X0409766Y0227638D03*
X0389924Y0227638D03*
X0370081Y0227638D03*
X0510081Y0227638D03*
X0529924Y0227638D03*
X0549766Y0227638D03*
X0549766Y0257402D03*
X0529924Y0257402D03*
X0510081Y0257402D03*
X0510081Y0366138D03*
X0529924Y0366138D03*
X0549766Y0366138D03*
X0549766Y0395902D03*
X0529924Y0395902D03*
X0510081Y0395902D03*
X0409766Y0395902D03*
X0389924Y0395902D03*
X0370081Y0395902D03*
X0370081Y0366138D03*
X0389924Y0366138D03*
X0409766Y0366138D03*
X0269766Y0366138D03*
X0249924Y0366138D03*
X0230081Y0366138D03*
X0230081Y0395902D03*
X0249924Y0395902D03*
X0269766Y0395902D03*
D20*
X0329294Y0395902D03*
X0329294Y0366138D03*
X0469294Y0366138D03*
X0469294Y0395902D03*
X0609294Y0395902D03*
X0609294Y0366138D03*
X0609294Y0257402D03*
X0609294Y0227638D03*
X0469294Y0227638D03*
X0469294Y0257402D03*
X0329294Y0257402D03*
X0329294Y0227638D03*
X0166932Y0233441D03*
X0166932Y0218441D03*
X0166932Y0203441D03*
X0166932Y0188441D03*
X0166932Y0173441D03*
X0166932Y0158441D03*
X0166932Y0143441D03*
X0116932Y0143441D03*
X0116932Y0158441D03*
X0116932Y0173441D03*
X0116932Y0188441D03*
X0116932Y0203441D03*
X0116932Y0218441D03*
X0116932Y0233441D03*
X0116932Y0248441D03*
X0116932Y0269425D03*
X0116932Y0284425D03*
X0116932Y0299425D03*
X0116932Y0314425D03*
X0116932Y0329425D03*
X0116932Y0344425D03*
X0116932Y0359425D03*
X0116932Y0374425D03*
X0166932Y0359425D03*
X0166932Y0344425D03*
X0166932Y0329425D03*
X0166932Y0314425D03*
X0166932Y0299425D03*
X0166932Y0284425D03*
X0166932Y0269425D03*
D21*
X0231424Y0284020D02*
X0237424Y0284020D01*
X0260951Y0274020D02*
X0266951Y0274020D01*
X0237424Y0210270D02*
X0231424Y0210270D01*
X0260951Y0200270D02*
X0266951Y0200270D01*
X0371424Y0210020D02*
X0377424Y0210020D01*
X0400951Y0200020D02*
X0406951Y0200020D01*
X0511424Y0210020D02*
X0517424Y0210020D01*
X0540951Y0200020D02*
X0546951Y0200020D01*
X0406951Y0274020D02*
X0400951Y0274020D01*
X0377424Y0284020D02*
X0371424Y0284020D01*
X0400951Y0340020D02*
X0406951Y0340020D01*
X0377424Y0350020D02*
X0371424Y0350020D01*
X0400951Y0412520D02*
X0406951Y0412520D01*
X0377424Y0422520D02*
X0371424Y0422520D01*
X0266951Y0412520D02*
X0260951Y0412520D01*
X0237424Y0422520D02*
X0231424Y0422520D01*
X0511424Y0422520D02*
X0517424Y0422520D01*
X0540951Y0412520D02*
X0546951Y0412520D01*
X0517424Y0350020D02*
X0511424Y0350020D01*
X0540951Y0340020D02*
X0546951Y0340020D01*
D22*
X0166932Y0374425D03*
X0166932Y0248441D03*
D23*
X0500188Y0156020D03*
D24*
X0339948Y0129020D02*
X0339948Y0127020D01*
X0336448Y0127020D01*
X0336448Y0129020D01*
X0339948Y0129020D01*
X0339948Y0128968D02*
X0336448Y0128968D01*
X0336448Y0128870D02*
X0339948Y0128870D01*
X0339948Y0128771D02*
X0336448Y0128771D01*
X0336448Y0128673D02*
X0339948Y0128673D01*
X0339948Y0128574D02*
X0336448Y0128574D01*
X0336448Y0128476D02*
X0339948Y0128476D01*
X0339948Y0128377D02*
X0336448Y0128377D01*
X0336448Y0128279D02*
X0339948Y0128279D01*
X0339948Y0128180D02*
X0336448Y0128180D01*
X0336448Y0128082D02*
X0339948Y0128082D01*
X0339948Y0127983D02*
X0336448Y0127983D01*
X0336448Y0127885D02*
X0339948Y0127885D01*
X0339948Y0127786D02*
X0336448Y0127786D01*
X0336448Y0127688D02*
X0339948Y0127688D01*
X0339948Y0127589D02*
X0336448Y0127589D01*
X0336448Y0127491D02*
X0339948Y0127491D01*
X0339948Y0127392D02*
X0336448Y0127392D01*
X0336448Y0127294D02*
X0339948Y0127294D01*
X0339948Y0127195D02*
X0336448Y0127195D01*
X0336448Y0127097D02*
X0339948Y0127097D01*
D25*
X0137995Y0087673D03*
X0137995Y0418382D03*
D26*
X0457938Y0163520D03*
X0460938Y0163520D03*
X0435938Y0139770D03*
X0432938Y0139770D03*
X0429438Y0146020D03*
X0429438Y0149020D03*
X0446188Y0133770D03*
X0457938Y0126520D03*
X0476188Y0112770D03*
X0488188Y0122770D03*
X0486688Y0134520D03*
X0512938Y0137770D03*
X0527438Y0135270D03*
X0541688Y0126270D03*
X0546438Y0122020D03*
X0547188Y0146270D03*
X0547188Y0149270D03*
X0549188Y0155020D03*
X0569438Y0151770D03*
X0623688Y0167770D03*
X0629438Y0167770D03*
X0588188Y0107270D03*
X0452938Y0108020D03*
D27*
X0456591Y0108020D01*
X0463284Y0108020D02*
X0463284Y0145673D01*
X0461563Y0147395D01*
X0457938Y0130530D02*
X0457938Y0126520D01*
X0446188Y0128370D02*
X0446188Y0133770D01*
X0471558Y0112789D02*
X0476168Y0112789D01*
X0476188Y0112770D01*
X0471558Y0107789D02*
X0463514Y0107789D01*
X0463284Y0108020D01*
X0450938Y0163270D02*
X0450938Y0168020D01*
X0447188Y0171770D01*
X0549188Y0155020D02*
X0552841Y0155020D01*
X0559534Y0155020D02*
X0559534Y0148876D01*
X0558428Y0147770D01*
X0559949Y0145020D01*
X0563938Y0145020D01*
X0568188Y0140770D01*
X0590238Y0118720D01*
X0590238Y0116970D01*
X0554034Y0118770D02*
X0554034Y0123913D01*
X0553178Y0126270D01*
X0609294Y0257402D02*
X0609438Y0257545D01*
X0622331Y0257545D01*
X0625688Y0260902D01*
X0625688Y0271138D02*
X0625688Y0275020D01*
X0609438Y0277020D02*
X0609438Y0257545D01*
X0600938Y0273020D02*
X0596188Y0273020D01*
X0595928Y0273280D01*
X0591688Y0273280D01*
X0580428Y0285770D02*
X0580438Y0285780D01*
X0562438Y0289770D02*
X0557438Y0289770D01*
X0603188Y0319520D02*
X0610320Y0319520D01*
X0620556Y0319520D02*
X0623688Y0319520D01*
X0625688Y0365520D02*
X0609438Y0381770D01*
X0580938Y0381770D01*
X0609294Y0395902D02*
X0625688Y0379508D01*
X0625688Y0378638D01*
X0625688Y0368402D02*
X0625688Y0365520D01*
X0609294Y0395902D02*
X0609438Y0396045D01*
X0609438Y0415520D01*
X0600938Y0411520D02*
X0596188Y0411520D01*
X0595928Y0411780D01*
X0591688Y0411780D01*
X0484688Y0380508D02*
X0469294Y0395902D01*
X0469530Y0396138D01*
X0469438Y0396045D02*
X0469294Y0395902D01*
X0469438Y0396045D02*
X0469438Y0415520D01*
X0460938Y0411520D02*
X0456188Y0411520D01*
X0455928Y0411780D01*
X0451688Y0411780D01*
X0447438Y0381770D02*
X0462188Y0381770D01*
X0484688Y0380508D02*
X0484688Y0378638D01*
X0484688Y0368402D02*
X0484688Y0364020D01*
X0484688Y0275270D02*
X0484688Y0271138D01*
X0484688Y0260902D02*
X0481188Y0257402D01*
X0469294Y0257402D01*
X0344688Y0260902D02*
X0341188Y0257402D01*
X0329294Y0257402D01*
X0344688Y0271138D02*
X0344688Y0275020D01*
X0344688Y0364520D02*
X0344688Y0368402D01*
X0344688Y0378638D02*
X0344688Y0380508D01*
X0329294Y0395902D01*
X0329530Y0396138D01*
X0329438Y0396045D02*
X0329294Y0395902D01*
X0329438Y0396045D02*
X0329438Y0415520D01*
X0320938Y0411520D02*
X0316188Y0411520D01*
X0315928Y0411780D01*
X0311688Y0411780D01*
D28*
X0311688Y0419260D02*
X0311948Y0419520D01*
X0320938Y0419520D01*
X0311948Y0419520D02*
X0311948Y0422760D01*
X0311938Y0423270D01*
X0450938Y0423520D02*
X0451948Y0422510D01*
X0451948Y0419520D01*
X0451688Y0419260D01*
X0451948Y0419520D02*
X0460938Y0419520D01*
X0590938Y0420530D02*
X0590938Y0423270D01*
X0590938Y0420530D02*
X0591948Y0419520D01*
X0591688Y0419260D01*
X0591948Y0419520D02*
X0600938Y0419520D01*
X0580438Y0285780D02*
X0570948Y0285780D01*
X0570938Y0285770D01*
X0580438Y0285780D02*
X0580438Y0282520D01*
X0585688Y0277270D01*
X0591688Y0280760D02*
X0591948Y0281020D01*
X0589938Y0283030D01*
X0589938Y0284520D01*
X0591948Y0281020D02*
X0600938Y0281020D01*
X0477688Y0166770D02*
X0469938Y0174520D01*
X0456688Y0174520D01*
X0455688Y0173520D01*
X0452188Y0173520D01*
X0458188Y0167520D02*
X0458438Y0167270D01*
X0459438Y0167270D01*
X0459448Y0167260D01*
X0468438Y0167260D01*
X0468438Y0159780D02*
X0474948Y0159780D01*
X0480188Y0165020D01*
X0569188Y0165020D01*
X0573438Y0160770D01*
X0576938Y0160770D01*
X0579438Y0158270D01*
X0579438Y0152770D01*
X0580438Y0151770D01*
X0580438Y0146120D01*
X0582438Y0146120D02*
X0582438Y0153770D01*
X0584338Y0151420D02*
X0585438Y0152520D01*
X0585438Y0155020D01*
X0577688Y0162770D01*
X0574188Y0162770D01*
X0570188Y0166770D01*
X0477688Y0166770D01*
X0481188Y0163270D02*
X0566688Y0163270D01*
X0569938Y0160020D01*
X0575838Y0156270D02*
X0575838Y0153870D01*
X0578438Y0151270D01*
X0578438Y0146120D01*
X0576438Y0146120D02*
X0576438Y0140520D01*
X0574538Y0146120D02*
X0574538Y0150920D01*
X0574438Y0151020D01*
X0570538Y0150670D02*
X0570538Y0146120D01*
X0570538Y0150670D02*
X0569438Y0151770D01*
X0584338Y0151420D02*
X0584338Y0146120D01*
X0586338Y0146120D02*
X0586338Y0150920D01*
X0587188Y0151770D01*
X0587188Y0155770D01*
X0577188Y0165770D01*
X0575688Y0165770D01*
X0590238Y0146120D02*
X0603088Y0146120D01*
X0608438Y0140770D01*
X0617188Y0140770D01*
X0601538Y0136420D02*
X0617188Y0120770D01*
X0608938Y0125520D02*
X0608938Y0086520D01*
X0602459Y0091291D02*
X0602438Y0091270D01*
X0602459Y0091291D02*
X0602459Y0103173D01*
X0598916Y0103173D02*
X0598916Y0089498D01*
X0598688Y0089270D01*
X0595373Y0088955D02*
X0594188Y0087770D01*
X0595373Y0088955D02*
X0595373Y0103173D01*
X0595373Y0109866D02*
X0595373Y0118470D01*
X0596038Y0118720D01*
X0596038Y0120620D02*
X0599838Y0120620D01*
X0600438Y0120020D01*
X0600438Y0116020D01*
X0598916Y0114498D01*
X0598916Y0109866D01*
X0602459Y0109866D02*
X0602459Y0120498D01*
X0600338Y0122620D01*
X0596038Y0122620D01*
X0596038Y0124620D02*
X0600838Y0124620D01*
X0606003Y0119455D01*
X0606003Y0109866D01*
X0606003Y0103173D02*
X0606003Y0094335D01*
X0605938Y0094270D01*
X0588338Y0107170D02*
X0588188Y0107270D01*
X0588338Y0107170D02*
X0588338Y0112920D01*
X0574538Y0112920D02*
X0574538Y0084370D01*
X0574438Y0084520D01*
X0563438Y0082520D02*
X0563438Y0113270D01*
X0571438Y0121270D01*
X0571438Y0126520D01*
X0569438Y0128520D01*
X0562838Y0128520D01*
X0562838Y0132520D02*
X0568688Y0132520D01*
X0585188Y0132520D02*
X0587188Y0132520D01*
X0589188Y0130520D01*
X0596038Y0130520D01*
X0596038Y0128520D02*
X0587188Y0128520D01*
X0596038Y0134420D02*
X0600038Y0134420D01*
X0608938Y0125520D01*
X0601538Y0136420D02*
X0596038Y0136420D01*
X0550948Y0147770D02*
X0549938Y0147020D01*
X0547188Y0146270D01*
X0549688Y0140520D02*
X0525428Y0140520D01*
X0523188Y0142760D01*
X0519698Y0142760D01*
X0517438Y0145020D01*
X0494738Y0145020D01*
X0490338Y0140620D01*
X0490238Y0140520D01*
X0485688Y0140520D01*
X0481938Y0136770D01*
X0481938Y0134520D01*
X0486688Y0134520D02*
X0487588Y0135420D01*
X0490338Y0135420D01*
X0490338Y0138020D02*
X0494688Y0138020D01*
X0498538Y0135420D02*
X0503038Y0135420D01*
X0503188Y0135270D01*
X0511188Y0130020D02*
X0512534Y0129673D01*
X0512534Y0117835D01*
X0512534Y0114291D01*
X0512534Y0110748D01*
X0512534Y0107205D01*
X0505841Y0107205D02*
X0493402Y0107205D01*
X0492818Y0107789D01*
X0486957Y0107789D01*
X0472938Y0093770D01*
X0468938Y0095520D02*
X0486207Y0112789D01*
X0492818Y0112789D01*
X0498168Y0112789D01*
X0500188Y0110770D01*
X0505820Y0110770D01*
X0505841Y0110748D01*
X0505820Y0114270D02*
X0505841Y0114291D01*
X0505820Y0114270D02*
X0500688Y0114270D01*
X0497168Y0117789D01*
X0492818Y0117789D01*
X0488457Y0117789D01*
X0469938Y0099270D01*
X0466938Y0099270D01*
X0465188Y0097520D01*
X0447438Y0113337D02*
X0439333Y0105232D01*
X0447438Y0113337D02*
X0447438Y0117020D01*
X0448188Y0123270D02*
X0443688Y0123270D01*
X0442438Y0124520D01*
X0442438Y0128320D01*
X0442488Y0128370D01*
X0449888Y0128370D02*
X0449888Y0124970D01*
X0448188Y0123270D01*
X0467938Y0124770D02*
X0469918Y0122789D01*
X0471558Y0122789D01*
X0471558Y0117789D02*
X0474207Y0117789D01*
X0477438Y0121020D01*
X0477438Y0122770D01*
X0477688Y0123020D01*
X0488188Y0122770D02*
X0488207Y0122789D01*
X0492818Y0122789D01*
X0499188Y0125520D02*
X0501938Y0122770D01*
X0501938Y0117770D01*
X0504938Y0117770D01*
X0505003Y0117835D01*
X0505841Y0117835D01*
X0512938Y0137770D02*
X0513034Y0141020D01*
X0523188Y0142760D02*
X0524428Y0141520D01*
X0523188Y0135280D02*
X0527428Y0135280D01*
X0527438Y0135270D01*
X0481188Y0163270D02*
X0473188Y0155270D01*
X0455938Y0155270D01*
X0452688Y0158520D01*
X0437938Y0158520D01*
X0459438Y0159270D02*
X0467928Y0159270D01*
X0468438Y0159780D01*
X0459438Y0167270D02*
X0459188Y0167020D01*
X0457938Y0167020D01*
X0411188Y0124020D02*
X0409938Y0122770D01*
X0346438Y0122770D01*
X0339333Y0115665D01*
X0339333Y0115232D01*
X0344188Y0113020D02*
X0341438Y0110270D01*
X0334438Y0110270D01*
X0329400Y0105232D01*
X0329333Y0105232D01*
X0344188Y0113020D02*
X0344188Y0117770D01*
X0347188Y0120770D01*
X0413938Y0120770D01*
X0345938Y0128020D02*
X0341918Y0128020D01*
X0334438Y0128020D02*
X0334438Y0120770D01*
X0326957Y0128020D02*
X0322938Y0128020D01*
D29*
X0442349Y0128508D02*
X0442488Y0128370D01*
X0456778Y0139170D02*
X0457938Y0138010D01*
X0456778Y0139170D02*
X0449888Y0139170D01*
X0541688Y0126270D02*
X0545698Y0126270D01*
X0546438Y0122020D02*
X0547341Y0118770D01*
X0554034Y0123913D02*
X0554740Y0124620D01*
X0562838Y0124620D01*
X0562838Y0126520D02*
X0567438Y0126520D01*
X0568438Y0125520D01*
X0567738Y0140320D02*
X0562838Y0140320D01*
X0567738Y0140320D02*
X0568188Y0140770D01*
X0568638Y0141220D01*
X0568638Y0146120D01*
X0590238Y0116970D02*
X0590238Y0112920D01*
D30*
X0587188Y0128520D03*
X0585188Y0132520D03*
X0576438Y0140520D03*
X0574538Y0150920D03*
X0575838Y0156270D03*
X0569938Y0160020D03*
X0575688Y0165770D03*
X0582438Y0153770D03*
X0568688Y0132520D03*
X0568438Y0125520D03*
X0549688Y0140520D03*
X0503188Y0135270D03*
X0494688Y0138020D03*
X0481938Y0134520D03*
X0467938Y0124770D03*
X0477688Y0123020D03*
X0499188Y0125520D03*
X0501938Y0117770D03*
X0472938Y0093770D03*
X0468938Y0095520D03*
X0465188Y0097520D03*
X0447438Y0117020D03*
X0413938Y0120770D03*
X0411188Y0124020D03*
X0437938Y0158520D03*
X0447188Y0171770D03*
X0452188Y0173520D03*
X0458188Y0171520D03*
X0480438Y0169770D03*
X0594188Y0087770D03*
X0598688Y0089270D03*
X0602438Y0091270D03*
X0605938Y0094270D03*
X0608938Y0086520D03*
X0563438Y0082520D03*
X0622438Y0191770D03*
X0625688Y0275020D03*
X0596188Y0273020D03*
X0585688Y0277270D03*
X0589938Y0284520D03*
X0596188Y0293270D03*
X0603188Y0319520D03*
X0623688Y0319520D03*
X0625688Y0365520D03*
X0580938Y0381770D03*
X0596188Y0411520D03*
X0590938Y0423270D03*
X0484688Y0364020D03*
X0462188Y0381770D03*
X0447438Y0381770D03*
X0456188Y0411520D03*
X0450938Y0423520D03*
X0344688Y0364520D03*
X0316188Y0411520D03*
X0311938Y0423270D03*
X0344688Y0275020D03*
X0484688Y0275270D03*
X0557438Y0289770D03*
X0345938Y0128020D03*
X0334438Y0120770D03*
X0322938Y0128020D03*
D31*
X0429438Y0149020D02*
X0433198Y0147520D01*
X0440678Y0147520D02*
X0440803Y0147395D01*
X0440803Y0143155D01*
X0442438Y0141520D01*
X0442438Y0139220D01*
X0440803Y0147395D02*
X0461563Y0147395D01*
X0478938Y0130020D01*
X0500688Y0130020D01*
X0506188Y0130020D01*
X0511188Y0130020D01*
X0516938Y0130020D01*
X0537688Y0130020D01*
X0539938Y0132270D01*
X0553688Y0132270D01*
X0553938Y0132520D01*
X0553938Y0141020D01*
X0557949Y0145031D01*
X0558428Y0147770D01*
X0553938Y0132520D02*
X0553938Y0125030D01*
X0553178Y0126270D01*
X0603938Y0169770D02*
X0480438Y0169770D01*
X0458188Y0171520D02*
X0458188Y0167520D01*
X0457938Y0167020D02*
X0457938Y0163520D01*
X0432938Y0139770D02*
X0432938Y0137510D01*
X0434438Y0136010D01*
X0434438Y0128530D02*
X0434459Y0128508D01*
X0442349Y0128508D01*
X0603938Y0169770D02*
X0622188Y0188020D01*
X0626438Y0188020D01*
X0626438Y0191770D01*
X0622438Y0191770D01*
D32*
X0626438Y0172770D02*
X0626438Y0167770D01*
X0623688Y0167770D01*
X0517188Y0130270D02*
X0516938Y0130020D01*
X0506341Y0130173D02*
X0506341Y0141020D01*
X0505941Y0140620D01*
X0498538Y0140620D01*
X0500688Y0130020D02*
X0500784Y0129923D01*
X0506188Y0130020D02*
X0506341Y0130173D01*
X0570938Y0293770D02*
X0579928Y0293770D01*
X0580438Y0293260D01*
X0596178Y0293260D01*
X0596188Y0293270D01*
D33*
X0434438Y0128530D02*
X0432609Y0128508D01*
X0419333Y0115232D01*
D34*
X0419333Y0105232D01*
X0419333Y0082874D01*
X0424688Y0077520D01*
X0623688Y0077520D01*
X0642188Y0096020D01*
X0642188Y0179520D01*
X0629938Y0191770D01*
X0626438Y0191770D01*
D35*
X0543951Y0200020D02*
X0543951Y0207756D01*
X0529924Y0221783D01*
X0529924Y0227638D01*
X0529924Y0257402D01*
X0510081Y0257402D02*
X0510081Y0227638D01*
X0510081Y0214362D01*
X0514424Y0210020D01*
X0504174Y0199770D01*
X0432188Y0199770D01*
X0388188Y0155770D01*
X0195438Y0155770D01*
X0192766Y0158441D01*
X0166932Y0158441D01*
X0116932Y0158441D01*
X0116932Y0173441D02*
X0166932Y0173441D01*
X0197266Y0173441D01*
X0204438Y0166270D01*
X0370201Y0166270D01*
X0403951Y0200020D01*
X0409766Y0205835D01*
X0409766Y0227638D01*
X0409766Y0257402D01*
X0400438Y0274020D02*
X0389924Y0263506D01*
X0389924Y0257402D01*
X0389924Y0227638D01*
X0389924Y0222256D01*
X0377688Y0210020D01*
X0374424Y0210020D01*
X0341174Y0176770D01*
X0208938Y0176770D01*
X0197266Y0188441D01*
X0166932Y0188441D01*
X0116932Y0188441D01*
X0116932Y0203441D02*
X0166932Y0203441D01*
X0197266Y0203441D01*
X0213438Y0187270D01*
X0329688Y0187270D01*
X0370056Y0227638D01*
X0370081Y0227638D01*
X0370081Y0257402D01*
X0370081Y0279677D01*
X0374424Y0284020D01*
X0400438Y0274020D02*
X0403951Y0274020D01*
X0462713Y0318770D02*
X0217938Y0318770D01*
X0198593Y0299425D01*
X0166932Y0299425D01*
X0116932Y0299425D01*
X0116932Y0284425D02*
X0166932Y0284425D01*
X0198593Y0284425D01*
X0222438Y0308270D01*
X0472674Y0308270D01*
X0514424Y0350020D01*
X0516688Y0350020D01*
X0529924Y0363256D01*
X0529924Y0366138D01*
X0529924Y0395902D01*
X0529924Y0405256D01*
X0537188Y0412520D01*
X0543951Y0412520D01*
X0549766Y0395902D02*
X0549766Y0366138D01*
X0549766Y0345835D01*
X0543951Y0340020D01*
X0531438Y0340020D01*
X0489188Y0297770D01*
X0226938Y0297770D01*
X0198593Y0269425D01*
X0166932Y0269425D01*
X0116932Y0269425D01*
X0116932Y0233441D02*
X0166932Y0233441D01*
X0197266Y0233441D01*
X0220438Y0210270D01*
X0234424Y0210270D01*
X0240438Y0210270D01*
X0249924Y0219756D01*
X0249924Y0227638D01*
X0249924Y0257402D01*
X0249924Y0261756D01*
X0262188Y0274020D01*
X0263951Y0274020D01*
X0213438Y0329270D02*
X0198593Y0314425D01*
X0166932Y0314425D01*
X0116932Y0314425D01*
X0116932Y0329425D02*
X0166932Y0329425D01*
X0198593Y0329425D01*
X0208938Y0339770D01*
X0364174Y0339770D01*
X0374424Y0350020D01*
X0376688Y0350020D01*
X0389924Y0363256D01*
X0389924Y0366138D01*
X0389924Y0395902D01*
X0389924Y0406256D01*
X0396188Y0412520D01*
X0403951Y0412520D01*
X0409766Y0395902D02*
X0409766Y0366138D01*
X0409766Y0345835D01*
X0403951Y0340020D01*
X0393201Y0329270D01*
X0213438Y0329270D01*
X0198593Y0344425D02*
X0166932Y0344425D01*
X0116932Y0344425D01*
X0198593Y0344425D02*
X0204438Y0350270D01*
X0354688Y0350270D01*
X0370081Y0365413D01*
X0370081Y0366138D01*
X0370081Y0395902D01*
X0370081Y0418177D01*
X0374424Y0422520D01*
X0510081Y0418177D02*
X0510081Y0395902D01*
X0510081Y0366138D01*
X0462713Y0318770D01*
X0510081Y0418177D02*
X0514424Y0422520D01*
X0543951Y0200020D02*
X0533201Y0189270D01*
X0436688Y0189270D01*
X0392688Y0145270D01*
X0169745Y0145270D01*
X0166932Y0143441D01*
X0116932Y0143441D01*
X0197188Y0188520D02*
X0197266Y0188441D01*
D36*
X0574438Y0084520D03*
M02*
