G75*
%MOIN*%
%OFA0B0*%
%FSLAX25Y25*%
%IPPOS*%
%LPD*%
%AMOC8*
5,1,8,0,0,1.08239X$1,22.5*
%
%ADD10C,0.00500*%
%ADD11R,0.87000X0.22250*%
%ADD12R,0.01485X0.00015*%
%ADD13R,0.00045X0.00015*%
%ADD14R,0.00105X0.00015*%
%ADD15R,0.00165X0.00015*%
%ADD16R,0.00225X0.00015*%
%ADD17R,0.00285X0.00015*%
%ADD18R,0.00345X0.00015*%
%ADD19R,0.00405X0.00015*%
%ADD20R,0.00435X0.00015*%
%ADD21R,0.00465X0.00015*%
%ADD22R,0.00495X0.00015*%
%ADD23R,0.00540X0.00015*%
%ADD24R,0.00585X0.00015*%
%ADD25R,0.00645X0.00015*%
%ADD26R,0.00150X0.00015*%
%ADD27R,0.00675X0.00015*%
%ADD28R,0.00195X0.00015*%
%ADD29R,0.00705X0.00015*%
%ADD30R,0.00240X0.00015*%
%ADD31R,0.00735X0.00015*%
%ADD32R,0.00270X0.00015*%
%ADD33R,0.00765X0.00015*%
%ADD34R,0.00300X0.00015*%
%ADD35R,0.00810X0.00015*%
%ADD36R,0.00360X0.00015*%
%ADD37R,0.00855X0.00015*%
%ADD38R,0.00435X0.00015*%
%ADD39R,0.00915X0.00015*%
%ADD40R,0.00465X0.00015*%
%ADD41R,0.00945X0.00015*%
%ADD42R,0.00960X0.00015*%
%ADD43R,0.00525X0.00015*%
%ADD44R,0.00990X0.00015*%
%ADD45R,0.00555X0.00015*%
%ADD46R,0.01035X0.00015*%
%ADD47R,0.00600X0.00015*%
%ADD48R,0.01080X0.00015*%
%ADD49R,0.01125X0.00015*%
%ADD50R,0.01170X0.00015*%
%ADD51R,0.00720X0.00015*%
%ADD52R,0.01200X0.00015*%
%ADD53R,0.00750X0.00015*%
%ADD54R,0.01230X0.00015*%
%ADD55R,0.00780X0.00015*%
%ADD56R,0.01260X0.00015*%
%ADD57R,0.00810X0.00015*%
%ADD58R,0.01305X0.00015*%
%ADD59R,0.01365X0.00015*%
%ADD60R,0.00900X0.00015*%
%ADD61R,0.01395X0.00015*%
%ADD62R,0.01440X0.00015*%
%ADD63R,0.01470X0.00015*%
%ADD64R,0.01005X0.00015*%
%ADD65R,0.01500X0.00015*%
%ADD66R,0.01020X0.00015*%
%ADD67R,0.01530X0.00015*%
%ADD68R,0.01065X0.00015*%
%ADD69R,0.01575X0.00015*%
%ADD70R,0.01095X0.00015*%
%ADD71R,0.01635X0.00015*%
%ADD72R,0.01155X0.00015*%
%ADD73R,0.01680X0.00015*%
%ADD74R,0.01200X0.00015*%
%ADD75R,0.01710X0.00015*%
%ADD76R,0.01230X0.00015*%
%ADD77R,0.01725X0.00015*%
%ADD78R,0.01245X0.00015*%
%ADD79R,0.01755X0.00015*%
%ADD80R,0.01275X0.00015*%
%ADD81R,0.01800X0.00015*%
%ADD82R,0.01320X0.00015*%
%ADD83R,0.01860X0.00015*%
%ADD84R,0.01905X0.00015*%
%ADD85R,0.01410X0.00015*%
%ADD86R,0.01935X0.00015*%
%ADD87R,0.01455X0.00015*%
%ADD88R,0.01965X0.00015*%
%ADD89R,0.01485X0.00015*%
%ADD90R,0.01995X0.00015*%
%ADD91R,0.01515X0.00015*%
%ADD92R,0.02040X0.00015*%
%ADD93R,0.01530X0.00015*%
%ADD94R,0.02070X0.00015*%
%ADD95R,0.01575X0.00015*%
%ADD96R,0.02115X0.00015*%
%ADD97R,0.01620X0.00015*%
%ADD98R,0.02160X0.00015*%
%ADD99R,0.01665X0.00015*%
%ADD100R,0.02190X0.00015*%
%ADD101R,0.00075X0.00015*%
%ADD102R,0.01695X0.00015*%
%ADD103R,0.02220X0.00015*%
%ADD104R,0.00105X0.00015*%
%ADD105R,0.02235X0.00015*%
%ADD106R,0.00135X0.00015*%
%ADD107R,0.01755X0.00015*%
%ADD108R,0.02280X0.00015*%
%ADD109R,0.00180X0.00015*%
%ADD110R,0.01785X0.00015*%
%ADD111R,0.02340X0.00015*%
%ADD112R,0.00240X0.00015*%
%ADD113R,0.01830X0.00015*%
%ADD114R,0.02385X0.00015*%
%ADD115R,0.01890X0.00015*%
%ADD116R,0.02415X0.00015*%
%ADD117R,0.00330X0.00015*%
%ADD118R,0.00120X0.00015*%
%ADD119R,0.01920X0.00015*%
%ADD120R,0.02430X0.00015*%
%ADD121R,0.00375X0.00015*%
%ADD122R,0.02460X0.00015*%
%ADD123R,0.00405X0.00015*%
%ADD124R,0.00195X0.00015*%
%ADD125R,0.01965X0.00015*%
%ADD126R,0.02505X0.00015*%
%ADD127R,0.00210X0.00015*%
%ADD128R,0.02010X0.00015*%
%ADD129R,0.02535X0.00015*%
%ADD130R,0.00480X0.00015*%
%ADD131R,0.02580X0.00015*%
%ADD132R,0.00540X0.00015*%
%ADD133R,0.02085X0.00015*%
%ADD134R,0.02625X0.00015*%
%ADD135R,0.02130X0.00015*%
%ADD136R,0.02670X0.00015*%
%ADD137R,0.00630X0.00015*%
%ADD138R,0.02700X0.00015*%
%ADD139R,0.00660X0.00015*%
%ADD140R,0.00450X0.00015*%
%ADD141R,0.02190X0.00015*%
%ADD142R,0.02715X0.00015*%
%ADD143R,0.02205X0.00015*%
%ADD144R,0.02745X0.00015*%
%ADD145R,0.00510X0.00015*%
%ADD146R,0.02235X0.00015*%
%ADD147R,0.02775X0.00015*%
%ADD148R,0.02820X0.00015*%
%ADD149R,0.02310X0.00015*%
%ADD150R,0.02880X0.00015*%
%ADD151R,0.00855X0.00015*%
%ADD152R,0.02355X0.00015*%
%ADD153R,0.02895X0.00015*%
%ADD154R,0.00870X0.00015*%
%ADD155R,0.00660X0.00015*%
%ADD156R,0.02925X0.00015*%
%ADD157R,0.00690X0.00015*%
%ADD158R,0.02970X0.00015*%
%ADD159R,0.03000X0.00015*%
%ADD160R,0.00750X0.00015*%
%ADD161R,0.03045X0.00015*%
%ADD162R,0.01005X0.00015*%
%ADD163R,0.00780X0.00015*%
%ADD164R,0.02505X0.00015*%
%ADD165R,0.03090X0.00015*%
%ADD166R,0.01050X0.00015*%
%ADD167R,0.00825X0.00015*%
%ADD168R,0.02550X0.00015*%
%ADD169R,0.03135X0.00015*%
%ADD170R,0.01095X0.00015*%
%ADD171R,0.00870X0.00015*%
%ADD172R,0.03165X0.00015*%
%ADD173R,0.01125X0.00015*%
%ADD174R,0.02625X0.00015*%
%ADD175R,0.03195X0.00015*%
%ADD176R,0.01140X0.00015*%
%ADD177R,0.00930X0.00015*%
%ADD178R,0.02655X0.00015*%
%ADD179R,0.03210X0.00015*%
%ADD180R,0.00960X0.00015*%
%ADD181R,0.03240X0.00015*%
%ADD182R,0.02700X0.00015*%
%ADD183R,0.03285X0.00015*%
%ADD184R,0.01245X0.00015*%
%ADD185R,0.02745X0.00015*%
%ADD186R,0.03330X0.00015*%
%ADD187R,0.02790X0.00015*%
%ADD188R,0.03360X0.00015*%
%ADD189R,0.01110X0.00015*%
%ADD190R,0.02835X0.00015*%
%ADD191R,0.03390X0.00015*%
%ADD192R,0.01335X0.00015*%
%ADD193R,0.01140X0.00015*%
%ADD194R,0.02865X0.00015*%
%ADD195R,0.03420X0.00015*%
%ADD196R,0.01155X0.00015*%
%ADD197R,0.04905X0.00015*%
%ADD198R,0.04920X0.00015*%
%ADD199R,0.02940X0.00015*%
%ADD200R,0.04950X0.00015*%
%ADD201R,0.02985X0.00015*%
%ADD202R,0.04965X0.00015*%
%ADD203R,0.01275X0.00015*%
%ADD204R,0.03015X0.00015*%
%ADD205R,0.04980X0.00015*%
%ADD206R,0.03045X0.00015*%
%ADD207R,0.05010X0.00015*%
%ADD208R,0.01335X0.00015*%
%ADD209R,0.03075X0.00015*%
%ADD210R,0.01350X0.00015*%
%ADD211R,0.03105X0.00015*%
%ADD212R,0.05040X0.00015*%
%ADD213R,0.01380X0.00015*%
%ADD214R,0.05040X0.00015*%
%ADD215R,0.01410X0.00015*%
%ADD216R,0.03180X0.00015*%
%ADD217R,0.05070X0.00015*%
%ADD218R,0.03225X0.00015*%
%ADD219R,0.03255X0.00015*%
%ADD220R,0.05085X0.00015*%
%ADD221R,0.01515X0.00015*%
%ADD222R,0.03300X0.00015*%
%ADD223R,0.05100X0.00015*%
%ADD224R,0.04935X0.00015*%
%ADD225R,0.05115X0.00015*%
%ADD226R,0.04995X0.00015*%
%ADD227R,0.05130X0.00015*%
%ADD228R,0.05010X0.00015*%
%ADD229R,0.05130X0.00015*%
%ADD230R,0.05010X0.00015*%
%ADD231R,0.05025X0.00015*%
%ADD232R,0.05040X0.00015*%
%ADD233R,0.05055X0.00015*%
%ADD234R,0.05130X0.00015*%
%ADD235R,0.05085X0.00015*%
%ADD236R,0.05115X0.00015*%
%ADD237R,0.05145X0.00015*%
%ADD238R,0.05160X0.00015*%
%ADD239R,0.05130X0.00015*%
%ADD240R,0.05190X0.00015*%
%ADD241R,0.05190X0.00015*%
%ADD242R,0.05205X0.00015*%
%ADD243R,0.05220X0.00015*%
%ADD244R,0.05070X0.00015*%
%ADD245R,0.05085X0.00015*%
%ADD246R,0.05205X0.00015*%
%ADD247R,0.05220X0.00015*%
%ADD248R,0.05055X0.00015*%
%ADD249R,0.05025X0.00015*%
%ADD250R,0.05205X0.00015*%
%ADD251R,0.05025X0.00015*%
%ADD252R,0.05190X0.00015*%
%ADD253R,0.05190X0.00015*%
%ADD254R,0.04995X0.00015*%
%ADD255R,0.05175X0.00015*%
%ADD256R,0.04950X0.00015*%
%ADD257R,0.05145X0.00015*%
%ADD258R,0.05145X0.00015*%
%ADD259R,0.04920X0.00015*%
%ADD260R,0.04905X0.00015*%
%ADD261R,0.04905X0.00015*%
%ADD262R,0.05115X0.00015*%
%ADD263R,0.04890X0.00015*%
%ADD264R,0.04890X0.00015*%
%ADD265R,0.04875X0.00015*%
%ADD266R,0.04845X0.00015*%
%ADD267R,0.04830X0.00015*%
%ADD268R,0.04830X0.00015*%
%ADD269R,0.05070X0.00015*%
%ADD270R,0.04830X0.00015*%
%ADD271R,0.04815X0.00015*%
%ADD272R,0.04800X0.00015*%
%ADD273R,0.04800X0.00015*%
%ADD274R,0.05010X0.00015*%
%ADD275R,0.04785X0.00015*%
%ADD276R,0.04770X0.00015*%
%ADD277R,0.04770X0.00015*%
%ADD278R,0.04755X0.00015*%
%ADD279R,0.04740X0.00015*%
%ADD280R,0.04725X0.00015*%
%ADD281R,0.04725X0.00015*%
%ADD282R,0.04980X0.00015*%
%ADD283R,0.04710X0.00015*%
%ADD284R,0.04725X0.00015*%
%ADD285R,0.04710X0.00015*%
%ADD286R,0.04695X0.00015*%
%ADD287R,0.04680X0.00015*%
%ADD288R,0.04695X0.00015*%
%ADD289R,0.04680X0.00015*%
%ADD290R,0.04905X0.00015*%
%ADD291R,0.04665X0.00015*%
%ADD292R,0.04650X0.00015*%
%ADD293R,0.04635X0.00015*%
%ADD294R,0.04620X0.00015*%
%ADD295R,0.04620X0.00015*%
%ADD296R,0.04890X0.00015*%
%ADD297R,0.04605X0.00015*%
%ADD298R,0.04605X0.00015*%
%ADD299R,0.04590X0.00015*%
%ADD300R,0.04845X0.00015*%
%ADD301R,0.04575X0.00015*%
%ADD302R,0.04590X0.00015*%
%ADD303R,0.04575X0.00015*%
%ADD304R,0.04845X0.00015*%
%ADD305R,0.04560X0.00015*%
%ADD306R,0.04545X0.00015*%
%ADD307R,0.04530X0.00015*%
%ADD308R,0.04515X0.00015*%
%ADD309R,0.04530X0.00015*%
%ADD310R,0.04500X0.00015*%
%ADD311R,0.04515X0.00015*%
%ADD312R,0.04785X0.00015*%
%ADD313R,0.04485X0.00015*%
%ADD314R,0.04755X0.00015*%
%ADD315R,0.04470X0.00015*%
%ADD316R,0.04740X0.00015*%
%ADD317R,0.04485X0.00015*%
%ADD318R,0.04755X0.00015*%
%ADD319R,0.04545X0.00015*%
%ADD320R,0.04695X0.00015*%
%ADD321R,0.04680X0.00015*%
%ADD322R,0.04665X0.00015*%
%ADD323R,0.04725X0.00015*%
%ADD324R,0.04680X0.00015*%
%ADD325R,0.04860X0.00015*%
%ADD326R,0.04740X0.00015*%
%ADD327R,0.04875X0.00015*%
%ADD328R,0.04965X0.00015*%
%ADD329R,0.04860X0.00015*%
%ADD330R,0.04995X0.00015*%
%ADD331R,0.04875X0.00015*%
%ADD332R,0.04980X0.00015*%
%ADD333R,0.05235X0.00015*%
%ADD334R,0.05235X0.00015*%
%ADD335R,0.05250X0.00015*%
%ADD336R,0.05280X0.00015*%
%ADD337R,0.05295X0.00015*%
%ADD338R,0.05325X0.00015*%
%ADD339R,0.05340X0.00015*%
%ADD340R,0.05235X0.00015*%
%ADD341R,0.05355X0.00015*%
%ADD342R,0.05370X0.00015*%
%ADD343R,0.05265X0.00015*%
%ADD344R,0.05370X0.00015*%
%ADD345R,0.05280X0.00015*%
%ADD346R,0.05385X0.00015*%
%ADD347R,0.05295X0.00015*%
%ADD348R,0.05400X0.00015*%
%ADD349R,0.05415X0.00015*%
%ADD350R,0.05310X0.00015*%
%ADD351R,0.05430X0.00015*%
%ADD352R,0.05445X0.00015*%
%ADD353R,0.05460X0.00015*%
%ADD354R,0.05355X0.00015*%
%ADD355R,0.05475X0.00015*%
%ADD356R,0.05505X0.00015*%
%ADD357R,0.05520X0.00015*%
%ADD358R,0.05535X0.00015*%
%ADD359R,0.05550X0.00015*%
%ADD360R,0.05550X0.00015*%
%ADD361R,0.05475X0.00015*%
%ADD362R,0.05490X0.00015*%
%ADD363R,0.05475X0.00015*%
%ADD364R,0.05385X0.00015*%
%ADD365R,0.05370X0.00015*%
%ADD366R,0.05325X0.00015*%
%ADD367R,0.05310X0.00015*%
%ADD368R,0.05265X0.00015*%
%ADD369R,0.05175X0.00015*%
%ADD370R,0.04980X0.00015*%
%ADD371R,0.04965X0.00015*%
%ADD372R,0.04860X0.00015*%
%ADD373R,0.04845X0.00015*%
%ADD374R,0.04815X0.00015*%
%ADD375R,0.04770X0.00015*%
%ADD376R,0.05295X0.00015*%
%ADD377R,0.04635X0.00015*%
%ADD378R,0.05610X0.00015*%
%ADD379R,0.05700X0.00015*%
%ADD380R,0.05760X0.00015*%
%ADD381R,0.05805X0.00015*%
%ADD382R,0.05850X0.00015*%
%ADD383R,0.05895X0.00015*%
%ADD384R,0.06000X0.00015*%
%ADD385R,0.06135X0.00015*%
%ADD386R,0.06225X0.00015*%
%ADD387R,0.06300X0.00015*%
%ADD388R,0.06330X0.00015*%
%ADD389R,0.06375X0.00015*%
%ADD390R,0.06450X0.00015*%
%ADD391R,0.06570X0.00015*%
%ADD392R,0.05565X0.00015*%
%ADD393R,0.06690X0.00015*%
%ADD394R,0.06735X0.00015*%
%ADD395R,0.05790X0.00015*%
%ADD396R,0.06765X0.00015*%
%ADD397R,0.05850X0.00015*%
%ADD398R,0.06780X0.00015*%
%ADD399R,0.05895X0.00015*%
%ADD400R,0.06795X0.00015*%
%ADD401R,0.05955X0.00015*%
%ADD402R,0.06810X0.00015*%
%ADD403R,0.06060X0.00015*%
%ADD404R,0.06195X0.00015*%
%ADD405R,0.06825X0.00015*%
%ADD406R,0.06330X0.00015*%
%ADD407R,0.06840X0.00015*%
%ADD408R,0.06390X0.00015*%
%ADD409R,0.06495X0.00015*%
%ADD410R,0.06840X0.00015*%
%ADD411R,0.06555X0.00015*%
%ADD412R,0.06825X0.00015*%
%ADD413R,0.06645X0.00015*%
%ADD414R,0.06825X0.00015*%
%ADD415R,0.06705X0.00015*%
%ADD416R,0.06705X0.00015*%
%ADD417R,0.06810X0.00015*%
%ADD418R,0.06720X0.00015*%
%ADD419R,0.06795X0.00015*%
%ADD420R,0.06750X0.00015*%
%ADD421R,0.06765X0.00015*%
%ADD422R,0.06795X0.00015*%
%ADD423R,0.06780X0.00015*%
%ADD424R,0.06780X0.00015*%
%ADD425R,0.06750X0.00015*%
%ADD426R,0.06720X0.00015*%
%ADD427R,0.06720X0.00015*%
%ADD428R,0.06705X0.00015*%
%ADD429R,0.06705X0.00015*%
%ADD430R,0.06690X0.00015*%
%ADD431R,0.06675X0.00015*%
%ADD432R,0.06690X0.00015*%
%ADD433R,0.06675X0.00015*%
%ADD434R,0.06675X0.00015*%
%ADD435R,0.06660X0.00015*%
%ADD436R,0.06675X0.00015*%
%ADD437R,0.06660X0.00015*%
%ADD438R,0.06660X0.00015*%
%ADD439R,0.06645X0.00015*%
%ADD440R,0.06630X0.00015*%
%ADD441R,0.06660X0.00015*%
%ADD442R,0.06630X0.00015*%
%ADD443R,0.06645X0.00015*%
%ADD444R,0.06735X0.00015*%
%ADD445R,0.06765X0.00015*%
%ADD446R,0.06780X0.00015*%
%ADD447R,0.06825X0.00015*%
%ADD448R,0.06855X0.00015*%
%ADD449R,0.06855X0.00015*%
%ADD450R,0.06870X0.00015*%
%ADD451R,0.06885X0.00015*%
%ADD452R,0.06525X0.00015*%
%ADD453R,0.06405X0.00015*%
%ADD454R,0.06255X0.00015*%
%ADD455R,0.06165X0.00015*%
%ADD456R,0.06870X0.00015*%
%ADD457R,0.06120X0.00015*%
%ADD458R,0.06885X0.00015*%
%ADD459R,0.06060X0.00015*%
%ADD460R,0.06015X0.00015*%
%ADD461R,0.05910X0.00015*%
%ADD462R,0.05670X0.00015*%
%ADD463R,0.05595X0.00015*%
%ADD464R,0.06585X0.00015*%
%ADD465R,0.05160X0.00015*%
%ADD466R,0.06390X0.00015*%
%ADD467R,0.05025X0.00015*%
%ADD468R,0.06330X0.00015*%
%ADD469R,0.06075X0.00015*%
%ADD470R,0.05820X0.00015*%
%ADD471R,0.05775X0.00015*%
%ADD472R,0.05685X0.00015*%
%ADD473R,0.05460X0.00015*%
%ADD474R,0.04860X0.00015*%
%ADD475R,0.04935X0.00015*%
%ADD476R,0.05160X0.00015*%
%ADD477R,0.05325X0.00015*%
%ADD478R,0.05340X0.00015*%
%ADD479R,0.05355X0.00015*%
%ADD480R,0.05430X0.00015*%
%ADD481R,0.05535X0.00015*%
%ADD482R,0.05595X0.00015*%
%ADD483R,0.05640X0.00015*%
%ADD484R,0.05640X0.00015*%
%ADD485R,0.05670X0.00015*%
%ADD486R,0.05685X0.00015*%
%ADD487R,0.05700X0.00015*%
%ADD488R,0.05715X0.00015*%
%ADD489R,0.05715X0.00015*%
%ADD490R,0.05730X0.00015*%
%ADD491R,0.05745X0.00015*%
%ADD492R,0.05760X0.00015*%
%ADD493R,0.06000X0.00015*%
%ADD494R,0.06105X0.00015*%
%ADD495R,0.06180X0.00015*%
%ADD496R,0.06210X0.00015*%
%ADD497R,0.12690X0.00015*%
%ADD498R,0.12675X0.00015*%
%ADD499R,0.12660X0.00015*%
%ADD500R,0.12660X0.00015*%
%ADD501R,0.12645X0.00015*%
%ADD502R,0.12615X0.00015*%
%ADD503R,0.12600X0.00015*%
%ADD504R,0.12585X0.00015*%
%ADD505R,0.12555X0.00015*%
%ADD506R,0.12540X0.00015*%
%ADD507R,0.12525X0.00015*%
%ADD508R,0.12510X0.00015*%
%ADD509R,0.12510X0.00015*%
%ADD510R,0.12480X0.00015*%
%ADD511R,0.12450X0.00015*%
%ADD512R,0.12435X0.00015*%
%ADD513R,0.12420X0.00015*%
%ADD514R,0.12390X0.00015*%
%ADD515R,0.12375X0.00015*%
%ADD516R,0.12360X0.00015*%
%ADD517R,0.12330X0.00015*%
%ADD518R,0.12300X0.00015*%
%ADD519R,0.12285X0.00015*%
%ADD520R,0.12270X0.00015*%
%ADD521R,0.12255X0.00015*%
%ADD522R,0.12240X0.00015*%
%ADD523R,0.12225X0.00015*%
%ADD524R,0.12195X0.00015*%
%ADD525R,0.12165X0.00015*%
%ADD526R,0.12150X0.00015*%
%ADD527R,0.12135X0.00015*%
%ADD528R,0.12120X0.00015*%
%ADD529R,0.12090X0.00015*%
%ADD530R,0.12075X0.00015*%
%ADD531R,0.12060X0.00015*%
%ADD532R,0.12045X0.00015*%
%ADD533R,0.12015X0.00015*%
%ADD534R,0.12000X0.00015*%
%ADD535R,0.11985X0.00015*%
%ADD536R,0.11955X0.00015*%
%ADD537R,0.11940X0.00015*%
%ADD538R,0.11925X0.00015*%
%ADD539R,0.11910X0.00015*%
%ADD540R,0.11910X0.00015*%
%ADD541R,0.11880X0.00015*%
%ADD542R,0.11850X0.00015*%
%ADD543R,0.11835X0.00015*%
%ADD544R,0.11805X0.00015*%
%ADD545R,0.11775X0.00015*%
%ADD546R,0.11760X0.00015*%
%ADD547R,0.11745X0.00015*%
%ADD548R,0.11730X0.00015*%
%ADD549R,0.11700X0.00015*%
%ADD550R,0.11700X0.00015*%
%ADD551R,0.11685X0.00015*%
%ADD552R,0.11655X0.00015*%
%ADD553R,0.11640X0.00015*%
%ADD554R,0.11625X0.00015*%
%ADD555R,0.11625X0.00015*%
%ADD556R,0.11670X0.00015*%
%ADD557R,0.11715X0.00015*%
%ADD558R,0.11790X0.00015*%
%ADD559R,0.11820X0.00015*%
%ADD560R,0.11820X0.00015*%
%ADD561R,0.11880X0.00015*%
%ADD562R,0.11895X0.00015*%
%ADD563R,0.11970X0.00015*%
%ADD564R,0.12045X0.00015*%
%ADD565R,0.12075X0.00015*%
%ADD566R,0.12105X0.00015*%
%ADD567R,0.12135X0.00015*%
%ADD568R,0.12165X0.00015*%
%ADD569R,0.12180X0.00015*%
%ADD570R,0.12195X0.00015*%
%ADD571R,0.12210X0.00015*%
%ADD572R,0.12225X0.00015*%
%ADD573R,0.12255X0.00015*%
%ADD574R,0.12360X0.00015*%
%ADD575R,0.12390X0.00015*%
%ADD576R,0.12405X0.00015*%
%ADD577R,0.12435X0.00015*%
%ADD578R,0.12480X0.00015*%
%ADD579R,0.12480X0.00015*%
%ADD580R,0.12510X0.00015*%
%ADD581R,0.12570X0.00015*%
%ADD582R,0.12630X0.00015*%
%ADD583R,0.12675X0.00015*%
%ADD584R,0.12705X0.00015*%
%ADD585R,0.12735X0.00015*%
%ADD586R,0.12750X0.00015*%
%ADD587R,0.12780X0.00015*%
%ADD588R,0.12795X0.00015*%
%ADD589R,0.12810X0.00015*%
%ADD590R,0.12840X0.00015*%
%ADD591R,0.12855X0.00015*%
%ADD592R,0.12885X0.00015*%
%ADD593R,0.12900X0.00015*%
%ADD594R,0.12915X0.00015*%
%ADD595R,0.12945X0.00015*%
%ADD596R,0.12960X0.00015*%
%ADD597R,0.12990X0.00015*%
%ADD598R,0.13005X0.00015*%
%ADD599R,0.13020X0.00015*%
%ADD600R,0.13035X0.00015*%
%ADD601R,0.13065X0.00015*%
%ADD602R,0.13080X0.00015*%
%ADD603R,0.13110X0.00015*%
%ADD604R,0.13125X0.00015*%
%ADD605R,0.13155X0.00015*%
%ADD606R,0.13170X0.00015*%
%ADD607R,0.13200X0.00015*%
%ADD608R,0.13230X0.00015*%
%ADD609R,0.13260X0.00015*%
%ADD610R,0.13290X0.00015*%
%ADD611R,0.13320X0.00015*%
%ADD612R,0.13350X0.00015*%
%ADD613R,0.13365X0.00015*%
%ADD614R,0.13395X0.00015*%
%ADD615R,0.13425X0.00015*%
%ADD616R,0.13455X0.00015*%
%ADD617R,0.13470X0.00015*%
%ADD618R,0.13500X0.00015*%
%ADD619R,0.13530X0.00015*%
%ADD620R,0.13560X0.00015*%
%ADD621R,0.13575X0.00015*%
%ADD622R,0.13605X0.00015*%
%ADD623R,0.13635X0.00015*%
%ADD624R,0.13650X0.00015*%
%ADD625R,0.13680X0.00015*%
%ADD626R,0.13695X0.00015*%
%ADD627R,0.13725X0.00015*%
%ADD628R,0.13740X0.00015*%
%ADD629R,0.13770X0.00015*%
%ADD630R,0.13785X0.00015*%
%ADD631R,0.13800X0.00015*%
%ADD632R,0.13830X0.00015*%
%ADD633R,0.13860X0.00015*%
%ADD634R,0.13875X0.00015*%
%ADD635R,0.13905X0.00015*%
%ADD636R,0.13935X0.00015*%
%ADD637R,0.13950X0.00015*%
%ADD638R,0.13980X0.00015*%
%ADD639R,0.14010X0.00015*%
%ADD640R,0.14025X0.00015*%
%ADD641R,0.14055X0.00015*%
%ADD642R,0.14070X0.00015*%
%ADD643R,0.14085X0.00015*%
%ADD644R,0.14115X0.00015*%
%ADD645R,0.14145X0.00015*%
%ADD646R,0.14160X0.00015*%
%ADD647R,0.14190X0.00015*%
%ADD648R,0.14205X0.00015*%
%ADD649R,0.14220X0.00015*%
%ADD650R,0.14235X0.00015*%
%ADD651R,0.14265X0.00015*%
%ADD652R,0.14280X0.00015*%
%ADD653R,0.14295X0.00015*%
%ADD654R,0.14295X0.00015*%
%ADD655R,0.14250X0.00015*%
%ADD656R,0.14205X0.00015*%
%ADD657R,0.14175X0.00015*%
%ADD658R,0.14160X0.00015*%
%ADD659R,0.14130X0.00015*%
%ADD660R,0.14100X0.00015*%
%ADD661R,0.14040X0.00015*%
%ADD662R,0.14010X0.00015*%
%ADD663R,0.03465X0.00015*%
%ADD664R,0.10440X0.00015*%
%ADD665R,0.03420X0.00015*%
%ADD666R,0.10395X0.00015*%
%ADD667R,0.03375X0.00015*%
%ADD668R,0.10335X0.00015*%
%ADD669R,0.03570X0.00015*%
%ADD670R,0.06600X0.00015*%
%ADD671R,0.03525X0.00015*%
%ADD672R,0.03270X0.00015*%
%ADD673R,0.03495X0.00015*%
%ADD674R,0.03210X0.00015*%
%ADD675R,0.06480X0.00015*%
%ADD676R,0.03435X0.00015*%
%ADD677R,0.03165X0.00015*%
%ADD678R,0.03390X0.00015*%
%ADD679R,0.03120X0.00015*%
%ADD680R,0.06315X0.00015*%
%ADD681R,0.03345X0.00015*%
%ADD682R,0.03090X0.00015*%
%ADD683R,0.03075X0.00015*%
%ADD684R,0.06225X0.00015*%
%ADD685R,0.03270X0.00015*%
%ADD686R,0.06180X0.00015*%
%ADD687R,0.02970X0.00015*%
%ADD688R,0.06075X0.00015*%
%ADD689R,0.03195X0.00015*%
%ADD690R,0.02925X0.00015*%
%ADD691R,0.05985X0.00015*%
%ADD692R,0.03135X0.00015*%
%ADD693R,0.02850X0.00015*%
%ADD694R,0.05835X0.00015*%
%ADD695R,0.03030X0.00015*%
%ADD696R,0.02805X0.00015*%
%ADD697R,0.02730X0.00015*%
%ADD698R,0.05625X0.00015*%
%ADD699R,0.02925X0.00015*%
%ADD700R,0.02640X0.00015*%
%ADD701R,0.02595X0.00015*%
%ADD702R,0.02565X0.00015*%
%ADD703R,0.02760X0.00015*%
%ADD704R,0.02520X0.00015*%
%ADD705R,0.02730X0.00015*%
%ADD706R,0.02475X0.00015*%
%ADD707R,0.02685X0.00015*%
%ADD708R,0.02445X0.00015*%
%ADD709R,0.02400X0.00015*%
%ADD710R,0.02370X0.00015*%
%ADD711R,0.02565X0.00015*%
%ADD712R,0.02340X0.00015*%
%ADD713R,0.02325X0.00015*%
%ADD714R,0.02505X0.00015*%
%ADD715R,0.02280X0.00015*%
%ADD716R,0.02460X0.00015*%
%ADD717R,0.04560X0.00015*%
%ADD718R,0.02190X0.00015*%
%ADD719R,0.04440X0.00015*%
%ADD720R,0.02370X0.00015*%
%ADD721R,0.02145X0.00015*%
%ADD722R,0.04365X0.00015*%
%ADD723R,0.04320X0.00015*%
%ADD724R,0.02310X0.00015*%
%ADD725R,0.02100X0.00015*%
%ADD726R,0.04260X0.00015*%
%ADD727R,0.04200X0.00015*%
%ADD728R,0.02265X0.00015*%
%ADD729R,0.02040X0.00015*%
%ADD730R,0.04095X0.00015*%
%ADD731R,0.02220X0.00015*%
%ADD732R,0.03915X0.00015*%
%ADD733R,0.02175X0.00015*%
%ADD734R,0.03765X0.00015*%
%ADD735R,0.03675X0.00015*%
%ADD736R,0.01890X0.00015*%
%ADD737R,0.03615X0.00015*%
%ADD738R,0.02055X0.00015*%
%ADD739R,0.01860X0.00015*%
%ADD740R,0.03555X0.00015*%
%ADD741R,0.01815X0.00015*%
%ADD742R,0.03450X0.00015*%
%ADD743R,0.01725X0.00015*%
%ADD744R,0.03315X0.00015*%
%ADD745R,0.01905X0.00015*%
%ADD746R,0.01680X0.00015*%
%ADD747R,0.01650X0.00015*%
%ADD748R,0.01620X0.00015*%
%ADD749R,0.01590X0.00015*%
%ADD750R,0.01770X0.00015*%
%ADD751R,0.01560X0.00015*%
%ADD752R,0.03240X0.00015*%
%ADD753R,0.01740X0.00015*%
%ADD754R,0.01665X0.00015*%
%ADD755R,0.01455X0.00015*%
%ADD756R,0.01635X0.00015*%
%ADD757R,0.01410X0.00015*%
%ADD758R,0.01395X0.00015*%
%ADD759R,0.01365X0.00015*%
%ADD760R,0.01335X0.00015*%
%ADD761R,0.01290X0.00015*%
%ADD762R,0.03210X0.00015*%
%ADD763R,0.01455X0.00015*%
%ADD764R,0.01185X0.00015*%
%ADD765R,0.01290X0.00015*%
%ADD766R,0.01110X0.00015*%
%ADD767R,0.01260X0.00015*%
%ADD768R,0.03180X0.00015*%
%ADD769R,0.00975X0.00015*%
%ADD770R,0.03150X0.00015*%
%ADD771R,0.00885X0.00015*%
%ADD772R,0.03150X0.00015*%
%ADD773R,0.01050X0.00015*%
%ADD774R,0.00795X0.00015*%
%ADD775R,0.00885X0.00015*%
%ADD776R,0.00690X0.00015*%
%ADD777R,0.00840X0.00015*%
%ADD778R,0.00570X0.00015*%
%ADD779R,0.00525X0.00015*%
%ADD780R,0.03105X0.00015*%
%ADD781R,0.00660X0.00015*%
%ADD782R,0.00615X0.00015*%
%ADD783R,0.00420X0.00015*%
%ADD784R,0.00555X0.00015*%
%ADD785R,0.00390X0.00015*%
%ADD786R,0.00525X0.00015*%
%ADD787R,0.00360X0.00015*%
%ADD788R,0.00495X0.00015*%
%ADD789R,0.03075X0.00015*%
%ADD790R,0.00450X0.00015*%
%ADD791R,0.00225X0.00015*%
%ADD792R,0.00345X0.00015*%
%ADD793R,0.00255X0.00015*%
%ADD794R,0.03060X0.00015*%
%ADD795R,0.00180X0.00015*%
%ADD796R,0.00075X0.00015*%
%ADD797R,0.03000X0.00015*%
%ADD798R,0.02955X0.00015*%
%ADD799R,0.02940X0.00015*%
%ADD800R,0.02940X0.00015*%
%ADD801R,0.02910X0.00015*%
%ADD802R,0.02910X0.00015*%
%ADD803R,0.02865X0.00015*%
%ADD804R,0.02805X0.00015*%
%ADD805R,0.02775X0.00015*%
%ADD806R,0.02760X0.00015*%
%ADD807R,0.02655X0.00015*%
%ADD808R,0.02640X0.00015*%
%ADD809R,0.02610X0.00015*%
%ADD810R,0.02595X0.00015*%
%ADD811R,0.02535X0.00015*%
%ADD812R,0.02475X0.00015*%
%ADD813R,0.02175X0.00015*%
%ADD814R,0.01575X0.00015*%
%ADD815C,0.00400*%
%ADD816C,0.02600*%
%ADD817C,0.00800*%
%ADD818C,0.00700*%
%ADD819C,0.00600*%
%ADD820R,0.05512X0.00787*%
%ADD821C,0.00100*%
D10*
X0186148Y0080505D02*
X0186148Y0082006D01*
X0187650Y0083508D01*
X0189218Y0082757D02*
X0189218Y0079755D01*
X0192220Y0082757D01*
X0192220Y0079755D01*
X0191469Y0079004D01*
X0189968Y0079004D01*
X0189218Y0079755D01*
X0187650Y0079004D02*
X0186148Y0080505D01*
X0189218Y0082757D02*
X0189968Y0083508D01*
X0191469Y0083508D01*
X0192220Y0082757D01*
X0193821Y0083508D02*
X0193821Y0081256D01*
X0195323Y0082006D01*
X0196073Y0082006D01*
X0196824Y0081256D01*
X0196824Y0079755D01*
X0196073Y0079004D01*
X0194572Y0079004D01*
X0193821Y0079755D01*
X0193821Y0083508D02*
X0196824Y0083508D01*
X0195356Y0086504D02*
X0198359Y0086504D01*
X0195356Y0086504D02*
X0195356Y0087255D01*
X0198359Y0090257D01*
X0198359Y0091008D01*
X0195356Y0091008D01*
X0193755Y0091008D02*
X0190752Y0091008D01*
X0190752Y0086504D01*
X0193755Y0086504D01*
X0192253Y0088756D02*
X0190752Y0088756D01*
X0189151Y0091008D02*
X0186148Y0091008D01*
X0186148Y0086504D01*
X0189151Y0086504D01*
X0187650Y0088756D02*
X0186148Y0088756D01*
X0198425Y0079004D02*
X0201428Y0083508D01*
X0203029Y0082757D02*
X0203780Y0083508D01*
X0205281Y0083508D01*
X0206032Y0082757D01*
X0206032Y0082006D01*
X0203029Y0079004D01*
X0206032Y0079004D01*
X0207633Y0079755D02*
X0210636Y0082757D01*
X0210636Y0079755D01*
X0209885Y0079004D01*
X0208384Y0079004D01*
X0207633Y0079755D01*
X0207633Y0082757D01*
X0208384Y0083508D01*
X0209885Y0083508D01*
X0210636Y0082757D01*
X0212237Y0082757D02*
X0212988Y0083508D01*
X0214489Y0083508D01*
X0215240Y0082757D01*
X0215240Y0082006D01*
X0212237Y0079004D01*
X0215240Y0079004D01*
X0216841Y0079755D02*
X0219844Y0082757D01*
X0219844Y0079755D01*
X0219093Y0079004D01*
X0217592Y0079004D01*
X0216841Y0079755D01*
X0216841Y0082757D01*
X0217592Y0083508D01*
X0219093Y0083508D01*
X0219844Y0082757D01*
X0221445Y0086504D02*
X0221445Y0091008D01*
X0223697Y0091008D01*
X0224448Y0090257D01*
X0224448Y0088756D01*
X0223697Y0088005D01*
X0221445Y0088005D01*
X0226049Y0088005D02*
X0228301Y0088005D01*
X0229052Y0088756D01*
X0229052Y0090257D01*
X0228301Y0091008D01*
X0226049Y0091008D01*
X0226049Y0086504D01*
X0227550Y0088005D02*
X0229052Y0086504D01*
X0230653Y0086504D02*
X0230653Y0091008D01*
X0233655Y0091008D01*
X0235257Y0091008D02*
X0235257Y0086504D01*
X0238259Y0086504D01*
X0239861Y0087255D02*
X0240611Y0086504D01*
X0242113Y0086504D01*
X0242863Y0087255D01*
X0242863Y0088005D01*
X0242113Y0088756D01*
X0239861Y0088756D01*
X0239861Y0087255D01*
X0239861Y0088756D02*
X0241362Y0090257D01*
X0242863Y0091008D01*
X0233655Y0086504D02*
X0230653Y0086504D01*
X0230653Y0088756D02*
X0232154Y0088756D01*
X0231387Y0083508D02*
X0229886Y0082006D01*
X0228301Y0082006D02*
X0227550Y0082006D01*
X0226049Y0080505D01*
X0226049Y0079004D02*
X0226049Y0082006D01*
X0229886Y0079004D02*
X0232888Y0079004D01*
X0231387Y0079004D02*
X0231387Y0083508D01*
X0234489Y0083508D02*
X0236741Y0083508D01*
X0237492Y0082757D01*
X0237492Y0082006D01*
X0236741Y0081256D01*
X0234489Y0081256D01*
X0234489Y0079004D02*
X0234489Y0083508D01*
X0236741Y0081256D02*
X0237492Y0080505D01*
X0237492Y0079755D01*
X0236741Y0079004D01*
X0234489Y0079004D01*
X0239093Y0079004D02*
X0242096Y0082006D01*
X0242096Y0082757D01*
X0241345Y0083508D01*
X0239844Y0083508D01*
X0239093Y0082757D01*
X0239093Y0079004D02*
X0242096Y0079004D01*
X0243697Y0079004D02*
X0245199Y0080505D01*
X0245199Y0082006D01*
X0243697Y0083508D01*
X0215240Y0087255D02*
X0214489Y0086504D01*
X0212237Y0086504D01*
X0212237Y0091008D01*
X0214489Y0091008D01*
X0215240Y0090257D01*
X0215240Y0089506D01*
X0214489Y0088756D01*
X0212237Y0088756D01*
X0214489Y0088756D02*
X0215240Y0088005D01*
X0215240Y0087255D01*
X0210669Y0086504D02*
X0209168Y0086504D01*
X0209919Y0086504D02*
X0209919Y0091008D01*
X0210669Y0091008D02*
X0209168Y0091008D01*
X0207567Y0090257D02*
X0206816Y0091008D01*
X0204564Y0091008D01*
X0204564Y0086504D01*
X0206816Y0086504D01*
X0207567Y0087255D01*
X0207567Y0090257D01*
X0301783Y0102982D02*
X0304452Y0102982D01*
X0303118Y0102982D02*
X0303118Y0106986D01*
X0301783Y0105651D01*
X0301783Y0112982D02*
X0304452Y0115651D01*
X0304452Y0116318D01*
X0303785Y0116986D01*
X0302451Y0116986D01*
X0301783Y0116318D01*
X0301783Y0112982D02*
X0304452Y0112982D01*
X0270836Y0190520D02*
X0271586Y0191270D01*
X0271586Y0194273D01*
X0270836Y0195024D01*
X0269334Y0195024D01*
X0268584Y0194273D01*
X0268584Y0193522D01*
X0269334Y0192772D01*
X0271586Y0192772D01*
X0270836Y0190520D02*
X0269334Y0190520D01*
X0268584Y0191270D01*
X0266982Y0190520D02*
X0265481Y0192021D01*
X0266232Y0192021D02*
X0263980Y0192021D01*
X0263980Y0190520D02*
X0263980Y0195024D01*
X0266232Y0195024D01*
X0266982Y0194273D01*
X0266982Y0192772D01*
X0266232Y0192021D01*
X0262378Y0192772D02*
X0259376Y0192772D01*
X0259376Y0193522D02*
X0260877Y0195024D01*
X0262378Y0193522D01*
X0262378Y0190520D01*
X0259376Y0190520D02*
X0259376Y0193522D01*
X0257774Y0192021D02*
X0256273Y0190520D01*
X0254772Y0192021D01*
X0254772Y0195024D01*
X0257774Y0195024D02*
X0257774Y0192021D01*
X0390168Y0191771D02*
X0391669Y0190270D01*
X0393171Y0191771D01*
X0393171Y0194774D01*
X0394772Y0193272D02*
X0396273Y0194774D01*
X0397774Y0193272D01*
X0397774Y0190270D01*
X0399376Y0190270D02*
X0399376Y0194774D01*
X0401628Y0194774D01*
X0402378Y0194023D01*
X0402378Y0192522D01*
X0401628Y0191771D01*
X0399376Y0191771D01*
X0400877Y0191771D02*
X0402378Y0190270D01*
X0403980Y0190270D02*
X0406982Y0190270D01*
X0405481Y0190270D02*
X0405481Y0194774D01*
X0403980Y0193272D01*
X0408584Y0194023D02*
X0408584Y0191020D01*
X0411586Y0194023D01*
X0411586Y0191020D01*
X0410836Y0190270D01*
X0409334Y0190270D01*
X0408584Y0191020D01*
X0408584Y0194023D02*
X0409334Y0194774D01*
X0410836Y0194774D01*
X0411586Y0194023D01*
X0397774Y0192522D02*
X0394772Y0192522D01*
X0394772Y0193272D02*
X0394772Y0190270D01*
X0390168Y0191771D02*
X0390168Y0194774D01*
X0429170Y0151390D02*
X0429170Y0143650D01*
X0444705Y0143650D01*
X0444705Y0151390D01*
X0429170Y0151390D01*
X0430568Y0140037D02*
X0438308Y0140037D01*
X0438308Y0124502D01*
X0430568Y0124502D01*
X0430568Y0140037D01*
X0454068Y0142037D02*
X0454068Y0126502D01*
X0461808Y0126502D01*
X0461808Y0142037D01*
X0454068Y0142037D01*
X0464568Y0155752D02*
X0472308Y0155752D01*
X0472308Y0171287D01*
X0464568Y0171287D01*
X0464568Y0155752D01*
X0460694Y0170270D02*
X0460694Y0174774D01*
X0458442Y0172522D01*
X0461444Y0172522D01*
X0456840Y0174023D02*
X0456840Y0171020D01*
X0456090Y0170270D01*
X0454588Y0170270D01*
X0453838Y0171020D01*
X0453838Y0174023D01*
X0454588Y0174774D01*
X0456090Y0174774D01*
X0456840Y0174023D01*
X0455339Y0171771D02*
X0456840Y0170270D01*
X0495464Y0156020D02*
X0495466Y0156157D01*
X0495472Y0156295D01*
X0495482Y0156432D01*
X0495496Y0156568D01*
X0495514Y0156705D01*
X0495536Y0156840D01*
X0495562Y0156975D01*
X0495591Y0157109D01*
X0495625Y0157243D01*
X0495662Y0157375D01*
X0495704Y0157506D01*
X0495749Y0157636D01*
X0495798Y0157764D01*
X0495850Y0157891D01*
X0495907Y0158016D01*
X0495966Y0158140D01*
X0496030Y0158262D01*
X0496097Y0158382D01*
X0496167Y0158500D01*
X0496241Y0158616D01*
X0496318Y0158730D01*
X0496399Y0158841D01*
X0496482Y0158950D01*
X0496569Y0159057D01*
X0496659Y0159160D01*
X0496752Y0159262D01*
X0496848Y0159360D01*
X0496946Y0159456D01*
X0497048Y0159549D01*
X0497151Y0159639D01*
X0497258Y0159726D01*
X0497367Y0159809D01*
X0497478Y0159890D01*
X0497592Y0159967D01*
X0497708Y0160041D01*
X0497826Y0160111D01*
X0497946Y0160178D01*
X0498068Y0160242D01*
X0498192Y0160301D01*
X0498317Y0160358D01*
X0498444Y0160410D01*
X0498572Y0160459D01*
X0498702Y0160504D01*
X0498833Y0160546D01*
X0498965Y0160583D01*
X0499099Y0160617D01*
X0499233Y0160646D01*
X0499368Y0160672D01*
X0499503Y0160694D01*
X0499640Y0160712D01*
X0499776Y0160726D01*
X0499913Y0160736D01*
X0500051Y0160742D01*
X0500188Y0160744D01*
X0500325Y0160742D01*
X0500463Y0160736D01*
X0500600Y0160726D01*
X0500736Y0160712D01*
X0500873Y0160694D01*
X0501008Y0160672D01*
X0501143Y0160646D01*
X0501277Y0160617D01*
X0501411Y0160583D01*
X0501543Y0160546D01*
X0501674Y0160504D01*
X0501804Y0160459D01*
X0501932Y0160410D01*
X0502059Y0160358D01*
X0502184Y0160301D01*
X0502308Y0160242D01*
X0502430Y0160178D01*
X0502550Y0160111D01*
X0502668Y0160041D01*
X0502784Y0159967D01*
X0502898Y0159890D01*
X0503009Y0159809D01*
X0503118Y0159726D01*
X0503225Y0159639D01*
X0503328Y0159549D01*
X0503430Y0159456D01*
X0503528Y0159360D01*
X0503624Y0159262D01*
X0503717Y0159160D01*
X0503807Y0159057D01*
X0503894Y0158950D01*
X0503977Y0158841D01*
X0504058Y0158730D01*
X0504135Y0158616D01*
X0504209Y0158500D01*
X0504279Y0158382D01*
X0504346Y0158262D01*
X0504410Y0158140D01*
X0504469Y0158016D01*
X0504526Y0157891D01*
X0504578Y0157764D01*
X0504627Y0157636D01*
X0504672Y0157506D01*
X0504714Y0157375D01*
X0504751Y0157243D01*
X0504785Y0157109D01*
X0504814Y0156975D01*
X0504840Y0156840D01*
X0504862Y0156705D01*
X0504880Y0156568D01*
X0504894Y0156432D01*
X0504904Y0156295D01*
X0504910Y0156157D01*
X0504912Y0156020D01*
X0504910Y0155883D01*
X0504904Y0155745D01*
X0504894Y0155608D01*
X0504880Y0155472D01*
X0504862Y0155335D01*
X0504840Y0155200D01*
X0504814Y0155065D01*
X0504785Y0154931D01*
X0504751Y0154797D01*
X0504714Y0154665D01*
X0504672Y0154534D01*
X0504627Y0154404D01*
X0504578Y0154276D01*
X0504526Y0154149D01*
X0504469Y0154024D01*
X0504410Y0153900D01*
X0504346Y0153778D01*
X0504279Y0153658D01*
X0504209Y0153540D01*
X0504135Y0153424D01*
X0504058Y0153310D01*
X0503977Y0153199D01*
X0503894Y0153090D01*
X0503807Y0152983D01*
X0503717Y0152880D01*
X0503624Y0152778D01*
X0503528Y0152680D01*
X0503430Y0152584D01*
X0503328Y0152491D01*
X0503225Y0152401D01*
X0503118Y0152314D01*
X0503009Y0152231D01*
X0502898Y0152150D01*
X0502784Y0152073D01*
X0502668Y0151999D01*
X0502550Y0151929D01*
X0502430Y0151862D01*
X0502308Y0151798D01*
X0502184Y0151739D01*
X0502059Y0151682D01*
X0501932Y0151630D01*
X0501804Y0151581D01*
X0501674Y0151536D01*
X0501543Y0151494D01*
X0501411Y0151457D01*
X0501277Y0151423D01*
X0501143Y0151394D01*
X0501008Y0151368D01*
X0500873Y0151346D01*
X0500736Y0151328D01*
X0500600Y0151314D01*
X0500463Y0151304D01*
X0500325Y0151298D01*
X0500188Y0151296D01*
X0500051Y0151298D01*
X0499913Y0151304D01*
X0499776Y0151314D01*
X0499640Y0151328D01*
X0499503Y0151346D01*
X0499368Y0151368D01*
X0499233Y0151394D01*
X0499099Y0151423D01*
X0498965Y0151457D01*
X0498833Y0151494D01*
X0498702Y0151536D01*
X0498572Y0151581D01*
X0498444Y0151630D01*
X0498317Y0151682D01*
X0498192Y0151739D01*
X0498068Y0151798D01*
X0497946Y0151862D01*
X0497826Y0151929D01*
X0497708Y0151999D01*
X0497592Y0152073D01*
X0497478Y0152150D01*
X0497367Y0152231D01*
X0497258Y0152314D01*
X0497151Y0152401D01*
X0497048Y0152491D01*
X0496946Y0152584D01*
X0496848Y0152680D01*
X0496752Y0152778D01*
X0496659Y0152880D01*
X0496569Y0152983D01*
X0496482Y0153090D01*
X0496399Y0153199D01*
X0496318Y0153310D01*
X0496241Y0153424D01*
X0496167Y0153540D01*
X0496097Y0153658D01*
X0496030Y0153778D01*
X0495966Y0153900D01*
X0495907Y0154024D01*
X0495850Y0154149D01*
X0495798Y0154276D01*
X0495749Y0154404D01*
X0495704Y0154534D01*
X0495662Y0154665D01*
X0495625Y0154797D01*
X0495591Y0154931D01*
X0495562Y0155065D01*
X0495536Y0155200D01*
X0495514Y0155335D01*
X0495496Y0155472D01*
X0495482Y0155608D01*
X0495472Y0155745D01*
X0495466Y0155883D01*
X0495464Y0156020D01*
X0507188Y0154770D02*
X0507938Y0154020D01*
X0509440Y0154020D01*
X0510190Y0154770D01*
X0510190Y0156272D01*
X0508689Y0156272D01*
X0510190Y0157773D02*
X0509440Y0158524D01*
X0507938Y0158524D01*
X0507188Y0157773D01*
X0507188Y0154770D01*
X0511792Y0154020D02*
X0511792Y0158524D01*
X0514794Y0154020D01*
X0514794Y0158524D01*
X0516396Y0158524D02*
X0518647Y0158524D01*
X0519398Y0157773D01*
X0519398Y0154770D01*
X0518647Y0154020D01*
X0516396Y0154020D01*
X0516396Y0158524D01*
X0519318Y0146787D02*
X0527058Y0146787D01*
X0527058Y0131252D01*
X0519318Y0131252D01*
X0519318Y0146787D01*
X0515987Y0144390D02*
X0515987Y0137650D01*
X0503388Y0137650D01*
X0503388Y0144390D01*
X0515987Y0144390D01*
X0541670Y0130140D02*
X0541670Y0122400D01*
X0557205Y0122400D01*
X0557205Y0130140D01*
X0541670Y0130140D01*
X0544388Y0122140D02*
X0556987Y0122140D01*
X0556987Y0115400D01*
X0544388Y0115400D01*
X0544388Y0122140D01*
X0546920Y0143900D02*
X0546920Y0151640D01*
X0562455Y0151640D01*
X0562455Y0143900D01*
X0546920Y0143900D01*
X0549888Y0151650D02*
X0549888Y0158390D01*
X0562487Y0158390D01*
X0562487Y0151650D01*
X0549888Y0151650D01*
X0592438Y0150274D02*
X0593939Y0150274D01*
X0593188Y0150274D02*
X0593188Y0145770D01*
X0592438Y0145770D02*
X0593939Y0145770D01*
X0595507Y0146520D02*
X0596258Y0145770D01*
X0597759Y0145770D01*
X0598509Y0146520D01*
X0600111Y0145770D02*
X0603113Y0145770D01*
X0601612Y0145770D02*
X0601612Y0150274D01*
X0600111Y0148772D01*
X0598509Y0149523D02*
X0597759Y0150274D01*
X0596258Y0150274D01*
X0595507Y0149523D01*
X0595507Y0146520D01*
X0623688Y0128024D02*
X0626690Y0123520D01*
X0628292Y0123520D02*
X0631294Y0123520D01*
X0629793Y0123520D02*
X0629793Y0128024D01*
X0628292Y0126522D01*
X0626690Y0128024D02*
X0623688Y0123520D01*
X0623438Y0170520D02*
X0621886Y0171016D01*
X0620416Y0171720D01*
X0619056Y0172618D01*
X0617832Y0173694D01*
X0616766Y0174927D01*
X0615879Y0176294D01*
X0615188Y0177770D01*
X0623438Y0177770D01*
X0623438Y0170520D01*
X0623438Y0170707D02*
X0622852Y0170707D01*
X0623438Y0171206D02*
X0621490Y0171206D01*
X0620449Y0171704D02*
X0623438Y0171704D01*
X0623438Y0172203D02*
X0619686Y0172203D01*
X0618962Y0172701D02*
X0623438Y0172701D01*
X0623438Y0173200D02*
X0618395Y0173200D01*
X0617829Y0173698D02*
X0623438Y0173698D01*
X0623438Y0174197D02*
X0617398Y0174197D01*
X0616967Y0174695D02*
X0623438Y0174695D01*
X0623438Y0175194D02*
X0616594Y0175194D01*
X0616270Y0175692D02*
X0623438Y0175692D01*
X0623438Y0176191D02*
X0615947Y0176191D01*
X0615694Y0176689D02*
X0623438Y0176689D01*
X0623438Y0177188D02*
X0615461Y0177188D01*
X0615227Y0177686D02*
X0623438Y0177686D01*
X0623437Y0170520D02*
X0623151Y0170593D01*
X0622867Y0170674D01*
X0622585Y0170761D01*
X0622305Y0170856D01*
X0622027Y0170957D01*
X0621753Y0171065D01*
X0621480Y0171180D01*
X0621211Y0171301D01*
X0620945Y0171429D01*
X0620682Y0171563D01*
X0620422Y0171704D01*
X0620166Y0171851D01*
X0619913Y0172004D01*
X0619664Y0172163D01*
X0619419Y0172329D01*
X0619179Y0172500D01*
X0618942Y0172677D01*
X0618710Y0172860D01*
X0618483Y0173048D01*
X0618260Y0173242D01*
X0618042Y0173441D01*
X0617829Y0173646D01*
X0617621Y0173856D01*
X0617418Y0174070D01*
X0617220Y0174290D01*
X0617028Y0174514D01*
X0616842Y0174743D01*
X0616661Y0174977D01*
X0616485Y0175215D01*
X0616316Y0175457D01*
X0616153Y0175703D01*
X0615995Y0175953D01*
X0615844Y0176207D01*
X0615699Y0176464D01*
X0615561Y0176725D01*
X0615429Y0176989D01*
X0615303Y0177256D01*
X0615184Y0177527D01*
X0615071Y0177800D01*
X0614965Y0178076D01*
X0614866Y0178354D01*
X0614774Y0178635D01*
X0614689Y0178917D01*
X0614610Y0179202D01*
X0614539Y0179489D01*
X0614475Y0179777D01*
X0614417Y0180067D01*
X0614367Y0180358D01*
X0614324Y0180650D01*
X0614288Y0180943D01*
X0614259Y0181237D01*
X0614238Y0181532D01*
X0614223Y0181827D01*
X0614216Y0182122D01*
X0614216Y0182418D01*
X0614223Y0182713D01*
X0614238Y0183008D01*
X0614259Y0183303D01*
X0614288Y0183597D01*
X0614324Y0183890D01*
X0614367Y0184182D01*
X0614417Y0184473D01*
X0614475Y0184763D01*
X0614539Y0185051D01*
X0614610Y0185338D01*
X0614689Y0185623D01*
X0614774Y0185905D01*
X0614866Y0186186D01*
X0614965Y0186464D01*
X0615071Y0186740D01*
X0615184Y0187013D01*
X0615303Y0187284D01*
X0615429Y0187551D01*
X0615561Y0187815D01*
X0615699Y0188076D01*
X0615844Y0188333D01*
X0615995Y0188587D01*
X0616153Y0188837D01*
X0616316Y0189083D01*
X0616485Y0189325D01*
X0616661Y0189563D01*
X0616842Y0189797D01*
X0617028Y0190026D01*
X0617220Y0190250D01*
X0617418Y0190470D01*
X0617621Y0190684D01*
X0617829Y0190894D01*
X0618042Y0191099D01*
X0618260Y0191298D01*
X0618483Y0191492D01*
X0618710Y0191680D01*
X0618942Y0191863D01*
X0619179Y0192040D01*
X0619419Y0192211D01*
X0619664Y0192377D01*
X0619913Y0192536D01*
X0620166Y0192689D01*
X0620422Y0192836D01*
X0620682Y0192977D01*
X0620945Y0193111D01*
X0621211Y0193239D01*
X0621480Y0193360D01*
X0621753Y0193475D01*
X0622027Y0193583D01*
X0622305Y0193684D01*
X0622585Y0193779D01*
X0622867Y0193866D01*
X0623151Y0193947D01*
X0623437Y0194020D01*
X0629438Y0194020D02*
X0629724Y0193947D01*
X0630008Y0193866D01*
X0630290Y0193779D01*
X0630570Y0193684D01*
X0630848Y0193583D01*
X0631122Y0193475D01*
X0631395Y0193360D01*
X0631664Y0193239D01*
X0631930Y0193111D01*
X0632193Y0192977D01*
X0632453Y0192836D01*
X0632709Y0192689D01*
X0632962Y0192536D01*
X0633211Y0192377D01*
X0633456Y0192211D01*
X0633696Y0192040D01*
X0633933Y0191863D01*
X0634165Y0191680D01*
X0634392Y0191492D01*
X0634615Y0191298D01*
X0634833Y0191099D01*
X0635046Y0190894D01*
X0635254Y0190684D01*
X0635457Y0190470D01*
X0635655Y0190250D01*
X0635847Y0190026D01*
X0636033Y0189797D01*
X0636214Y0189563D01*
X0636390Y0189325D01*
X0636559Y0189083D01*
X0636722Y0188837D01*
X0636880Y0188587D01*
X0637031Y0188333D01*
X0637176Y0188076D01*
X0637314Y0187815D01*
X0637446Y0187551D01*
X0637572Y0187284D01*
X0637691Y0187013D01*
X0637804Y0186740D01*
X0637910Y0186464D01*
X0638009Y0186186D01*
X0638101Y0185905D01*
X0638186Y0185623D01*
X0638265Y0185338D01*
X0638336Y0185051D01*
X0638400Y0184763D01*
X0638458Y0184473D01*
X0638508Y0184182D01*
X0638551Y0183890D01*
X0638587Y0183597D01*
X0638616Y0183303D01*
X0638637Y0183008D01*
X0638652Y0182713D01*
X0638659Y0182418D01*
X0638659Y0182122D01*
X0638652Y0181827D01*
X0638637Y0181532D01*
X0638616Y0181237D01*
X0638587Y0180943D01*
X0638551Y0180650D01*
X0638508Y0180358D01*
X0638458Y0180067D01*
X0638400Y0179777D01*
X0638336Y0179489D01*
X0638265Y0179202D01*
X0638186Y0178917D01*
X0638101Y0178635D01*
X0638009Y0178354D01*
X0637910Y0178076D01*
X0637804Y0177800D01*
X0637691Y0177527D01*
X0637572Y0177256D01*
X0637446Y0176989D01*
X0637314Y0176725D01*
X0637176Y0176464D01*
X0637031Y0176207D01*
X0636880Y0175953D01*
X0636722Y0175703D01*
X0636559Y0175457D01*
X0636390Y0175215D01*
X0636214Y0174977D01*
X0636033Y0174743D01*
X0635847Y0174514D01*
X0635655Y0174290D01*
X0635457Y0174070D01*
X0635254Y0173856D01*
X0635046Y0173646D01*
X0634833Y0173441D01*
X0634615Y0173242D01*
X0634392Y0173048D01*
X0634165Y0172860D01*
X0633933Y0172677D01*
X0633696Y0172500D01*
X0633456Y0172329D01*
X0633211Y0172163D01*
X0632962Y0172004D01*
X0632709Y0171851D01*
X0632453Y0171704D01*
X0632193Y0171563D01*
X0631930Y0171429D01*
X0631664Y0171301D01*
X0631395Y0171180D01*
X0631122Y0171065D01*
X0630848Y0170957D01*
X0630570Y0170856D01*
X0630290Y0170761D01*
X0630008Y0170674D01*
X0629724Y0170593D01*
X0629438Y0170520D01*
X0630990Y0171016D01*
X0632460Y0171720D01*
X0633819Y0172618D01*
X0635043Y0173694D01*
X0636109Y0174927D01*
X0636996Y0176294D01*
X0637688Y0177770D01*
X0629438Y0177770D01*
X0629438Y0170520D01*
X0629438Y0170707D02*
X0630023Y0170707D01*
X0629438Y0171206D02*
X0631385Y0171206D01*
X0632426Y0171704D02*
X0629438Y0171704D01*
X0629438Y0172203D02*
X0633190Y0172203D01*
X0633913Y0172701D02*
X0629438Y0172701D01*
X0629438Y0173200D02*
X0634481Y0173200D01*
X0635047Y0173698D02*
X0629438Y0173698D01*
X0629438Y0174197D02*
X0635478Y0174197D01*
X0635908Y0174695D02*
X0629438Y0174695D01*
X0629438Y0175194D02*
X0636282Y0175194D01*
X0636605Y0175692D02*
X0629438Y0175692D01*
X0629438Y0176191D02*
X0636929Y0176191D01*
X0637181Y0176689D02*
X0629438Y0176689D01*
X0629438Y0177188D02*
X0637415Y0177188D01*
X0637649Y0177686D02*
X0629438Y0177686D01*
X0640538Y0181170D02*
X0640538Y0184173D01*
X0641288Y0184924D01*
X0642790Y0184924D01*
X0643540Y0184173D01*
X0645142Y0184173D02*
X0645892Y0184924D01*
X0647394Y0184924D01*
X0648144Y0184173D01*
X0648144Y0183422D01*
X0647394Y0182672D01*
X0648144Y0181921D01*
X0648144Y0181170D01*
X0647394Y0180420D01*
X0645892Y0180420D01*
X0645142Y0181170D01*
X0643540Y0181170D02*
X0642790Y0180420D01*
X0641288Y0180420D01*
X0640538Y0181170D01*
X0646643Y0182672D02*
X0647394Y0182672D01*
X0553086Y0191020D02*
X0552336Y0190270D01*
X0550834Y0190270D01*
X0550084Y0191020D01*
X0550084Y0191771D01*
X0550834Y0192522D01*
X0552336Y0192522D01*
X0553086Y0191771D01*
X0553086Y0191020D01*
X0552336Y0192522D02*
X0553086Y0193272D01*
X0553086Y0194023D01*
X0552336Y0194774D01*
X0550834Y0194774D01*
X0550084Y0194023D01*
X0550084Y0193272D01*
X0550834Y0192522D01*
X0548482Y0192522D02*
X0547732Y0191771D01*
X0545480Y0191771D01*
X0546981Y0191771D02*
X0548482Y0190270D01*
X0548482Y0192522D02*
X0548482Y0194023D01*
X0547732Y0194774D01*
X0545480Y0194774D01*
X0545480Y0190270D01*
X0543878Y0190270D02*
X0543878Y0193272D01*
X0542377Y0194774D01*
X0540876Y0193272D01*
X0540876Y0190270D01*
X0539274Y0191771D02*
X0537773Y0190270D01*
X0536272Y0191771D01*
X0536272Y0194774D01*
X0539274Y0194774D02*
X0539274Y0191771D01*
X0540876Y0192522D02*
X0543878Y0192522D01*
X0587818Y0269252D02*
X0587818Y0284787D01*
X0595558Y0284787D01*
X0595558Y0269252D01*
X0587818Y0269252D01*
X0584308Y0281752D02*
X0576568Y0281752D01*
X0576568Y0297287D01*
X0584308Y0297287D01*
X0584308Y0281752D01*
X0602088Y0285020D02*
X0602838Y0284270D01*
X0604340Y0284270D01*
X0605090Y0285020D01*
X0605090Y0288023D01*
X0604340Y0288774D01*
X0602838Y0288774D01*
X0602088Y0288023D01*
X0602088Y0285020D01*
X0603589Y0285771D02*
X0605090Y0284270D01*
X0606692Y0285020D02*
X0607442Y0284270D01*
X0608944Y0284270D01*
X0609694Y0285020D01*
X0609694Y0285771D01*
X0608944Y0286522D01*
X0606692Y0286522D01*
X0606692Y0285020D01*
X0606692Y0286522D02*
X0608193Y0288023D01*
X0609694Y0288774D01*
X0571444Y0297520D02*
X0570694Y0296770D01*
X0569192Y0296770D01*
X0568442Y0297520D01*
X0568442Y0299022D02*
X0569943Y0299772D01*
X0570694Y0299772D01*
X0571444Y0299022D01*
X0571444Y0297520D01*
X0568442Y0299022D02*
X0568442Y0301274D01*
X0571444Y0301274D01*
X0566840Y0300523D02*
X0566840Y0297520D01*
X0566090Y0296770D01*
X0564588Y0296770D01*
X0563838Y0297520D01*
X0563838Y0300523D01*
X0564588Y0301274D01*
X0566090Y0301274D01*
X0566840Y0300523D01*
X0565339Y0298271D02*
X0566840Y0296770D01*
X0550836Y0330270D02*
X0549334Y0330270D01*
X0548584Y0331020D01*
X0548584Y0332522D02*
X0550085Y0333272D01*
X0550836Y0333272D01*
X0551586Y0332522D01*
X0551586Y0331020D01*
X0550836Y0330270D01*
X0548584Y0332522D02*
X0548584Y0334774D01*
X0551586Y0334774D01*
X0546982Y0334023D02*
X0546982Y0332522D01*
X0546232Y0331771D01*
X0543980Y0331771D01*
X0545481Y0331771D02*
X0546982Y0330270D01*
X0543980Y0330270D02*
X0543980Y0334774D01*
X0546232Y0334774D01*
X0546982Y0334023D01*
X0542378Y0333272D02*
X0542378Y0330270D01*
X0542378Y0332522D02*
X0539376Y0332522D01*
X0539376Y0333272D02*
X0540877Y0334774D01*
X0542378Y0333272D01*
X0539376Y0333272D02*
X0539376Y0330270D01*
X0537774Y0331771D02*
X0537774Y0334774D01*
X0534772Y0334774D02*
X0534772Y0331771D01*
X0536273Y0330270D01*
X0537774Y0331771D01*
X0587818Y0407752D02*
X0587818Y0423287D01*
X0595558Y0423287D01*
X0595558Y0407752D01*
X0587818Y0407752D01*
X0602588Y0422520D02*
X0601838Y0423270D01*
X0601838Y0426273D01*
X0602588Y0427024D01*
X0604090Y0427024D01*
X0604840Y0426273D01*
X0604840Y0423270D01*
X0604090Y0422520D01*
X0602588Y0422520D01*
X0603339Y0424021D02*
X0604840Y0422520D01*
X0606442Y0423270D02*
X0607192Y0422520D01*
X0608694Y0422520D01*
X0609444Y0423270D01*
X0609444Y0424021D01*
X0608694Y0424772D01*
X0607943Y0424772D01*
X0608694Y0424772D02*
X0609444Y0425522D01*
X0609444Y0426273D01*
X0608694Y0427024D01*
X0607192Y0427024D01*
X0606442Y0426273D01*
X0522502Y0428520D02*
X0521751Y0427770D01*
X0520250Y0427770D01*
X0519499Y0428520D01*
X0517898Y0427770D02*
X0516397Y0429271D01*
X0517147Y0429271D02*
X0514896Y0429271D01*
X0514896Y0427770D02*
X0514896Y0432274D01*
X0517147Y0432274D01*
X0517898Y0431523D01*
X0517898Y0430022D01*
X0517147Y0429271D01*
X0519499Y0431523D02*
X0520250Y0432274D01*
X0521751Y0432274D01*
X0522502Y0431523D01*
X0522502Y0430772D01*
X0521751Y0430022D01*
X0522502Y0429271D01*
X0522502Y0428520D01*
X0521751Y0430022D02*
X0521001Y0430022D01*
X0513294Y0430022D02*
X0510292Y0430022D01*
X0510292Y0430772D02*
X0511793Y0432274D01*
X0513294Y0430772D01*
X0513294Y0427770D01*
X0510292Y0427770D02*
X0510292Y0430772D01*
X0508690Y0429271D02*
X0508690Y0432274D01*
X0505688Y0432274D02*
X0505688Y0429271D01*
X0507189Y0427770D01*
X0508690Y0429271D01*
X0469944Y0426523D02*
X0469944Y0425772D01*
X0466942Y0422770D01*
X0469944Y0422770D01*
X0469944Y0426523D02*
X0469194Y0427274D01*
X0467692Y0427274D01*
X0466942Y0426523D01*
X0465340Y0426523D02*
X0465340Y0423520D01*
X0464590Y0422770D01*
X0463088Y0422770D01*
X0462338Y0423520D01*
X0462338Y0426523D01*
X0463088Y0427274D01*
X0464590Y0427274D01*
X0465340Y0426523D01*
X0463839Y0424271D02*
X0465340Y0422770D01*
X0455558Y0423287D02*
X0447818Y0423287D01*
X0447818Y0407752D01*
X0455558Y0407752D01*
X0455558Y0423287D01*
X0382502Y0427770D02*
X0379499Y0427770D01*
X0382502Y0430772D01*
X0382502Y0431523D01*
X0381751Y0432274D01*
X0380250Y0432274D01*
X0379499Y0431523D01*
X0377898Y0431523D02*
X0377898Y0430022D01*
X0377147Y0429271D01*
X0374896Y0429271D01*
X0376397Y0429271D02*
X0377898Y0427770D01*
X0374896Y0427770D02*
X0374896Y0432274D01*
X0377147Y0432274D01*
X0377898Y0431523D01*
X0373294Y0430772D02*
X0373294Y0427770D01*
X0373294Y0430022D02*
X0370292Y0430022D01*
X0370292Y0430772D02*
X0371793Y0432274D01*
X0373294Y0430772D01*
X0370292Y0430772D02*
X0370292Y0427770D01*
X0368690Y0429271D02*
X0368690Y0432274D01*
X0365688Y0432274D02*
X0365688Y0429271D01*
X0367189Y0427770D01*
X0368690Y0429271D01*
X0330694Y0422520D02*
X0327692Y0422520D01*
X0329193Y0422520D02*
X0329193Y0427024D01*
X0327692Y0425522D01*
X0326090Y0426273D02*
X0326090Y0423270D01*
X0325340Y0422520D01*
X0323838Y0422520D01*
X0323088Y0423270D01*
X0323088Y0426273D01*
X0323838Y0427024D01*
X0325340Y0427024D01*
X0326090Y0426273D01*
X0324589Y0424021D02*
X0326090Y0422520D01*
X0315558Y0423287D02*
X0307818Y0423287D01*
X0307818Y0407752D01*
X0315558Y0407752D01*
X0315558Y0423287D01*
X0242502Y0427770D02*
X0239499Y0427770D01*
X0241001Y0427770D02*
X0241001Y0432274D01*
X0239499Y0430772D01*
X0237898Y0430022D02*
X0237147Y0429271D01*
X0234896Y0429271D01*
X0236397Y0429271D02*
X0237898Y0427770D01*
X0237898Y0430022D02*
X0237898Y0431523D01*
X0237147Y0432274D01*
X0234896Y0432274D01*
X0234896Y0427770D01*
X0233294Y0427770D02*
X0233294Y0430772D01*
X0231793Y0432274D01*
X0230292Y0430772D01*
X0230292Y0427770D01*
X0228690Y0429271D02*
X0228690Y0432274D01*
X0230292Y0430022D02*
X0233294Y0430022D01*
X0228690Y0429271D02*
X0227189Y0427770D01*
X0225688Y0429271D01*
X0225688Y0432274D01*
X0394772Y0334774D02*
X0394772Y0331771D01*
X0396273Y0330270D01*
X0397774Y0331771D01*
X0397774Y0334774D01*
X0399376Y0333272D02*
X0399376Y0330270D01*
X0399376Y0332522D02*
X0402378Y0332522D01*
X0402378Y0333272D02*
X0402378Y0330270D01*
X0403980Y0330270D02*
X0403980Y0334774D01*
X0406232Y0334774D01*
X0406982Y0334023D01*
X0406982Y0332522D01*
X0406232Y0331771D01*
X0403980Y0331771D01*
X0405481Y0331771D02*
X0406982Y0330270D01*
X0408584Y0332522D02*
X0411586Y0332522D01*
X0410836Y0334774D02*
X0408584Y0332522D01*
X0410836Y0330270D02*
X0410836Y0334774D01*
X0402378Y0333272D02*
X0400877Y0334774D01*
X0399376Y0333272D01*
X0382502Y0293774D02*
X0382502Y0293023D01*
X0379499Y0290020D01*
X0379499Y0289270D01*
X0377898Y0289270D02*
X0376397Y0290771D01*
X0377147Y0290771D02*
X0374896Y0290771D01*
X0374896Y0289270D02*
X0374896Y0293774D01*
X0377147Y0293774D01*
X0377898Y0293023D01*
X0377898Y0291522D01*
X0377147Y0290771D01*
X0379499Y0293774D02*
X0382502Y0293774D01*
X0373294Y0292272D02*
X0373294Y0289270D01*
X0373294Y0291522D02*
X0370292Y0291522D01*
X0370292Y0292272D02*
X0370292Y0289270D01*
X0368690Y0290771D02*
X0368690Y0293774D01*
X0370292Y0292272D02*
X0371793Y0293774D01*
X0373294Y0292272D01*
X0368690Y0290771D02*
X0367189Y0289270D01*
X0365688Y0290771D01*
X0365688Y0293774D01*
X0242502Y0293774D02*
X0241001Y0293023D01*
X0239499Y0291522D01*
X0241751Y0291522D01*
X0242502Y0290771D01*
X0242502Y0290020D01*
X0241751Y0289270D01*
X0240250Y0289270D01*
X0239499Y0290020D01*
X0239499Y0291522D01*
X0237898Y0291522D02*
X0237147Y0290771D01*
X0234896Y0290771D01*
X0236397Y0290771D02*
X0237898Y0289270D01*
X0237898Y0291522D02*
X0237898Y0293023D01*
X0237147Y0293774D01*
X0234896Y0293774D01*
X0234896Y0289270D01*
X0233294Y0289270D02*
X0233294Y0292272D01*
X0231793Y0293774D01*
X0230292Y0292272D01*
X0230292Y0289270D01*
X0228690Y0290771D02*
X0228690Y0293774D01*
X0230292Y0291522D02*
X0233294Y0291522D01*
X0228690Y0290771D02*
X0227189Y0289270D01*
X0225688Y0290771D01*
X0225688Y0293774D01*
X0453638Y0111390D02*
X0453638Y0104650D01*
X0466237Y0104650D01*
X0466237Y0111390D01*
X0453638Y0111390D01*
D11*
X0205688Y0107145D03*
D12*
X0170057Y0082961D03*
D13*
X0167167Y0077251D03*
X0175372Y0078121D03*
X0178552Y0077416D03*
D14*
X0167167Y0077266D03*
D15*
X0167167Y0077281D03*
D16*
X0167167Y0077296D03*
D17*
X0167167Y0077311D03*
X0167257Y0091696D03*
D18*
X0167167Y0077326D03*
X0175417Y0078211D03*
D19*
X0175432Y0078226D03*
X0167167Y0077341D03*
D20*
X0167167Y0077356D03*
D21*
X0167167Y0077371D03*
D22*
X0167167Y0077386D03*
X0178552Y0077551D03*
D23*
X0167175Y0077401D03*
D24*
X0167182Y0077416D03*
X0170197Y0078226D03*
X0175507Y0078316D03*
D25*
X0175522Y0078331D03*
X0178537Y0077611D03*
X0167182Y0077431D03*
D26*
X0175365Y0078151D03*
X0178560Y0077431D03*
D27*
X0178537Y0077626D03*
X0170167Y0078271D03*
X0167182Y0077446D03*
D28*
X0178552Y0077446D03*
D29*
X0175552Y0078376D03*
X0170152Y0078286D03*
X0167182Y0077461D03*
D30*
X0178560Y0077461D03*
D31*
X0167182Y0077476D03*
D32*
X0175395Y0078196D03*
X0178560Y0077476D03*
D33*
X0170137Y0078301D03*
X0167182Y0077491D03*
D34*
X0170295Y0078121D03*
X0178560Y0077491D03*
X0178185Y0091741D03*
D35*
X0167190Y0077506D03*
D36*
X0178560Y0077506D03*
D37*
X0178522Y0077701D03*
X0167197Y0077521D03*
D38*
X0170257Y0078181D03*
X0175447Y0078241D03*
X0178552Y0077521D03*
D39*
X0175612Y0078451D03*
X0170077Y0078376D03*
X0167197Y0077536D03*
X0167287Y0091441D03*
D40*
X0167272Y0091621D03*
X0178552Y0077536D03*
D41*
X0178522Y0077731D03*
X0170062Y0078391D03*
X0167197Y0077551D03*
X0172582Y0093616D03*
X0178162Y0091501D03*
D42*
X0167205Y0077566D03*
D43*
X0178552Y0077566D03*
D44*
X0178515Y0077746D03*
X0175635Y0078496D03*
X0167205Y0077581D03*
X0178155Y0091486D03*
D45*
X0178552Y0077581D03*
D46*
X0167212Y0077596D03*
D47*
X0178545Y0077596D03*
X0167280Y0091576D03*
D48*
X0178155Y0091441D03*
X0175665Y0078526D03*
X0167205Y0077611D03*
D49*
X0167212Y0077626D03*
D50*
X0167220Y0077641D03*
X0169995Y0078481D03*
X0175695Y0078586D03*
X0178140Y0091411D03*
D51*
X0178170Y0091591D03*
X0178530Y0077641D03*
D52*
X0167220Y0077656D03*
D53*
X0178530Y0077656D03*
D54*
X0167220Y0077671D03*
X0167310Y0091321D03*
X0178140Y0091396D03*
D55*
X0178170Y0091561D03*
X0178530Y0077671D03*
D56*
X0167220Y0077686D03*
D57*
X0170115Y0078316D03*
X0178530Y0077686D03*
X0178170Y0091546D03*
D58*
X0175747Y0078646D03*
X0167227Y0077701D03*
D59*
X0167227Y0077716D03*
X0169927Y0078571D03*
X0178492Y0077911D03*
D60*
X0178515Y0077716D03*
X0170085Y0078361D03*
D61*
X0167227Y0077731D03*
D62*
X0167235Y0077746D03*
D63*
X0167235Y0077761D03*
X0175785Y0078736D03*
D64*
X0178507Y0077761D03*
D65*
X0167235Y0077776D03*
X0167325Y0091216D03*
X0178125Y0091291D03*
D66*
X0178155Y0091471D03*
X0167295Y0091411D03*
X0178515Y0077776D03*
D67*
X0167235Y0077791D03*
D68*
X0178507Y0077791D03*
D69*
X0167242Y0077806D03*
D70*
X0178507Y0077806D03*
D71*
X0167242Y0077821D03*
D72*
X0178507Y0077821D03*
D73*
X0167250Y0077836D03*
D74*
X0169995Y0078496D03*
X0175710Y0078601D03*
X0178500Y0077836D03*
D75*
X0167250Y0077851D03*
D76*
X0178500Y0077851D03*
D77*
X0178462Y0078061D03*
X0167257Y0077866D03*
D78*
X0178492Y0077866D03*
D79*
X0167257Y0077881D03*
D80*
X0169957Y0078526D03*
X0178492Y0077881D03*
D81*
X0167250Y0077896D03*
X0178110Y0091171D03*
D82*
X0178140Y0091351D03*
X0178485Y0077896D03*
X0169950Y0078541D03*
D83*
X0167265Y0077911D03*
D84*
X0167272Y0077926D03*
X0167347Y0091051D03*
D85*
X0178485Y0077926D03*
D86*
X0178447Y0078151D03*
X0167272Y0077941D03*
X0167347Y0091036D03*
X0172762Y0093586D03*
D87*
X0175777Y0078721D03*
X0178477Y0077941D03*
D88*
X0167272Y0077956D03*
D89*
X0178477Y0077956D03*
D90*
X0167272Y0077971D03*
X0167347Y0091021D03*
D91*
X0178477Y0077971D03*
D92*
X0178440Y0078196D03*
X0167280Y0077986D03*
X0178095Y0091081D03*
D93*
X0178125Y0091276D03*
X0178470Y0077986D03*
D94*
X0167280Y0078001D03*
X0167355Y0090991D03*
D95*
X0178477Y0078001D03*
D96*
X0167287Y0078016D03*
D97*
X0178470Y0078016D03*
D98*
X0178425Y0078241D03*
X0167295Y0078031D03*
D99*
X0178462Y0078031D03*
D100*
X0167295Y0078046D03*
D101*
X0170347Y0078046D03*
D102*
X0178462Y0078046D03*
D103*
X0167295Y0078061D03*
D104*
X0170347Y0078061D03*
D105*
X0167302Y0078076D03*
X0167362Y0090916D03*
X0172777Y0093541D03*
D106*
X0170347Y0078076D03*
D107*
X0178462Y0078076D03*
D108*
X0178410Y0078301D03*
X0167310Y0078091D03*
D109*
X0170325Y0078091D03*
D110*
X0178462Y0078091D03*
X0167332Y0091111D03*
D111*
X0167310Y0078106D03*
D112*
X0170310Y0078106D03*
D113*
X0178455Y0078106D03*
X0178110Y0091156D03*
D114*
X0178402Y0078346D03*
X0167317Y0078121D03*
D115*
X0178455Y0078121D03*
D116*
X0178402Y0078361D03*
X0167317Y0078136D03*
X0178057Y0090916D03*
D117*
X0167265Y0091681D03*
X0170280Y0078136D03*
D118*
X0175365Y0078136D03*
X0167265Y0091726D03*
D119*
X0178455Y0078136D03*
D120*
X0178395Y0078376D03*
X0167325Y0078151D03*
X0172770Y0093466D03*
D121*
X0170272Y0078151D03*
D122*
X0167325Y0078166D03*
X0178395Y0078391D03*
D123*
X0170272Y0078166D03*
D124*
X0175372Y0078166D03*
D125*
X0178447Y0078166D03*
X0178102Y0091111D03*
D126*
X0167332Y0078181D03*
D127*
X0175380Y0078181D03*
D128*
X0178440Y0078181D03*
X0178095Y0091096D03*
D129*
X0178042Y0090871D03*
X0172762Y0093211D03*
X0172762Y0093226D03*
X0172762Y0093241D03*
X0172762Y0093271D03*
X0167332Y0078196D03*
D130*
X0170250Y0078196D03*
X0175455Y0078271D03*
X0178185Y0091681D03*
D131*
X0178035Y0090841D03*
X0172770Y0093136D03*
X0178380Y0078436D03*
X0167340Y0078211D03*
D132*
X0170220Y0078211D03*
X0175485Y0078301D03*
D133*
X0178432Y0078211D03*
X0178087Y0091051D03*
D134*
X0167347Y0078226D03*
D135*
X0178425Y0078226D03*
X0178080Y0091036D03*
X0167355Y0090961D03*
D136*
X0167415Y0090721D03*
X0172755Y0092926D03*
X0172755Y0092941D03*
X0178365Y0078481D03*
X0167355Y0078241D03*
D137*
X0170190Y0078241D03*
X0167280Y0091561D03*
D138*
X0172755Y0092806D03*
X0167355Y0078256D03*
D139*
X0170175Y0078256D03*
D140*
X0175455Y0078256D03*
D141*
X0178425Y0078256D03*
D142*
X0167362Y0078271D03*
X0172762Y0092701D03*
X0172762Y0092716D03*
X0172762Y0092731D03*
X0172762Y0092746D03*
X0172762Y0092761D03*
D143*
X0178417Y0078271D03*
D144*
X0167362Y0078286D03*
X0172762Y0092626D03*
D145*
X0175470Y0078286D03*
D146*
X0178417Y0078286D03*
D147*
X0167362Y0078301D03*
X0167422Y0090691D03*
X0178012Y0090766D03*
D148*
X0172755Y0092461D03*
X0172755Y0092476D03*
X0167430Y0090661D03*
X0167370Y0078316D03*
D149*
X0178410Y0078316D03*
D150*
X0178350Y0078571D03*
X0167370Y0078331D03*
X0167430Y0090631D03*
X0172755Y0092251D03*
X0172755Y0092266D03*
X0172755Y0092281D03*
X0172755Y0092296D03*
X0172755Y0092311D03*
X0172755Y0092326D03*
X0172755Y0092341D03*
X0178005Y0090721D03*
D151*
X0170092Y0078331D03*
D152*
X0178402Y0078331D03*
D153*
X0178342Y0078586D03*
X0167377Y0078346D03*
D154*
X0170085Y0078346D03*
D155*
X0175530Y0078346D03*
X0167280Y0091546D03*
D156*
X0167377Y0078361D03*
D157*
X0175545Y0078361D03*
D158*
X0167385Y0078376D03*
D159*
X0167385Y0078391D03*
X0177990Y0090676D03*
X0172740Y0091891D03*
X0172740Y0091921D03*
X0172740Y0091936D03*
D160*
X0178170Y0091576D03*
X0167280Y0091516D03*
X0175560Y0078391D03*
D161*
X0167392Y0078406D03*
D162*
X0170047Y0078406D03*
D163*
X0175575Y0078406D03*
D164*
X0178387Y0078406D03*
D165*
X0167400Y0078421D03*
X0172755Y0091651D03*
X0172755Y0091666D03*
X0172755Y0091681D03*
D166*
X0167295Y0091396D03*
X0170025Y0078421D03*
X0175650Y0078511D03*
D167*
X0175597Y0078421D03*
X0167287Y0091486D03*
D168*
X0172770Y0093196D03*
X0178380Y0078421D03*
D169*
X0178312Y0078691D03*
X0167407Y0078436D03*
X0172747Y0091486D03*
X0172747Y0091501D03*
X0172747Y0091516D03*
X0172747Y0091531D03*
X0172747Y0091546D03*
D170*
X0170017Y0078436D03*
D171*
X0175605Y0078436D03*
X0167280Y0091471D03*
D172*
X0172732Y0091426D03*
X0172732Y0091411D03*
X0167407Y0078451D03*
D173*
X0170017Y0078451D03*
X0167302Y0091366D03*
X0178147Y0091426D03*
D174*
X0178027Y0090826D03*
X0172762Y0093031D03*
X0172762Y0093046D03*
X0172762Y0093061D03*
X0167407Y0090751D03*
X0178372Y0078451D03*
D175*
X0167407Y0078466D03*
D176*
X0170010Y0078466D03*
D177*
X0175620Y0078466D03*
D178*
X0178372Y0078466D03*
X0172762Y0092971D03*
X0172762Y0092986D03*
X0172762Y0093001D03*
D179*
X0167415Y0078481D03*
D180*
X0175620Y0078481D03*
D181*
X0167415Y0078496D03*
D182*
X0178365Y0078496D03*
X0172755Y0092776D03*
X0172755Y0092791D03*
X0172755Y0092821D03*
X0172755Y0092836D03*
D183*
X0172747Y0091141D03*
X0167422Y0078511D03*
D184*
X0169972Y0078511D03*
X0175717Y0078616D03*
D185*
X0178357Y0078511D03*
D186*
X0167430Y0078526D03*
X0167475Y0090436D03*
D187*
X0172755Y0092521D03*
X0172755Y0092536D03*
X0178350Y0078526D03*
D188*
X0167430Y0078541D03*
X0172755Y0091111D03*
D189*
X0175680Y0078541D03*
D190*
X0178342Y0078541D03*
X0178012Y0090736D03*
X0172747Y0092431D03*
X0172747Y0092446D03*
D191*
X0167430Y0078556D03*
D192*
X0169942Y0078556D03*
D193*
X0175680Y0078556D03*
D194*
X0178342Y0078556D03*
X0172747Y0092356D03*
D195*
X0167430Y0078571D03*
D196*
X0175687Y0078571D03*
X0167302Y0091351D03*
D197*
X0168337Y0082981D03*
X0168577Y0082711D03*
X0168547Y0079636D03*
X0168157Y0078586D03*
X0176872Y0080326D03*
X0176887Y0080296D03*
X0177487Y0078766D03*
D198*
X0176970Y0080146D03*
X0176955Y0080176D03*
X0176955Y0080191D03*
X0176940Y0080221D03*
X0176895Y0082651D03*
X0176880Y0086416D03*
X0176865Y0086431D03*
X0176850Y0086446D03*
X0168330Y0086086D03*
X0168585Y0082696D03*
X0168600Y0082681D03*
X0168495Y0079561D03*
X0168480Y0079531D03*
X0168465Y0079501D03*
X0168150Y0078601D03*
D199*
X0178335Y0078601D03*
D200*
X0177495Y0078796D03*
X0176985Y0080116D03*
X0176460Y0081511D03*
X0176835Y0086476D03*
X0168675Y0086461D03*
X0168615Y0082651D03*
X0168630Y0082636D03*
X0169125Y0081346D03*
X0169125Y0081331D03*
X0168450Y0079471D03*
X0168150Y0078616D03*
D201*
X0178327Y0078616D03*
X0172747Y0091951D03*
D202*
X0168697Y0086491D03*
X0168682Y0086476D03*
X0168292Y0082996D03*
X0168427Y0079441D03*
X0168427Y0079426D03*
X0168142Y0078631D03*
X0176452Y0081526D03*
X0176992Y0080101D03*
X0177007Y0080086D03*
X0177502Y0078811D03*
X0176812Y0086491D03*
D203*
X0175732Y0078631D03*
D204*
X0178312Y0078631D03*
X0167452Y0090586D03*
D205*
X0168300Y0086071D03*
X0168645Y0082621D03*
X0168420Y0079411D03*
X0168405Y0079381D03*
X0168135Y0078646D03*
X0177015Y0080071D03*
X0177030Y0080041D03*
X0177030Y0080026D03*
X0177045Y0080011D03*
D206*
X0178312Y0078646D03*
X0177982Y0090646D03*
X0172747Y0091801D03*
X0172747Y0091816D03*
X0172747Y0091831D03*
X0167452Y0090571D03*
D207*
X0168720Y0086536D03*
X0176820Y0082561D03*
X0177120Y0079876D03*
X0168135Y0078676D03*
X0168135Y0078661D03*
D208*
X0175747Y0078661D03*
D209*
X0178312Y0078661D03*
D210*
X0175755Y0078676D03*
X0178140Y0091336D03*
D211*
X0172747Y0091561D03*
X0172747Y0091576D03*
X0172747Y0091591D03*
X0172747Y0091621D03*
X0172747Y0091636D03*
X0178312Y0078676D03*
D212*
X0177150Y0079816D03*
X0177135Y0079831D03*
X0168315Y0079231D03*
X0168315Y0079216D03*
X0168300Y0079201D03*
X0168135Y0078691D03*
X0168735Y0086551D03*
X0168750Y0086566D03*
D213*
X0175755Y0078691D03*
D214*
X0168135Y0078706D03*
D215*
X0175770Y0078706D03*
D216*
X0178305Y0078706D03*
D217*
X0168285Y0079171D03*
X0168135Y0078736D03*
X0168135Y0078721D03*
D218*
X0178297Y0078721D03*
X0177967Y0090586D03*
X0172732Y0091246D03*
X0172732Y0091261D03*
X0172732Y0091276D03*
X0172732Y0091291D03*
D219*
X0172732Y0091186D03*
X0167467Y0090481D03*
X0178282Y0078736D03*
D220*
X0168142Y0078751D03*
X0168742Y0082501D03*
D221*
X0175792Y0078751D03*
D222*
X0178275Y0078751D03*
X0177960Y0090541D03*
X0167475Y0090451D03*
D223*
X0168750Y0082486D03*
X0169110Y0081541D03*
X0168255Y0079111D03*
X0168255Y0079096D03*
X0168240Y0079081D03*
X0168240Y0079066D03*
X0168135Y0078781D03*
X0168135Y0078766D03*
X0176460Y0081646D03*
X0176460Y0081661D03*
X0176460Y0081676D03*
X0176460Y0081691D03*
X0176760Y0082471D03*
X0177255Y0079636D03*
X0177255Y0079621D03*
X0177270Y0079591D03*
X0176700Y0086626D03*
D224*
X0176842Y0086461D03*
X0176947Y0086371D03*
X0176887Y0082636D03*
X0176872Y0082621D03*
X0176452Y0081496D03*
X0176962Y0080161D03*
X0176977Y0080131D03*
X0177487Y0078781D03*
X0168487Y0079546D03*
X0168472Y0079516D03*
X0168457Y0079486D03*
X0168607Y0082666D03*
X0172747Y0090841D03*
D225*
X0168142Y0078826D03*
X0168142Y0078811D03*
X0168142Y0078796D03*
D226*
X0169117Y0081391D03*
X0169117Y0081421D03*
X0177052Y0079996D03*
X0177067Y0079981D03*
X0177082Y0079966D03*
X0177082Y0079951D03*
X0177502Y0078826D03*
D227*
X0177300Y0079531D03*
X0177285Y0079546D03*
X0168150Y0078901D03*
X0168150Y0078886D03*
X0168150Y0078871D03*
X0168150Y0078841D03*
X0176685Y0086641D03*
D228*
X0168675Y0082591D03*
X0169110Y0081451D03*
X0169110Y0081436D03*
X0168390Y0079336D03*
X0168375Y0079321D03*
X0177090Y0079936D03*
X0177510Y0078841D03*
D229*
X0168150Y0078856D03*
D230*
X0176460Y0081556D03*
X0177510Y0078856D03*
D231*
X0177517Y0078871D03*
X0169117Y0081466D03*
X0168697Y0082546D03*
X0168697Y0082561D03*
X0168682Y0082576D03*
X0168352Y0079291D03*
X0176767Y0086551D03*
X0176782Y0086536D03*
X0172747Y0090826D03*
D232*
X0176760Y0086566D03*
X0176805Y0082531D03*
X0176790Y0082516D03*
X0176460Y0081586D03*
X0176460Y0081571D03*
X0177510Y0078886D03*
X0169110Y0081481D03*
X0169110Y0081496D03*
X0168345Y0079276D03*
X0168330Y0079261D03*
D233*
X0168712Y0082531D03*
X0177172Y0079771D03*
X0177187Y0079741D03*
X0177202Y0079726D03*
X0177517Y0078901D03*
X0177052Y0086326D03*
X0176752Y0086581D03*
X0176737Y0086596D03*
D234*
X0176460Y0081736D03*
X0176460Y0081721D03*
X0169110Y0081571D03*
X0168780Y0082441D03*
X0168210Y0079021D03*
X0168180Y0078976D03*
X0168165Y0078946D03*
X0168165Y0078931D03*
X0168165Y0078916D03*
X0168810Y0086626D03*
D235*
X0168787Y0086611D03*
X0168217Y0086041D03*
X0168262Y0079126D03*
X0177232Y0079666D03*
X0177232Y0079681D03*
X0177247Y0079651D03*
X0177532Y0078916D03*
X0176767Y0082486D03*
X0177457Y0083221D03*
X0176722Y0086611D03*
D236*
X0176737Y0082441D03*
X0177277Y0079576D03*
X0177277Y0079561D03*
X0177532Y0078946D03*
X0177532Y0078931D03*
X0168232Y0079051D03*
X0168217Y0079036D03*
X0168757Y0082471D03*
D237*
X0168787Y0082426D03*
X0168187Y0078991D03*
X0168172Y0078961D03*
X0176467Y0081751D03*
X0176722Y0082426D03*
X0177322Y0079501D03*
X0177337Y0079471D03*
X0177352Y0079441D03*
X0177367Y0079426D03*
X0177532Y0078961D03*
X0176662Y0086671D03*
X0176647Y0086686D03*
X0172747Y0090811D03*
X0168832Y0086641D03*
D238*
X0168855Y0086671D03*
X0169110Y0081601D03*
X0169110Y0081586D03*
X0176460Y0081766D03*
X0177330Y0079486D03*
X0177375Y0079411D03*
X0177525Y0078991D03*
X0177525Y0078976D03*
D239*
X0169110Y0081556D03*
X0168765Y0082456D03*
X0168195Y0079006D03*
X0176670Y0086656D03*
D240*
X0177525Y0079006D03*
D241*
X0177525Y0079021D03*
X0177525Y0079036D03*
X0169110Y0081631D03*
X0169110Y0081646D03*
X0168810Y0082411D03*
D242*
X0169102Y0081676D03*
X0169102Y0081661D03*
X0176467Y0081796D03*
X0177517Y0083236D03*
X0177517Y0079096D03*
X0177517Y0079081D03*
X0177517Y0079066D03*
X0177517Y0079051D03*
D243*
X0177510Y0079111D03*
X0177510Y0079126D03*
X0177510Y0079141D03*
X0176460Y0081811D03*
X0176610Y0086716D03*
X0168825Y0082396D03*
X0169110Y0081691D03*
D244*
X0169110Y0081526D03*
X0169110Y0081511D03*
X0168225Y0083011D03*
X0168765Y0086596D03*
X0176775Y0082501D03*
X0176460Y0081631D03*
X0176460Y0081616D03*
X0176460Y0081601D03*
X0177165Y0079786D03*
X0177210Y0079711D03*
X0177225Y0079696D03*
X0168270Y0079141D03*
D245*
X0168277Y0079156D03*
D246*
X0177502Y0079156D03*
D247*
X0177495Y0079171D03*
X0177495Y0079186D03*
X0177480Y0079201D03*
X0177480Y0079216D03*
X0177465Y0079231D03*
X0177450Y0079246D03*
X0177435Y0079276D03*
X0176670Y0082381D03*
X0176685Y0082396D03*
X0168900Y0086716D03*
D248*
X0168757Y0086581D03*
X0168727Y0082516D03*
X0168292Y0079186D03*
X0177157Y0079801D03*
D249*
X0177127Y0079846D03*
X0177127Y0079861D03*
X0177112Y0079891D03*
X0176812Y0082546D03*
X0168322Y0079246D03*
D250*
X0177412Y0079321D03*
X0177427Y0079291D03*
X0177442Y0079261D03*
D251*
X0168367Y0079306D03*
D252*
X0177420Y0079306D03*
D253*
X0177405Y0079336D03*
X0177405Y0079351D03*
X0168150Y0083026D03*
X0168885Y0086701D03*
X0177135Y0086311D03*
D254*
X0177007Y0086341D03*
X0176797Y0086521D03*
X0176842Y0082591D03*
X0176827Y0082576D03*
X0177097Y0079921D03*
X0168412Y0079396D03*
X0168397Y0079366D03*
X0168397Y0079351D03*
X0168712Y0086521D03*
D255*
X0169102Y0081616D03*
X0176467Y0081781D03*
X0177382Y0079396D03*
X0177397Y0079381D03*
X0177397Y0079366D03*
X0176632Y0086701D03*
D256*
X0176970Y0086356D03*
X0177375Y0083206D03*
X0168450Y0079456D03*
D257*
X0177352Y0079456D03*
D258*
X0177307Y0079516D03*
D259*
X0176460Y0081466D03*
X0176460Y0081481D03*
X0176910Y0082666D03*
X0169125Y0081316D03*
X0168510Y0079576D03*
X0168660Y0086431D03*
D260*
X0168652Y0086416D03*
X0176902Y0086401D03*
X0176917Y0086386D03*
X0176932Y0082696D03*
X0176917Y0082681D03*
X0176452Y0081451D03*
X0176452Y0081436D03*
X0176902Y0080281D03*
X0176902Y0080266D03*
X0176917Y0080251D03*
X0176932Y0080236D03*
X0169132Y0081301D03*
X0168517Y0079591D03*
D261*
X0168532Y0079606D03*
D262*
X0176467Y0081706D03*
X0176752Y0082456D03*
X0177262Y0079606D03*
D263*
X0176460Y0081421D03*
X0176940Y0082711D03*
X0168540Y0079621D03*
D264*
X0168555Y0079651D03*
X0168555Y0079666D03*
X0168570Y0079696D03*
X0168570Y0082726D03*
X0168630Y0086401D03*
X0176850Y0080371D03*
X0176865Y0080341D03*
X0176880Y0080311D03*
D265*
X0176842Y0080386D03*
X0176842Y0080401D03*
X0168577Y0079711D03*
X0168562Y0079681D03*
X0168562Y0082741D03*
X0168622Y0086386D03*
D266*
X0168592Y0086341D03*
X0168592Y0079726D03*
X0176827Y0080416D03*
D267*
X0176985Y0082771D03*
X0168600Y0079741D03*
X0168585Y0086326D03*
D268*
X0168600Y0079756D03*
D269*
X0177180Y0079756D03*
D270*
X0176820Y0080431D03*
X0176805Y0080461D03*
X0176790Y0080491D03*
X0176775Y0080521D03*
X0176760Y0080536D03*
X0176445Y0081361D03*
X0177315Y0083191D03*
X0169125Y0081226D03*
X0169125Y0081211D03*
X0168630Y0079816D03*
X0168615Y0079786D03*
X0168615Y0079771D03*
X0168525Y0082801D03*
X0168390Y0082951D03*
X0168570Y0086311D03*
X0172755Y0090871D03*
D271*
X0168517Y0082816D03*
X0168667Y0079861D03*
X0168652Y0079846D03*
X0168637Y0079831D03*
X0168622Y0079801D03*
X0176437Y0081331D03*
X0176437Y0081346D03*
X0176722Y0080596D03*
X0176737Y0080581D03*
X0176737Y0080566D03*
X0176752Y0080551D03*
D272*
X0176715Y0080611D03*
X0176715Y0080626D03*
X0177000Y0082801D03*
X0177000Y0082816D03*
X0169125Y0081196D03*
X0169125Y0081181D03*
X0168705Y0079936D03*
X0168690Y0079891D03*
X0168675Y0079876D03*
X0168510Y0082831D03*
X0168495Y0082861D03*
X0168420Y0082936D03*
X0168540Y0086281D03*
X0168555Y0086296D03*
D273*
X0168690Y0079906D03*
X0176700Y0080656D03*
D274*
X0177105Y0079906D03*
D275*
X0176707Y0080641D03*
X0176437Y0081316D03*
X0177007Y0082831D03*
X0177022Y0082846D03*
X0177022Y0082861D03*
X0169132Y0081166D03*
X0168712Y0079966D03*
X0168712Y0079951D03*
X0168697Y0079921D03*
X0168502Y0082846D03*
X0168487Y0082876D03*
X0168517Y0086236D03*
X0168532Y0086251D03*
X0168532Y0086266D03*
D276*
X0168510Y0086221D03*
X0168480Y0082891D03*
X0169140Y0081151D03*
X0168720Y0079981D03*
X0176445Y0081301D03*
X0177030Y0082876D03*
X0172755Y0090886D03*
D277*
X0176685Y0080701D03*
X0168735Y0079996D03*
D278*
X0168742Y0080011D03*
X0168442Y0086116D03*
X0177277Y0083176D03*
D279*
X0168750Y0080026D03*
D280*
X0168757Y0080041D03*
X0168772Y0080071D03*
X0168457Y0086131D03*
X0168472Y0086146D03*
X0176572Y0080881D03*
X0176572Y0080866D03*
D281*
X0168772Y0080056D03*
D282*
X0177015Y0080056D03*
X0176805Y0086506D03*
X0168705Y0086506D03*
D283*
X0169155Y0081091D03*
X0168780Y0080086D03*
X0176550Y0080941D03*
X0176565Y0080911D03*
X0176565Y0080896D03*
D284*
X0176587Y0080851D03*
X0177052Y0082921D03*
X0168787Y0080101D03*
D285*
X0168795Y0080116D03*
X0168810Y0080131D03*
X0176445Y0081226D03*
X0176445Y0081241D03*
X0177060Y0082936D03*
X0177075Y0082951D03*
X0177075Y0082966D03*
X0177240Y0083161D03*
D286*
X0177082Y0082981D03*
X0168832Y0080161D03*
X0168817Y0080146D03*
D287*
X0168840Y0080176D03*
X0168855Y0080221D03*
X0168870Y0080236D03*
X0169155Y0081031D03*
X0169155Y0081046D03*
X0169155Y0081061D03*
X0176445Y0081151D03*
X0176445Y0081181D03*
X0176445Y0081196D03*
X0176505Y0081016D03*
X0176535Y0080971D03*
X0177090Y0082996D03*
D288*
X0176437Y0081211D03*
X0176527Y0080986D03*
X0176557Y0080926D03*
X0169147Y0081076D03*
X0168847Y0080191D03*
X0172762Y0090901D03*
D289*
X0168855Y0080206D03*
D290*
X0176947Y0080206D03*
D291*
X0176512Y0081001D03*
X0176497Y0081031D03*
X0176482Y0081046D03*
X0176452Y0081121D03*
X0176452Y0081136D03*
X0176437Y0081166D03*
X0177097Y0083011D03*
X0177112Y0083026D03*
X0168877Y0080266D03*
X0168877Y0080251D03*
D292*
X0168885Y0080281D03*
X0169155Y0081001D03*
X0169155Y0081016D03*
X0177120Y0083041D03*
X0177135Y0083071D03*
X0177150Y0083086D03*
X0177165Y0083101D03*
X0177180Y0083116D03*
X0177195Y0083131D03*
D293*
X0168907Y0080311D03*
X0168892Y0080296D03*
D294*
X0168915Y0080326D03*
X0168915Y0080341D03*
X0168930Y0080371D03*
X0169155Y0080986D03*
D295*
X0168930Y0080356D03*
D296*
X0176865Y0080356D03*
D297*
X0168937Y0080386D03*
D298*
X0168952Y0080401D03*
X0168967Y0080416D03*
D299*
X0168975Y0080431D03*
X0168990Y0080446D03*
X0168990Y0080461D03*
D300*
X0169132Y0081241D03*
X0168532Y0082786D03*
X0168382Y0086101D03*
X0176797Y0080476D03*
X0176812Y0080446D03*
D301*
X0168997Y0080476D03*
D302*
X0169005Y0080491D03*
X0169155Y0080971D03*
D303*
X0169162Y0080956D03*
X0169012Y0080506D03*
D304*
X0176782Y0080506D03*
D305*
X0169035Y0080536D03*
X0169020Y0080521D03*
D306*
X0169042Y0080551D03*
D307*
X0169050Y0080566D03*
X0169050Y0080581D03*
D308*
X0169057Y0080596D03*
X0169072Y0080626D03*
X0169162Y0080881D03*
X0169162Y0080896D03*
D309*
X0169170Y0080911D03*
X0169065Y0080611D03*
D310*
X0169080Y0080641D03*
X0169095Y0080671D03*
X0169110Y0080686D03*
X0169170Y0080851D03*
X0169170Y0080866D03*
D311*
X0169087Y0080656D03*
D312*
X0168442Y0082921D03*
X0176692Y0080686D03*
X0176692Y0080671D03*
D313*
X0169162Y0080791D03*
X0169162Y0080821D03*
X0169162Y0080836D03*
X0169147Y0080761D03*
X0169147Y0080746D03*
X0169132Y0080716D03*
X0169117Y0080701D03*
D314*
X0176437Y0081286D03*
X0176602Y0080821D03*
X0176632Y0080776D03*
X0176647Y0080746D03*
X0176662Y0080731D03*
X0176662Y0080716D03*
X0177037Y0082891D03*
X0168502Y0086191D03*
X0168487Y0086176D03*
D315*
X0169155Y0080776D03*
X0169140Y0080731D03*
D316*
X0169140Y0081121D03*
X0169140Y0081136D03*
X0168480Y0086161D03*
X0176445Y0081271D03*
X0176595Y0080836D03*
X0176625Y0080791D03*
X0176640Y0080761D03*
D317*
X0169162Y0080806D03*
D318*
X0176617Y0080806D03*
D319*
X0169162Y0080926D03*
X0169162Y0080941D03*
D320*
X0176542Y0080956D03*
D321*
X0176475Y0081061D03*
D322*
X0176467Y0081076D03*
X0176467Y0081091D03*
X0177217Y0083146D03*
D323*
X0169147Y0081106D03*
D324*
X0176460Y0081106D03*
D325*
X0169125Y0081256D03*
X0168555Y0082756D03*
D326*
X0176445Y0081256D03*
X0177045Y0082906D03*
D327*
X0176452Y0081391D03*
X0169132Y0081286D03*
X0169132Y0081271D03*
D328*
X0169117Y0081361D03*
X0169117Y0081376D03*
D329*
X0168540Y0082771D03*
X0168375Y0082966D03*
X0176445Y0081376D03*
X0176955Y0082726D03*
D330*
X0169117Y0081406D03*
D331*
X0176452Y0081406D03*
X0172747Y0090856D03*
D332*
X0176460Y0081541D03*
D333*
X0169102Y0081706D03*
D334*
X0169102Y0081721D03*
X0172747Y0090796D03*
D335*
X0168105Y0083041D03*
X0168840Y0082381D03*
X0169095Y0081736D03*
X0176460Y0081841D03*
X0176655Y0082366D03*
D336*
X0176580Y0086746D03*
X0168945Y0086746D03*
X0168870Y0082351D03*
X0169095Y0081766D03*
X0169095Y0081751D03*
D337*
X0169087Y0081781D03*
X0168877Y0082336D03*
X0176557Y0086761D03*
X0172747Y0090781D03*
D338*
X0168967Y0086791D03*
X0169087Y0081811D03*
X0169087Y0081796D03*
X0176467Y0081961D03*
X0176467Y0081976D03*
X0177247Y0086281D03*
D339*
X0176460Y0081991D03*
X0169095Y0081826D03*
D340*
X0176467Y0081826D03*
D341*
X0176467Y0082021D03*
X0177622Y0083281D03*
X0169087Y0081841D03*
X0168037Y0083071D03*
X0172747Y0090766D03*
D342*
X0169095Y0081856D03*
D343*
X0176467Y0081856D03*
D344*
X0176565Y0082291D03*
X0169095Y0081871D03*
X0168945Y0082291D03*
D345*
X0176460Y0081886D03*
X0176460Y0081871D03*
D346*
X0176467Y0082036D03*
X0176497Y0086821D03*
X0172747Y0090751D03*
X0168007Y0083086D03*
X0169102Y0081901D03*
X0169102Y0081886D03*
D347*
X0168952Y0086761D03*
X0176617Y0082321D03*
X0176467Y0081916D03*
X0176467Y0081901D03*
D348*
X0176475Y0082051D03*
X0176520Y0082246D03*
X0169095Y0081916D03*
X0168990Y0082246D03*
X0168975Y0082261D03*
X0168960Y0082276D03*
X0169020Y0086821D03*
D349*
X0168007Y0085996D03*
X0169102Y0081946D03*
X0169102Y0081931D03*
X0176467Y0082066D03*
X0176512Y0082231D03*
X0177307Y0086251D03*
X0176482Y0086836D03*
D350*
X0176460Y0081946D03*
X0176460Y0081931D03*
X0168960Y0086776D03*
X0168075Y0086011D03*
D351*
X0169005Y0082231D03*
X0169095Y0081976D03*
X0169095Y0081961D03*
D352*
X0169087Y0081991D03*
X0176467Y0082081D03*
X0176467Y0082096D03*
X0176497Y0082216D03*
X0177667Y0083296D03*
X0176467Y0086851D03*
X0172747Y0090736D03*
D353*
X0169095Y0082006D03*
D354*
X0168922Y0082306D03*
X0176467Y0082006D03*
D355*
X0176467Y0082111D03*
X0176467Y0082126D03*
X0176467Y0082141D03*
X0176467Y0082171D03*
X0176482Y0082201D03*
X0169087Y0082036D03*
X0169087Y0082021D03*
D356*
X0169087Y0082051D03*
X0169087Y0082066D03*
X0169057Y0082201D03*
X0167962Y0085981D03*
X0169087Y0086881D03*
D357*
X0169065Y0082186D03*
X0169080Y0082096D03*
X0169080Y0082081D03*
X0176400Y0086896D03*
X0172755Y0090721D03*
D358*
X0169072Y0082171D03*
X0169087Y0082126D03*
X0169087Y0082111D03*
D359*
X0169080Y0082141D03*
X0167925Y0085966D03*
D360*
X0169080Y0082156D03*
D361*
X0176467Y0082156D03*
D362*
X0176475Y0082186D03*
D363*
X0176422Y0086881D03*
X0169072Y0086866D03*
X0169057Y0086851D03*
X0167962Y0083101D03*
X0169027Y0082216D03*
D364*
X0176542Y0082261D03*
D365*
X0176550Y0082276D03*
X0177285Y0086266D03*
D366*
X0176587Y0082306D03*
D367*
X0177585Y0083266D03*
X0176550Y0086776D03*
X0168900Y0082321D03*
D368*
X0168862Y0082366D03*
X0168922Y0086731D03*
X0176587Y0086731D03*
X0177202Y0086296D03*
X0177562Y0083251D03*
X0176647Y0082351D03*
X0176632Y0082336D03*
D369*
X0176707Y0082411D03*
X0168862Y0086686D03*
D370*
X0168660Y0082606D03*
D371*
X0176857Y0082606D03*
D372*
X0176970Y0082741D03*
X0168615Y0086371D03*
D373*
X0176977Y0082756D03*
D374*
X0176992Y0082786D03*
D375*
X0168465Y0082906D03*
X0168510Y0086206D03*
D376*
X0168067Y0083056D03*
D377*
X0177127Y0083056D03*
D378*
X0167880Y0083116D03*
D379*
X0167820Y0083131D03*
X0177825Y0083326D03*
D380*
X0172755Y0090676D03*
X0167790Y0085921D03*
X0167775Y0083146D03*
D381*
X0167737Y0083161D03*
X0172747Y0090661D03*
D382*
X0177600Y0086161D03*
X0167715Y0083176D03*
D383*
X0167677Y0083191D03*
X0172747Y0090631D03*
X0177637Y0086146D03*
D384*
X0167625Y0083206D03*
D385*
X0167542Y0083221D03*
X0172747Y0090586D03*
D386*
X0167497Y0083236D03*
D387*
X0167460Y0083251D03*
X0175950Y0087046D03*
X0177900Y0086071D03*
D388*
X0167430Y0083266D03*
D389*
X0167407Y0083281D03*
D390*
X0167355Y0083296D03*
X0178260Y0083461D03*
X0178005Y0086026D03*
D391*
X0172740Y0090466D03*
X0167280Y0083311D03*
D392*
X0176362Y0086911D03*
X0177397Y0086221D03*
X0177742Y0083311D03*
D393*
X0172755Y0090436D03*
X0166965Y0085111D03*
X0166965Y0085096D03*
X0166965Y0085081D03*
X0166965Y0085066D03*
X0166965Y0085051D03*
X0166965Y0085036D03*
X0166950Y0084946D03*
X0166950Y0084931D03*
X0166950Y0084916D03*
X0166950Y0084166D03*
X0166950Y0084151D03*
X0166950Y0084136D03*
X0166950Y0084121D03*
X0166950Y0084091D03*
X0166950Y0084076D03*
X0166950Y0084061D03*
X0166950Y0084046D03*
X0166950Y0084031D03*
X0167220Y0083326D03*
D394*
X0167182Y0083341D03*
X0166972Y0083836D03*
X0166972Y0083851D03*
X0166972Y0083866D03*
X0166987Y0085231D03*
X0166987Y0085246D03*
X0167197Y0085741D03*
X0178507Y0085336D03*
X0178522Y0085291D03*
X0178537Y0083791D03*
X0178537Y0083776D03*
X0178477Y0083581D03*
X0178462Y0083566D03*
D395*
X0177885Y0083341D03*
D396*
X0167152Y0083356D03*
X0167002Y0085306D03*
D397*
X0177915Y0083356D03*
D398*
X0178500Y0083626D03*
X0178500Y0083641D03*
X0178515Y0083671D03*
X0178515Y0083686D03*
X0178515Y0083701D03*
X0178440Y0085576D03*
X0178215Y0085966D03*
X0167145Y0085711D03*
X0167145Y0083371D03*
D399*
X0177952Y0083371D03*
D400*
X0167122Y0083386D03*
X0167047Y0085531D03*
D401*
X0177682Y0086131D03*
X0177982Y0083386D03*
D402*
X0167115Y0083401D03*
X0167100Y0083416D03*
X0167055Y0085546D03*
X0167100Y0085636D03*
X0167115Y0085681D03*
X0167130Y0085696D03*
D403*
X0178035Y0083401D03*
D404*
X0178117Y0083416D03*
X0177817Y0086101D03*
D405*
X0167107Y0085666D03*
X0167107Y0085651D03*
X0167092Y0085621D03*
X0167077Y0085591D03*
X0167077Y0085576D03*
X0167062Y0085561D03*
X0167092Y0083431D03*
D406*
X0178185Y0083431D03*
D407*
X0167085Y0083446D03*
X0167070Y0083461D03*
X0167070Y0083476D03*
D408*
X0178230Y0083446D03*
D409*
X0178297Y0083476D03*
D410*
X0178395Y0085726D03*
X0178260Y0085936D03*
X0167055Y0083491D03*
D411*
X0178342Y0083491D03*
D412*
X0167047Y0083506D03*
D413*
X0178402Y0083506D03*
X0178597Y0084706D03*
X0178582Y0084856D03*
D414*
X0178417Y0085651D03*
X0178417Y0085666D03*
X0178402Y0085696D03*
X0178402Y0085711D03*
X0167047Y0083521D03*
X0167032Y0083536D03*
D415*
X0178432Y0083521D03*
X0178552Y0083851D03*
X0178552Y0083866D03*
X0178552Y0083881D03*
X0178567Y0083926D03*
X0178567Y0083941D03*
X0178567Y0083971D03*
X0178567Y0083986D03*
X0178567Y0084001D03*
X0178552Y0085141D03*
X0178552Y0085171D03*
X0178552Y0085186D03*
D416*
X0178537Y0085216D03*
X0178537Y0085231D03*
X0178537Y0085246D03*
X0178447Y0083536D03*
X0166957Y0083941D03*
X0166957Y0083971D03*
X0166957Y0083986D03*
X0166957Y0084001D03*
X0166957Y0084016D03*
X0166972Y0085126D03*
X0166972Y0085141D03*
X0166972Y0085171D03*
X0166972Y0085186D03*
D417*
X0167040Y0085516D03*
X0167025Y0083581D03*
X0167025Y0083566D03*
X0167025Y0083551D03*
X0178245Y0085951D03*
X0178410Y0085681D03*
X0178425Y0085636D03*
X0178425Y0085621D03*
D418*
X0178530Y0085276D03*
X0178530Y0085261D03*
X0178545Y0083836D03*
X0178545Y0083821D03*
X0178455Y0083551D03*
X0166965Y0083881D03*
X0166965Y0083896D03*
X0166965Y0083911D03*
X0166965Y0083926D03*
X0166980Y0085201D03*
X0166980Y0085216D03*
D419*
X0167032Y0085486D03*
X0167032Y0085501D03*
X0167017Y0083641D03*
X0167017Y0083626D03*
X0167017Y0083611D03*
X0167017Y0083596D03*
X0178432Y0085591D03*
D420*
X0178470Y0085516D03*
X0178470Y0085501D03*
X0178470Y0085486D03*
X0178485Y0085471D03*
X0178485Y0085441D03*
X0178485Y0085426D03*
X0178485Y0085411D03*
X0178500Y0085396D03*
X0178500Y0085381D03*
X0178500Y0085366D03*
X0178500Y0085351D03*
X0178515Y0085321D03*
X0178185Y0085981D03*
X0178530Y0083761D03*
X0178530Y0083746D03*
X0178485Y0083596D03*
X0166995Y0083776D03*
X0166980Y0083821D03*
X0166995Y0085261D03*
X0166995Y0085276D03*
X0167010Y0085321D03*
X0167175Y0085726D03*
D421*
X0167002Y0085291D03*
X0166987Y0083791D03*
X0167002Y0083761D03*
X0167002Y0083746D03*
X0167002Y0083731D03*
X0178492Y0083611D03*
X0178522Y0083716D03*
X0178522Y0083731D03*
X0178462Y0085531D03*
X0178462Y0085546D03*
X0178447Y0085561D03*
D422*
X0178432Y0085606D03*
X0167017Y0083656D03*
D423*
X0178515Y0083656D03*
D424*
X0167010Y0083671D03*
X0167010Y0083686D03*
X0167010Y0083701D03*
X0167010Y0083716D03*
X0167025Y0085411D03*
X0167025Y0085426D03*
X0167025Y0085441D03*
X0167025Y0085471D03*
D425*
X0166980Y0083806D03*
X0178485Y0085456D03*
D426*
X0178545Y0083806D03*
X0167220Y0085756D03*
D427*
X0178560Y0083911D03*
X0178560Y0083896D03*
D428*
X0166957Y0083956D03*
X0166972Y0085156D03*
D429*
X0178552Y0085156D03*
X0178567Y0083956D03*
D430*
X0178575Y0084016D03*
X0178575Y0084031D03*
X0178575Y0084046D03*
X0178575Y0084061D03*
X0178575Y0084076D03*
X0178560Y0085066D03*
X0178560Y0085081D03*
X0178560Y0085096D03*
X0178560Y0085111D03*
X0178560Y0085126D03*
X0178545Y0085201D03*
D431*
X0178567Y0085051D03*
X0178567Y0085036D03*
X0178567Y0085021D03*
X0178567Y0084991D03*
X0178567Y0084976D03*
X0178582Y0084181D03*
X0178582Y0084166D03*
X0178582Y0084151D03*
X0178582Y0084136D03*
X0178582Y0084121D03*
X0178582Y0084091D03*
X0178147Y0085996D03*
D432*
X0166950Y0084106D03*
D433*
X0178582Y0084106D03*
X0178567Y0085006D03*
D434*
X0167242Y0085771D03*
X0166957Y0085021D03*
X0166957Y0084991D03*
X0166957Y0084976D03*
X0166957Y0084961D03*
X0166942Y0084901D03*
X0166942Y0084886D03*
X0166942Y0084871D03*
X0166942Y0084841D03*
X0166942Y0084826D03*
X0166942Y0084811D03*
X0166942Y0084796D03*
X0166942Y0084271D03*
X0166942Y0084241D03*
X0166942Y0084226D03*
X0166942Y0084211D03*
X0166942Y0084196D03*
X0166942Y0084181D03*
D435*
X0178590Y0084196D03*
X0178590Y0084211D03*
X0178590Y0084226D03*
X0178590Y0084241D03*
X0178590Y0084271D03*
X0178590Y0084781D03*
X0178590Y0084796D03*
X0178590Y0084811D03*
X0178575Y0084871D03*
X0178575Y0084886D03*
X0178575Y0084901D03*
X0178575Y0084916D03*
X0178575Y0084931D03*
X0178575Y0084946D03*
X0178575Y0084961D03*
D436*
X0166957Y0085006D03*
X0166942Y0084856D03*
X0166942Y0084256D03*
D437*
X0178590Y0084256D03*
D438*
X0166935Y0084286D03*
X0166935Y0084301D03*
X0166935Y0084316D03*
X0166935Y0084331D03*
X0166935Y0084346D03*
X0166935Y0084361D03*
X0166920Y0084376D03*
X0166920Y0084391D03*
X0166920Y0084421D03*
X0166920Y0084436D03*
X0166920Y0084451D03*
X0166920Y0084466D03*
X0166935Y0084691D03*
X0166935Y0084721D03*
X0166935Y0084736D03*
X0166935Y0084751D03*
X0166935Y0084766D03*
X0166935Y0084781D03*
D439*
X0166912Y0084511D03*
X0166912Y0084496D03*
X0166912Y0084481D03*
X0178582Y0084826D03*
X0178582Y0084841D03*
X0178597Y0084766D03*
X0178597Y0084751D03*
X0178597Y0084736D03*
X0178597Y0084721D03*
X0178597Y0084691D03*
X0178597Y0084676D03*
X0178597Y0084376D03*
X0178597Y0084361D03*
X0178597Y0084346D03*
X0178597Y0084331D03*
X0178597Y0084316D03*
X0178597Y0084301D03*
X0178597Y0084286D03*
D440*
X0178605Y0084391D03*
X0178605Y0084421D03*
X0178605Y0084436D03*
X0178605Y0084451D03*
X0178605Y0084466D03*
X0178605Y0084481D03*
X0178605Y0084496D03*
X0178605Y0084511D03*
X0178605Y0084526D03*
X0178605Y0084541D03*
X0178605Y0084571D03*
X0178605Y0084586D03*
X0178605Y0084601D03*
X0178605Y0084616D03*
X0178605Y0084631D03*
X0178605Y0084646D03*
X0178605Y0084661D03*
X0167280Y0085786D03*
X0166920Y0084586D03*
X0166920Y0084571D03*
X0166920Y0084541D03*
X0166920Y0084526D03*
D441*
X0166920Y0084406D03*
X0166935Y0084706D03*
D442*
X0166920Y0084556D03*
X0178605Y0084556D03*
X0178605Y0084406D03*
D443*
X0166927Y0084601D03*
X0166927Y0084616D03*
X0166927Y0084631D03*
X0166927Y0084646D03*
X0166927Y0084661D03*
X0166927Y0084676D03*
D444*
X0178522Y0085306D03*
D445*
X0167017Y0085336D03*
X0167017Y0085351D03*
X0167017Y0085366D03*
X0167017Y0085381D03*
X0167017Y0085396D03*
D446*
X0167025Y0085456D03*
D447*
X0167092Y0085606D03*
D448*
X0178282Y0085921D03*
X0178387Y0085741D03*
D449*
X0178387Y0085756D03*
X0178297Y0085906D03*
D450*
X0178320Y0085891D03*
X0178365Y0085801D03*
X0178380Y0085771D03*
D451*
X0178372Y0085786D03*
X0178357Y0085816D03*
X0178357Y0085831D03*
D452*
X0172747Y0090481D03*
X0167332Y0085801D03*
D453*
X0167407Y0085816D03*
X0172747Y0090511D03*
D454*
X0172747Y0090541D03*
X0177862Y0086086D03*
X0167482Y0085831D03*
D455*
X0167527Y0085846D03*
D456*
X0178335Y0085876D03*
X0178350Y0085846D03*
D457*
X0167565Y0085861D03*
D458*
X0178342Y0085861D03*
D459*
X0167595Y0085876D03*
D460*
X0167632Y0085891D03*
D461*
X0167700Y0085906D03*
D462*
X0167850Y0085936D03*
D463*
X0167902Y0085951D03*
D464*
X0178087Y0086011D03*
D465*
X0168165Y0086026D03*
D466*
X0177960Y0086041D03*
D467*
X0168262Y0086056D03*
D468*
X0177930Y0086056D03*
D469*
X0177742Y0086116D03*
D470*
X0177570Y0086176D03*
X0176205Y0087001D03*
X0169305Y0087001D03*
D471*
X0177532Y0086191D03*
D472*
X0177472Y0086206D03*
D473*
X0177345Y0086236D03*
X0176445Y0086866D03*
D474*
X0168600Y0086356D03*
D475*
X0168667Y0086446D03*
D476*
X0168840Y0086656D03*
D477*
X0176542Y0086791D03*
D478*
X0168990Y0086806D03*
D479*
X0176527Y0086806D03*
D480*
X0169035Y0086836D03*
D481*
X0169117Y0086896D03*
D482*
X0169147Y0086911D03*
D483*
X0169185Y0086926D03*
D484*
X0176310Y0086926D03*
D485*
X0169215Y0086941D03*
D486*
X0176287Y0086941D03*
D487*
X0169230Y0086956D03*
D488*
X0176272Y0086956D03*
D489*
X0172747Y0090691D03*
X0169252Y0086971D03*
D490*
X0176250Y0086971D03*
D491*
X0169267Y0086986D03*
D492*
X0176235Y0086986D03*
D493*
X0176115Y0087016D03*
X0169395Y0087016D03*
D494*
X0169462Y0087031D03*
D495*
X0176010Y0087031D03*
D496*
X0169515Y0087046D03*
D497*
X0172755Y0087061D03*
D498*
X0172747Y0087076D03*
D499*
X0172755Y0087091D03*
X0172725Y0088891D03*
D500*
X0172755Y0087106D03*
D501*
X0172747Y0087121D03*
D502*
X0172747Y0087136D03*
X0172717Y0088861D03*
D503*
X0172725Y0088846D03*
X0172740Y0087151D03*
D504*
X0172747Y0087166D03*
X0172717Y0088831D03*
D505*
X0172747Y0087196D03*
X0172747Y0087181D03*
D506*
X0172755Y0087211D03*
X0172725Y0088801D03*
D507*
X0172747Y0087226D03*
D508*
X0172755Y0087241D03*
X0172755Y0087271D03*
D509*
X0172755Y0087256D03*
D510*
X0172755Y0087286D03*
X0172755Y0087301D03*
X0172755Y0087316D03*
D511*
X0172755Y0087331D03*
X0172725Y0088741D03*
D512*
X0172747Y0087346D03*
D513*
X0172755Y0087361D03*
D514*
X0172755Y0087376D03*
D515*
X0172747Y0087391D03*
X0172717Y0088681D03*
D516*
X0172755Y0087406D03*
D517*
X0172755Y0087421D03*
X0172755Y0087436D03*
X0172725Y0088651D03*
D518*
X0172725Y0088636D03*
X0172755Y0087481D03*
X0172755Y0087466D03*
X0172755Y0087451D03*
D519*
X0172747Y0087496D03*
X0172717Y0088621D03*
D520*
X0172755Y0087511D03*
D521*
X0172747Y0087526D03*
D522*
X0172755Y0087541D03*
D523*
X0172747Y0087556D03*
D524*
X0172747Y0087571D03*
X0172747Y0087586D03*
D525*
X0172747Y0087601D03*
D526*
X0172755Y0087616D03*
D527*
X0172747Y0087631D03*
D528*
X0172755Y0087646D03*
X0172755Y0087661D03*
D529*
X0172755Y0087676D03*
X0172755Y0087691D03*
D530*
X0172747Y0087706D03*
D531*
X0172755Y0087721D03*
D532*
X0172747Y0087736D03*
X0172717Y0088471D03*
D533*
X0172717Y0088441D03*
X0172747Y0087751D03*
D534*
X0172740Y0087766D03*
X0172710Y0088426D03*
D535*
X0172717Y0088411D03*
X0172747Y0087781D03*
D536*
X0172747Y0087796D03*
X0172717Y0088381D03*
D537*
X0172755Y0087811D03*
D538*
X0172747Y0087826D03*
X0172717Y0088366D03*
D539*
X0172755Y0087841D03*
D540*
X0172755Y0087856D03*
D541*
X0172755Y0087871D03*
X0172755Y0087886D03*
D542*
X0172755Y0087901D03*
X0172710Y0088321D03*
D543*
X0172747Y0087916D03*
D544*
X0172747Y0087931D03*
D545*
X0172747Y0087946D03*
D546*
X0172755Y0087961D03*
X0172710Y0088246D03*
D547*
X0172717Y0088231D03*
X0172747Y0087976D03*
D548*
X0172755Y0087991D03*
D549*
X0172755Y0088006D03*
D550*
X0172755Y0088021D03*
D551*
X0172747Y0088036D03*
X0172747Y0088051D03*
D552*
X0172747Y0088066D03*
X0172747Y0088081D03*
X0172717Y0088186D03*
D553*
X0172710Y0088171D03*
X0172725Y0088126D03*
X0172725Y0088111D03*
X0172740Y0088096D03*
D554*
X0172717Y0088141D03*
D555*
X0172717Y0088156D03*
D556*
X0172710Y0088201D03*
D557*
X0172717Y0088216D03*
D558*
X0172710Y0088261D03*
X0172710Y0088276D03*
D559*
X0172710Y0088291D03*
D560*
X0172710Y0088306D03*
D561*
X0172710Y0088336D03*
D562*
X0172717Y0088351D03*
D563*
X0172710Y0088396D03*
D564*
X0172717Y0088456D03*
D565*
X0172717Y0088486D03*
D566*
X0172717Y0088501D03*
D567*
X0172717Y0088516D03*
D568*
X0172717Y0088531D03*
D569*
X0172710Y0088546D03*
D570*
X0172717Y0088561D03*
D571*
X0172710Y0088576D03*
D572*
X0172717Y0088591D03*
D573*
X0172717Y0088606D03*
D574*
X0172725Y0088666D03*
D575*
X0172725Y0088696D03*
D576*
X0172717Y0088711D03*
D577*
X0172717Y0088726D03*
D578*
X0172725Y0088756D03*
D579*
X0172725Y0088771D03*
D580*
X0172725Y0088786D03*
D581*
X0172725Y0088816D03*
D582*
X0172725Y0088876D03*
D583*
X0172732Y0088906D03*
D584*
X0172732Y0088921D03*
D585*
X0172732Y0088936D03*
D586*
X0172725Y0088951D03*
D587*
X0172725Y0088966D03*
D588*
X0172717Y0088981D03*
D589*
X0172725Y0088996D03*
D590*
X0172725Y0089011D03*
D591*
X0172732Y0089026D03*
D592*
X0172732Y0089041D03*
D593*
X0172740Y0089056D03*
D594*
X0172732Y0089071D03*
D595*
X0172732Y0089086D03*
D596*
X0172725Y0089101D03*
D597*
X0172725Y0089116D03*
D598*
X0172732Y0089131D03*
D599*
X0172725Y0089146D03*
D600*
X0172732Y0089161D03*
D601*
X0172732Y0089176D03*
D602*
X0172740Y0089191D03*
D603*
X0172740Y0089206D03*
D604*
X0172732Y0089221D03*
D605*
X0172732Y0089236D03*
D606*
X0172725Y0089251D03*
D607*
X0172725Y0089266D03*
X0172725Y0089281D03*
D608*
X0172725Y0089296D03*
D609*
X0172740Y0089311D03*
D610*
X0172740Y0089326D03*
X0172740Y0089341D03*
D611*
X0172740Y0089356D03*
D612*
X0172740Y0089371D03*
D613*
X0172732Y0089386D03*
D614*
X0172732Y0089401D03*
X0172732Y0089416D03*
D615*
X0172732Y0089431D03*
D616*
X0172732Y0089446D03*
D617*
X0172740Y0089461D03*
D618*
X0172740Y0089476D03*
X0172740Y0089491D03*
D619*
X0172740Y0089506D03*
D620*
X0172740Y0089521D03*
D621*
X0172732Y0089536D03*
D622*
X0172732Y0089551D03*
X0172732Y0089566D03*
D623*
X0172732Y0089581D03*
D624*
X0172740Y0089596D03*
D625*
X0172740Y0089611D03*
D626*
X0172747Y0089626D03*
D627*
X0172747Y0089641D03*
D628*
X0172740Y0089656D03*
D629*
X0172740Y0089671D03*
D630*
X0172732Y0089686D03*
D631*
X0172740Y0089701D03*
D632*
X0172740Y0089716D03*
D633*
X0172740Y0089731D03*
D634*
X0172747Y0089746D03*
D635*
X0172747Y0089761D03*
X0172747Y0089776D03*
D636*
X0172747Y0089791D03*
D637*
X0172740Y0089806D03*
D638*
X0172740Y0089821D03*
D639*
X0172740Y0089836D03*
D640*
X0172747Y0089851D03*
D641*
X0172747Y0089866D03*
X0172762Y0090346D03*
D642*
X0172755Y0089881D03*
D643*
X0172747Y0089896D03*
X0172762Y0090331D03*
D644*
X0172747Y0089926D03*
X0172747Y0089911D03*
D645*
X0172747Y0089941D03*
D646*
X0172740Y0089956D03*
D647*
X0172740Y0089971D03*
D648*
X0172747Y0089986D03*
D649*
X0172740Y0090001D03*
X0172755Y0090241D03*
D650*
X0172747Y0090016D03*
D651*
X0172747Y0090031D03*
X0172762Y0090211D03*
D652*
X0172755Y0090196D03*
X0172755Y0090181D03*
X0172755Y0090091D03*
X0172755Y0090076D03*
X0172755Y0090061D03*
X0172755Y0090046D03*
D653*
X0172762Y0090106D03*
D654*
X0172762Y0090121D03*
X0172762Y0090136D03*
X0172762Y0090151D03*
X0172762Y0090166D03*
D655*
X0172755Y0090226D03*
D656*
X0172762Y0090256D03*
D657*
X0172762Y0090271D03*
D658*
X0172755Y0090286D03*
D659*
X0172755Y0090301D03*
D660*
X0172755Y0090316D03*
D661*
X0172755Y0090361D03*
D662*
X0172755Y0090376D03*
D663*
X0177937Y0090481D03*
X0167497Y0090391D03*
D664*
X0174525Y0090391D03*
D665*
X0167490Y0090406D03*
D666*
X0174532Y0090406D03*
D667*
X0167482Y0090421D03*
D668*
X0174547Y0090421D03*
D669*
X0177915Y0090436D03*
D670*
X0172740Y0090451D03*
D671*
X0177937Y0090451D03*
D672*
X0177960Y0090571D03*
X0172740Y0091171D03*
X0167475Y0090466D03*
D673*
X0177937Y0090466D03*
D674*
X0167475Y0090496D03*
D675*
X0172740Y0090496D03*
D676*
X0177937Y0090496D03*
D677*
X0167467Y0090511D03*
D678*
X0177945Y0090511D03*
D679*
X0167460Y0090526D03*
D680*
X0172747Y0090526D03*
D681*
X0177952Y0090526D03*
D682*
X0177975Y0090631D03*
X0167460Y0090541D03*
D683*
X0167452Y0090556D03*
X0172747Y0091756D03*
D684*
X0172747Y0090556D03*
D685*
X0172740Y0091156D03*
X0177960Y0090556D03*
D686*
X0172740Y0090571D03*
D687*
X0172740Y0091966D03*
X0172740Y0091981D03*
X0172740Y0091996D03*
X0177990Y0090691D03*
X0167445Y0090601D03*
D688*
X0172747Y0090601D03*
D689*
X0172732Y0091321D03*
X0172732Y0091336D03*
X0172732Y0091351D03*
X0172732Y0091366D03*
X0172732Y0091381D03*
X0177967Y0090601D03*
D690*
X0172747Y0092086D03*
X0172747Y0092101D03*
X0172747Y0092116D03*
X0167437Y0090616D03*
D691*
X0172747Y0090616D03*
D692*
X0177967Y0090616D03*
D693*
X0172755Y0092386D03*
X0172755Y0092401D03*
X0172755Y0092416D03*
X0167430Y0090646D03*
D694*
X0172747Y0090646D03*
D695*
X0172740Y0091846D03*
X0172740Y0091861D03*
X0172740Y0091876D03*
X0177990Y0090661D03*
D696*
X0178012Y0090751D03*
X0172747Y0092491D03*
X0167422Y0090676D03*
D697*
X0167415Y0090706D03*
X0172755Y0092656D03*
D698*
X0172747Y0090706D03*
D699*
X0177997Y0090706D03*
D700*
X0167415Y0090736D03*
D701*
X0167407Y0090766D03*
X0172762Y0093091D03*
X0172762Y0093121D03*
D702*
X0172762Y0093151D03*
X0172762Y0093166D03*
X0172762Y0093181D03*
X0167407Y0090781D03*
D703*
X0178020Y0090781D03*
D704*
X0172770Y0093286D03*
X0167400Y0090796D03*
D705*
X0172755Y0092641D03*
X0172755Y0092671D03*
X0172755Y0092686D03*
X0178020Y0090796D03*
D706*
X0172762Y0093421D03*
X0167392Y0090811D03*
D707*
X0172762Y0092851D03*
X0172762Y0092866D03*
X0172762Y0092881D03*
X0172762Y0092896D03*
X0172762Y0092911D03*
X0178027Y0090811D03*
D708*
X0167392Y0090826D03*
D709*
X0167385Y0090841D03*
X0172770Y0093481D03*
D710*
X0167385Y0090856D03*
D711*
X0178042Y0090856D03*
D712*
X0178065Y0090946D03*
X0167385Y0090871D03*
D713*
X0167377Y0090886D03*
X0172762Y0093511D03*
D714*
X0172762Y0093391D03*
X0172762Y0093376D03*
X0172762Y0093361D03*
X0172762Y0093346D03*
X0172762Y0093331D03*
X0172762Y0093316D03*
X0172762Y0093301D03*
X0178042Y0090886D03*
D715*
X0178065Y0090976D03*
X0172770Y0093526D03*
X0167370Y0090901D03*
D716*
X0172770Y0093436D03*
X0172770Y0093451D03*
X0178050Y0090901D03*
D717*
X0172755Y0090916D03*
D718*
X0167370Y0090931D03*
D719*
X0172755Y0090931D03*
D720*
X0172770Y0093496D03*
X0178065Y0090931D03*
D721*
X0167362Y0090946D03*
D722*
X0172747Y0090946D03*
D723*
X0172755Y0090961D03*
D724*
X0178065Y0090961D03*
D725*
X0172785Y0093571D03*
X0167355Y0090976D03*
D726*
X0172755Y0090976D03*
D727*
X0172755Y0090991D03*
D728*
X0178072Y0090991D03*
D729*
X0167355Y0091006D03*
D730*
X0172747Y0091006D03*
D731*
X0178080Y0091006D03*
D732*
X0172762Y0091021D03*
D733*
X0178087Y0091021D03*
D734*
X0172762Y0091036D03*
D735*
X0172762Y0091051D03*
D736*
X0167340Y0091066D03*
D737*
X0172762Y0091066D03*
D738*
X0178087Y0091066D03*
D739*
X0178110Y0091141D03*
X0167340Y0091081D03*
D740*
X0172762Y0091081D03*
D741*
X0167332Y0091096D03*
D742*
X0172755Y0091096D03*
D743*
X0167332Y0091126D03*
D744*
X0172747Y0091126D03*
D745*
X0178102Y0091126D03*
D746*
X0167325Y0091141D03*
D747*
X0167325Y0091156D03*
D748*
X0167325Y0091171D03*
D749*
X0167325Y0091186D03*
X0178125Y0091246D03*
D750*
X0178110Y0091186D03*
D751*
X0178125Y0091261D03*
X0167325Y0091201D03*
D752*
X0172740Y0091201D03*
X0172740Y0091216D03*
X0172740Y0091231D03*
D753*
X0178110Y0091201D03*
D754*
X0178117Y0091216D03*
D755*
X0167317Y0091231D03*
D756*
X0178117Y0091231D03*
D757*
X0167310Y0091246D03*
D758*
X0167317Y0091261D03*
X0178132Y0091321D03*
D759*
X0167317Y0091276D03*
D760*
X0167317Y0091291D03*
D761*
X0167310Y0091306D03*
D762*
X0172725Y0091306D03*
D763*
X0178132Y0091306D03*
D764*
X0167302Y0091336D03*
D765*
X0178140Y0091366D03*
D766*
X0167295Y0091381D03*
D767*
X0178140Y0091381D03*
D768*
X0172740Y0091396D03*
D769*
X0167287Y0091426D03*
D770*
X0172740Y0091441D03*
X0172740Y0091471D03*
D771*
X0167287Y0091456D03*
D772*
X0172740Y0091456D03*
D773*
X0178155Y0091456D03*
D774*
X0167287Y0091501D03*
D775*
X0178162Y0091516D03*
D776*
X0167280Y0091531D03*
D777*
X0178170Y0091531D03*
D778*
X0167280Y0091591D03*
D779*
X0167272Y0091606D03*
D780*
X0172747Y0091606D03*
D781*
X0178170Y0091606D03*
D782*
X0178177Y0091621D03*
D783*
X0167265Y0091636D03*
D784*
X0178177Y0091636D03*
D785*
X0178185Y0091711D03*
X0167265Y0091651D03*
D786*
X0178177Y0091651D03*
D787*
X0167265Y0091666D03*
D788*
X0178177Y0091666D03*
D789*
X0172747Y0091696D03*
X0172747Y0091711D03*
X0172747Y0091726D03*
X0172747Y0091741D03*
X0172747Y0091771D03*
D790*
X0178185Y0091696D03*
D791*
X0178192Y0091771D03*
X0167257Y0091711D03*
D792*
X0178192Y0091726D03*
D793*
X0178192Y0091756D03*
D794*
X0172740Y0091786D03*
D795*
X0178200Y0091786D03*
D796*
X0178222Y0091801D03*
D797*
X0172740Y0091906D03*
D798*
X0172747Y0092011D03*
X0172747Y0092026D03*
X0172747Y0092041D03*
D799*
X0172755Y0092056D03*
D800*
X0172755Y0092071D03*
D801*
X0172755Y0092131D03*
X0172755Y0092146D03*
X0172755Y0092161D03*
X0172755Y0092176D03*
X0172755Y0092191D03*
X0172755Y0092221D03*
X0172755Y0092236D03*
D802*
X0172755Y0092206D03*
D803*
X0172747Y0092371D03*
D804*
X0172747Y0092506D03*
D805*
X0172747Y0092551D03*
D806*
X0172755Y0092566D03*
X0172755Y0092581D03*
X0172755Y0092596D03*
X0172755Y0092611D03*
D807*
X0172762Y0092956D03*
D808*
X0172755Y0093016D03*
D809*
X0172770Y0093076D03*
D810*
X0172762Y0093106D03*
D811*
X0172762Y0093256D03*
D812*
X0172762Y0093406D03*
D813*
X0172777Y0093556D03*
D814*
X0172687Y0093601D03*
D815*
X0160564Y0141339D02*
X0159797Y0141339D01*
X0159030Y0142106D01*
X0159030Y0143641D01*
X0159797Y0144408D01*
X0160564Y0144408D01*
X0161332Y0143641D01*
X0161332Y0142106D01*
X0160564Y0141339D01*
X0159030Y0142106D02*
X0158262Y0141339D01*
X0157495Y0141339D01*
X0156728Y0142106D01*
X0156728Y0143641D01*
X0157495Y0144408D01*
X0158262Y0144408D01*
X0159030Y0143641D01*
X0110732Y0144408D02*
X0110732Y0145943D01*
X0109964Y0146710D01*
X0109197Y0146710D01*
X0108430Y0145943D01*
X0108430Y0143641D01*
X0109964Y0143641D01*
X0110732Y0144408D01*
X0110732Y0142106D02*
X0110732Y0139037D01*
X0110732Y0140572D02*
X0106128Y0140572D01*
X0107662Y0139037D01*
X0108430Y0143641D02*
X0106895Y0145176D01*
X0106128Y0146710D01*
X0106895Y0246339D02*
X0107662Y0246339D01*
X0108430Y0247106D01*
X0108430Y0249408D01*
X0109964Y0249408D02*
X0106895Y0249408D01*
X0106128Y0248641D01*
X0106128Y0247106D01*
X0106895Y0246339D01*
X0109964Y0246339D02*
X0110732Y0247106D01*
X0110732Y0248641D01*
X0109964Y0249408D01*
X0110732Y0265021D02*
X0110732Y0268091D01*
X0110732Y0266556D02*
X0106128Y0266556D01*
X0107662Y0265021D01*
X0108430Y0269625D02*
X0108430Y0271927D01*
X0109197Y0272694D01*
X0109964Y0272694D01*
X0110732Y0271927D01*
X0110732Y0270392D01*
X0109964Y0269625D01*
X0108430Y0269625D01*
X0106895Y0271160D01*
X0106128Y0272694D01*
X0156728Y0269625D02*
X0157495Y0270393D01*
X0158262Y0270393D01*
X0159030Y0269625D01*
X0159030Y0268091D01*
X0158262Y0267323D01*
X0157495Y0267323D01*
X0156728Y0268091D01*
X0156728Y0269625D01*
X0159030Y0269625D02*
X0159797Y0270393D01*
X0160564Y0270393D01*
X0161332Y0269625D01*
X0161332Y0268091D01*
X0160564Y0267323D01*
X0159797Y0267323D01*
X0159030Y0268091D01*
X0161332Y0249408D02*
X0161332Y0246339D01*
X0161332Y0247874D02*
X0156728Y0247874D01*
X0158262Y0246339D01*
X0328680Y0216324D02*
X0328680Y0211720D01*
X0328680Y0213254D02*
X0331749Y0216324D01*
X0333284Y0214022D02*
X0336353Y0214022D01*
X0335586Y0211720D02*
X0335586Y0216324D01*
X0333284Y0214022D01*
X0331749Y0211720D02*
X0329447Y0214022D01*
X0340888Y0222720D02*
X0342689Y0222720D01*
X0343290Y0223320D01*
X0343290Y0225722D01*
X0342689Y0226323D01*
X0340888Y0226323D01*
X0340888Y0222720D01*
X0344571Y0224521D02*
X0346372Y0226323D01*
X0346372Y0222720D01*
X0346973Y0224521D02*
X0344571Y0224521D01*
X0344872Y0260970D02*
X0345473Y0261570D01*
X0345473Y0263972D01*
X0344872Y0264573D01*
X0343071Y0264573D01*
X0343071Y0260970D01*
X0344872Y0260970D01*
X0346754Y0262771D02*
X0349156Y0262771D01*
X0348555Y0260970D02*
X0348555Y0264573D01*
X0346754Y0262771D01*
X0341790Y0263972D02*
X0339388Y0261570D01*
X0339388Y0260970D01*
X0341790Y0260970D01*
X0341790Y0263972D02*
X0341790Y0264573D01*
X0339388Y0264573D01*
X0336353Y0350220D02*
X0333284Y0350220D01*
X0334818Y0350220D02*
X0334818Y0354824D01*
X0333284Y0353289D01*
X0331749Y0354824D02*
X0328680Y0351754D01*
X0329447Y0352522D02*
X0331749Y0350220D01*
X0328680Y0350220D02*
X0328680Y0354824D01*
X0341138Y0360970D02*
X0342939Y0360970D01*
X0343540Y0361570D01*
X0343540Y0363972D01*
X0342939Y0364573D01*
X0341138Y0364573D01*
X0341138Y0360970D01*
X0344821Y0360970D02*
X0347223Y0360970D01*
X0346022Y0360970D02*
X0346022Y0364573D01*
X0344821Y0363372D01*
X0345622Y0399970D02*
X0346223Y0400570D01*
X0346223Y0402972D01*
X0345622Y0403573D01*
X0343821Y0403573D01*
X0343821Y0399970D01*
X0345622Y0399970D01*
X0347504Y0399970D02*
X0349906Y0399970D01*
X0348705Y0399970D02*
X0348705Y0403573D01*
X0347504Y0402372D01*
X0342540Y0402972D02*
X0340138Y0400570D01*
X0340138Y0399970D01*
X0342540Y0399970D01*
X0342540Y0402972D02*
X0342540Y0403573D01*
X0340138Y0403573D01*
X0315473Y0424470D02*
X0313071Y0424470D01*
X0315473Y0426872D01*
X0315473Y0427472D01*
X0314872Y0428073D01*
X0313671Y0428073D01*
X0313071Y0427472D01*
X0311790Y0427472D02*
X0311790Y0426271D01*
X0311189Y0425671D01*
X0309388Y0425671D01*
X0310589Y0425671D02*
X0311790Y0424470D01*
X0309388Y0424470D02*
X0309388Y0428073D01*
X0311189Y0428073D01*
X0311790Y0427472D01*
X0449138Y0427823D02*
X0449138Y0424220D01*
X0449138Y0425421D02*
X0450939Y0425421D01*
X0451540Y0426021D01*
X0451540Y0427222D01*
X0450939Y0427823D01*
X0449138Y0427823D01*
X0450339Y0425421D02*
X0451540Y0424220D01*
X0452821Y0424820D02*
X0453421Y0424220D01*
X0454622Y0424220D01*
X0455223Y0424820D01*
X0455223Y0425421D01*
X0454622Y0426021D01*
X0454022Y0426021D01*
X0454622Y0426021D02*
X0455223Y0426622D01*
X0455223Y0427222D01*
X0454622Y0427823D01*
X0453421Y0427823D01*
X0452821Y0427222D01*
X0479138Y0403323D02*
X0481540Y0403323D01*
X0481540Y0402722D01*
X0479138Y0400320D01*
X0479138Y0399720D01*
X0481540Y0399720D01*
X0482821Y0399720D02*
X0482821Y0403323D01*
X0484622Y0403323D01*
X0485223Y0402722D01*
X0485223Y0400320D01*
X0484622Y0399720D01*
X0482821Y0399720D01*
X0486504Y0399720D02*
X0488906Y0402122D01*
X0488906Y0402722D01*
X0488305Y0403323D01*
X0487104Y0403323D01*
X0486504Y0402722D01*
X0486504Y0399720D02*
X0488906Y0399720D01*
X0486372Y0364823D02*
X0485171Y0364823D01*
X0484571Y0364222D01*
X0483290Y0364222D02*
X0482689Y0364823D01*
X0480888Y0364823D01*
X0480888Y0361220D01*
X0482689Y0361220D01*
X0483290Y0361820D01*
X0483290Y0364222D01*
X0486372Y0364823D02*
X0486973Y0364222D01*
X0486973Y0363622D01*
X0484571Y0361220D01*
X0486973Y0361220D01*
X0476353Y0354056D02*
X0475586Y0354824D01*
X0474051Y0354824D01*
X0473284Y0354056D01*
X0471749Y0354824D02*
X0468680Y0351754D01*
X0469447Y0352522D02*
X0471749Y0350220D01*
X0473284Y0350220D02*
X0476353Y0353289D01*
X0476353Y0354056D01*
X0476353Y0350220D02*
X0473284Y0350220D01*
X0468680Y0350220D02*
X0468680Y0354824D01*
X0577388Y0301823D02*
X0577388Y0298220D01*
X0577388Y0299421D02*
X0579189Y0299421D01*
X0579790Y0300021D01*
X0579790Y0301222D01*
X0579189Y0301823D01*
X0577388Y0301823D01*
X0578589Y0299421D02*
X0579790Y0298220D01*
X0581071Y0298820D02*
X0581671Y0298220D01*
X0582872Y0298220D01*
X0583473Y0298820D01*
X0583473Y0299421D01*
X0582872Y0300021D01*
X0581071Y0300021D01*
X0581071Y0298820D01*
X0581071Y0300021D02*
X0582272Y0301222D01*
X0583473Y0301823D01*
X0589388Y0289323D02*
X0591189Y0289323D01*
X0591790Y0288722D01*
X0591790Y0287521D01*
X0591189Y0286921D01*
X0589388Y0286921D01*
X0590589Y0286921D02*
X0591790Y0285720D01*
X0593071Y0285720D02*
X0593071Y0286320D01*
X0595473Y0288722D01*
X0595473Y0289323D01*
X0593071Y0289323D01*
X0589388Y0289323D02*
X0589388Y0285720D01*
X0618888Y0264573D02*
X0621290Y0264573D01*
X0621290Y0263972D01*
X0618888Y0261570D01*
X0618888Y0260970D01*
X0621290Y0260970D01*
X0622571Y0260970D02*
X0622571Y0264573D01*
X0624372Y0264573D01*
X0624973Y0263972D01*
X0624973Y0261570D01*
X0624372Y0260970D01*
X0622571Y0260970D01*
X0626254Y0261570D02*
X0626854Y0260970D01*
X0628055Y0260970D01*
X0628656Y0261570D01*
X0628656Y0262171D01*
X0628055Y0262771D01*
X0626254Y0262771D01*
X0626254Y0261570D01*
X0626254Y0262771D02*
X0627455Y0263972D01*
X0628656Y0264573D01*
X0626723Y0226323D02*
X0625522Y0225722D01*
X0624321Y0224521D01*
X0626122Y0224521D01*
X0626723Y0223921D01*
X0626723Y0223320D01*
X0626122Y0222720D01*
X0624921Y0222720D01*
X0624321Y0223320D01*
X0624321Y0224521D01*
X0623040Y0223320D02*
X0623040Y0225722D01*
X0622439Y0226323D01*
X0620638Y0226323D01*
X0620638Y0222720D01*
X0622439Y0222720D01*
X0623040Y0223320D01*
X0616353Y0216324D02*
X0614818Y0215556D01*
X0613284Y0214022D01*
X0615586Y0214022D01*
X0616353Y0213254D01*
X0616353Y0212487D01*
X0615586Y0211720D01*
X0614051Y0211720D01*
X0613284Y0212487D01*
X0613284Y0214022D01*
X0611749Y0216324D02*
X0608680Y0213254D01*
X0609447Y0214022D02*
X0611749Y0211720D01*
X0608680Y0211720D02*
X0608680Y0216324D01*
X0546906Y0156573D02*
X0546906Y0152970D01*
X0545705Y0152970D02*
X0548107Y0152970D01*
X0545705Y0155372D02*
X0546906Y0156573D01*
X0544423Y0155972D02*
X0543823Y0156573D01*
X0542622Y0156573D01*
X0542021Y0155972D01*
X0542021Y0153570D01*
X0542622Y0152970D01*
X0543823Y0152970D01*
X0544423Y0153570D01*
X0542506Y0149073D02*
X0541305Y0149073D01*
X0540705Y0148472D01*
X0539423Y0148472D02*
X0538823Y0149073D01*
X0537622Y0149073D01*
X0537021Y0148472D01*
X0537021Y0146070D01*
X0537622Y0145470D01*
X0538823Y0145470D01*
X0539423Y0146070D01*
X0540705Y0145470D02*
X0543107Y0147872D01*
X0543107Y0148472D01*
X0542506Y0149073D01*
X0543107Y0145470D02*
X0540705Y0145470D01*
X0526473Y0147720D02*
X0524071Y0147720D01*
X0525272Y0147720D02*
X0525272Y0151323D01*
X0524071Y0150122D01*
X0522790Y0150722D02*
X0522790Y0149521D01*
X0522189Y0148921D01*
X0520388Y0148921D01*
X0521589Y0148921D02*
X0522790Y0147720D01*
X0520388Y0147720D02*
X0520388Y0151323D01*
X0522189Y0151323D01*
X0522790Y0150722D01*
X0512723Y0147271D02*
X0510321Y0147271D01*
X0512122Y0149073D01*
X0512122Y0145470D01*
X0509040Y0146070D02*
X0508439Y0145470D01*
X0507238Y0145470D01*
X0506638Y0146070D01*
X0506638Y0148472D01*
X0507238Y0149073D01*
X0508439Y0149073D01*
X0509040Y0148472D01*
X0498366Y0146222D02*
X0497765Y0146823D01*
X0496564Y0146823D01*
X0495964Y0146222D01*
X0494683Y0146222D02*
X0494082Y0146823D01*
X0492881Y0146823D01*
X0492280Y0146222D01*
X0492280Y0143820D01*
X0492881Y0143220D01*
X0494082Y0143220D01*
X0494683Y0143820D01*
X0495964Y0143220D02*
X0498366Y0145622D01*
X0498366Y0146222D01*
X0498366Y0143220D02*
X0495964Y0143220D01*
X0491026Y0143220D02*
X0489825Y0143220D01*
X0490426Y0143220D02*
X0490426Y0146823D01*
X0491026Y0146823D02*
X0489825Y0146823D01*
X0485728Y0129573D02*
X0486328Y0128972D01*
X0486328Y0128372D01*
X0485728Y0127771D01*
X0486328Y0127171D01*
X0486328Y0126570D01*
X0485728Y0125970D01*
X0484527Y0125970D01*
X0483926Y0126570D01*
X0482645Y0126570D02*
X0482045Y0125970D01*
X0480844Y0125970D01*
X0480243Y0126570D01*
X0480243Y0128972D01*
X0480844Y0129573D01*
X0482045Y0129573D01*
X0482645Y0128972D01*
X0483926Y0128972D02*
X0484527Y0129573D01*
X0485728Y0129573D01*
X0485728Y0127771D02*
X0485127Y0127771D01*
X0478989Y0125970D02*
X0477788Y0125970D01*
X0478388Y0125970D02*
X0478388Y0129573D01*
X0477788Y0129573D02*
X0478989Y0129573D01*
X0466488Y0130070D02*
X0466488Y0131271D01*
X0465887Y0131872D01*
X0466488Y0133153D02*
X0466488Y0135555D01*
X0466488Y0134354D02*
X0462885Y0134354D01*
X0464086Y0133153D01*
X0463485Y0131872D02*
X0462885Y0131271D01*
X0462885Y0130070D01*
X0463485Y0129470D01*
X0465887Y0129470D01*
X0466488Y0130070D01*
X0465887Y0136836D02*
X0463485Y0139238D01*
X0465887Y0139238D01*
X0466488Y0138638D01*
X0466488Y0137436D01*
X0465887Y0136836D01*
X0463485Y0136836D01*
X0462885Y0137436D01*
X0462885Y0138638D01*
X0463485Y0139238D01*
X0454228Y0144621D02*
X0451826Y0144621D01*
X0453628Y0146423D01*
X0453628Y0142820D01*
X0450545Y0143420D02*
X0449945Y0142820D01*
X0448744Y0142820D01*
X0448143Y0143420D01*
X0448143Y0145822D01*
X0448744Y0146423D01*
X0449945Y0146423D01*
X0450545Y0145822D01*
X0446889Y0146423D02*
X0445688Y0146423D01*
X0446288Y0146423D02*
X0446288Y0142820D01*
X0445688Y0142820D02*
X0446889Y0142820D01*
X0439622Y0152220D02*
X0438421Y0152220D01*
X0437821Y0152820D01*
X0437821Y0153421D01*
X0438421Y0154021D01*
X0439622Y0154021D01*
X0440223Y0153421D01*
X0440223Y0152820D01*
X0439622Y0152220D01*
X0439622Y0154021D02*
X0440223Y0154622D01*
X0440223Y0155222D01*
X0439622Y0155823D01*
X0438421Y0155823D01*
X0437821Y0155222D01*
X0437821Y0154622D01*
X0438421Y0154021D01*
X0436540Y0152820D02*
X0435939Y0152220D01*
X0434738Y0152220D01*
X0434138Y0152820D01*
X0434138Y0155222D01*
X0434738Y0155823D01*
X0435939Y0155823D01*
X0436540Y0155222D01*
X0429122Y0134823D02*
X0427921Y0134823D01*
X0427321Y0134222D01*
X0427321Y0133622D01*
X0427921Y0133021D01*
X0429723Y0133021D01*
X0429723Y0131820D02*
X0429723Y0134222D01*
X0429122Y0134823D01*
X0429723Y0131820D02*
X0429122Y0131220D01*
X0427921Y0131220D01*
X0427321Y0131820D01*
X0426040Y0131820D02*
X0425439Y0131220D01*
X0424238Y0131220D01*
X0423638Y0131820D01*
X0423638Y0134222D01*
X0424238Y0134823D01*
X0425439Y0134823D01*
X0426040Y0134222D01*
X0453888Y0115222D02*
X0453888Y0112820D01*
X0454488Y0112220D01*
X0455689Y0112220D01*
X0456290Y0112820D01*
X0457571Y0112820D02*
X0457571Y0112220D01*
X0457571Y0112820D02*
X0459973Y0115222D01*
X0459973Y0115823D01*
X0457571Y0115823D01*
X0456290Y0115222D02*
X0455689Y0115823D01*
X0454488Y0115823D01*
X0453888Y0115222D01*
X0504138Y0120470D02*
X0504138Y0124073D01*
X0505939Y0124073D01*
X0506540Y0123472D01*
X0506540Y0122271D01*
X0505939Y0121671D01*
X0504138Y0121671D01*
X0505339Y0121671D02*
X0506540Y0120470D01*
X0507821Y0120470D02*
X0507821Y0124073D01*
X0510223Y0120470D01*
X0510223Y0124073D01*
X0511504Y0123472D02*
X0512104Y0124073D01*
X0513305Y0124073D01*
X0513906Y0123472D01*
X0513906Y0122872D01*
X0511504Y0120470D01*
X0513906Y0120470D01*
X0534521Y0124570D02*
X0535122Y0123970D01*
X0536323Y0123970D01*
X0536923Y0124570D01*
X0538205Y0124570D02*
X0538805Y0123970D01*
X0540006Y0123970D01*
X0540607Y0124570D01*
X0540607Y0125171D01*
X0540006Y0125771D01*
X0538205Y0125771D01*
X0538205Y0124570D01*
X0538205Y0125771D02*
X0539406Y0126972D01*
X0540607Y0127573D01*
X0536923Y0126972D02*
X0536323Y0127573D01*
X0535122Y0127573D01*
X0534521Y0126972D01*
X0534521Y0124570D01*
X0537872Y0119823D02*
X0537271Y0119222D01*
X0537271Y0116820D01*
X0537872Y0116220D01*
X0539073Y0116220D01*
X0539673Y0116820D01*
X0540955Y0116820D02*
X0541555Y0116220D01*
X0542756Y0116220D01*
X0543357Y0116820D01*
X0543357Y0118021D01*
X0542756Y0118622D01*
X0542156Y0118622D01*
X0540955Y0118021D01*
X0540955Y0119823D01*
X0543357Y0119823D01*
X0539673Y0119222D02*
X0539073Y0119823D01*
X0537872Y0119823D01*
X0597388Y0116573D02*
X0597388Y0112970D01*
X0597388Y0114171D02*
X0599189Y0114171D01*
X0599790Y0114771D01*
X0599790Y0115972D01*
X0599189Y0116573D01*
X0597388Y0116573D01*
X0598589Y0114171D02*
X0599790Y0112970D01*
X0601071Y0112970D02*
X0601071Y0116573D01*
X0603473Y0112970D01*
X0603473Y0116573D01*
X0604754Y0115372D02*
X0605955Y0116573D01*
X0605955Y0112970D01*
X0604754Y0112970D02*
X0607156Y0112970D01*
X0617249Y0093235D02*
X0616648Y0092634D01*
X0617249Y0093235D02*
X0618450Y0093235D01*
X0619050Y0092634D01*
X0619050Y0092034D01*
X0616648Y0089632D01*
X0619050Y0089632D01*
X0618450Y0087235D02*
X0619050Y0086634D01*
X0619050Y0086034D01*
X0618450Y0085433D01*
X0619050Y0084833D01*
X0619050Y0084232D01*
X0618450Y0083632D01*
X0617249Y0083632D01*
X0616648Y0084232D01*
X0617849Y0085433D02*
X0618450Y0085433D01*
X0618450Y0087235D02*
X0617249Y0087235D01*
X0616648Y0086634D01*
X0624015Y0086634D02*
X0624015Y0084232D01*
X0624615Y0083632D01*
X0625816Y0083632D01*
X0626417Y0084232D01*
X0626417Y0085433D01*
X0625216Y0085433D01*
X0626417Y0086634D02*
X0625816Y0087235D01*
X0624615Y0087235D01*
X0624015Y0086634D01*
X0624615Y0089632D02*
X0624015Y0090232D01*
X0624615Y0089632D02*
X0625816Y0089632D01*
X0626417Y0090232D01*
X0626417Y0090833D01*
X0625816Y0091433D01*
X0624615Y0091433D01*
X0624015Y0092034D01*
X0624015Y0092634D01*
X0624615Y0093235D01*
X0625816Y0093235D01*
X0626417Y0092634D01*
X0627698Y0093235D02*
X0627698Y0089632D01*
X0628899Y0090833D01*
X0630100Y0089632D01*
X0630100Y0093235D01*
X0631381Y0092634D02*
X0631381Y0090232D01*
X0631981Y0089632D01*
X0633182Y0089632D01*
X0633783Y0090232D01*
X0635064Y0089632D02*
X0637466Y0089632D01*
X0638747Y0089632D02*
X0638747Y0093235D01*
X0639348Y0091433D02*
X0641149Y0089632D01*
X0638747Y0090833D02*
X0641149Y0093235D01*
X0635064Y0093235D02*
X0635064Y0089632D01*
X0633783Y0087235D02*
X0633783Y0083632D01*
X0631981Y0083632D01*
X0631381Y0084232D01*
X0631381Y0085433D01*
X0631981Y0086034D01*
X0633783Y0086034D01*
X0630100Y0085433D02*
X0630100Y0083632D01*
X0630100Y0085433D02*
X0629499Y0086034D01*
X0627698Y0086034D01*
X0627698Y0083632D01*
X0627698Y0081235D02*
X0627698Y0077632D01*
X0628899Y0078833D01*
X0630100Y0077632D01*
X0630100Y0081235D01*
X0631381Y0081235D02*
X0633182Y0081235D01*
X0633783Y0080634D01*
X0633783Y0078232D01*
X0633182Y0077632D01*
X0631381Y0077632D01*
X0631381Y0081235D01*
X0635064Y0081235D02*
X0636265Y0081235D01*
X0635665Y0081235D02*
X0635665Y0077632D01*
X0636265Y0077632D02*
X0635064Y0077632D01*
X0637519Y0078232D02*
X0638120Y0077632D01*
X0639321Y0077632D01*
X0639921Y0078232D01*
X0639921Y0080634D01*
X0639321Y0081235D01*
X0638120Y0081235D01*
X0637519Y0080634D01*
X0637519Y0078232D01*
X0626417Y0078232D02*
X0625816Y0077632D01*
X0624615Y0077632D01*
X0624015Y0078232D01*
X0624615Y0079433D02*
X0625816Y0079433D01*
X0626417Y0078833D01*
X0626417Y0078232D01*
X0624615Y0079433D02*
X0624015Y0080034D01*
X0624015Y0080634D01*
X0624615Y0081235D01*
X0625816Y0081235D01*
X0626417Y0080634D01*
X0619050Y0079433D02*
X0616648Y0079433D01*
X0618450Y0081235D01*
X0618450Y0077632D01*
X0631381Y0092634D02*
X0631981Y0093235D01*
X0633182Y0093235D01*
X0633783Y0092634D01*
X0471973Y0172820D02*
X0471372Y0172220D01*
X0470171Y0172220D01*
X0469571Y0172820D01*
X0469571Y0174021D02*
X0470772Y0174622D01*
X0471372Y0174622D01*
X0471973Y0174021D01*
X0471973Y0172820D01*
X0469571Y0174021D02*
X0469571Y0175823D01*
X0471973Y0175823D01*
X0468290Y0175222D02*
X0468290Y0174021D01*
X0467689Y0173421D01*
X0465888Y0173421D01*
X0467089Y0173421D02*
X0468290Y0172220D01*
X0465888Y0172220D02*
X0465888Y0175823D01*
X0467689Y0175823D01*
X0468290Y0175222D01*
X0468680Y0211720D02*
X0468680Y0216324D01*
X0469447Y0214022D02*
X0471749Y0211720D01*
X0473284Y0212487D02*
X0474051Y0211720D01*
X0475586Y0211720D01*
X0476353Y0212487D01*
X0476353Y0214022D01*
X0475586Y0214789D01*
X0474818Y0214789D01*
X0473284Y0214022D01*
X0473284Y0216324D01*
X0476353Y0216324D01*
X0471749Y0216324D02*
X0468680Y0213254D01*
X0480888Y0222720D02*
X0482689Y0222720D01*
X0483290Y0223320D01*
X0483290Y0225722D01*
X0482689Y0226323D01*
X0480888Y0226323D01*
X0480888Y0222720D01*
X0484571Y0223320D02*
X0485171Y0222720D01*
X0486372Y0222720D01*
X0486973Y0223320D01*
X0486973Y0224521D01*
X0486372Y0225122D01*
X0485772Y0225122D01*
X0484571Y0224521D01*
X0484571Y0226323D01*
X0486973Y0226323D01*
X0486604Y0260970D02*
X0486004Y0261570D01*
X0486604Y0260970D02*
X0487805Y0260970D01*
X0488406Y0261570D01*
X0488406Y0262771D01*
X0487805Y0263372D01*
X0487205Y0263372D01*
X0486004Y0262771D01*
X0486004Y0264573D01*
X0488406Y0264573D01*
X0484723Y0263972D02*
X0484122Y0264573D01*
X0482321Y0264573D01*
X0482321Y0260970D01*
X0484122Y0260970D01*
X0484723Y0261570D01*
X0484723Y0263972D01*
X0481040Y0263972D02*
X0478638Y0261570D01*
X0478638Y0260970D01*
X0481040Y0260970D01*
X0481040Y0263972D02*
X0481040Y0264573D01*
X0478638Y0264573D01*
X0608680Y0350220D02*
X0608680Y0354824D01*
X0609447Y0352522D02*
X0611749Y0350220D01*
X0613284Y0350987D02*
X0614051Y0350220D01*
X0615586Y0350220D01*
X0616353Y0350987D01*
X0616353Y0351754D01*
X0615586Y0352522D01*
X0614818Y0352522D01*
X0615586Y0352522D02*
X0616353Y0353289D01*
X0616353Y0354056D01*
X0615586Y0354824D01*
X0614051Y0354824D01*
X0613284Y0354056D01*
X0611749Y0354824D02*
X0608680Y0351754D01*
X0620888Y0361470D02*
X0622689Y0361470D01*
X0623290Y0362070D01*
X0623290Y0364472D01*
X0622689Y0365073D01*
X0620888Y0365073D01*
X0620888Y0361470D01*
X0624571Y0362070D02*
X0625171Y0361470D01*
X0626372Y0361470D01*
X0626973Y0362070D01*
X0626973Y0362671D01*
X0626372Y0363271D01*
X0625772Y0363271D01*
X0626372Y0363271D02*
X0626973Y0363872D01*
X0626973Y0364472D01*
X0626372Y0365073D01*
X0625171Y0365073D01*
X0624571Y0364472D01*
X0624372Y0399720D02*
X0624973Y0400320D01*
X0624973Y0402722D01*
X0624372Y0403323D01*
X0622571Y0403323D01*
X0622571Y0399720D01*
X0624372Y0399720D01*
X0626254Y0400320D02*
X0626854Y0399720D01*
X0628055Y0399720D01*
X0628656Y0400320D01*
X0628656Y0400921D01*
X0628055Y0401521D01*
X0627455Y0401521D01*
X0628055Y0401521D02*
X0628656Y0402122D01*
X0628656Y0402722D01*
X0628055Y0403323D01*
X0626854Y0403323D01*
X0626254Y0402722D01*
X0621290Y0402722D02*
X0618888Y0400320D01*
X0618888Y0399720D01*
X0621290Y0399720D01*
X0621290Y0402722D02*
X0621290Y0403323D01*
X0618888Y0403323D01*
X0594122Y0424220D02*
X0594122Y0427823D01*
X0592321Y0426021D01*
X0594723Y0426021D01*
X0591040Y0426021D02*
X0591040Y0427222D01*
X0590439Y0427823D01*
X0588638Y0427823D01*
X0588638Y0424220D01*
X0588638Y0425421D02*
X0590439Y0425421D01*
X0591040Y0426021D01*
X0589839Y0425421D02*
X0591040Y0424220D01*
X0161332Y0375393D02*
X0161332Y0372323D01*
X0161332Y0373858D02*
X0156728Y0373858D01*
X0158262Y0372323D01*
X0110732Y0373091D02*
X0110732Y0374625D01*
X0109964Y0375393D01*
X0106895Y0375393D01*
X0106128Y0374625D01*
X0106128Y0373091D01*
X0106895Y0372323D01*
X0107662Y0372323D01*
X0108430Y0373091D01*
X0108430Y0375393D01*
X0110732Y0373091D02*
X0109964Y0372323D01*
D816*
X0624884Y0151059D02*
X0624886Y0151131D01*
X0624892Y0151202D01*
X0624902Y0151273D01*
X0624915Y0151343D01*
X0624933Y0151413D01*
X0624954Y0151481D01*
X0624980Y0151548D01*
X0625008Y0151614D01*
X0625041Y0151678D01*
X0625077Y0151740D01*
X0625116Y0151800D01*
X0625158Y0151857D01*
X0625204Y0151913D01*
X0625252Y0151965D01*
X0625304Y0152015D01*
X0625358Y0152062D01*
X0625414Y0152106D01*
X0625473Y0152147D01*
X0625534Y0152185D01*
X0625597Y0152219D01*
X0625662Y0152250D01*
X0625728Y0152276D01*
X0625796Y0152300D01*
X0625865Y0152319D01*
X0625935Y0152335D01*
X0626005Y0152347D01*
X0626077Y0152355D01*
X0626148Y0152359D01*
X0626220Y0152359D01*
X0626291Y0152355D01*
X0626363Y0152347D01*
X0626433Y0152335D01*
X0626503Y0152319D01*
X0626572Y0152300D01*
X0626640Y0152276D01*
X0626706Y0152250D01*
X0626771Y0152219D01*
X0626834Y0152185D01*
X0626895Y0152147D01*
X0626954Y0152106D01*
X0627010Y0152062D01*
X0627064Y0152015D01*
X0627116Y0151965D01*
X0627164Y0151913D01*
X0627210Y0151857D01*
X0627252Y0151800D01*
X0627291Y0151740D01*
X0627327Y0151678D01*
X0627360Y0151614D01*
X0627388Y0151548D01*
X0627414Y0151481D01*
X0627435Y0151413D01*
X0627453Y0151343D01*
X0627466Y0151273D01*
X0627476Y0151202D01*
X0627482Y0151131D01*
X0627484Y0151059D01*
X0627482Y0150987D01*
X0627476Y0150916D01*
X0627466Y0150845D01*
X0627453Y0150775D01*
X0627435Y0150705D01*
X0627414Y0150637D01*
X0627388Y0150570D01*
X0627360Y0150504D01*
X0627327Y0150440D01*
X0627291Y0150378D01*
X0627252Y0150318D01*
X0627210Y0150261D01*
X0627164Y0150205D01*
X0627116Y0150153D01*
X0627064Y0150103D01*
X0627010Y0150056D01*
X0626954Y0150012D01*
X0626895Y0149971D01*
X0626834Y0149933D01*
X0626771Y0149899D01*
X0626706Y0149868D01*
X0626640Y0149842D01*
X0626572Y0149818D01*
X0626503Y0149799D01*
X0626433Y0149783D01*
X0626363Y0149771D01*
X0626291Y0149763D01*
X0626220Y0149759D01*
X0626148Y0149759D01*
X0626077Y0149763D01*
X0626005Y0149771D01*
X0625935Y0149783D01*
X0625865Y0149799D01*
X0625796Y0149818D01*
X0625728Y0149842D01*
X0625662Y0149868D01*
X0625597Y0149899D01*
X0625534Y0149933D01*
X0625473Y0149971D01*
X0625414Y0150012D01*
X0625358Y0150056D01*
X0625304Y0150103D01*
X0625252Y0150153D01*
X0625204Y0150205D01*
X0625158Y0150261D01*
X0625116Y0150318D01*
X0625077Y0150378D01*
X0625041Y0150440D01*
X0625008Y0150504D01*
X0624980Y0150570D01*
X0624954Y0150637D01*
X0624933Y0150705D01*
X0624915Y0150775D01*
X0624902Y0150845D01*
X0624892Y0150916D01*
X0624886Y0150987D01*
X0624884Y0151059D01*
D817*
X0621735Y0156278D02*
X0621735Y0145770D01*
X0612640Y0145770D01*
X0612640Y0156278D01*
X0621735Y0156278D01*
X0621735Y0145770D02*
X0621735Y0095262D01*
X0612640Y0095262D01*
X0612640Y0145770D01*
X0617888Y0217920D02*
X0504588Y0217920D01*
X0504588Y0222420D01*
X0504588Y0232620D02*
X0504588Y0252420D01*
X0504588Y0262620D02*
X0504588Y0267120D01*
X0617888Y0267120D01*
X0617888Y0217920D01*
X0477888Y0217920D02*
X0477888Y0267120D01*
X0364588Y0267120D01*
X0364588Y0262620D01*
X0364588Y0252420D02*
X0364588Y0232620D01*
X0364588Y0222420D02*
X0364588Y0217920D01*
X0477888Y0217920D01*
X0337888Y0217920D02*
X0337888Y0267120D01*
X0224588Y0267120D01*
X0224588Y0262620D01*
X0224588Y0252420D02*
X0224588Y0232620D01*
X0224588Y0222420D02*
X0224588Y0217920D01*
X0337888Y0217920D01*
X0303825Y0098815D02*
X0303825Y0091177D01*
X0444841Y0091177D01*
X0444841Y0098815D01*
X0303825Y0098815D01*
X0337888Y0356420D02*
X0224588Y0356420D01*
X0224588Y0360920D01*
X0224588Y0371120D02*
X0224588Y0390920D01*
X0224588Y0401120D02*
X0224588Y0405620D01*
X0337888Y0405620D01*
X0337888Y0356420D01*
X0364588Y0356420D02*
X0364588Y0360920D01*
X0364588Y0356420D02*
X0477888Y0356420D01*
X0477888Y0405620D01*
X0364588Y0405620D01*
X0364588Y0401120D01*
X0364588Y0390920D02*
X0364588Y0371120D01*
X0504588Y0371120D02*
X0504588Y0390920D01*
X0504588Y0401120D02*
X0504588Y0405620D01*
X0617888Y0405620D01*
X0617888Y0356420D01*
X0504588Y0356420D01*
X0504588Y0360920D01*
D818*
X0299078Y0113025D02*
X0296976Y0113025D01*
X0295925Y0111975D01*
X0293683Y0113025D02*
X0289479Y0106720D01*
X0293683Y0106720D02*
X0289479Y0113025D01*
X0295925Y0106720D02*
X0300128Y0110924D01*
X0300128Y0111975D01*
X0299078Y0113025D01*
X0300128Y0106720D02*
X0295925Y0106720D01*
D819*
X0171940Y0129109D02*
X0167669Y0129109D01*
X0170872Y0132312D01*
X0170872Y0125906D01*
X0165494Y0125906D02*
X0161224Y0132312D01*
X0165494Y0132312D02*
X0161224Y0125906D01*
X0172050Y0133598D02*
X0172050Y0258283D01*
X0085436Y0258283D01*
X0085436Y0133598D01*
X0172050Y0133598D01*
X0226688Y0196770D02*
X0258438Y0196770D01*
X0269688Y0196770D02*
X0271688Y0196770D01*
X0271786Y0196772D01*
X0271884Y0196778D01*
X0271982Y0196787D01*
X0272079Y0196801D01*
X0272176Y0196818D01*
X0272272Y0196839D01*
X0272367Y0196864D01*
X0272461Y0196892D01*
X0272553Y0196925D01*
X0272645Y0196960D01*
X0272735Y0197000D01*
X0272823Y0197042D01*
X0272910Y0197089D01*
X0272994Y0197138D01*
X0273077Y0197191D01*
X0273157Y0197247D01*
X0273236Y0197307D01*
X0273312Y0197369D01*
X0273385Y0197434D01*
X0273456Y0197502D01*
X0273524Y0197573D01*
X0273589Y0197646D01*
X0273651Y0197722D01*
X0273711Y0197801D01*
X0273767Y0197881D01*
X0273820Y0197964D01*
X0273869Y0198048D01*
X0273916Y0198135D01*
X0273958Y0198223D01*
X0273998Y0198313D01*
X0274033Y0198405D01*
X0274066Y0198497D01*
X0274094Y0198591D01*
X0274119Y0198686D01*
X0274140Y0198782D01*
X0274157Y0198879D01*
X0274171Y0198976D01*
X0274180Y0199074D01*
X0274186Y0199172D01*
X0274188Y0199270D01*
X0274188Y0211270D01*
X0274186Y0211368D01*
X0274180Y0211466D01*
X0274171Y0211564D01*
X0274157Y0211661D01*
X0274140Y0211758D01*
X0274119Y0211854D01*
X0274094Y0211949D01*
X0274066Y0212043D01*
X0274033Y0212135D01*
X0273998Y0212227D01*
X0273958Y0212317D01*
X0273916Y0212405D01*
X0273869Y0212492D01*
X0273820Y0212576D01*
X0273767Y0212659D01*
X0273711Y0212739D01*
X0273651Y0212818D01*
X0273589Y0212894D01*
X0273524Y0212967D01*
X0273456Y0213038D01*
X0273385Y0213106D01*
X0273312Y0213171D01*
X0273236Y0213233D01*
X0273157Y0213293D01*
X0273077Y0213349D01*
X0272994Y0213402D01*
X0272910Y0213451D01*
X0272823Y0213498D01*
X0272735Y0213540D01*
X0272645Y0213580D01*
X0272553Y0213615D01*
X0272461Y0213648D01*
X0272367Y0213676D01*
X0272272Y0213701D01*
X0272176Y0213722D01*
X0272079Y0213739D01*
X0271982Y0213753D01*
X0271884Y0213762D01*
X0271786Y0213768D01*
X0271688Y0213770D01*
X0239938Y0213770D01*
X0228688Y0213770D02*
X0226688Y0213770D01*
X0226590Y0213768D01*
X0226492Y0213762D01*
X0226394Y0213753D01*
X0226297Y0213739D01*
X0226200Y0213722D01*
X0226104Y0213701D01*
X0226009Y0213676D01*
X0225915Y0213648D01*
X0225823Y0213615D01*
X0225731Y0213580D01*
X0225641Y0213540D01*
X0225553Y0213498D01*
X0225466Y0213451D01*
X0225382Y0213402D01*
X0225299Y0213349D01*
X0225219Y0213293D01*
X0225140Y0213233D01*
X0225064Y0213171D01*
X0224991Y0213106D01*
X0224920Y0213038D01*
X0224852Y0212967D01*
X0224787Y0212894D01*
X0224725Y0212818D01*
X0224665Y0212739D01*
X0224609Y0212659D01*
X0224556Y0212576D01*
X0224507Y0212492D01*
X0224460Y0212405D01*
X0224418Y0212317D01*
X0224378Y0212227D01*
X0224343Y0212135D01*
X0224310Y0212043D01*
X0224282Y0211949D01*
X0224257Y0211854D01*
X0224236Y0211758D01*
X0224219Y0211661D01*
X0224205Y0211564D01*
X0224196Y0211466D01*
X0224190Y0211368D01*
X0224188Y0211270D01*
X0224188Y0199270D01*
X0224190Y0199172D01*
X0224196Y0199074D01*
X0224205Y0198976D01*
X0224219Y0198879D01*
X0224236Y0198782D01*
X0224257Y0198686D01*
X0224282Y0198591D01*
X0224310Y0198497D01*
X0224343Y0198405D01*
X0224378Y0198313D01*
X0224418Y0198223D01*
X0224460Y0198135D01*
X0224507Y0198048D01*
X0224556Y0197964D01*
X0224609Y0197881D01*
X0224665Y0197801D01*
X0224725Y0197722D01*
X0224787Y0197646D01*
X0224852Y0197573D01*
X0224920Y0197502D01*
X0224991Y0197434D01*
X0225064Y0197369D01*
X0225140Y0197307D01*
X0225219Y0197247D01*
X0225299Y0197191D01*
X0225382Y0197138D01*
X0225466Y0197089D01*
X0225553Y0197042D01*
X0225641Y0197000D01*
X0225731Y0196960D01*
X0225823Y0196925D01*
X0225915Y0196892D01*
X0226009Y0196864D01*
X0226104Y0196839D01*
X0226200Y0196818D01*
X0226297Y0196801D01*
X0226394Y0196787D01*
X0226492Y0196778D01*
X0226590Y0196772D01*
X0226688Y0196770D01*
X0172050Y0259583D02*
X0172050Y0384268D01*
X0085436Y0384268D01*
X0085436Y0259583D01*
X0172050Y0259583D01*
X0224188Y0273020D02*
X0224188Y0285020D01*
X0224190Y0285118D01*
X0224196Y0285216D01*
X0224205Y0285314D01*
X0224219Y0285411D01*
X0224236Y0285508D01*
X0224257Y0285604D01*
X0224282Y0285699D01*
X0224310Y0285793D01*
X0224343Y0285885D01*
X0224378Y0285977D01*
X0224418Y0286067D01*
X0224460Y0286155D01*
X0224507Y0286242D01*
X0224556Y0286326D01*
X0224609Y0286409D01*
X0224665Y0286489D01*
X0224725Y0286568D01*
X0224787Y0286644D01*
X0224852Y0286717D01*
X0224920Y0286788D01*
X0224991Y0286856D01*
X0225064Y0286921D01*
X0225140Y0286983D01*
X0225219Y0287043D01*
X0225299Y0287099D01*
X0225382Y0287152D01*
X0225466Y0287201D01*
X0225553Y0287248D01*
X0225641Y0287290D01*
X0225731Y0287330D01*
X0225823Y0287365D01*
X0225915Y0287398D01*
X0226009Y0287426D01*
X0226104Y0287451D01*
X0226200Y0287472D01*
X0226297Y0287489D01*
X0226394Y0287503D01*
X0226492Y0287512D01*
X0226590Y0287518D01*
X0226688Y0287520D01*
X0228688Y0287520D01*
X0239938Y0287520D02*
X0271688Y0287520D01*
X0271786Y0287518D01*
X0271884Y0287512D01*
X0271982Y0287503D01*
X0272079Y0287489D01*
X0272176Y0287472D01*
X0272272Y0287451D01*
X0272367Y0287426D01*
X0272461Y0287398D01*
X0272553Y0287365D01*
X0272645Y0287330D01*
X0272735Y0287290D01*
X0272823Y0287248D01*
X0272910Y0287201D01*
X0272994Y0287152D01*
X0273077Y0287099D01*
X0273157Y0287043D01*
X0273236Y0286983D01*
X0273312Y0286921D01*
X0273385Y0286856D01*
X0273456Y0286788D01*
X0273524Y0286717D01*
X0273589Y0286644D01*
X0273651Y0286568D01*
X0273711Y0286489D01*
X0273767Y0286409D01*
X0273820Y0286326D01*
X0273869Y0286242D01*
X0273916Y0286155D01*
X0273958Y0286067D01*
X0273998Y0285977D01*
X0274033Y0285885D01*
X0274066Y0285793D01*
X0274094Y0285699D01*
X0274119Y0285604D01*
X0274140Y0285508D01*
X0274157Y0285411D01*
X0274171Y0285314D01*
X0274180Y0285216D01*
X0274186Y0285118D01*
X0274188Y0285020D01*
X0274188Y0273020D01*
X0274186Y0272922D01*
X0274180Y0272824D01*
X0274171Y0272726D01*
X0274157Y0272629D01*
X0274140Y0272532D01*
X0274119Y0272436D01*
X0274094Y0272341D01*
X0274066Y0272247D01*
X0274033Y0272155D01*
X0273998Y0272063D01*
X0273958Y0271973D01*
X0273916Y0271885D01*
X0273869Y0271798D01*
X0273820Y0271714D01*
X0273767Y0271631D01*
X0273711Y0271551D01*
X0273651Y0271472D01*
X0273589Y0271396D01*
X0273524Y0271323D01*
X0273456Y0271252D01*
X0273385Y0271184D01*
X0273312Y0271119D01*
X0273236Y0271057D01*
X0273157Y0270997D01*
X0273077Y0270941D01*
X0272994Y0270888D01*
X0272910Y0270839D01*
X0272823Y0270792D01*
X0272735Y0270750D01*
X0272645Y0270710D01*
X0272553Y0270675D01*
X0272461Y0270642D01*
X0272367Y0270614D01*
X0272272Y0270589D01*
X0272176Y0270568D01*
X0272079Y0270551D01*
X0271982Y0270537D01*
X0271884Y0270528D01*
X0271786Y0270522D01*
X0271688Y0270520D01*
X0269688Y0270520D01*
X0258438Y0270520D02*
X0226688Y0270520D01*
X0226590Y0270522D01*
X0226492Y0270528D01*
X0226394Y0270537D01*
X0226297Y0270551D01*
X0226200Y0270568D01*
X0226104Y0270589D01*
X0226009Y0270614D01*
X0225915Y0270642D01*
X0225823Y0270675D01*
X0225731Y0270710D01*
X0225641Y0270750D01*
X0225553Y0270792D01*
X0225466Y0270839D01*
X0225382Y0270888D01*
X0225299Y0270941D01*
X0225219Y0270997D01*
X0225140Y0271057D01*
X0225064Y0271119D01*
X0224991Y0271184D01*
X0224920Y0271252D01*
X0224852Y0271323D01*
X0224787Y0271396D01*
X0224725Y0271472D01*
X0224665Y0271551D01*
X0224609Y0271631D01*
X0224556Y0271714D01*
X0224507Y0271798D01*
X0224460Y0271885D01*
X0224418Y0271973D01*
X0224378Y0272063D01*
X0224343Y0272155D01*
X0224310Y0272247D01*
X0224282Y0272341D01*
X0224257Y0272436D01*
X0224236Y0272532D01*
X0224219Y0272629D01*
X0224205Y0272726D01*
X0224196Y0272824D01*
X0224190Y0272922D01*
X0224188Y0273020D01*
X0340735Y0256457D02*
X0340735Y0248583D01*
X0342188Y0251020D02*
X0343688Y0253270D01*
X0345188Y0251020D01*
X0342188Y0251020D01*
X0342547Y0251558D02*
X0344829Y0251558D01*
X0344430Y0252157D02*
X0342946Y0252157D01*
X0343345Y0252755D02*
X0344031Y0252755D01*
X0346640Y0256457D02*
X0346640Y0248583D01*
X0346640Y0238707D02*
X0346640Y0230833D01*
X0343688Y0234020D02*
X0345188Y0236270D01*
X0342188Y0236270D01*
X0343688Y0234020D01*
X0343567Y0234201D02*
X0343809Y0234201D01*
X0344208Y0234800D02*
X0343168Y0234800D01*
X0342769Y0235398D02*
X0344607Y0235398D01*
X0345006Y0235997D02*
X0342370Y0235997D01*
X0340735Y0238707D02*
X0340735Y0230833D01*
X0364188Y0211020D02*
X0364188Y0199020D01*
X0364190Y0198922D01*
X0364196Y0198824D01*
X0364205Y0198726D01*
X0364219Y0198629D01*
X0364236Y0198532D01*
X0364257Y0198436D01*
X0364282Y0198341D01*
X0364310Y0198247D01*
X0364343Y0198155D01*
X0364378Y0198063D01*
X0364418Y0197973D01*
X0364460Y0197885D01*
X0364507Y0197798D01*
X0364556Y0197714D01*
X0364609Y0197631D01*
X0364665Y0197551D01*
X0364725Y0197472D01*
X0364787Y0197396D01*
X0364852Y0197323D01*
X0364920Y0197252D01*
X0364991Y0197184D01*
X0365064Y0197119D01*
X0365140Y0197057D01*
X0365219Y0196997D01*
X0365299Y0196941D01*
X0365382Y0196888D01*
X0365466Y0196839D01*
X0365553Y0196792D01*
X0365641Y0196750D01*
X0365731Y0196710D01*
X0365823Y0196675D01*
X0365915Y0196642D01*
X0366009Y0196614D01*
X0366104Y0196589D01*
X0366200Y0196568D01*
X0366297Y0196551D01*
X0366394Y0196537D01*
X0366492Y0196528D01*
X0366590Y0196522D01*
X0366688Y0196520D01*
X0398438Y0196520D01*
X0409688Y0196520D02*
X0411688Y0196520D01*
X0411786Y0196522D01*
X0411884Y0196528D01*
X0411982Y0196537D01*
X0412079Y0196551D01*
X0412176Y0196568D01*
X0412272Y0196589D01*
X0412367Y0196614D01*
X0412461Y0196642D01*
X0412553Y0196675D01*
X0412645Y0196710D01*
X0412735Y0196750D01*
X0412823Y0196792D01*
X0412910Y0196839D01*
X0412994Y0196888D01*
X0413077Y0196941D01*
X0413157Y0196997D01*
X0413236Y0197057D01*
X0413312Y0197119D01*
X0413385Y0197184D01*
X0413456Y0197252D01*
X0413524Y0197323D01*
X0413589Y0197396D01*
X0413651Y0197472D01*
X0413711Y0197551D01*
X0413767Y0197631D01*
X0413820Y0197714D01*
X0413869Y0197798D01*
X0413916Y0197885D01*
X0413958Y0197973D01*
X0413998Y0198063D01*
X0414033Y0198155D01*
X0414066Y0198247D01*
X0414094Y0198341D01*
X0414119Y0198436D01*
X0414140Y0198532D01*
X0414157Y0198629D01*
X0414171Y0198726D01*
X0414180Y0198824D01*
X0414186Y0198922D01*
X0414188Y0199020D01*
X0414188Y0211020D01*
X0414186Y0211118D01*
X0414180Y0211216D01*
X0414171Y0211314D01*
X0414157Y0211411D01*
X0414140Y0211508D01*
X0414119Y0211604D01*
X0414094Y0211699D01*
X0414066Y0211793D01*
X0414033Y0211885D01*
X0413998Y0211977D01*
X0413958Y0212067D01*
X0413916Y0212155D01*
X0413869Y0212242D01*
X0413820Y0212326D01*
X0413767Y0212409D01*
X0413711Y0212489D01*
X0413651Y0212568D01*
X0413589Y0212644D01*
X0413524Y0212717D01*
X0413456Y0212788D01*
X0413385Y0212856D01*
X0413312Y0212921D01*
X0413236Y0212983D01*
X0413157Y0213043D01*
X0413077Y0213099D01*
X0412994Y0213152D01*
X0412910Y0213201D01*
X0412823Y0213248D01*
X0412735Y0213290D01*
X0412645Y0213330D01*
X0412553Y0213365D01*
X0412461Y0213398D01*
X0412367Y0213426D01*
X0412272Y0213451D01*
X0412176Y0213472D01*
X0412079Y0213489D01*
X0411982Y0213503D01*
X0411884Y0213512D01*
X0411786Y0213518D01*
X0411688Y0213520D01*
X0379938Y0213520D01*
X0368688Y0213520D02*
X0366688Y0213520D01*
X0366590Y0213518D01*
X0366492Y0213512D01*
X0366394Y0213503D01*
X0366297Y0213489D01*
X0366200Y0213472D01*
X0366104Y0213451D01*
X0366009Y0213426D01*
X0365915Y0213398D01*
X0365823Y0213365D01*
X0365731Y0213330D01*
X0365641Y0213290D01*
X0365553Y0213248D01*
X0365466Y0213201D01*
X0365382Y0213152D01*
X0365299Y0213099D01*
X0365219Y0213043D01*
X0365140Y0212983D01*
X0365064Y0212921D01*
X0364991Y0212856D01*
X0364920Y0212788D01*
X0364852Y0212717D01*
X0364787Y0212644D01*
X0364725Y0212568D01*
X0364665Y0212489D01*
X0364609Y0212409D01*
X0364556Y0212326D01*
X0364507Y0212242D01*
X0364460Y0212155D01*
X0364418Y0212067D01*
X0364378Y0211977D01*
X0364343Y0211885D01*
X0364310Y0211793D01*
X0364282Y0211699D01*
X0364257Y0211604D01*
X0364236Y0211508D01*
X0364219Y0211411D01*
X0364205Y0211314D01*
X0364196Y0211216D01*
X0364190Y0211118D01*
X0364188Y0211020D01*
X0366688Y0270520D02*
X0398438Y0270520D01*
X0409688Y0270520D02*
X0411688Y0270520D01*
X0411786Y0270522D01*
X0411884Y0270528D01*
X0411982Y0270537D01*
X0412079Y0270551D01*
X0412176Y0270568D01*
X0412272Y0270589D01*
X0412367Y0270614D01*
X0412461Y0270642D01*
X0412553Y0270675D01*
X0412645Y0270710D01*
X0412735Y0270750D01*
X0412823Y0270792D01*
X0412910Y0270839D01*
X0412994Y0270888D01*
X0413077Y0270941D01*
X0413157Y0270997D01*
X0413236Y0271057D01*
X0413312Y0271119D01*
X0413385Y0271184D01*
X0413456Y0271252D01*
X0413524Y0271323D01*
X0413589Y0271396D01*
X0413651Y0271472D01*
X0413711Y0271551D01*
X0413767Y0271631D01*
X0413820Y0271714D01*
X0413869Y0271798D01*
X0413916Y0271885D01*
X0413958Y0271973D01*
X0413998Y0272063D01*
X0414033Y0272155D01*
X0414066Y0272247D01*
X0414094Y0272341D01*
X0414119Y0272436D01*
X0414140Y0272532D01*
X0414157Y0272629D01*
X0414171Y0272726D01*
X0414180Y0272824D01*
X0414186Y0272922D01*
X0414188Y0273020D01*
X0414188Y0285020D01*
X0414186Y0285118D01*
X0414180Y0285216D01*
X0414171Y0285314D01*
X0414157Y0285411D01*
X0414140Y0285508D01*
X0414119Y0285604D01*
X0414094Y0285699D01*
X0414066Y0285793D01*
X0414033Y0285885D01*
X0413998Y0285977D01*
X0413958Y0286067D01*
X0413916Y0286155D01*
X0413869Y0286242D01*
X0413820Y0286326D01*
X0413767Y0286409D01*
X0413711Y0286489D01*
X0413651Y0286568D01*
X0413589Y0286644D01*
X0413524Y0286717D01*
X0413456Y0286788D01*
X0413385Y0286856D01*
X0413312Y0286921D01*
X0413236Y0286983D01*
X0413157Y0287043D01*
X0413077Y0287099D01*
X0412994Y0287152D01*
X0412910Y0287201D01*
X0412823Y0287248D01*
X0412735Y0287290D01*
X0412645Y0287330D01*
X0412553Y0287365D01*
X0412461Y0287398D01*
X0412367Y0287426D01*
X0412272Y0287451D01*
X0412176Y0287472D01*
X0412079Y0287489D01*
X0411982Y0287503D01*
X0411884Y0287512D01*
X0411786Y0287518D01*
X0411688Y0287520D01*
X0379938Y0287520D01*
X0368688Y0287520D02*
X0366688Y0287520D01*
X0366590Y0287518D01*
X0366492Y0287512D01*
X0366394Y0287503D01*
X0366297Y0287489D01*
X0366200Y0287472D01*
X0366104Y0287451D01*
X0366009Y0287426D01*
X0365915Y0287398D01*
X0365823Y0287365D01*
X0365731Y0287330D01*
X0365641Y0287290D01*
X0365553Y0287248D01*
X0365466Y0287201D01*
X0365382Y0287152D01*
X0365299Y0287099D01*
X0365219Y0287043D01*
X0365140Y0286983D01*
X0365064Y0286921D01*
X0364991Y0286856D01*
X0364920Y0286788D01*
X0364852Y0286717D01*
X0364787Y0286644D01*
X0364725Y0286568D01*
X0364665Y0286489D01*
X0364609Y0286409D01*
X0364556Y0286326D01*
X0364507Y0286242D01*
X0364460Y0286155D01*
X0364418Y0286067D01*
X0364378Y0285977D01*
X0364343Y0285885D01*
X0364310Y0285793D01*
X0364282Y0285699D01*
X0364257Y0285604D01*
X0364236Y0285508D01*
X0364219Y0285411D01*
X0364205Y0285314D01*
X0364196Y0285216D01*
X0364190Y0285118D01*
X0364188Y0285020D01*
X0364188Y0273020D01*
X0364190Y0272922D01*
X0364196Y0272824D01*
X0364205Y0272726D01*
X0364219Y0272629D01*
X0364236Y0272532D01*
X0364257Y0272436D01*
X0364282Y0272341D01*
X0364310Y0272247D01*
X0364343Y0272155D01*
X0364378Y0272063D01*
X0364418Y0271973D01*
X0364460Y0271885D01*
X0364507Y0271798D01*
X0364556Y0271714D01*
X0364609Y0271631D01*
X0364665Y0271551D01*
X0364725Y0271472D01*
X0364787Y0271396D01*
X0364852Y0271323D01*
X0364920Y0271252D01*
X0364991Y0271184D01*
X0365064Y0271119D01*
X0365140Y0271057D01*
X0365219Y0270997D01*
X0365299Y0270941D01*
X0365382Y0270888D01*
X0365466Y0270839D01*
X0365553Y0270792D01*
X0365641Y0270750D01*
X0365731Y0270710D01*
X0365823Y0270675D01*
X0365915Y0270642D01*
X0366009Y0270614D01*
X0366104Y0270589D01*
X0366200Y0270568D01*
X0366297Y0270551D01*
X0366394Y0270537D01*
X0366492Y0270528D01*
X0366590Y0270522D01*
X0366688Y0270520D01*
X0366688Y0336520D02*
X0398438Y0336520D01*
X0409688Y0336520D02*
X0411688Y0336520D01*
X0411786Y0336522D01*
X0411884Y0336528D01*
X0411982Y0336537D01*
X0412079Y0336551D01*
X0412176Y0336568D01*
X0412272Y0336589D01*
X0412367Y0336614D01*
X0412461Y0336642D01*
X0412553Y0336675D01*
X0412645Y0336710D01*
X0412735Y0336750D01*
X0412823Y0336792D01*
X0412910Y0336839D01*
X0412994Y0336888D01*
X0413077Y0336941D01*
X0413157Y0336997D01*
X0413236Y0337057D01*
X0413312Y0337119D01*
X0413385Y0337184D01*
X0413456Y0337252D01*
X0413524Y0337323D01*
X0413589Y0337396D01*
X0413651Y0337472D01*
X0413711Y0337551D01*
X0413767Y0337631D01*
X0413820Y0337714D01*
X0413869Y0337798D01*
X0413916Y0337885D01*
X0413958Y0337973D01*
X0413998Y0338063D01*
X0414033Y0338155D01*
X0414066Y0338247D01*
X0414094Y0338341D01*
X0414119Y0338436D01*
X0414140Y0338532D01*
X0414157Y0338629D01*
X0414171Y0338726D01*
X0414180Y0338824D01*
X0414186Y0338922D01*
X0414188Y0339020D01*
X0414188Y0351020D01*
X0414186Y0351118D01*
X0414180Y0351216D01*
X0414171Y0351314D01*
X0414157Y0351411D01*
X0414140Y0351508D01*
X0414119Y0351604D01*
X0414094Y0351699D01*
X0414066Y0351793D01*
X0414033Y0351885D01*
X0413998Y0351977D01*
X0413958Y0352067D01*
X0413916Y0352155D01*
X0413869Y0352242D01*
X0413820Y0352326D01*
X0413767Y0352409D01*
X0413711Y0352489D01*
X0413651Y0352568D01*
X0413589Y0352644D01*
X0413524Y0352717D01*
X0413456Y0352788D01*
X0413385Y0352856D01*
X0413312Y0352921D01*
X0413236Y0352983D01*
X0413157Y0353043D01*
X0413077Y0353099D01*
X0412994Y0353152D01*
X0412910Y0353201D01*
X0412823Y0353248D01*
X0412735Y0353290D01*
X0412645Y0353330D01*
X0412553Y0353365D01*
X0412461Y0353398D01*
X0412367Y0353426D01*
X0412272Y0353451D01*
X0412176Y0353472D01*
X0412079Y0353489D01*
X0411982Y0353503D01*
X0411884Y0353512D01*
X0411786Y0353518D01*
X0411688Y0353520D01*
X0379938Y0353520D01*
X0368688Y0353520D02*
X0366688Y0353520D01*
X0366590Y0353518D01*
X0366492Y0353512D01*
X0366394Y0353503D01*
X0366297Y0353489D01*
X0366200Y0353472D01*
X0366104Y0353451D01*
X0366009Y0353426D01*
X0365915Y0353398D01*
X0365823Y0353365D01*
X0365731Y0353330D01*
X0365641Y0353290D01*
X0365553Y0353248D01*
X0365466Y0353201D01*
X0365382Y0353152D01*
X0365299Y0353099D01*
X0365219Y0353043D01*
X0365140Y0352983D01*
X0365064Y0352921D01*
X0364991Y0352856D01*
X0364920Y0352788D01*
X0364852Y0352717D01*
X0364787Y0352644D01*
X0364725Y0352568D01*
X0364665Y0352489D01*
X0364609Y0352409D01*
X0364556Y0352326D01*
X0364507Y0352242D01*
X0364460Y0352155D01*
X0364418Y0352067D01*
X0364378Y0351977D01*
X0364343Y0351885D01*
X0364310Y0351793D01*
X0364282Y0351699D01*
X0364257Y0351604D01*
X0364236Y0351508D01*
X0364219Y0351411D01*
X0364205Y0351314D01*
X0364196Y0351216D01*
X0364190Y0351118D01*
X0364188Y0351020D01*
X0364188Y0339020D01*
X0364190Y0338922D01*
X0364196Y0338824D01*
X0364205Y0338726D01*
X0364219Y0338629D01*
X0364236Y0338532D01*
X0364257Y0338436D01*
X0364282Y0338341D01*
X0364310Y0338247D01*
X0364343Y0338155D01*
X0364378Y0338063D01*
X0364418Y0337973D01*
X0364460Y0337885D01*
X0364507Y0337798D01*
X0364556Y0337714D01*
X0364609Y0337631D01*
X0364665Y0337551D01*
X0364725Y0337472D01*
X0364787Y0337396D01*
X0364852Y0337323D01*
X0364920Y0337252D01*
X0364991Y0337184D01*
X0365064Y0337119D01*
X0365140Y0337057D01*
X0365219Y0336997D01*
X0365299Y0336941D01*
X0365382Y0336888D01*
X0365466Y0336839D01*
X0365553Y0336792D01*
X0365641Y0336750D01*
X0365731Y0336710D01*
X0365823Y0336675D01*
X0365915Y0336642D01*
X0366009Y0336614D01*
X0366104Y0336589D01*
X0366200Y0336568D01*
X0366297Y0336551D01*
X0366394Y0336537D01*
X0366492Y0336528D01*
X0366590Y0336522D01*
X0366688Y0336520D01*
X0346640Y0369583D02*
X0346640Y0377457D01*
X0345188Y0375020D02*
X0343688Y0372770D01*
X0342188Y0375020D01*
X0345188Y0375020D01*
X0345076Y0374852D02*
X0342300Y0374852D01*
X0342699Y0374253D02*
X0344677Y0374253D01*
X0344278Y0373655D02*
X0343098Y0373655D01*
X0343497Y0373056D02*
X0343879Y0373056D01*
X0340735Y0369583D02*
X0340735Y0377457D01*
X0340735Y0387083D02*
X0340735Y0394957D01*
X0343688Y0391770D02*
X0342188Y0389520D01*
X0345188Y0389520D01*
X0343688Y0391770D01*
X0343794Y0391610D02*
X0343581Y0391610D01*
X0343182Y0391011D02*
X0344193Y0391011D01*
X0344592Y0390413D02*
X0342783Y0390413D01*
X0342384Y0389814D02*
X0344991Y0389814D01*
X0346640Y0387083D02*
X0346640Y0394957D01*
X0327988Y0409620D02*
X0327988Y0413120D01*
X0327988Y0409620D02*
X0324788Y0409620D01*
X0322388Y0413920D02*
X0322388Y0417120D01*
X0324788Y0421420D02*
X0326388Y0421420D01*
X0327988Y0421420D01*
X0327988Y0417920D01*
X0325088Y0420219D02*
X0325156Y0420215D01*
X0325225Y0420216D01*
X0325293Y0420220D01*
X0325361Y0420228D01*
X0325429Y0420239D01*
X0325496Y0420255D01*
X0325562Y0420275D01*
X0325626Y0420298D01*
X0325689Y0420325D01*
X0325751Y0420355D01*
X0325810Y0420389D01*
X0325868Y0420426D01*
X0325923Y0420467D01*
X0325976Y0420510D01*
X0326027Y0420557D01*
X0326074Y0420606D01*
X0326119Y0420658D01*
X0326161Y0420713D01*
X0326200Y0420769D01*
X0326235Y0420828D01*
X0326267Y0420889D01*
X0326295Y0420951D01*
X0326320Y0421016D01*
X0326341Y0421081D01*
X0326358Y0421147D01*
X0326371Y0421215D01*
X0326381Y0421282D01*
X0326386Y0421351D01*
X0326388Y0421419D01*
X0364188Y0423520D02*
X0364188Y0411520D01*
X0364190Y0411422D01*
X0364196Y0411324D01*
X0364205Y0411226D01*
X0364219Y0411129D01*
X0364236Y0411032D01*
X0364257Y0410936D01*
X0364282Y0410841D01*
X0364310Y0410747D01*
X0364343Y0410655D01*
X0364378Y0410563D01*
X0364418Y0410473D01*
X0364460Y0410385D01*
X0364507Y0410298D01*
X0364556Y0410214D01*
X0364609Y0410131D01*
X0364665Y0410051D01*
X0364725Y0409972D01*
X0364787Y0409896D01*
X0364852Y0409823D01*
X0364920Y0409752D01*
X0364991Y0409684D01*
X0365064Y0409619D01*
X0365140Y0409557D01*
X0365219Y0409497D01*
X0365299Y0409441D01*
X0365382Y0409388D01*
X0365466Y0409339D01*
X0365553Y0409292D01*
X0365641Y0409250D01*
X0365731Y0409210D01*
X0365823Y0409175D01*
X0365915Y0409142D01*
X0366009Y0409114D01*
X0366104Y0409089D01*
X0366200Y0409068D01*
X0366297Y0409051D01*
X0366394Y0409037D01*
X0366492Y0409028D01*
X0366590Y0409022D01*
X0366688Y0409020D01*
X0398438Y0409020D01*
X0409688Y0409020D02*
X0411688Y0409020D01*
X0411786Y0409022D01*
X0411884Y0409028D01*
X0411982Y0409037D01*
X0412079Y0409051D01*
X0412176Y0409068D01*
X0412272Y0409089D01*
X0412367Y0409114D01*
X0412461Y0409142D01*
X0412553Y0409175D01*
X0412645Y0409210D01*
X0412735Y0409250D01*
X0412823Y0409292D01*
X0412910Y0409339D01*
X0412994Y0409388D01*
X0413077Y0409441D01*
X0413157Y0409497D01*
X0413236Y0409557D01*
X0413312Y0409619D01*
X0413385Y0409684D01*
X0413456Y0409752D01*
X0413524Y0409823D01*
X0413589Y0409896D01*
X0413651Y0409972D01*
X0413711Y0410051D01*
X0413767Y0410131D01*
X0413820Y0410214D01*
X0413869Y0410298D01*
X0413916Y0410385D01*
X0413958Y0410473D01*
X0413998Y0410563D01*
X0414033Y0410655D01*
X0414066Y0410747D01*
X0414094Y0410841D01*
X0414119Y0410936D01*
X0414140Y0411032D01*
X0414157Y0411129D01*
X0414171Y0411226D01*
X0414180Y0411324D01*
X0414186Y0411422D01*
X0414188Y0411520D01*
X0414188Y0423520D01*
X0414186Y0423618D01*
X0414180Y0423716D01*
X0414171Y0423814D01*
X0414157Y0423911D01*
X0414140Y0424008D01*
X0414119Y0424104D01*
X0414094Y0424199D01*
X0414066Y0424293D01*
X0414033Y0424385D01*
X0413998Y0424477D01*
X0413958Y0424567D01*
X0413916Y0424655D01*
X0413869Y0424742D01*
X0413820Y0424826D01*
X0413767Y0424909D01*
X0413711Y0424989D01*
X0413651Y0425068D01*
X0413589Y0425144D01*
X0413524Y0425217D01*
X0413456Y0425288D01*
X0413385Y0425356D01*
X0413312Y0425421D01*
X0413236Y0425483D01*
X0413157Y0425543D01*
X0413077Y0425599D01*
X0412994Y0425652D01*
X0412910Y0425701D01*
X0412823Y0425748D01*
X0412735Y0425790D01*
X0412645Y0425830D01*
X0412553Y0425865D01*
X0412461Y0425898D01*
X0412367Y0425926D01*
X0412272Y0425951D01*
X0412176Y0425972D01*
X0412079Y0425989D01*
X0411982Y0426003D01*
X0411884Y0426012D01*
X0411786Y0426018D01*
X0411688Y0426020D01*
X0379938Y0426020D01*
X0368688Y0426020D02*
X0366688Y0426020D01*
X0366590Y0426018D01*
X0366492Y0426012D01*
X0366394Y0426003D01*
X0366297Y0425989D01*
X0366200Y0425972D01*
X0366104Y0425951D01*
X0366009Y0425926D01*
X0365915Y0425898D01*
X0365823Y0425865D01*
X0365731Y0425830D01*
X0365641Y0425790D01*
X0365553Y0425748D01*
X0365466Y0425701D01*
X0365382Y0425652D01*
X0365299Y0425599D01*
X0365219Y0425543D01*
X0365140Y0425483D01*
X0365064Y0425421D01*
X0364991Y0425356D01*
X0364920Y0425288D01*
X0364852Y0425217D01*
X0364787Y0425144D01*
X0364725Y0425068D01*
X0364665Y0424989D01*
X0364609Y0424909D01*
X0364556Y0424826D01*
X0364507Y0424742D01*
X0364460Y0424655D01*
X0364418Y0424567D01*
X0364378Y0424477D01*
X0364343Y0424385D01*
X0364310Y0424293D01*
X0364282Y0424199D01*
X0364257Y0424104D01*
X0364236Y0424008D01*
X0364219Y0423911D01*
X0364205Y0423814D01*
X0364196Y0423716D01*
X0364190Y0423618D01*
X0364188Y0423520D01*
X0274188Y0423520D02*
X0274188Y0411520D01*
X0274186Y0411422D01*
X0274180Y0411324D01*
X0274171Y0411226D01*
X0274157Y0411129D01*
X0274140Y0411032D01*
X0274119Y0410936D01*
X0274094Y0410841D01*
X0274066Y0410747D01*
X0274033Y0410655D01*
X0273998Y0410563D01*
X0273958Y0410473D01*
X0273916Y0410385D01*
X0273869Y0410298D01*
X0273820Y0410214D01*
X0273767Y0410131D01*
X0273711Y0410051D01*
X0273651Y0409972D01*
X0273589Y0409896D01*
X0273524Y0409823D01*
X0273456Y0409752D01*
X0273385Y0409684D01*
X0273312Y0409619D01*
X0273236Y0409557D01*
X0273157Y0409497D01*
X0273077Y0409441D01*
X0272994Y0409388D01*
X0272910Y0409339D01*
X0272823Y0409292D01*
X0272735Y0409250D01*
X0272645Y0409210D01*
X0272553Y0409175D01*
X0272461Y0409142D01*
X0272367Y0409114D01*
X0272272Y0409089D01*
X0272176Y0409068D01*
X0272079Y0409051D01*
X0271982Y0409037D01*
X0271884Y0409028D01*
X0271786Y0409022D01*
X0271688Y0409020D01*
X0269688Y0409020D01*
X0258438Y0409020D02*
X0226688Y0409020D01*
X0226590Y0409022D01*
X0226492Y0409028D01*
X0226394Y0409037D01*
X0226297Y0409051D01*
X0226200Y0409068D01*
X0226104Y0409089D01*
X0226009Y0409114D01*
X0225915Y0409142D01*
X0225823Y0409175D01*
X0225731Y0409210D01*
X0225641Y0409250D01*
X0225553Y0409292D01*
X0225466Y0409339D01*
X0225382Y0409388D01*
X0225299Y0409441D01*
X0225219Y0409497D01*
X0225140Y0409557D01*
X0225064Y0409619D01*
X0224991Y0409684D01*
X0224920Y0409752D01*
X0224852Y0409823D01*
X0224787Y0409896D01*
X0224725Y0409972D01*
X0224665Y0410051D01*
X0224609Y0410131D01*
X0224556Y0410214D01*
X0224507Y0410298D01*
X0224460Y0410385D01*
X0224418Y0410473D01*
X0224378Y0410563D01*
X0224343Y0410655D01*
X0224310Y0410747D01*
X0224282Y0410841D01*
X0224257Y0410936D01*
X0224236Y0411032D01*
X0224219Y0411129D01*
X0224205Y0411226D01*
X0224196Y0411324D01*
X0224190Y0411422D01*
X0224188Y0411520D01*
X0224188Y0423520D01*
X0224190Y0423618D01*
X0224196Y0423716D01*
X0224205Y0423814D01*
X0224219Y0423911D01*
X0224236Y0424008D01*
X0224257Y0424104D01*
X0224282Y0424199D01*
X0224310Y0424293D01*
X0224343Y0424385D01*
X0224378Y0424477D01*
X0224418Y0424567D01*
X0224460Y0424655D01*
X0224507Y0424742D01*
X0224556Y0424826D01*
X0224609Y0424909D01*
X0224665Y0424989D01*
X0224725Y0425068D01*
X0224787Y0425144D01*
X0224852Y0425217D01*
X0224920Y0425288D01*
X0224991Y0425356D01*
X0225064Y0425421D01*
X0225140Y0425483D01*
X0225219Y0425543D01*
X0225299Y0425599D01*
X0225382Y0425652D01*
X0225466Y0425701D01*
X0225553Y0425748D01*
X0225641Y0425790D01*
X0225731Y0425830D01*
X0225823Y0425865D01*
X0225915Y0425898D01*
X0226009Y0425926D01*
X0226104Y0425951D01*
X0226200Y0425972D01*
X0226297Y0425989D01*
X0226394Y0426003D01*
X0226492Y0426012D01*
X0226590Y0426018D01*
X0226688Y0426020D01*
X0228688Y0426020D01*
X0239938Y0426020D02*
X0271688Y0426020D01*
X0271786Y0426018D01*
X0271884Y0426012D01*
X0271982Y0426003D01*
X0272079Y0425989D01*
X0272176Y0425972D01*
X0272272Y0425951D01*
X0272367Y0425926D01*
X0272461Y0425898D01*
X0272553Y0425865D01*
X0272645Y0425830D01*
X0272735Y0425790D01*
X0272823Y0425748D01*
X0272910Y0425701D01*
X0272994Y0425652D01*
X0273077Y0425599D01*
X0273157Y0425543D01*
X0273236Y0425483D01*
X0273312Y0425421D01*
X0273385Y0425356D01*
X0273456Y0425288D01*
X0273524Y0425217D01*
X0273589Y0425144D01*
X0273651Y0425068D01*
X0273711Y0424989D01*
X0273767Y0424909D01*
X0273820Y0424826D01*
X0273869Y0424742D01*
X0273916Y0424655D01*
X0273958Y0424567D01*
X0273998Y0424477D01*
X0274033Y0424385D01*
X0274066Y0424293D01*
X0274094Y0424199D01*
X0274119Y0424104D01*
X0274140Y0424008D01*
X0274157Y0423911D01*
X0274171Y0423814D01*
X0274180Y0423716D01*
X0274186Y0423618D01*
X0274188Y0423520D01*
X0171955Y0390744D02*
X0171955Y0389677D01*
X0170888Y0388609D01*
X0171955Y0387541D01*
X0171955Y0386474D01*
X0170888Y0385406D01*
X0168753Y0385406D01*
X0167685Y0386474D01*
X0165510Y0385406D02*
X0161240Y0391812D01*
X0165510Y0391812D02*
X0161240Y0385406D01*
X0167685Y0390744D02*
X0168753Y0391812D01*
X0170888Y0391812D01*
X0171955Y0390744D01*
X0170888Y0388609D02*
X0169820Y0388609D01*
X0462388Y0413920D02*
X0462388Y0417120D01*
X0464788Y0421420D02*
X0466388Y0421420D01*
X0467988Y0421420D01*
X0467988Y0417920D01*
X0465088Y0420219D02*
X0465156Y0420215D01*
X0465225Y0420216D01*
X0465293Y0420220D01*
X0465361Y0420228D01*
X0465429Y0420239D01*
X0465496Y0420255D01*
X0465562Y0420275D01*
X0465626Y0420298D01*
X0465689Y0420325D01*
X0465751Y0420355D01*
X0465810Y0420389D01*
X0465868Y0420426D01*
X0465923Y0420467D01*
X0465976Y0420510D01*
X0466027Y0420557D01*
X0466074Y0420606D01*
X0466119Y0420658D01*
X0466161Y0420713D01*
X0466200Y0420769D01*
X0466235Y0420828D01*
X0466267Y0420889D01*
X0466295Y0420951D01*
X0466320Y0421016D01*
X0466341Y0421081D01*
X0466358Y0421147D01*
X0466371Y0421215D01*
X0466381Y0421282D01*
X0466386Y0421351D01*
X0466388Y0421419D01*
X0467988Y0413120D02*
X0467988Y0409620D01*
X0464788Y0409620D01*
X0480735Y0394957D02*
X0480735Y0387083D01*
X0482188Y0389520D02*
X0483688Y0391770D01*
X0485188Y0389520D01*
X0482188Y0389520D01*
X0482384Y0389814D02*
X0484991Y0389814D01*
X0484592Y0390413D02*
X0482783Y0390413D01*
X0483182Y0391011D02*
X0484193Y0391011D01*
X0483794Y0391610D02*
X0483581Y0391610D01*
X0486640Y0394957D02*
X0486640Y0387083D01*
X0486640Y0377457D02*
X0486640Y0369583D01*
X0483688Y0372770D02*
X0485188Y0375020D01*
X0482188Y0375020D01*
X0483688Y0372770D01*
X0483497Y0373056D02*
X0483879Y0373056D01*
X0484278Y0373655D02*
X0483098Y0373655D01*
X0482699Y0374253D02*
X0484677Y0374253D01*
X0485076Y0374852D02*
X0482300Y0374852D01*
X0480735Y0377457D02*
X0480735Y0369583D01*
X0504188Y0351020D02*
X0504188Y0339020D01*
X0504190Y0338922D01*
X0504196Y0338824D01*
X0504205Y0338726D01*
X0504219Y0338629D01*
X0504236Y0338532D01*
X0504257Y0338436D01*
X0504282Y0338341D01*
X0504310Y0338247D01*
X0504343Y0338155D01*
X0504378Y0338063D01*
X0504418Y0337973D01*
X0504460Y0337885D01*
X0504507Y0337798D01*
X0504556Y0337714D01*
X0504609Y0337631D01*
X0504665Y0337551D01*
X0504725Y0337472D01*
X0504787Y0337396D01*
X0504852Y0337323D01*
X0504920Y0337252D01*
X0504991Y0337184D01*
X0505064Y0337119D01*
X0505140Y0337057D01*
X0505219Y0336997D01*
X0505299Y0336941D01*
X0505382Y0336888D01*
X0505466Y0336839D01*
X0505553Y0336792D01*
X0505641Y0336750D01*
X0505731Y0336710D01*
X0505823Y0336675D01*
X0505915Y0336642D01*
X0506009Y0336614D01*
X0506104Y0336589D01*
X0506200Y0336568D01*
X0506297Y0336551D01*
X0506394Y0336537D01*
X0506492Y0336528D01*
X0506590Y0336522D01*
X0506688Y0336520D01*
X0538438Y0336520D01*
X0549688Y0336520D02*
X0551688Y0336520D01*
X0551786Y0336522D01*
X0551884Y0336528D01*
X0551982Y0336537D01*
X0552079Y0336551D01*
X0552176Y0336568D01*
X0552272Y0336589D01*
X0552367Y0336614D01*
X0552461Y0336642D01*
X0552553Y0336675D01*
X0552645Y0336710D01*
X0552735Y0336750D01*
X0552823Y0336792D01*
X0552910Y0336839D01*
X0552994Y0336888D01*
X0553077Y0336941D01*
X0553157Y0336997D01*
X0553236Y0337057D01*
X0553312Y0337119D01*
X0553385Y0337184D01*
X0553456Y0337252D01*
X0553524Y0337323D01*
X0553589Y0337396D01*
X0553651Y0337472D01*
X0553711Y0337551D01*
X0553767Y0337631D01*
X0553820Y0337714D01*
X0553869Y0337798D01*
X0553916Y0337885D01*
X0553958Y0337973D01*
X0553998Y0338063D01*
X0554033Y0338155D01*
X0554066Y0338247D01*
X0554094Y0338341D01*
X0554119Y0338436D01*
X0554140Y0338532D01*
X0554157Y0338629D01*
X0554171Y0338726D01*
X0554180Y0338824D01*
X0554186Y0338922D01*
X0554188Y0339020D01*
X0554188Y0351020D01*
X0554186Y0351118D01*
X0554180Y0351216D01*
X0554171Y0351314D01*
X0554157Y0351411D01*
X0554140Y0351508D01*
X0554119Y0351604D01*
X0554094Y0351699D01*
X0554066Y0351793D01*
X0554033Y0351885D01*
X0553998Y0351977D01*
X0553958Y0352067D01*
X0553916Y0352155D01*
X0553869Y0352242D01*
X0553820Y0352326D01*
X0553767Y0352409D01*
X0553711Y0352489D01*
X0553651Y0352568D01*
X0553589Y0352644D01*
X0553524Y0352717D01*
X0553456Y0352788D01*
X0553385Y0352856D01*
X0553312Y0352921D01*
X0553236Y0352983D01*
X0553157Y0353043D01*
X0553077Y0353099D01*
X0552994Y0353152D01*
X0552910Y0353201D01*
X0552823Y0353248D01*
X0552735Y0353290D01*
X0552645Y0353330D01*
X0552553Y0353365D01*
X0552461Y0353398D01*
X0552367Y0353426D01*
X0552272Y0353451D01*
X0552176Y0353472D01*
X0552079Y0353489D01*
X0551982Y0353503D01*
X0551884Y0353512D01*
X0551786Y0353518D01*
X0551688Y0353520D01*
X0519938Y0353520D01*
X0508688Y0353520D02*
X0506688Y0353520D01*
X0506590Y0353518D01*
X0506492Y0353512D01*
X0506394Y0353503D01*
X0506297Y0353489D01*
X0506200Y0353472D01*
X0506104Y0353451D01*
X0506009Y0353426D01*
X0505915Y0353398D01*
X0505823Y0353365D01*
X0505731Y0353330D01*
X0505641Y0353290D01*
X0505553Y0353248D01*
X0505466Y0353201D01*
X0505382Y0353152D01*
X0505299Y0353099D01*
X0505219Y0353043D01*
X0505140Y0352983D01*
X0505064Y0352921D01*
X0504991Y0352856D01*
X0504920Y0352788D01*
X0504852Y0352717D01*
X0504787Y0352644D01*
X0504725Y0352568D01*
X0504665Y0352489D01*
X0504609Y0352409D01*
X0504556Y0352326D01*
X0504507Y0352242D01*
X0504460Y0352155D01*
X0504418Y0352067D01*
X0504378Y0351977D01*
X0504343Y0351885D01*
X0504310Y0351793D01*
X0504282Y0351699D01*
X0504257Y0351604D01*
X0504236Y0351508D01*
X0504219Y0351411D01*
X0504205Y0351314D01*
X0504196Y0351216D01*
X0504190Y0351118D01*
X0504188Y0351020D01*
X0506688Y0409020D02*
X0538438Y0409020D01*
X0549688Y0409020D02*
X0551688Y0409020D01*
X0551786Y0409022D01*
X0551884Y0409028D01*
X0551982Y0409037D01*
X0552079Y0409051D01*
X0552176Y0409068D01*
X0552272Y0409089D01*
X0552367Y0409114D01*
X0552461Y0409142D01*
X0552553Y0409175D01*
X0552645Y0409210D01*
X0552735Y0409250D01*
X0552823Y0409292D01*
X0552910Y0409339D01*
X0552994Y0409388D01*
X0553077Y0409441D01*
X0553157Y0409497D01*
X0553236Y0409557D01*
X0553312Y0409619D01*
X0553385Y0409684D01*
X0553456Y0409752D01*
X0553524Y0409823D01*
X0553589Y0409896D01*
X0553651Y0409972D01*
X0553711Y0410051D01*
X0553767Y0410131D01*
X0553820Y0410214D01*
X0553869Y0410298D01*
X0553916Y0410385D01*
X0553958Y0410473D01*
X0553998Y0410563D01*
X0554033Y0410655D01*
X0554066Y0410747D01*
X0554094Y0410841D01*
X0554119Y0410936D01*
X0554140Y0411032D01*
X0554157Y0411129D01*
X0554171Y0411226D01*
X0554180Y0411324D01*
X0554186Y0411422D01*
X0554188Y0411520D01*
X0554188Y0423520D01*
X0554186Y0423618D01*
X0554180Y0423716D01*
X0554171Y0423814D01*
X0554157Y0423911D01*
X0554140Y0424008D01*
X0554119Y0424104D01*
X0554094Y0424199D01*
X0554066Y0424293D01*
X0554033Y0424385D01*
X0553998Y0424477D01*
X0553958Y0424567D01*
X0553916Y0424655D01*
X0553869Y0424742D01*
X0553820Y0424826D01*
X0553767Y0424909D01*
X0553711Y0424989D01*
X0553651Y0425068D01*
X0553589Y0425144D01*
X0553524Y0425217D01*
X0553456Y0425288D01*
X0553385Y0425356D01*
X0553312Y0425421D01*
X0553236Y0425483D01*
X0553157Y0425543D01*
X0553077Y0425599D01*
X0552994Y0425652D01*
X0552910Y0425701D01*
X0552823Y0425748D01*
X0552735Y0425790D01*
X0552645Y0425830D01*
X0552553Y0425865D01*
X0552461Y0425898D01*
X0552367Y0425926D01*
X0552272Y0425951D01*
X0552176Y0425972D01*
X0552079Y0425989D01*
X0551982Y0426003D01*
X0551884Y0426012D01*
X0551786Y0426018D01*
X0551688Y0426020D01*
X0519938Y0426020D01*
X0508688Y0426020D02*
X0506688Y0426020D01*
X0506590Y0426018D01*
X0506492Y0426012D01*
X0506394Y0426003D01*
X0506297Y0425989D01*
X0506200Y0425972D01*
X0506104Y0425951D01*
X0506009Y0425926D01*
X0505915Y0425898D01*
X0505823Y0425865D01*
X0505731Y0425830D01*
X0505641Y0425790D01*
X0505553Y0425748D01*
X0505466Y0425701D01*
X0505382Y0425652D01*
X0505299Y0425599D01*
X0505219Y0425543D01*
X0505140Y0425483D01*
X0505064Y0425421D01*
X0504991Y0425356D01*
X0504920Y0425288D01*
X0504852Y0425217D01*
X0504787Y0425144D01*
X0504725Y0425068D01*
X0504665Y0424989D01*
X0504609Y0424909D01*
X0504556Y0424826D01*
X0504507Y0424742D01*
X0504460Y0424655D01*
X0504418Y0424567D01*
X0504378Y0424477D01*
X0504343Y0424385D01*
X0504310Y0424293D01*
X0504282Y0424199D01*
X0504257Y0424104D01*
X0504236Y0424008D01*
X0504219Y0423911D01*
X0504205Y0423814D01*
X0504196Y0423716D01*
X0504190Y0423618D01*
X0504188Y0423520D01*
X0504188Y0411520D01*
X0504190Y0411422D01*
X0504196Y0411324D01*
X0504205Y0411226D01*
X0504219Y0411129D01*
X0504236Y0411032D01*
X0504257Y0410936D01*
X0504282Y0410841D01*
X0504310Y0410747D01*
X0504343Y0410655D01*
X0504378Y0410563D01*
X0504418Y0410473D01*
X0504460Y0410385D01*
X0504507Y0410298D01*
X0504556Y0410214D01*
X0504609Y0410131D01*
X0504665Y0410051D01*
X0504725Y0409972D01*
X0504787Y0409896D01*
X0504852Y0409823D01*
X0504920Y0409752D01*
X0504991Y0409684D01*
X0505064Y0409619D01*
X0505140Y0409557D01*
X0505219Y0409497D01*
X0505299Y0409441D01*
X0505382Y0409388D01*
X0505466Y0409339D01*
X0505553Y0409292D01*
X0505641Y0409250D01*
X0505731Y0409210D01*
X0505823Y0409175D01*
X0505915Y0409142D01*
X0506009Y0409114D01*
X0506104Y0409089D01*
X0506200Y0409068D01*
X0506297Y0409051D01*
X0506394Y0409037D01*
X0506492Y0409028D01*
X0506590Y0409022D01*
X0506688Y0409020D01*
X0602388Y0413920D02*
X0602388Y0417120D01*
X0604788Y0421420D02*
X0606388Y0421420D01*
X0607988Y0421420D01*
X0607988Y0417920D01*
X0605088Y0420219D02*
X0605156Y0420215D01*
X0605225Y0420216D01*
X0605293Y0420220D01*
X0605361Y0420228D01*
X0605429Y0420239D01*
X0605496Y0420255D01*
X0605562Y0420275D01*
X0605626Y0420298D01*
X0605689Y0420325D01*
X0605751Y0420355D01*
X0605810Y0420389D01*
X0605868Y0420426D01*
X0605923Y0420467D01*
X0605976Y0420510D01*
X0606027Y0420557D01*
X0606074Y0420606D01*
X0606119Y0420658D01*
X0606161Y0420713D01*
X0606200Y0420769D01*
X0606235Y0420828D01*
X0606267Y0420889D01*
X0606295Y0420951D01*
X0606320Y0421016D01*
X0606341Y0421081D01*
X0606358Y0421147D01*
X0606371Y0421215D01*
X0606381Y0421282D01*
X0606386Y0421351D01*
X0606388Y0421419D01*
X0607988Y0413120D02*
X0607988Y0409620D01*
X0604788Y0409620D01*
X0620735Y0394957D02*
X0620735Y0387083D01*
X0622188Y0389520D02*
X0623688Y0391770D01*
X0625188Y0389520D01*
X0622188Y0389520D01*
X0622384Y0389814D02*
X0624991Y0389814D01*
X0624592Y0390413D02*
X0622783Y0390413D01*
X0623182Y0391011D02*
X0624193Y0391011D01*
X0623794Y0391610D02*
X0623581Y0391610D01*
X0626640Y0394957D02*
X0626640Y0387083D01*
X0626640Y0377457D02*
X0626640Y0369583D01*
X0623688Y0372770D02*
X0625188Y0375020D01*
X0622188Y0375020D01*
X0623688Y0372770D01*
X0623497Y0373056D02*
X0623879Y0373056D01*
X0624278Y0373655D02*
X0623098Y0373655D01*
X0622699Y0374253D02*
X0624677Y0374253D01*
X0625076Y0374852D02*
X0622300Y0374852D01*
X0620735Y0377457D02*
X0620735Y0369583D01*
X0567088Y0295670D02*
X0563888Y0295670D01*
X0563888Y0292170D01*
X0563888Y0287370D02*
X0563888Y0283870D01*
X0565488Y0283870D01*
X0567088Y0283870D01*
X0566787Y0285070D02*
X0566719Y0285074D01*
X0566650Y0285073D01*
X0566582Y0285069D01*
X0566514Y0285061D01*
X0566446Y0285050D01*
X0566379Y0285034D01*
X0566313Y0285014D01*
X0566249Y0284991D01*
X0566186Y0284964D01*
X0566124Y0284934D01*
X0566065Y0284900D01*
X0566007Y0284863D01*
X0565952Y0284822D01*
X0565899Y0284779D01*
X0565848Y0284732D01*
X0565801Y0284683D01*
X0565756Y0284631D01*
X0565714Y0284576D01*
X0565675Y0284520D01*
X0565640Y0284461D01*
X0565608Y0284400D01*
X0565580Y0284338D01*
X0565555Y0284273D01*
X0565534Y0284208D01*
X0565517Y0284142D01*
X0565504Y0284074D01*
X0565494Y0284007D01*
X0565489Y0283938D01*
X0565487Y0283870D01*
X0569488Y0288170D02*
X0569488Y0291370D01*
X0602388Y0278620D02*
X0602388Y0275420D01*
X0604788Y0271120D02*
X0607988Y0271120D01*
X0607988Y0274620D01*
X0607988Y0279420D02*
X0607988Y0282920D01*
X0606388Y0282920D01*
X0604788Y0282920D01*
X0605088Y0281719D02*
X0605156Y0281715D01*
X0605225Y0281716D01*
X0605293Y0281720D01*
X0605361Y0281728D01*
X0605429Y0281739D01*
X0605496Y0281755D01*
X0605562Y0281775D01*
X0605626Y0281798D01*
X0605689Y0281825D01*
X0605751Y0281855D01*
X0605810Y0281889D01*
X0605868Y0281926D01*
X0605923Y0281967D01*
X0605976Y0282010D01*
X0606027Y0282057D01*
X0606074Y0282106D01*
X0606119Y0282158D01*
X0606161Y0282213D01*
X0606200Y0282269D01*
X0606235Y0282328D01*
X0606267Y0282389D01*
X0606295Y0282451D01*
X0606320Y0282516D01*
X0606341Y0282581D01*
X0606358Y0282647D01*
X0606371Y0282715D01*
X0606381Y0282782D01*
X0606386Y0282851D01*
X0606388Y0282919D01*
X0620735Y0256457D02*
X0620735Y0248583D01*
X0622188Y0251020D02*
X0623688Y0253270D01*
X0625188Y0251020D01*
X0622188Y0251020D01*
X0622547Y0251558D02*
X0624829Y0251558D01*
X0624430Y0252157D02*
X0622946Y0252157D01*
X0623345Y0252755D02*
X0624031Y0252755D01*
X0626640Y0256457D02*
X0626640Y0248583D01*
X0626640Y0238707D02*
X0626640Y0230833D01*
X0623688Y0234020D02*
X0625188Y0236270D01*
X0622188Y0236270D01*
X0623688Y0234020D01*
X0623567Y0234201D02*
X0623809Y0234201D01*
X0624208Y0234800D02*
X0623168Y0234800D01*
X0622769Y0235398D02*
X0624607Y0235398D01*
X0625006Y0235997D02*
X0622370Y0235997D01*
X0620735Y0238707D02*
X0620735Y0230833D01*
X0619938Y0195270D02*
X0613438Y0195270D01*
X0613438Y0169270D01*
X0623638Y0169270D01*
X0629238Y0169270D02*
X0639438Y0169270D01*
X0639438Y0195270D01*
X0629238Y0195270D01*
X0632938Y0195270D02*
X0639438Y0188770D01*
X0637438Y0191670D02*
X0637438Y0194670D01*
X0638938Y0193170D02*
X0635938Y0193170D01*
X0623638Y0195270D02*
X0619938Y0195270D01*
X0613438Y0188770D01*
X0554188Y0199020D02*
X0554188Y0211020D01*
X0554186Y0211118D01*
X0554180Y0211216D01*
X0554171Y0211314D01*
X0554157Y0211411D01*
X0554140Y0211508D01*
X0554119Y0211604D01*
X0554094Y0211699D01*
X0554066Y0211793D01*
X0554033Y0211885D01*
X0553998Y0211977D01*
X0553958Y0212067D01*
X0553916Y0212155D01*
X0553869Y0212242D01*
X0553820Y0212326D01*
X0553767Y0212409D01*
X0553711Y0212489D01*
X0553651Y0212568D01*
X0553589Y0212644D01*
X0553524Y0212717D01*
X0553456Y0212788D01*
X0553385Y0212856D01*
X0553312Y0212921D01*
X0553236Y0212983D01*
X0553157Y0213043D01*
X0553077Y0213099D01*
X0552994Y0213152D01*
X0552910Y0213201D01*
X0552823Y0213248D01*
X0552735Y0213290D01*
X0552645Y0213330D01*
X0552553Y0213365D01*
X0552461Y0213398D01*
X0552367Y0213426D01*
X0552272Y0213451D01*
X0552176Y0213472D01*
X0552079Y0213489D01*
X0551982Y0213503D01*
X0551884Y0213512D01*
X0551786Y0213518D01*
X0551688Y0213520D01*
X0519938Y0213520D01*
X0508688Y0213520D02*
X0506688Y0213520D01*
X0506590Y0213518D01*
X0506492Y0213512D01*
X0506394Y0213503D01*
X0506297Y0213489D01*
X0506200Y0213472D01*
X0506104Y0213451D01*
X0506009Y0213426D01*
X0505915Y0213398D01*
X0505823Y0213365D01*
X0505731Y0213330D01*
X0505641Y0213290D01*
X0505553Y0213248D01*
X0505466Y0213201D01*
X0505382Y0213152D01*
X0505299Y0213099D01*
X0505219Y0213043D01*
X0505140Y0212983D01*
X0505064Y0212921D01*
X0504991Y0212856D01*
X0504920Y0212788D01*
X0504852Y0212717D01*
X0504787Y0212644D01*
X0504725Y0212568D01*
X0504665Y0212489D01*
X0504609Y0212409D01*
X0504556Y0212326D01*
X0504507Y0212242D01*
X0504460Y0212155D01*
X0504418Y0212067D01*
X0504378Y0211977D01*
X0504343Y0211885D01*
X0504310Y0211793D01*
X0504282Y0211699D01*
X0504257Y0211604D01*
X0504236Y0211508D01*
X0504219Y0211411D01*
X0504205Y0211314D01*
X0504196Y0211216D01*
X0504190Y0211118D01*
X0504188Y0211020D01*
X0504188Y0199020D01*
X0504190Y0198922D01*
X0504196Y0198824D01*
X0504205Y0198726D01*
X0504219Y0198629D01*
X0504236Y0198532D01*
X0504257Y0198436D01*
X0504282Y0198341D01*
X0504310Y0198247D01*
X0504343Y0198155D01*
X0504378Y0198063D01*
X0504418Y0197973D01*
X0504460Y0197885D01*
X0504507Y0197798D01*
X0504556Y0197714D01*
X0504609Y0197631D01*
X0504665Y0197551D01*
X0504725Y0197472D01*
X0504787Y0197396D01*
X0504852Y0197323D01*
X0504920Y0197252D01*
X0504991Y0197184D01*
X0505064Y0197119D01*
X0505140Y0197057D01*
X0505219Y0196997D01*
X0505299Y0196941D01*
X0505382Y0196888D01*
X0505466Y0196839D01*
X0505553Y0196792D01*
X0505641Y0196750D01*
X0505731Y0196710D01*
X0505823Y0196675D01*
X0505915Y0196642D01*
X0506009Y0196614D01*
X0506104Y0196589D01*
X0506200Y0196568D01*
X0506297Y0196551D01*
X0506394Y0196537D01*
X0506492Y0196528D01*
X0506590Y0196522D01*
X0506688Y0196520D01*
X0538438Y0196520D01*
X0549688Y0196520D02*
X0551688Y0196520D01*
X0551786Y0196522D01*
X0551884Y0196528D01*
X0551982Y0196537D01*
X0552079Y0196551D01*
X0552176Y0196568D01*
X0552272Y0196589D01*
X0552367Y0196614D01*
X0552461Y0196642D01*
X0552553Y0196675D01*
X0552645Y0196710D01*
X0552735Y0196750D01*
X0552823Y0196792D01*
X0552910Y0196839D01*
X0552994Y0196888D01*
X0553077Y0196941D01*
X0553157Y0196997D01*
X0553236Y0197057D01*
X0553312Y0197119D01*
X0553385Y0197184D01*
X0553456Y0197252D01*
X0553524Y0197323D01*
X0553589Y0197396D01*
X0553651Y0197472D01*
X0553711Y0197551D01*
X0553767Y0197631D01*
X0553820Y0197714D01*
X0553869Y0197798D01*
X0553916Y0197885D01*
X0553958Y0197973D01*
X0553998Y0198063D01*
X0554033Y0198155D01*
X0554066Y0198247D01*
X0554094Y0198341D01*
X0554119Y0198436D01*
X0554140Y0198532D01*
X0554157Y0198629D01*
X0554171Y0198726D01*
X0554180Y0198824D01*
X0554186Y0198922D01*
X0554188Y0199020D01*
X0486640Y0230833D02*
X0486640Y0238707D01*
X0485188Y0236270D02*
X0483688Y0234020D01*
X0482188Y0236270D01*
X0485188Y0236270D01*
X0485006Y0235997D02*
X0482370Y0235997D01*
X0482769Y0235398D02*
X0484607Y0235398D01*
X0484208Y0234800D02*
X0483168Y0234800D01*
X0483567Y0234201D02*
X0483809Y0234201D01*
X0480735Y0230833D02*
X0480735Y0238707D01*
X0480735Y0248583D02*
X0480735Y0256457D01*
X0483688Y0253270D02*
X0482188Y0251020D01*
X0485188Y0251020D01*
X0483688Y0253270D01*
X0483345Y0252755D02*
X0484031Y0252755D01*
X0484430Y0252157D02*
X0482946Y0252157D01*
X0482547Y0251558D02*
X0484829Y0251558D01*
X0486640Y0248583D02*
X0486640Y0256457D01*
X0455588Y0169170D02*
X0452388Y0169170D01*
X0452388Y0165670D01*
X0452388Y0160870D02*
X0452388Y0157370D01*
X0453988Y0157370D01*
X0455588Y0157370D01*
X0455287Y0158570D02*
X0455219Y0158574D01*
X0455150Y0158573D01*
X0455082Y0158569D01*
X0455014Y0158561D01*
X0454946Y0158550D01*
X0454879Y0158534D01*
X0454813Y0158514D01*
X0454749Y0158491D01*
X0454686Y0158464D01*
X0454624Y0158434D01*
X0454565Y0158400D01*
X0454507Y0158363D01*
X0454452Y0158322D01*
X0454399Y0158279D01*
X0454348Y0158232D01*
X0454301Y0158183D01*
X0454256Y0158131D01*
X0454214Y0158076D01*
X0454175Y0158020D01*
X0454140Y0157961D01*
X0454108Y0157900D01*
X0454080Y0157838D01*
X0454055Y0157773D01*
X0454034Y0157708D01*
X0454017Y0157642D01*
X0454004Y0157574D01*
X0453994Y0157507D01*
X0453989Y0157438D01*
X0453987Y0157370D01*
X0457988Y0161670D02*
X0457988Y0164870D01*
X0491638Y0142220D02*
X0493238Y0142220D01*
X0493240Y0142151D01*
X0493246Y0142083D01*
X0493256Y0142015D01*
X0493269Y0141948D01*
X0493287Y0141882D01*
X0493308Y0141817D01*
X0493333Y0141753D01*
X0493361Y0141691D01*
X0493393Y0141630D01*
X0493428Y0141571D01*
X0493467Y0141515D01*
X0493509Y0141460D01*
X0493554Y0141409D01*
X0493602Y0141359D01*
X0493652Y0141313D01*
X0493705Y0141270D01*
X0493761Y0141229D01*
X0493818Y0141192D01*
X0493878Y0141159D01*
X0493940Y0141128D01*
X0494003Y0141102D01*
X0494067Y0141079D01*
X0494133Y0141059D01*
X0494200Y0141044D01*
X0494267Y0141032D01*
X0494335Y0141024D01*
X0494404Y0141020D01*
X0494472Y0141020D01*
X0494541Y0141024D01*
X0494609Y0141032D01*
X0494676Y0141044D01*
X0494743Y0141059D01*
X0494809Y0141079D01*
X0494873Y0141102D01*
X0494936Y0141128D01*
X0494998Y0141159D01*
X0495058Y0141192D01*
X0495115Y0141229D01*
X0495171Y0141270D01*
X0495224Y0141313D01*
X0495274Y0141359D01*
X0495322Y0141409D01*
X0495367Y0141460D01*
X0495409Y0141515D01*
X0495448Y0141571D01*
X0495483Y0141630D01*
X0495515Y0141691D01*
X0495543Y0141753D01*
X0495568Y0141817D01*
X0495589Y0141882D01*
X0495607Y0141948D01*
X0495620Y0142015D01*
X0495630Y0142083D01*
X0495636Y0142151D01*
X0495638Y0142220D01*
X0497238Y0142220D01*
X0497238Y0139020D02*
X0497238Y0137020D01*
X0497238Y0133820D02*
X0491638Y0133820D01*
X0489556Y0125070D02*
X0474819Y0125070D01*
X0484938Y0110520D02*
X0488438Y0108020D01*
X0484938Y0108020D01*
X0484938Y0110520D01*
X0484938Y0110310D02*
X0485232Y0110310D01*
X0484938Y0109711D02*
X0486070Y0109711D01*
X0486908Y0109112D02*
X0484938Y0109112D01*
X0484938Y0108514D02*
X0487746Y0108514D01*
X0489556Y0105470D02*
X0483388Y0105470D01*
X0483386Y0105539D01*
X0483380Y0105607D01*
X0483370Y0105675D01*
X0483357Y0105742D01*
X0483339Y0105808D01*
X0483318Y0105873D01*
X0483293Y0105937D01*
X0483265Y0105999D01*
X0483233Y0106060D01*
X0483198Y0106119D01*
X0483159Y0106175D01*
X0483117Y0106230D01*
X0483072Y0106281D01*
X0483024Y0106331D01*
X0482974Y0106377D01*
X0482921Y0106420D01*
X0482865Y0106461D01*
X0482808Y0106498D01*
X0482748Y0106531D01*
X0482686Y0106562D01*
X0482623Y0106588D01*
X0482559Y0106611D01*
X0482493Y0106631D01*
X0482426Y0106646D01*
X0482359Y0106658D01*
X0482291Y0106666D01*
X0482222Y0106670D01*
X0482154Y0106670D01*
X0482085Y0106666D01*
X0482017Y0106658D01*
X0481950Y0106646D01*
X0481883Y0106631D01*
X0481817Y0106611D01*
X0481753Y0106588D01*
X0481690Y0106562D01*
X0481628Y0106531D01*
X0481568Y0106498D01*
X0481511Y0106461D01*
X0481455Y0106420D01*
X0481402Y0106377D01*
X0481352Y0106331D01*
X0481304Y0106281D01*
X0481259Y0106230D01*
X0481217Y0106175D01*
X0481178Y0106119D01*
X0481143Y0106060D01*
X0481111Y0105999D01*
X0481083Y0105937D01*
X0481058Y0105873D01*
X0481037Y0105808D01*
X0481019Y0105742D01*
X0481006Y0105675D01*
X0480996Y0105607D01*
X0480990Y0105539D01*
X0480988Y0105470D01*
X0474819Y0105470D01*
X0452288Y0130270D02*
X0452288Y0137270D01*
X0447488Y0137270D02*
X0444888Y0137270D01*
X0444438Y0134770D02*
X0442438Y0131770D01*
X0442438Y0134770D01*
X0444438Y0134770D01*
X0444091Y0134250D02*
X0442438Y0134250D01*
X0442438Y0133651D02*
X0443692Y0133651D01*
X0443293Y0133053D02*
X0442438Y0133053D01*
X0442438Y0132454D02*
X0442894Y0132454D01*
X0442495Y0131856D02*
X0442438Y0131856D01*
X0440088Y0132570D02*
X0440088Y0130270D01*
X0440088Y0132570D02*
X0440157Y0132572D01*
X0440225Y0132578D01*
X0440293Y0132588D01*
X0440360Y0132601D01*
X0440426Y0132619D01*
X0440491Y0132640D01*
X0440555Y0132665D01*
X0440617Y0132693D01*
X0440678Y0132725D01*
X0440737Y0132760D01*
X0440793Y0132799D01*
X0440848Y0132841D01*
X0440899Y0132886D01*
X0440949Y0132934D01*
X0440995Y0132984D01*
X0441038Y0133037D01*
X0441079Y0133093D01*
X0441116Y0133150D01*
X0441149Y0133210D01*
X0441180Y0133272D01*
X0441206Y0133335D01*
X0441229Y0133399D01*
X0441249Y0133465D01*
X0441264Y0133532D01*
X0441276Y0133599D01*
X0441284Y0133667D01*
X0441288Y0133736D01*
X0441288Y0133804D01*
X0441284Y0133873D01*
X0441276Y0133941D01*
X0441264Y0134008D01*
X0441249Y0134075D01*
X0441229Y0134141D01*
X0441206Y0134205D01*
X0441180Y0134268D01*
X0441149Y0134330D01*
X0441116Y0134390D01*
X0441079Y0134447D01*
X0441038Y0134503D01*
X0440995Y0134556D01*
X0440949Y0134606D01*
X0440899Y0134654D01*
X0440848Y0134699D01*
X0440793Y0134741D01*
X0440737Y0134780D01*
X0440678Y0134815D01*
X0440617Y0134847D01*
X0440555Y0134875D01*
X0440491Y0134900D01*
X0440426Y0134921D01*
X0440360Y0134939D01*
X0440293Y0134952D01*
X0440225Y0134962D01*
X0440157Y0134968D01*
X0440088Y0134970D01*
X0440088Y0137270D01*
X0440088Y0136170D02*
X0440088Y0134970D01*
X0564738Y0142120D02*
X0564738Y0144220D01*
X0566838Y0144220D01*
X0564738Y0142120D01*
X0564738Y0142629D02*
X0565247Y0142629D01*
X0564738Y0143228D02*
X0565846Y0143228D01*
X0566444Y0143826D02*
X0564738Y0143826D01*
X0592038Y0144220D02*
X0594138Y0144220D01*
X0594138Y0142120D01*
X0594138Y0116920D02*
X0594138Y0114820D01*
X0592038Y0114820D01*
X0566838Y0114820D02*
X0564738Y0114820D01*
X0564738Y0116920D01*
D820*
X0623688Y0233407D03*
X0623688Y0253882D03*
X0483688Y0253882D03*
X0483688Y0233407D03*
X0343688Y0233407D03*
X0343688Y0253882D03*
X0343688Y0372157D03*
X0343688Y0392382D03*
X0483688Y0392382D03*
X0483688Y0372157D03*
X0623688Y0372157D03*
X0623688Y0392382D03*
D821*
X0585109Y0151020D02*
X0585109Y0150020D01*
X0583609Y0150020D01*
X0583609Y0151020D01*
X0585109Y0151020D01*
X0585109Y0150936D02*
X0583609Y0150936D01*
X0583609Y0150838D02*
X0585109Y0150838D01*
X0585109Y0150739D02*
X0583609Y0150739D01*
X0583609Y0150641D02*
X0585109Y0150641D01*
X0585109Y0150542D02*
X0583609Y0150542D01*
X0583609Y0150444D02*
X0585109Y0150444D01*
X0585109Y0150345D02*
X0583609Y0150345D01*
X0583609Y0150247D02*
X0585109Y0150247D01*
X0585109Y0150148D02*
X0583609Y0150148D01*
X0583609Y0150050D02*
X0585109Y0150050D01*
X0599938Y0129285D02*
X0600938Y0129285D01*
X0600938Y0127785D01*
X0599938Y0127785D01*
X0599938Y0129285D01*
X0599938Y0129264D02*
X0600938Y0129264D01*
X0600938Y0129165D02*
X0599938Y0129165D01*
X0599938Y0129067D02*
X0600938Y0129067D01*
X0600938Y0128968D02*
X0599938Y0128968D01*
X0599938Y0128870D02*
X0600938Y0128870D01*
X0600938Y0128771D02*
X0599938Y0128771D01*
X0599938Y0128673D02*
X0600938Y0128673D01*
X0600938Y0128574D02*
X0599938Y0128574D01*
X0599938Y0128476D02*
X0600938Y0128476D01*
X0600938Y0128377D02*
X0599938Y0128377D01*
X0599938Y0128279D02*
X0600938Y0128279D01*
X0600938Y0128180D02*
X0599938Y0128180D01*
X0599938Y0128082D02*
X0600938Y0128082D01*
X0600938Y0127983D02*
X0599938Y0127983D01*
X0599938Y0127885D02*
X0600938Y0127885D01*
X0600938Y0127786D02*
X0599938Y0127786D01*
X0583140Y0109020D02*
X0581640Y0109020D01*
X0581640Y0108020D01*
X0583140Y0108020D01*
X0583140Y0109020D01*
X0583140Y0108971D02*
X0581640Y0108971D01*
X0581640Y0108872D02*
X0583140Y0108872D01*
X0583140Y0108774D02*
X0581640Y0108774D01*
X0581640Y0108675D02*
X0583140Y0108675D01*
X0583140Y0108577D02*
X0581640Y0108577D01*
X0581640Y0108478D02*
X0583140Y0108478D01*
X0583140Y0108380D02*
X0581640Y0108380D01*
X0581640Y0108281D02*
X0583140Y0108281D01*
X0583140Y0108183D02*
X0581640Y0108183D01*
X0581640Y0108084D02*
X0583140Y0108084D01*
X0558938Y0121880D02*
X0558938Y0123380D01*
X0557938Y0123380D01*
X0557938Y0121880D01*
X0558938Y0121880D01*
X0558938Y0121974D02*
X0557938Y0121974D01*
X0557938Y0122073D02*
X0558938Y0122073D01*
X0558938Y0122171D02*
X0557938Y0122171D01*
X0557938Y0122270D02*
X0558938Y0122270D01*
X0558938Y0122368D02*
X0557938Y0122368D01*
X0557938Y0122467D02*
X0558938Y0122467D01*
X0558938Y0122565D02*
X0557938Y0122565D01*
X0557938Y0122664D02*
X0558938Y0122664D01*
X0558938Y0122762D02*
X0557938Y0122762D01*
X0557938Y0122861D02*
X0558938Y0122861D01*
X0558938Y0122959D02*
X0557938Y0122959D01*
X0557938Y0123058D02*
X0558938Y0123058D01*
X0558938Y0123156D02*
X0557938Y0123156D01*
X0557938Y0123255D02*
X0558938Y0123255D01*
X0558938Y0123353D02*
X0557938Y0123353D01*
M02*
