G75*
%MOIN*%
%OFA0B0*%
%FSLAX25Y25*%
%IPPOS*%
%LPD*%
%AMOC8*
5,1,8,0,0,1.08239X$1,22.5*
%
%ADD10OC8,0.05906*%
%ADD11R,0.05906X0.05906*%
%ADD12C,0.01000*%
%ADD13C,0.00100*%
%ADD14C,0.04000*%
%ADD15C,0.11811*%
%ADD16C,0.07677*%
%ADD17C,0.06000*%
%ADD18OC8,0.07677*%
%ADD19C,0.21654*%
%ADD20R,0.03175X0.03175*%
%ADD21OC8,0.03175*%
%ADD22C,0.02400*%
%ADD23C,0.00800*%
%ADD24C,0.01200*%
%ADD25C,0.01600*%
%ADD26C,0.07000*%
D10*
X0309333Y0115232D03*
X0319333Y0115232D03*
X0329333Y0115232D03*
X0339333Y0115232D03*
X0349333Y0115232D03*
X0359333Y0115232D03*
X0369333Y0115232D03*
X0379333Y0115232D03*
X0389333Y0115232D03*
X0399333Y0115232D03*
X0409333Y0115232D03*
X0419333Y0115232D03*
X0429333Y0115232D03*
X0439333Y0115232D03*
X0439333Y0105232D03*
X0429333Y0105232D03*
X0419333Y0105232D03*
X0409333Y0105232D03*
X0399333Y0105232D03*
X0389333Y0105232D03*
X0379333Y0105232D03*
X0369333Y0105232D03*
X0359333Y0105232D03*
X0349333Y0105232D03*
X0339333Y0105232D03*
X0329333Y0105232D03*
X0319333Y0105232D03*
X0617188Y0100770D03*
X0617188Y0110770D03*
X0617188Y0120770D03*
X0617188Y0130770D03*
X0617188Y0140770D03*
X0617188Y0150770D03*
D11*
X0309333Y0105232D03*
D12*
X0305081Y0104962D02*
X0293688Y0104962D01*
X0293688Y0105960D02*
X0305081Y0105960D01*
X0305081Y0106959D02*
X0293688Y0106959D01*
X0293688Y0107957D02*
X0305081Y0107957D01*
X0305081Y0108724D02*
X0305081Y0101741D01*
X0305842Y0100980D01*
X0312825Y0100980D01*
X0313586Y0101741D01*
X0313586Y0108724D01*
X0312825Y0109485D01*
X0305842Y0109485D01*
X0305081Y0108724D01*
X0305313Y0108956D02*
X0293688Y0108956D01*
X0293688Y0109954D02*
X0322207Y0109954D01*
X0322738Y0109424D02*
X0322738Y0107842D01*
X0321095Y0109485D01*
X0317572Y0109485D01*
X0315081Y0106994D01*
X0315081Y0103471D01*
X0317572Y0100980D01*
X0321095Y0100980D01*
X0322738Y0102622D01*
X0322738Y0101816D01*
X0344233Y0080320D01*
X0478392Y0080320D01*
X0481892Y0083820D01*
X0560550Y0083820D01*
X0560550Y0083074D01*
X0562242Y0081382D01*
X0564634Y0081382D01*
X0566325Y0083074D01*
X0566325Y0085466D01*
X0566221Y0085570D01*
X0590550Y0085570D01*
X0590550Y0084824D01*
X0592242Y0083132D01*
X0594634Y0083132D01*
X0596325Y0084824D01*
X0596325Y0084978D01*
X0596733Y0084570D01*
X0606804Y0084570D01*
X0607742Y0083632D01*
X0610134Y0083632D01*
X0611825Y0085324D01*
X0611825Y0087716D01*
X0610134Y0089407D01*
X0607742Y0089407D01*
X0606304Y0087970D01*
X0601471Y0087970D01*
X0601575Y0088074D01*
X0601575Y0088382D01*
X0603634Y0088382D01*
X0605325Y0090074D01*
X0605325Y0091382D01*
X0607134Y0091382D01*
X0608825Y0093074D01*
X0608825Y0095466D01*
X0607134Y0097157D01*
X0604742Y0097157D01*
X0603554Y0095970D01*
X0476733Y0095970D01*
X0475777Y0095013D01*
X0474134Y0096657D01*
X0471825Y0096657D01*
X0471825Y0096716D01*
X0470134Y0098407D01*
X0468075Y0098407D01*
X0468075Y0098716D01*
X0466384Y0100407D01*
X0463992Y0100407D01*
X0462300Y0098716D01*
X0462300Y0097720D01*
X0412392Y0097720D01*
X0409132Y0100980D01*
X0411095Y0100980D01*
X0413586Y0103471D01*
X0413586Y0106994D01*
X0411095Y0109485D01*
X0407572Y0109485D01*
X0406349Y0108262D01*
X0403888Y0110724D01*
X0402892Y0111720D01*
X0401835Y0111720D01*
X0403586Y0113471D01*
X0403586Y0114748D01*
X0399818Y0114748D01*
X0399818Y0115717D01*
X0398849Y0115717D01*
X0398849Y0119485D01*
X0397572Y0119485D01*
X0395081Y0116994D01*
X0395081Y0115717D01*
X0398849Y0115717D01*
X0398849Y0114748D01*
X0395081Y0114748D01*
X0395081Y0113471D01*
X0396832Y0111720D01*
X0395250Y0111720D01*
X0393543Y0113427D01*
X0393586Y0113471D01*
X0393586Y0116994D01*
X0391095Y0119485D01*
X0387572Y0119485D01*
X0385081Y0116994D01*
X0385081Y0113471D01*
X0387572Y0110980D01*
X0391095Y0110980D01*
X0391138Y0111023D01*
X0393842Y0108320D01*
X0396406Y0108320D01*
X0395081Y0106994D01*
X0395081Y0103471D01*
X0397572Y0100980D01*
X0401095Y0100980D01*
X0401138Y0101023D01*
X0407942Y0094220D01*
X0402750Y0094220D01*
X0393543Y0103427D01*
X0393586Y0103471D01*
X0393586Y0106994D01*
X0391095Y0109485D01*
X0387572Y0109485D01*
X0385081Y0106994D01*
X0385081Y0103471D01*
X0387572Y0100980D01*
X0391095Y0100980D01*
X0391138Y0101023D01*
X0399692Y0092470D01*
X0389642Y0092470D01*
X0381138Y0100974D01*
X0381138Y0101022D01*
X0383586Y0103471D01*
X0383586Y0106994D01*
X0381095Y0109485D01*
X0377572Y0109485D01*
X0376138Y0108051D01*
X0376138Y0110832D01*
X0373543Y0113427D01*
X0373586Y0113471D01*
X0373586Y0116994D01*
X0371095Y0119485D01*
X0367572Y0119485D01*
X0365081Y0116994D01*
X0365081Y0113471D01*
X0367572Y0110980D01*
X0371095Y0110980D01*
X0371138Y0111023D01*
X0372738Y0109424D01*
X0372738Y0107842D01*
X0371095Y0109485D01*
X0367572Y0109485D01*
X0365081Y0106994D01*
X0365081Y0103471D01*
X0367572Y0100980D01*
X0371095Y0100980D01*
X0371138Y0101023D01*
X0384942Y0087220D01*
X0370892Y0087220D01*
X0356138Y0101974D01*
X0356138Y0102414D01*
X0357572Y0100980D01*
X0358849Y0100980D01*
X0358849Y0104748D01*
X0359818Y0104748D01*
X0359818Y0105717D01*
X0358849Y0105717D01*
X0358849Y0109485D01*
X0357572Y0109485D01*
X0356138Y0108051D01*
X0356138Y0110724D01*
X0355142Y0111720D01*
X0353488Y0113373D01*
X0353586Y0113471D01*
X0353586Y0116994D01*
X0351095Y0119485D01*
X0347572Y0119485D01*
X0345081Y0116994D01*
X0345081Y0113471D01*
X0347572Y0110980D01*
X0351074Y0110980D01*
X0352738Y0109316D01*
X0352738Y0107842D01*
X0351095Y0109485D01*
X0347572Y0109485D01*
X0345081Y0106994D01*
X0345081Y0103471D01*
X0347572Y0100980D01*
X0349824Y0100980D01*
X0367084Y0083720D01*
X0345642Y0083720D01*
X0328382Y0100980D01*
X0331095Y0100980D01*
X0333586Y0103471D01*
X0333586Y0106994D01*
X0331095Y0109485D01*
X0327572Y0109485D01*
X0326138Y0108051D01*
X0326138Y0110832D01*
X0325142Y0111828D01*
X0323543Y0113427D01*
X0323586Y0113471D01*
X0323586Y0116994D01*
X0321095Y0119485D01*
X0317572Y0119485D01*
X0315081Y0116994D01*
X0315081Y0113471D01*
X0317572Y0110980D01*
X0321095Y0110980D01*
X0321138Y0111023D01*
X0322738Y0109424D01*
X0322738Y0108956D02*
X0321624Y0108956D01*
X0322623Y0107957D02*
X0322738Y0107957D01*
X0321209Y0110953D02*
X0293688Y0110953D01*
X0293688Y0111951D02*
X0306600Y0111951D01*
X0307572Y0110980D02*
X0305081Y0113471D01*
X0305081Y0116994D01*
X0307572Y0119485D01*
X0311095Y0119485D01*
X0313586Y0116994D01*
X0313586Y0113471D01*
X0311095Y0110980D01*
X0307572Y0110980D01*
X0305602Y0112950D02*
X0293688Y0112950D01*
X0293688Y0113948D02*
X0305081Y0113948D01*
X0305081Y0114947D02*
X0293688Y0114947D01*
X0293688Y0115945D02*
X0305081Y0115945D01*
X0305081Y0116944D02*
X0293688Y0116944D01*
X0293688Y0117942D02*
X0306029Y0117942D01*
X0307028Y0118941D02*
X0293688Y0118941D01*
X0293688Y0119939D02*
X0411050Y0119939D01*
X0411050Y0119574D02*
X0411050Y0121132D01*
X0409992Y0121132D01*
X0408300Y0122824D01*
X0408300Y0125216D01*
X0409992Y0126907D01*
X0412384Y0126907D01*
X0413571Y0125720D01*
X0415642Y0125720D01*
X0416142Y0125220D01*
X0465050Y0125220D01*
X0465050Y0125966D01*
X0466742Y0127657D01*
X0469134Y0127657D01*
X0470825Y0125966D01*
X0470825Y0123574D01*
X0470721Y0123470D01*
X0474800Y0123470D01*
X0474800Y0123966D01*
X0476492Y0125657D01*
X0478884Y0125657D01*
X0480575Y0123966D01*
X0480575Y0121574D01*
X0480471Y0121470D01*
X0490983Y0121470D01*
X0493733Y0124220D01*
X0496404Y0124220D01*
X0496300Y0124324D01*
X0496300Y0126003D01*
X0494484Y0127820D01*
X0494483Y0127820D01*
X0493488Y0128816D01*
X0493488Y0135136D01*
X0491800Y0136824D01*
X0491800Y0139216D01*
X0493492Y0140907D01*
X0495884Y0140907D01*
X0497575Y0139216D01*
X0497575Y0136824D01*
X0496888Y0136136D01*
X0496888Y0130224D01*
X0498704Y0128407D01*
X0500384Y0128407D01*
X0501488Y0127303D01*
X0501488Y0132886D01*
X0500300Y0134074D01*
X0500300Y0136466D01*
X0501992Y0138157D01*
X0504384Y0138157D01*
X0506075Y0136466D01*
X0506075Y0134074D01*
X0504888Y0132886D01*
X0504888Y0124566D01*
X0503892Y0123570D01*
X0503892Y0123570D01*
X0502792Y0122470D01*
X0504142Y0122470D01*
X0506142Y0120470D01*
X0569233Y0120470D01*
X0581988Y0133224D01*
X0582300Y0133536D01*
X0582300Y0133716D01*
X0583992Y0135407D01*
X0586384Y0135407D01*
X0588075Y0133716D01*
X0588075Y0131407D01*
X0588384Y0131407D01*
X0590075Y0129716D01*
X0590075Y0127324D01*
X0588384Y0125632D01*
X0585992Y0125632D01*
X0584804Y0126820D01*
X0582892Y0126820D01*
X0572388Y0116316D01*
X0571392Y0115320D01*
X0503571Y0115320D01*
X0503134Y0114882D01*
X0500742Y0114882D01*
X0499050Y0116574D01*
X0499050Y0118966D01*
X0499154Y0119070D01*
X0495892Y0119070D01*
X0494138Y0117316D01*
X0493142Y0116320D01*
X0450892Y0116320D01*
X0442576Y0108004D01*
X0443586Y0106994D01*
X0443586Y0103471D01*
X0441095Y0100980D01*
X0437572Y0100980D01*
X0435081Y0103471D01*
X0435081Y0106994D01*
X0437572Y0109485D01*
X0439249Y0109485D01*
X0440743Y0110980D01*
X0437572Y0110980D01*
X0435081Y0113471D01*
X0435081Y0116994D01*
X0437572Y0119485D01*
X0441095Y0119485D01*
X0443586Y0116994D01*
X0443586Y0116932D01*
X0443946Y0116932D01*
X0447084Y0120070D01*
X0416825Y0120070D01*
X0416825Y0119574D01*
X0415134Y0117882D01*
X0412742Y0117882D01*
X0411050Y0119574D01*
X0411095Y0119485D02*
X0407572Y0119485D01*
X0405081Y0116994D01*
X0405081Y0113471D01*
X0407572Y0110980D01*
X0411095Y0110980D01*
X0413586Y0113471D01*
X0413586Y0116994D01*
X0411095Y0119485D01*
X0411639Y0118941D02*
X0411683Y0118941D01*
X0412638Y0117942D02*
X0412682Y0117942D01*
X0413586Y0116944D02*
X0415081Y0116944D01*
X0415081Y0116994D02*
X0415081Y0113471D01*
X0417572Y0110980D01*
X0421095Y0110980D01*
X0423586Y0113471D01*
X0423586Y0116994D01*
X0421095Y0119485D01*
X0417572Y0119485D01*
X0415081Y0116994D01*
X0415194Y0117942D02*
X0416029Y0117942D01*
X0416192Y0118941D02*
X0417028Y0118941D01*
X0416825Y0119939D02*
X0446953Y0119939D01*
X0445955Y0118941D02*
X0441639Y0118941D01*
X0442638Y0117942D02*
X0444956Y0117942D01*
X0443958Y0116944D02*
X0443586Y0116944D01*
X0447522Y0112950D02*
X0613353Y0112950D01*
X0612935Y0112531D02*
X0612935Y0109008D01*
X0615426Y0106517D01*
X0618949Y0106517D01*
X0621440Y0109008D01*
X0621440Y0112531D01*
X0618949Y0115022D01*
X0615426Y0115022D01*
X0612935Y0112531D01*
X0612935Y0111951D02*
X0446523Y0111951D01*
X0445525Y0110953D02*
X0612935Y0110953D01*
X0612935Y0109954D02*
X0444526Y0109954D01*
X0443528Y0108956D02*
X0612987Y0108956D01*
X0613986Y0107957D02*
X0442623Y0107957D01*
X0443586Y0106959D02*
X0614984Y0106959D01*
X0615426Y0105022D02*
X0612935Y0102531D01*
X0612935Y0099008D01*
X0615426Y0096517D01*
X0618949Y0096517D01*
X0621440Y0099008D01*
X0621440Y0102531D01*
X0618949Y0105022D01*
X0615426Y0105022D01*
X0615365Y0104962D02*
X0443586Y0104962D01*
X0443586Y0105960D02*
X0643688Y0105960D01*
X0643688Y0104962D02*
X0619010Y0104962D01*
X0620009Y0103963D02*
X0643688Y0103963D01*
X0643688Y0102965D02*
X0621007Y0102965D01*
X0621440Y0101966D02*
X0643688Y0101966D01*
X0643688Y0100968D02*
X0621440Y0100968D01*
X0621440Y0099969D02*
X0643688Y0099969D01*
X0643688Y0098971D02*
X0621403Y0098971D01*
X0620404Y0097972D02*
X0643688Y0097972D01*
X0643688Y0096974D02*
X0619406Y0096974D01*
X0614970Y0096974D02*
X0607317Y0096974D01*
X0608316Y0095975D02*
X0643688Y0095975D01*
X0643688Y0094977D02*
X0608825Y0094977D01*
X0608825Y0093978D02*
X0643688Y0093978D01*
X0643688Y0092979D02*
X0608731Y0092979D01*
X0607732Y0091981D02*
X0643688Y0091981D01*
X0643688Y0090982D02*
X0605325Y0090982D01*
X0605235Y0089984D02*
X0643688Y0089984D01*
X0643688Y0088985D02*
X0610555Y0088985D01*
X0611554Y0087987D02*
X0643688Y0087987D01*
X0643688Y0086988D02*
X0611825Y0086988D01*
X0611825Y0085990D02*
X0643688Y0085990D01*
X0643688Y0084991D02*
X0611493Y0084991D01*
X0610494Y0083993D02*
X0643688Y0083993D01*
X0643688Y0082994D02*
X0566246Y0082994D01*
X0566325Y0083993D02*
X0591381Y0083993D01*
X0590550Y0084991D02*
X0566325Y0084991D01*
X0565247Y0081996D02*
X0643688Y0081996D01*
X0643688Y0080997D02*
X0479069Y0080997D01*
X0480068Y0081996D02*
X0561628Y0081996D01*
X0560630Y0082994D02*
X0481067Y0082994D01*
X0474816Y0095975D02*
X0603560Y0095975D01*
X0604558Y0096974D02*
X0471567Y0096974D01*
X0470569Y0097972D02*
X0613971Y0097972D01*
X0612972Y0098971D02*
X0467820Y0098971D01*
X0466822Y0099969D02*
X0612935Y0099969D01*
X0612935Y0100968D02*
X0409144Y0100968D01*
X0410142Y0099969D02*
X0463554Y0099969D01*
X0462555Y0098971D02*
X0411141Y0098971D01*
X0412139Y0097972D02*
X0462300Y0097972D01*
X0443586Y0103963D02*
X0614367Y0103963D01*
X0613368Y0102965D02*
X0443080Y0102965D01*
X0442081Y0101966D02*
X0612935Y0101966D01*
X0619391Y0106959D02*
X0643688Y0106959D01*
X0643688Y0107957D02*
X0620389Y0107957D01*
X0621388Y0108956D02*
X0643688Y0108956D01*
X0643688Y0109954D02*
X0621440Y0109954D01*
X0621440Y0110953D02*
X0643688Y0110953D01*
X0643688Y0111951D02*
X0621440Y0111951D01*
X0621022Y0112950D02*
X0643688Y0112950D01*
X0643688Y0113948D02*
X0620023Y0113948D01*
X0619025Y0114947D02*
X0643688Y0114947D01*
X0643688Y0115945D02*
X0572017Y0115945D01*
X0573016Y0116944D02*
X0614999Y0116944D01*
X0615426Y0116517D02*
X0618949Y0116517D01*
X0621440Y0119008D01*
X0621440Y0122531D01*
X0618949Y0125022D01*
X0615426Y0125022D01*
X0612935Y0122531D01*
X0612935Y0119008D01*
X0615426Y0116517D01*
X0615350Y0114947D02*
X0503198Y0114947D01*
X0500677Y0114947D02*
X0449519Y0114947D01*
X0450517Y0115945D02*
X0499679Y0115945D01*
X0499050Y0116944D02*
X0493766Y0116944D01*
X0494764Y0117942D02*
X0499050Y0117942D01*
X0499050Y0118941D02*
X0495763Y0118941D01*
X0492449Y0122935D02*
X0480575Y0122935D01*
X0480575Y0123933D02*
X0493447Y0123933D01*
X0491450Y0121936D02*
X0480575Y0121936D01*
X0479609Y0124932D02*
X0496300Y0124932D01*
X0496300Y0125930D02*
X0470825Y0125930D01*
X0470825Y0124932D02*
X0475766Y0124932D01*
X0474800Y0123933D02*
X0470825Y0123933D01*
X0469862Y0126929D02*
X0495374Y0126929D01*
X0494376Y0127927D02*
X0293688Y0127927D01*
X0293688Y0128020D02*
X0297688Y0132020D01*
X0397688Y0132020D01*
X0425238Y0159570D01*
X0434483Y0159570D01*
X0435050Y0159003D01*
X0435050Y0157324D01*
X0436742Y0155632D01*
X0439134Y0155632D01*
X0440825Y0157324D01*
X0440825Y0159716D01*
X0439134Y0161407D01*
X0437454Y0161407D01*
X0435892Y0162970D01*
X0428638Y0162970D01*
X0430438Y0164770D01*
X0478435Y0164770D01*
X0479354Y0165150D01*
X0481086Y0166882D01*
X0481634Y0166882D01*
X0483325Y0168574D01*
X0483325Y0169020D01*
X0579784Y0169020D01*
X0578152Y0167388D01*
X0576884Y0168657D01*
X0574492Y0168657D01*
X0572800Y0166966D01*
X0572800Y0165286D01*
X0570421Y0162907D01*
X0568742Y0162907D01*
X0567050Y0161216D01*
X0567050Y0158824D01*
X0568742Y0157132D01*
X0571134Y0157132D01*
X0572825Y0158824D01*
X0572825Y0160503D01*
X0575204Y0162882D01*
X0576884Y0162882D01*
X0577238Y0163236D01*
X0577238Y0160074D01*
X0576321Y0159157D01*
X0574642Y0159157D01*
X0572950Y0157466D01*
X0572950Y0155074D01*
X0574217Y0153807D01*
X0573342Y0153807D01*
X0571650Y0152116D01*
X0571650Y0149724D01*
X0573342Y0148032D01*
X0575734Y0148032D01*
X0577425Y0149724D01*
X0577425Y0150603D01*
X0579550Y0152728D01*
X0579550Y0152574D01*
X0581242Y0150882D01*
X0583634Y0150882D01*
X0585325Y0152574D01*
X0585325Y0154966D01*
X0584138Y0156153D01*
X0584138Y0163566D01*
X0589592Y0169020D01*
X0640688Y0169020D01*
X0643688Y0166020D01*
X0643688Y0075020D01*
X0639688Y0071020D01*
X0296688Y0071020D01*
X0293688Y0074020D01*
X0293688Y0128020D01*
X0293688Y0126929D02*
X0466013Y0126929D01*
X0465050Y0125930D02*
X0413360Y0125930D01*
X0409015Y0125930D02*
X0293688Y0125930D01*
X0293688Y0124932D02*
X0408300Y0124932D01*
X0408300Y0123933D02*
X0293688Y0123933D01*
X0293688Y0122935D02*
X0408300Y0122935D01*
X0409188Y0121936D02*
X0293688Y0121936D01*
X0293688Y0120938D02*
X0411050Y0120938D01*
X0407028Y0118941D02*
X0401639Y0118941D01*
X0401095Y0119485D02*
X0399818Y0119485D01*
X0399818Y0115717D01*
X0403586Y0115717D01*
X0403586Y0116994D01*
X0401095Y0119485D01*
X0399818Y0118941D02*
X0398849Y0118941D01*
X0398849Y0117942D02*
X0399818Y0117942D01*
X0399818Y0116944D02*
X0398849Y0116944D01*
X0398849Y0115945D02*
X0399818Y0115945D01*
X0399818Y0114947D02*
X0405081Y0114947D01*
X0405081Y0115945D02*
X0403586Y0115945D01*
X0403586Y0116944D02*
X0405081Y0116944D01*
X0406029Y0117942D02*
X0402638Y0117942D01*
X0403586Y0113948D02*
X0405081Y0113948D01*
X0405602Y0112950D02*
X0403065Y0112950D01*
X0402067Y0111951D02*
X0406600Y0111951D01*
X0404657Y0109954D02*
X0439718Y0109954D01*
X0440717Y0110953D02*
X0403659Y0110953D01*
X0405656Y0108956D02*
X0407042Y0108956D01*
X0411624Y0108956D02*
X0417042Y0108956D01*
X0417572Y0109485D02*
X0415081Y0106994D01*
X0415081Y0103471D01*
X0417572Y0100980D01*
X0421095Y0100980D01*
X0423586Y0103471D01*
X0423586Y0106994D01*
X0421095Y0109485D01*
X0417572Y0109485D01*
X0416044Y0107957D02*
X0412623Y0107957D01*
X0413586Y0106959D02*
X0415081Y0106959D01*
X0415081Y0105960D02*
X0413586Y0105960D01*
X0413586Y0104962D02*
X0415081Y0104962D01*
X0415081Y0103963D02*
X0413586Y0103963D01*
X0413080Y0102965D02*
X0415587Y0102965D01*
X0416585Y0101966D02*
X0412081Y0101966D01*
X0406186Y0095975D02*
X0400995Y0095975D01*
X0401993Y0094977D02*
X0407185Y0094977D01*
X0405188Y0096974D02*
X0399996Y0096974D01*
X0398998Y0097972D02*
X0404189Y0097972D01*
X0403191Y0098971D02*
X0397999Y0098971D01*
X0397001Y0099969D02*
X0402192Y0099969D01*
X0401194Y0100968D02*
X0396002Y0100968D01*
X0396585Y0101966D02*
X0395004Y0101966D01*
X0395587Y0102965D02*
X0394005Y0102965D01*
X0393586Y0103963D02*
X0395081Y0103963D01*
X0395081Y0104962D02*
X0393586Y0104962D01*
X0393586Y0105960D02*
X0395081Y0105960D01*
X0395081Y0106959D02*
X0393586Y0106959D01*
X0392623Y0107957D02*
X0396044Y0107957D01*
X0393206Y0108956D02*
X0391624Y0108956D01*
X0392207Y0109954D02*
X0376138Y0109954D01*
X0376138Y0108956D02*
X0377042Y0108956D01*
X0377572Y0110980D02*
X0375081Y0113471D01*
X0375081Y0114748D01*
X0378849Y0114748D01*
X0378849Y0115717D01*
X0378849Y0119485D01*
X0377572Y0119485D01*
X0375081Y0116994D01*
X0375081Y0115717D01*
X0378849Y0115717D01*
X0379818Y0115717D01*
X0379818Y0119485D01*
X0381095Y0119485D01*
X0383586Y0116994D01*
X0383586Y0115717D01*
X0379818Y0115717D01*
X0379818Y0114748D01*
X0383586Y0114748D01*
X0383586Y0113471D01*
X0381095Y0110980D01*
X0379818Y0110980D01*
X0379818Y0114748D01*
X0378849Y0114748D01*
X0378849Y0110980D01*
X0377572Y0110980D01*
X0376600Y0111951D02*
X0375019Y0111951D01*
X0375602Y0112950D02*
X0374020Y0112950D01*
X0373586Y0113948D02*
X0375081Y0113948D01*
X0373586Y0114947D02*
X0378849Y0114947D01*
X0379818Y0114947D02*
X0385081Y0114947D01*
X0385081Y0115945D02*
X0383586Y0115945D01*
X0383586Y0116944D02*
X0385081Y0116944D01*
X0386029Y0117942D02*
X0382638Y0117942D01*
X0381639Y0118941D02*
X0387028Y0118941D01*
X0391639Y0118941D02*
X0397028Y0118941D01*
X0396029Y0117942D02*
X0392638Y0117942D01*
X0393586Y0116944D02*
X0395081Y0116944D01*
X0395081Y0115945D02*
X0393586Y0115945D01*
X0393586Y0114947D02*
X0398849Y0114947D01*
X0396600Y0111951D02*
X0395019Y0111951D01*
X0395602Y0112950D02*
X0394020Y0112950D01*
X0393586Y0113948D02*
X0395081Y0113948D01*
X0391209Y0110953D02*
X0376017Y0110953D01*
X0378849Y0111951D02*
X0379818Y0111951D01*
X0379818Y0112950D02*
X0378849Y0112950D01*
X0378849Y0113948D02*
X0379818Y0113948D01*
X0379818Y0115945D02*
X0378849Y0115945D01*
X0378849Y0116944D02*
X0379818Y0116944D01*
X0379818Y0117942D02*
X0378849Y0117942D01*
X0378849Y0118941D02*
X0379818Y0118941D01*
X0377028Y0118941D02*
X0371639Y0118941D01*
X0372638Y0117942D02*
X0376029Y0117942D01*
X0375081Y0116944D02*
X0373586Y0116944D01*
X0373586Y0115945D02*
X0375081Y0115945D01*
X0371209Y0110953D02*
X0355909Y0110953D01*
X0356138Y0109954D02*
X0372207Y0109954D01*
X0372738Y0108956D02*
X0371624Y0108956D01*
X0372623Y0107957D02*
X0372738Y0107957D01*
X0367042Y0108956D02*
X0361624Y0108956D01*
X0361095Y0109485D02*
X0359818Y0109485D01*
X0359818Y0105717D01*
X0363586Y0105717D01*
X0363586Y0106994D01*
X0361095Y0109485D01*
X0359818Y0108956D02*
X0358849Y0108956D01*
X0358849Y0107957D02*
X0359818Y0107957D01*
X0359818Y0106959D02*
X0358849Y0106959D01*
X0358849Y0105960D02*
X0359818Y0105960D01*
X0359818Y0104962D02*
X0365081Y0104962D01*
X0365081Y0105960D02*
X0363586Y0105960D01*
X0363586Y0106959D02*
X0365081Y0106959D01*
X0366044Y0107957D02*
X0362623Y0107957D01*
X0363586Y0104748D02*
X0359818Y0104748D01*
X0359818Y0100980D01*
X0361095Y0100980D01*
X0363586Y0103471D01*
X0363586Y0104748D01*
X0363586Y0103963D02*
X0365081Y0103963D01*
X0365587Y0102965D02*
X0363080Y0102965D01*
X0362081Y0101966D02*
X0366585Y0101966D01*
X0371194Y0100968D02*
X0357144Y0100968D01*
X0356585Y0101966D02*
X0356145Y0101966D01*
X0358849Y0101966D02*
X0359818Y0101966D01*
X0359818Y0102965D02*
X0358849Y0102965D01*
X0358849Y0103963D02*
X0359818Y0103963D01*
X0358142Y0099969D02*
X0372192Y0099969D01*
X0373191Y0098971D02*
X0359141Y0098971D01*
X0360139Y0097972D02*
X0374189Y0097972D01*
X0375188Y0096974D02*
X0361138Y0096974D01*
X0362136Y0095975D02*
X0376186Y0095975D01*
X0377185Y0094977D02*
X0363135Y0094977D01*
X0364133Y0093978D02*
X0378183Y0093978D01*
X0379182Y0092979D02*
X0365132Y0092979D01*
X0366130Y0091981D02*
X0380180Y0091981D01*
X0381179Y0090982D02*
X0367129Y0090982D01*
X0368128Y0089984D02*
X0382177Y0089984D01*
X0383176Y0088985D02*
X0369126Y0088985D01*
X0370125Y0087987D02*
X0384175Y0087987D01*
X0389132Y0092979D02*
X0399182Y0092979D01*
X0398183Y0093978D02*
X0388133Y0093978D01*
X0387135Y0094977D02*
X0397185Y0094977D01*
X0396186Y0095975D02*
X0386136Y0095975D01*
X0385138Y0096974D02*
X0395188Y0096974D01*
X0394189Y0097972D02*
X0384139Y0097972D01*
X0383141Y0098971D02*
X0393191Y0098971D01*
X0392192Y0099969D02*
X0382142Y0099969D01*
X0381144Y0100968D02*
X0391194Y0100968D01*
X0386585Y0101966D02*
X0382081Y0101966D01*
X0383080Y0102965D02*
X0385587Y0102965D01*
X0385081Y0103963D02*
X0383586Y0103963D01*
X0383586Y0104962D02*
X0385081Y0104962D01*
X0385081Y0105960D02*
X0383586Y0105960D01*
X0383586Y0106959D02*
X0385081Y0106959D01*
X0386044Y0107957D02*
X0382623Y0107957D01*
X0381624Y0108956D02*
X0387042Y0108956D01*
X0386600Y0111951D02*
X0382067Y0111951D01*
X0383065Y0112950D02*
X0385602Y0112950D01*
X0385081Y0113948D02*
X0383586Y0113948D01*
X0366600Y0111951D02*
X0362067Y0111951D01*
X0361095Y0110980D02*
X0363586Y0113471D01*
X0363586Y0116994D01*
X0361095Y0119485D01*
X0357572Y0119485D01*
X0355081Y0116994D01*
X0355081Y0113471D01*
X0357572Y0110980D01*
X0361095Y0110980D01*
X0363065Y0112950D02*
X0365602Y0112950D01*
X0365081Y0113948D02*
X0363586Y0113948D01*
X0363586Y0114947D02*
X0365081Y0114947D01*
X0365081Y0115945D02*
X0363586Y0115945D01*
X0363586Y0116944D02*
X0365081Y0116944D01*
X0366029Y0117942D02*
X0362638Y0117942D01*
X0361639Y0118941D02*
X0367028Y0118941D01*
X0357028Y0118941D02*
X0351639Y0118941D01*
X0352638Y0117942D02*
X0356029Y0117942D01*
X0355081Y0116944D02*
X0353586Y0116944D01*
X0353586Y0115945D02*
X0355081Y0115945D01*
X0355081Y0114947D02*
X0353586Y0114947D01*
X0353586Y0113948D02*
X0355081Y0113948D01*
X0355602Y0112950D02*
X0353912Y0112950D01*
X0354910Y0111951D02*
X0356600Y0111951D01*
X0357042Y0108956D02*
X0356138Y0108956D01*
X0352738Y0108956D02*
X0351624Y0108956D01*
X0352099Y0109954D02*
X0326138Y0109954D01*
X0326138Y0108956D02*
X0327042Y0108956D01*
X0327572Y0110980D02*
X0331095Y0110980D01*
X0333586Y0113471D01*
X0333586Y0116994D01*
X0331095Y0119485D01*
X0327572Y0119485D01*
X0325081Y0116994D01*
X0325081Y0113471D01*
X0327572Y0110980D01*
X0326600Y0111951D02*
X0325019Y0111951D01*
X0325602Y0112950D02*
X0324020Y0112950D01*
X0323586Y0113948D02*
X0325081Y0113948D01*
X0325081Y0114947D02*
X0323586Y0114947D01*
X0323586Y0115945D02*
X0325081Y0115945D01*
X0325081Y0116944D02*
X0323586Y0116944D01*
X0322638Y0117942D02*
X0326029Y0117942D01*
X0327028Y0118941D02*
X0321639Y0118941D01*
X0317028Y0118941D02*
X0311639Y0118941D01*
X0312638Y0117942D02*
X0316029Y0117942D01*
X0315081Y0116944D02*
X0313586Y0116944D01*
X0313586Y0115945D02*
X0315081Y0115945D01*
X0315081Y0114947D02*
X0313586Y0114947D01*
X0313586Y0113948D02*
X0315081Y0113948D01*
X0315602Y0112950D02*
X0313065Y0112950D01*
X0312067Y0111951D02*
X0316600Y0111951D01*
X0317042Y0108956D02*
X0313354Y0108956D01*
X0313586Y0107957D02*
X0316044Y0107957D01*
X0315081Y0106959D02*
X0313586Y0106959D01*
X0313586Y0105960D02*
X0315081Y0105960D01*
X0315081Y0104962D02*
X0313586Y0104962D01*
X0313586Y0103963D02*
X0315081Y0103963D01*
X0315587Y0102965D02*
X0313586Y0102965D01*
X0313586Y0101966D02*
X0316585Y0101966D01*
X0322081Y0101966D02*
X0322738Y0101966D01*
X0323586Y0100968D02*
X0293688Y0100968D01*
X0293688Y0101966D02*
X0305081Y0101966D01*
X0305081Y0102965D02*
X0293688Y0102965D01*
X0293688Y0103963D02*
X0305081Y0103963D01*
X0293688Y0099969D02*
X0324584Y0099969D01*
X0325583Y0098971D02*
X0293688Y0098971D01*
X0293688Y0097972D02*
X0326581Y0097972D01*
X0327580Y0096974D02*
X0293688Y0096974D01*
X0293688Y0095975D02*
X0328578Y0095975D01*
X0329577Y0094977D02*
X0293688Y0094977D01*
X0293688Y0093978D02*
X0330575Y0093978D01*
X0331574Y0092979D02*
X0293688Y0092979D01*
X0293688Y0091981D02*
X0332572Y0091981D01*
X0333571Y0090982D02*
X0293688Y0090982D01*
X0293688Y0089984D02*
X0334569Y0089984D01*
X0335568Y0088985D02*
X0293688Y0088985D01*
X0293688Y0087987D02*
X0336566Y0087987D01*
X0337565Y0086988D02*
X0293688Y0086988D01*
X0293688Y0085990D02*
X0338563Y0085990D01*
X0339562Y0084991D02*
X0293688Y0084991D01*
X0293688Y0083993D02*
X0340560Y0083993D01*
X0341559Y0082994D02*
X0293688Y0082994D01*
X0293688Y0081996D02*
X0342557Y0081996D01*
X0343556Y0080997D02*
X0293688Y0080997D01*
X0293688Y0079999D02*
X0643688Y0079999D01*
X0643688Y0079000D02*
X0293688Y0079000D01*
X0293688Y0078002D02*
X0643688Y0078002D01*
X0643688Y0077003D02*
X0293688Y0077003D01*
X0293688Y0076005D02*
X0643688Y0076005D01*
X0643674Y0075006D02*
X0293688Y0075006D01*
X0293700Y0074008D02*
X0642676Y0074008D01*
X0641677Y0073009D02*
X0294698Y0073009D01*
X0295697Y0072011D02*
X0640679Y0072011D01*
X0607381Y0083993D02*
X0595494Y0083993D01*
X0601488Y0087987D02*
X0606322Y0087987D01*
X0607320Y0088985D02*
X0604237Y0088985D01*
X0614352Y0113948D02*
X0448520Y0113948D01*
X0436600Y0111951D02*
X0432067Y0111951D01*
X0431095Y0110980D02*
X0433586Y0113471D01*
X0433586Y0114748D01*
X0429818Y0114748D01*
X0429818Y0115717D01*
X0428849Y0115717D01*
X0428849Y0119485D01*
X0427572Y0119485D01*
X0425081Y0116994D01*
X0425081Y0115717D01*
X0428849Y0115717D01*
X0428849Y0114748D01*
X0425081Y0114748D01*
X0425081Y0113471D01*
X0427572Y0110980D01*
X0428849Y0110980D01*
X0428849Y0114748D01*
X0429818Y0114748D01*
X0429818Y0110980D01*
X0431095Y0110980D01*
X0431095Y0109485D02*
X0429818Y0109485D01*
X0429818Y0105717D01*
X0428849Y0105717D01*
X0428849Y0109485D01*
X0427572Y0109485D01*
X0425081Y0106994D01*
X0425081Y0105717D01*
X0428849Y0105717D01*
X0428849Y0104748D01*
X0425081Y0104748D01*
X0425081Y0103471D01*
X0427572Y0100980D01*
X0428849Y0100980D01*
X0428849Y0104748D01*
X0429818Y0104748D01*
X0429818Y0105717D01*
X0433586Y0105717D01*
X0433586Y0106994D01*
X0431095Y0109485D01*
X0431624Y0108956D02*
X0437042Y0108956D01*
X0436044Y0107957D02*
X0432623Y0107957D01*
X0433586Y0106959D02*
X0435081Y0106959D01*
X0435081Y0105960D02*
X0433586Y0105960D01*
X0433586Y0104748D02*
X0429818Y0104748D01*
X0429818Y0100980D01*
X0431095Y0100980D01*
X0433586Y0103471D01*
X0433586Y0104748D01*
X0433586Y0103963D02*
X0435081Y0103963D01*
X0435081Y0104962D02*
X0429818Y0104962D01*
X0428849Y0104962D02*
X0423586Y0104962D01*
X0423586Y0105960D02*
X0425081Y0105960D01*
X0425081Y0106959D02*
X0423586Y0106959D01*
X0422623Y0107957D02*
X0426044Y0107957D01*
X0427042Y0108956D02*
X0421624Y0108956D01*
X0422067Y0111951D02*
X0426600Y0111951D01*
X0425602Y0112950D02*
X0423065Y0112950D01*
X0423586Y0113948D02*
X0425081Y0113948D01*
X0423586Y0114947D02*
X0428849Y0114947D01*
X0429818Y0114947D02*
X0435081Y0114947D01*
X0435081Y0115945D02*
X0433586Y0115945D01*
X0433586Y0115717D02*
X0433586Y0116994D01*
X0431095Y0119485D01*
X0429818Y0119485D01*
X0429818Y0115717D01*
X0433586Y0115717D01*
X0433586Y0116944D02*
X0435081Y0116944D01*
X0436029Y0117942D02*
X0432638Y0117942D01*
X0431639Y0118941D02*
X0437028Y0118941D01*
X0435081Y0113948D02*
X0433586Y0113948D01*
X0433065Y0112950D02*
X0435602Y0112950D01*
X0429818Y0112950D02*
X0428849Y0112950D01*
X0428849Y0113948D02*
X0429818Y0113948D01*
X0429818Y0111951D02*
X0428849Y0111951D01*
X0428849Y0108956D02*
X0429818Y0108956D01*
X0429818Y0107957D02*
X0428849Y0107957D01*
X0428849Y0106959D02*
X0429818Y0106959D01*
X0429818Y0105960D02*
X0428849Y0105960D01*
X0428849Y0103963D02*
X0429818Y0103963D01*
X0429818Y0102965D02*
X0428849Y0102965D01*
X0428849Y0101966D02*
X0429818Y0101966D01*
X0432081Y0101966D02*
X0436585Y0101966D01*
X0435587Y0102965D02*
X0433080Y0102965D01*
X0426585Y0101966D02*
X0422081Y0101966D01*
X0423080Y0102965D02*
X0425587Y0102965D01*
X0425081Y0103963D02*
X0423586Y0103963D01*
X0416600Y0111951D02*
X0412067Y0111951D01*
X0413065Y0112950D02*
X0415602Y0112950D01*
X0415081Y0113948D02*
X0413586Y0113948D01*
X0413586Y0114947D02*
X0415081Y0114947D01*
X0415081Y0115945D02*
X0413586Y0115945D01*
X0421639Y0118941D02*
X0427028Y0118941D01*
X0426029Y0117942D02*
X0422638Y0117942D01*
X0423586Y0116944D02*
X0425081Y0116944D01*
X0425081Y0115945D02*
X0423586Y0115945D01*
X0428849Y0115945D02*
X0429818Y0115945D01*
X0429818Y0116944D02*
X0428849Y0116944D01*
X0428849Y0117942D02*
X0429818Y0117942D01*
X0429818Y0118941D02*
X0428849Y0118941D01*
X0403580Y0137913D02*
X0491800Y0137913D01*
X0491800Y0138911D02*
X0404579Y0138911D01*
X0405577Y0139910D02*
X0492494Y0139910D01*
X0491800Y0136914D02*
X0402582Y0136914D01*
X0401583Y0135915D02*
X0492708Y0135915D01*
X0493488Y0134917D02*
X0400585Y0134917D01*
X0399586Y0133918D02*
X0493488Y0133918D01*
X0493488Y0132920D02*
X0398588Y0132920D01*
X0406576Y0140908D02*
X0546800Y0140908D01*
X0546800Y0141716D02*
X0546800Y0139324D01*
X0548492Y0137632D01*
X0550884Y0137632D01*
X0552071Y0138820D01*
X0574054Y0138820D01*
X0575242Y0137632D01*
X0577634Y0137632D01*
X0579325Y0139324D01*
X0579325Y0141716D01*
X0577634Y0143407D01*
X0575242Y0143407D01*
X0574054Y0142220D01*
X0552071Y0142220D01*
X0550884Y0143407D01*
X0548492Y0143407D01*
X0546800Y0141716D01*
X0546991Y0141907D02*
X0407575Y0141907D01*
X0408573Y0142905D02*
X0547990Y0142905D01*
X0546800Y0139910D02*
X0496881Y0139910D01*
X0497575Y0138911D02*
X0547213Y0138911D01*
X0548211Y0137913D02*
X0504628Y0137913D01*
X0505627Y0136914D02*
X0615029Y0136914D01*
X0615426Y0136517D02*
X0618949Y0136517D01*
X0621440Y0139008D01*
X0621440Y0142531D01*
X0618949Y0145022D01*
X0615426Y0145022D01*
X0612935Y0142531D01*
X0612935Y0139008D01*
X0615426Y0136517D01*
X0615426Y0135022D02*
X0612935Y0132531D01*
X0612935Y0131254D01*
X0616703Y0131254D01*
X0616703Y0130285D01*
X0617672Y0130285D01*
X0617672Y0126517D01*
X0618949Y0126517D01*
X0621440Y0129008D01*
X0621440Y0130285D01*
X0617672Y0130285D01*
X0617672Y0131254D01*
X0621440Y0131254D01*
X0621440Y0132531D01*
X0618949Y0135022D01*
X0617672Y0135022D01*
X0617672Y0131254D01*
X0616703Y0131254D01*
X0616703Y0135022D01*
X0615426Y0135022D01*
X0615321Y0134917D02*
X0586874Y0134917D01*
X0587872Y0133918D02*
X0614322Y0133918D01*
X0613324Y0132920D02*
X0588075Y0132920D01*
X0588075Y0131921D02*
X0612935Y0131921D01*
X0612935Y0130285D02*
X0612935Y0129008D01*
X0615426Y0126517D01*
X0616703Y0126517D01*
X0616703Y0130285D01*
X0612935Y0130285D01*
X0612935Y0129924D02*
X0589866Y0129924D01*
X0590075Y0128926D02*
X0613017Y0128926D01*
X0614016Y0127927D02*
X0590075Y0127927D01*
X0589680Y0126929D02*
X0615014Y0126929D01*
X0616703Y0126929D02*
X0617672Y0126929D01*
X0617672Y0127927D02*
X0616703Y0127927D01*
X0616703Y0128926D02*
X0617672Y0128926D01*
X0617672Y0129924D02*
X0616703Y0129924D01*
X0616703Y0130923D02*
X0588868Y0130923D01*
X0588682Y0125930D02*
X0643688Y0125930D01*
X0643688Y0124932D02*
X0619040Y0124932D01*
X0620038Y0123933D02*
X0643688Y0123933D01*
X0643688Y0122935D02*
X0621037Y0122935D01*
X0621440Y0121936D02*
X0643688Y0121936D01*
X0643688Y0120938D02*
X0621440Y0120938D01*
X0621440Y0119939D02*
X0643688Y0119939D01*
X0643688Y0118941D02*
X0621373Y0118941D01*
X0620375Y0117942D02*
X0643688Y0117942D01*
X0643688Y0116944D02*
X0619376Y0116944D01*
X0614001Y0117942D02*
X0574014Y0117942D01*
X0575013Y0118941D02*
X0613002Y0118941D01*
X0612935Y0119939D02*
X0576011Y0119939D01*
X0577010Y0120938D02*
X0612935Y0120938D01*
X0612935Y0121936D02*
X0578008Y0121936D01*
X0579007Y0122935D02*
X0613339Y0122935D01*
X0614337Y0123933D02*
X0580005Y0123933D01*
X0581004Y0124932D02*
X0615336Y0124932D01*
X0619361Y0126929D02*
X0643688Y0126929D01*
X0643688Y0127927D02*
X0620360Y0127927D01*
X0621358Y0128926D02*
X0643688Y0128926D01*
X0643688Y0129924D02*
X0621440Y0129924D01*
X0621440Y0131921D02*
X0643688Y0131921D01*
X0643688Y0130923D02*
X0617672Y0130923D01*
X0617672Y0131921D02*
X0616703Y0131921D01*
X0616703Y0132920D02*
X0617672Y0132920D01*
X0617672Y0133918D02*
X0616703Y0133918D01*
X0616703Y0134917D02*
X0617672Y0134917D01*
X0619055Y0134917D02*
X0643688Y0134917D01*
X0643688Y0135915D02*
X0506075Y0135915D01*
X0506075Y0134917D02*
X0583502Y0134917D01*
X0582503Y0133918D02*
X0505920Y0133918D01*
X0504921Y0132920D02*
X0581684Y0132920D01*
X0580685Y0131921D02*
X0504888Y0131921D01*
X0504888Y0130923D02*
X0579687Y0130923D01*
X0578688Y0129924D02*
X0504888Y0129924D01*
X0504888Y0128926D02*
X0577690Y0128926D01*
X0576691Y0127927D02*
X0504888Y0127927D01*
X0504888Y0126929D02*
X0575693Y0126929D01*
X0574694Y0125930D02*
X0504888Y0125930D01*
X0504888Y0124932D02*
X0573696Y0124932D01*
X0572697Y0123933D02*
X0504255Y0123933D01*
X0503257Y0122935D02*
X0571699Y0122935D01*
X0570700Y0121936D02*
X0504675Y0121936D01*
X0505674Y0120938D02*
X0569702Y0120938D01*
X0582002Y0125930D02*
X0585694Y0125930D01*
X0577914Y0137913D02*
X0614031Y0137913D01*
X0613032Y0138911D02*
X0578912Y0138911D01*
X0579325Y0139910D02*
X0612935Y0139910D01*
X0612935Y0140908D02*
X0579325Y0140908D01*
X0579134Y0141907D02*
X0612935Y0141907D01*
X0613309Y0142905D02*
X0578136Y0142905D01*
X0574740Y0142905D02*
X0551386Y0142905D01*
X0551164Y0137913D02*
X0574961Y0137913D01*
X0576597Y0148896D02*
X0613047Y0148896D01*
X0612935Y0149008D02*
X0615426Y0146517D01*
X0618949Y0146517D01*
X0621440Y0149008D01*
X0621440Y0152531D01*
X0618949Y0155022D01*
X0615426Y0155022D01*
X0612935Y0152531D01*
X0612935Y0149008D01*
X0612935Y0149895D02*
X0577425Y0149895D01*
X0577715Y0150893D02*
X0581231Y0150893D01*
X0580232Y0151892D02*
X0578714Y0151892D01*
X0574135Y0153889D02*
X0419557Y0153889D01*
X0420555Y0154887D02*
X0573137Y0154887D01*
X0572950Y0155886D02*
X0439387Y0155886D01*
X0440386Y0156884D02*
X0572950Y0156884D01*
X0573367Y0157883D02*
X0571884Y0157883D01*
X0572825Y0158881D02*
X0574366Y0158881D01*
X0572825Y0159880D02*
X0577044Y0159880D01*
X0577238Y0160878D02*
X0573200Y0160878D01*
X0574199Y0161877D02*
X0577238Y0161877D01*
X0577238Y0162875D02*
X0575197Y0162875D01*
X0572386Y0164872D02*
X0478683Y0164872D01*
X0480074Y0165871D02*
X0572800Y0165871D01*
X0572800Y0166869D02*
X0481073Y0166869D01*
X0482619Y0167868D02*
X0573702Y0167868D01*
X0577673Y0167868D02*
X0578632Y0167868D01*
X0579630Y0168866D02*
X0483325Y0168866D01*
X0440661Y0159880D02*
X0567050Y0159880D01*
X0567050Y0160878D02*
X0439662Y0160878D01*
X0440825Y0158881D02*
X0567050Y0158881D01*
X0567991Y0157883D02*
X0440825Y0157883D01*
X0436488Y0155886D02*
X0421554Y0155886D01*
X0422552Y0156884D02*
X0435490Y0156884D01*
X0435050Y0157883D02*
X0423551Y0157883D01*
X0424549Y0158881D02*
X0435050Y0158881D01*
X0436985Y0161877D02*
X0567711Y0161877D01*
X0568710Y0162875D02*
X0435986Y0162875D01*
X0429542Y0163874D02*
X0571388Y0163874D01*
X0584138Y0162875D02*
X0643688Y0162875D01*
X0643688Y0161877D02*
X0584138Y0161877D01*
X0584138Y0160878D02*
X0643688Y0160878D01*
X0643688Y0159880D02*
X0584138Y0159880D01*
X0584138Y0158881D02*
X0643688Y0158881D01*
X0643688Y0157883D02*
X0584138Y0157883D01*
X0584138Y0156884D02*
X0643688Y0156884D01*
X0643688Y0155886D02*
X0584405Y0155886D01*
X0585325Y0154887D02*
X0615291Y0154887D01*
X0614292Y0153889D02*
X0585325Y0153889D01*
X0585325Y0152890D02*
X0613294Y0152890D01*
X0612935Y0151892D02*
X0584643Y0151892D01*
X0583645Y0150893D02*
X0612935Y0150893D01*
X0614045Y0147898D02*
X0413566Y0147898D01*
X0414564Y0148896D02*
X0572478Y0148896D01*
X0571650Y0149895D02*
X0415563Y0149895D01*
X0416561Y0150893D02*
X0571650Y0150893D01*
X0571650Y0151892D02*
X0417560Y0151892D01*
X0418558Y0152890D02*
X0572425Y0152890D01*
X0584446Y0163874D02*
X0643688Y0163874D01*
X0643688Y0164872D02*
X0585444Y0164872D01*
X0586443Y0165871D02*
X0643688Y0165871D01*
X0642838Y0166869D02*
X0587441Y0166869D01*
X0588440Y0167868D02*
X0641840Y0167868D01*
X0640841Y0168866D02*
X0589438Y0168866D01*
X0619084Y0154887D02*
X0643688Y0154887D01*
X0643688Y0153889D02*
X0620083Y0153889D01*
X0621081Y0152890D02*
X0643688Y0152890D01*
X0643688Y0151892D02*
X0621440Y0151892D01*
X0621440Y0150893D02*
X0643688Y0150893D01*
X0643688Y0149895D02*
X0621440Y0149895D01*
X0621328Y0148896D02*
X0643688Y0148896D01*
X0643688Y0147898D02*
X0620330Y0147898D01*
X0619331Y0146899D02*
X0643688Y0146899D01*
X0643688Y0145901D02*
X0411569Y0145901D01*
X0412567Y0146899D02*
X0615044Y0146899D01*
X0615306Y0144902D02*
X0410570Y0144902D01*
X0409572Y0143904D02*
X0614307Y0143904D01*
X0619070Y0144902D02*
X0643688Y0144902D01*
X0643688Y0143904D02*
X0620068Y0143904D01*
X0621067Y0142905D02*
X0643688Y0142905D01*
X0643688Y0141907D02*
X0621440Y0141907D01*
X0621440Y0140908D02*
X0643688Y0140908D01*
X0643688Y0139910D02*
X0621440Y0139910D01*
X0621343Y0138911D02*
X0643688Y0138911D01*
X0643688Y0137913D02*
X0620345Y0137913D01*
X0619346Y0136914D02*
X0643688Y0136914D01*
X0643688Y0133918D02*
X0620053Y0133918D01*
X0621052Y0132920D02*
X0643688Y0132920D01*
X0501747Y0137913D02*
X0497575Y0137913D01*
X0497575Y0136914D02*
X0500749Y0136914D01*
X0500300Y0135915D02*
X0496888Y0135915D01*
X0496888Y0134917D02*
X0500300Y0134917D01*
X0500455Y0133918D02*
X0496888Y0133918D01*
X0496888Y0132920D02*
X0501454Y0132920D01*
X0501488Y0131921D02*
X0496888Y0131921D01*
X0496888Y0130923D02*
X0501488Y0130923D01*
X0501488Y0129924D02*
X0497187Y0129924D01*
X0498186Y0128926D02*
X0501488Y0128926D01*
X0501488Y0127927D02*
X0500863Y0127927D01*
X0493488Y0128926D02*
X0294594Y0128926D01*
X0295592Y0129924D02*
X0493488Y0129924D01*
X0493488Y0130923D02*
X0296591Y0130923D01*
X0297589Y0131921D02*
X0493488Y0131921D01*
X0366810Y0083993D02*
X0345369Y0083993D01*
X0344370Y0084991D02*
X0365812Y0084991D01*
X0364813Y0085990D02*
X0343372Y0085990D01*
X0342373Y0086988D02*
X0363815Y0086988D01*
X0362816Y0087987D02*
X0341375Y0087987D01*
X0340376Y0088985D02*
X0361818Y0088985D01*
X0360819Y0089984D02*
X0339378Y0089984D01*
X0338379Y0090982D02*
X0359821Y0090982D01*
X0358822Y0091981D02*
X0337381Y0091981D01*
X0336382Y0092979D02*
X0357824Y0092979D01*
X0356825Y0093978D02*
X0335383Y0093978D01*
X0334385Y0094977D02*
X0355827Y0094977D01*
X0354828Y0095975D02*
X0333386Y0095975D01*
X0332388Y0096974D02*
X0353830Y0096974D01*
X0352831Y0097972D02*
X0331389Y0097972D01*
X0330391Y0098971D02*
X0351833Y0098971D01*
X0350834Y0099969D02*
X0329392Y0099969D01*
X0328394Y0100968D02*
X0349836Y0100968D01*
X0346585Y0101966D02*
X0342081Y0101966D01*
X0341095Y0100980D02*
X0343586Y0103471D01*
X0343586Y0104748D01*
X0339818Y0104748D01*
X0339818Y0105717D01*
X0338849Y0105717D01*
X0338849Y0109485D01*
X0337572Y0109485D01*
X0335081Y0106994D01*
X0335081Y0105717D01*
X0338849Y0105717D01*
X0338849Y0104748D01*
X0335081Y0104748D01*
X0335081Y0103471D01*
X0337572Y0100980D01*
X0338849Y0100980D01*
X0338849Y0104748D01*
X0339818Y0104748D01*
X0339818Y0100980D01*
X0341095Y0100980D01*
X0339818Y0101966D02*
X0338849Y0101966D01*
X0338849Y0102965D02*
X0339818Y0102965D01*
X0339818Y0103963D02*
X0338849Y0103963D01*
X0338849Y0104962D02*
X0333586Y0104962D01*
X0333586Y0105960D02*
X0335081Y0105960D01*
X0335081Y0106959D02*
X0333586Y0106959D01*
X0332623Y0107957D02*
X0336044Y0107957D01*
X0337042Y0108956D02*
X0331624Y0108956D01*
X0332067Y0111951D02*
X0336600Y0111951D01*
X0337572Y0110980D02*
X0341095Y0110980D01*
X0343586Y0113471D01*
X0343586Y0116994D01*
X0341095Y0119485D01*
X0337572Y0119485D01*
X0335081Y0116994D01*
X0335081Y0113471D01*
X0337572Y0110980D01*
X0338849Y0108956D02*
X0339818Y0108956D01*
X0339818Y0109485D02*
X0341095Y0109485D01*
X0343586Y0106994D01*
X0343586Y0105717D01*
X0339818Y0105717D01*
X0339818Y0109485D01*
X0339818Y0107957D02*
X0338849Y0107957D01*
X0338849Y0106959D02*
X0339818Y0106959D01*
X0339818Y0105960D02*
X0338849Y0105960D01*
X0339818Y0104962D02*
X0345081Y0104962D01*
X0345081Y0105960D02*
X0343586Y0105960D01*
X0343586Y0106959D02*
X0345081Y0106959D01*
X0346044Y0107957D02*
X0342623Y0107957D01*
X0341624Y0108956D02*
X0347042Y0108956D01*
X0346600Y0111951D02*
X0342067Y0111951D01*
X0343065Y0112950D02*
X0345602Y0112950D01*
X0345081Y0113948D02*
X0343586Y0113948D01*
X0343586Y0114947D02*
X0345081Y0114947D01*
X0345081Y0115945D02*
X0343586Y0115945D01*
X0343586Y0116944D02*
X0345081Y0116944D01*
X0346029Y0117942D02*
X0342638Y0117942D01*
X0341639Y0118941D02*
X0347028Y0118941D01*
X0351100Y0110953D02*
X0326017Y0110953D01*
X0333065Y0112950D02*
X0335602Y0112950D01*
X0335081Y0113948D02*
X0333586Y0113948D01*
X0333586Y0114947D02*
X0335081Y0114947D01*
X0335081Y0115945D02*
X0333586Y0115945D01*
X0333586Y0116944D02*
X0335081Y0116944D01*
X0336029Y0117942D02*
X0332638Y0117942D01*
X0331639Y0118941D02*
X0337028Y0118941D01*
X0352623Y0107957D02*
X0352738Y0107957D01*
X0345081Y0103963D02*
X0343586Y0103963D01*
X0343080Y0102965D02*
X0345587Y0102965D01*
X0336585Y0101966D02*
X0332081Y0101966D01*
X0333080Y0102965D02*
X0335587Y0102965D01*
X0335081Y0103963D02*
X0333586Y0103963D01*
X0177005Y0085219D02*
X0168737Y0085219D01*
X0168737Y0083644D02*
X0177005Y0083644D01*
X0161871Y0084431D02*
X0161874Y0084701D01*
X0161884Y0084971D01*
X0161901Y0085240D01*
X0161924Y0085509D01*
X0161954Y0085778D01*
X0161990Y0086045D01*
X0162033Y0086312D01*
X0162082Y0086577D01*
X0162138Y0086841D01*
X0162201Y0087104D01*
X0162269Y0087365D01*
X0162345Y0087624D01*
X0162426Y0087881D01*
X0162514Y0088137D01*
X0162608Y0088390D01*
X0162708Y0088641D01*
X0162815Y0088889D01*
X0162927Y0089134D01*
X0163046Y0089377D01*
X0163170Y0089616D01*
X0163300Y0089853D01*
X0163436Y0090086D01*
X0163578Y0090316D01*
X0163725Y0090542D01*
X0163878Y0090765D01*
X0164036Y0090984D01*
X0164199Y0091199D01*
X0164368Y0091409D01*
X0164542Y0091616D01*
X0164721Y0091818D01*
X0164904Y0092016D01*
X0165093Y0092209D01*
X0165286Y0092398D01*
X0165484Y0092581D01*
X0165686Y0092760D01*
X0165893Y0092934D01*
X0166103Y0093103D01*
X0166318Y0093266D01*
X0166537Y0093424D01*
X0166760Y0093577D01*
X0166986Y0093724D01*
X0167216Y0093866D01*
X0167449Y0094002D01*
X0167686Y0094132D01*
X0167925Y0094256D01*
X0168168Y0094375D01*
X0168413Y0094487D01*
X0168661Y0094594D01*
X0168912Y0094694D01*
X0169165Y0094788D01*
X0169421Y0094876D01*
X0169678Y0094957D01*
X0169937Y0095033D01*
X0170198Y0095101D01*
X0170461Y0095164D01*
X0170725Y0095220D01*
X0170990Y0095269D01*
X0171257Y0095312D01*
X0171524Y0095348D01*
X0171793Y0095378D01*
X0172062Y0095401D01*
X0172331Y0095418D01*
X0172601Y0095428D01*
X0172871Y0095431D01*
X0173141Y0095428D01*
X0173411Y0095418D01*
X0173680Y0095401D01*
X0173949Y0095378D01*
X0174218Y0095348D01*
X0174485Y0095312D01*
X0174752Y0095269D01*
X0175017Y0095220D01*
X0175281Y0095164D01*
X0175544Y0095101D01*
X0175805Y0095033D01*
X0176064Y0094957D01*
X0176321Y0094876D01*
X0176577Y0094788D01*
X0176830Y0094694D01*
X0177081Y0094594D01*
X0177329Y0094487D01*
X0177574Y0094375D01*
X0177817Y0094256D01*
X0178056Y0094132D01*
X0178293Y0094002D01*
X0178526Y0093866D01*
X0178756Y0093724D01*
X0178982Y0093577D01*
X0179205Y0093424D01*
X0179424Y0093266D01*
X0179639Y0093103D01*
X0179849Y0092934D01*
X0180056Y0092760D01*
X0180258Y0092581D01*
X0180456Y0092398D01*
X0180649Y0092209D01*
X0180838Y0092016D01*
X0181021Y0091818D01*
X0181200Y0091616D01*
X0181374Y0091409D01*
X0181543Y0091199D01*
X0181706Y0090984D01*
X0181864Y0090765D01*
X0182017Y0090542D01*
X0182164Y0090316D01*
X0182306Y0090086D01*
X0182442Y0089853D01*
X0182572Y0089616D01*
X0182696Y0089377D01*
X0182815Y0089134D01*
X0182927Y0088889D01*
X0183034Y0088641D01*
X0183134Y0088390D01*
X0183228Y0088137D01*
X0183316Y0087881D01*
X0183397Y0087624D01*
X0183473Y0087365D01*
X0183541Y0087104D01*
X0183604Y0086841D01*
X0183660Y0086577D01*
X0183709Y0086312D01*
X0183752Y0086045D01*
X0183788Y0085778D01*
X0183818Y0085509D01*
X0183841Y0085240D01*
X0183858Y0084971D01*
X0183868Y0084701D01*
X0183871Y0084431D01*
X0183868Y0084161D01*
X0183858Y0083891D01*
X0183841Y0083622D01*
X0183818Y0083353D01*
X0183788Y0083084D01*
X0183752Y0082817D01*
X0183709Y0082550D01*
X0183660Y0082285D01*
X0183604Y0082021D01*
X0183541Y0081758D01*
X0183473Y0081497D01*
X0183397Y0081238D01*
X0183316Y0080981D01*
X0183228Y0080725D01*
X0183134Y0080472D01*
X0183034Y0080221D01*
X0182927Y0079973D01*
X0182815Y0079728D01*
X0182696Y0079485D01*
X0182572Y0079246D01*
X0182442Y0079009D01*
X0182306Y0078776D01*
X0182164Y0078546D01*
X0182017Y0078320D01*
X0181864Y0078097D01*
X0181706Y0077878D01*
X0181543Y0077663D01*
X0181374Y0077453D01*
X0181200Y0077246D01*
X0181021Y0077044D01*
X0180838Y0076846D01*
X0180649Y0076653D01*
X0180456Y0076464D01*
X0180258Y0076281D01*
X0180056Y0076102D01*
X0179849Y0075928D01*
X0179639Y0075759D01*
X0179424Y0075596D01*
X0179205Y0075438D01*
X0178982Y0075285D01*
X0178756Y0075138D01*
X0178526Y0074996D01*
X0178293Y0074860D01*
X0178056Y0074730D01*
X0177817Y0074606D01*
X0177574Y0074487D01*
X0177329Y0074375D01*
X0177081Y0074268D01*
X0176830Y0074168D01*
X0176577Y0074074D01*
X0176321Y0073986D01*
X0176064Y0073905D01*
X0175805Y0073829D01*
X0175544Y0073761D01*
X0175281Y0073698D01*
X0175017Y0073642D01*
X0174752Y0073593D01*
X0174485Y0073550D01*
X0174218Y0073514D01*
X0173949Y0073484D01*
X0173680Y0073461D01*
X0173411Y0073444D01*
X0173141Y0073434D01*
X0172871Y0073431D01*
X0172601Y0073434D01*
X0172331Y0073444D01*
X0172062Y0073461D01*
X0171793Y0073484D01*
X0171524Y0073514D01*
X0171257Y0073550D01*
X0170990Y0073593D01*
X0170725Y0073642D01*
X0170461Y0073698D01*
X0170198Y0073761D01*
X0169937Y0073829D01*
X0169678Y0073905D01*
X0169421Y0073986D01*
X0169165Y0074074D01*
X0168912Y0074168D01*
X0168661Y0074268D01*
X0168413Y0074375D01*
X0168168Y0074487D01*
X0167925Y0074606D01*
X0167686Y0074730D01*
X0167449Y0074860D01*
X0167216Y0074996D01*
X0166986Y0075138D01*
X0166760Y0075285D01*
X0166537Y0075438D01*
X0166318Y0075596D01*
X0166103Y0075759D01*
X0165893Y0075928D01*
X0165686Y0076102D01*
X0165484Y0076281D01*
X0165286Y0076464D01*
X0165093Y0076653D01*
X0164904Y0076846D01*
X0164721Y0077044D01*
X0164542Y0077246D01*
X0164368Y0077453D01*
X0164199Y0077663D01*
X0164036Y0077878D01*
X0163878Y0078097D01*
X0163725Y0078320D01*
X0163578Y0078546D01*
X0163436Y0078776D01*
X0163300Y0079009D01*
X0163170Y0079246D01*
X0163046Y0079485D01*
X0162927Y0079728D01*
X0162815Y0079973D01*
X0162708Y0080221D01*
X0162608Y0080472D01*
X0162514Y0080725D01*
X0162426Y0080981D01*
X0162345Y0081238D01*
X0162269Y0081497D01*
X0162201Y0081758D01*
X0162138Y0082021D01*
X0162082Y0082285D01*
X0162033Y0082550D01*
X0161990Y0082817D01*
X0161954Y0083084D01*
X0161924Y0083353D01*
X0161901Y0083622D01*
X0161884Y0083891D01*
X0161874Y0084161D01*
X0161871Y0084431D01*
X0171886Y0080494D02*
X0171886Y0088368D01*
X0173855Y0088368D02*
X0173855Y0080494D01*
D13*
X0173404Y0080458D02*
X0174304Y0080430D01*
X0174303Y0080431D02*
X0174304Y0080326D01*
X0174309Y0080220D01*
X0174317Y0080115D01*
X0174330Y0080011D01*
X0174346Y0079907D01*
X0174366Y0079804D01*
X0174391Y0079701D01*
X0174419Y0079600D01*
X0174450Y0079499D01*
X0174486Y0079400D01*
X0174525Y0079303D01*
X0174568Y0079207D01*
X0174615Y0079112D01*
X0174665Y0079020D01*
X0174718Y0078929D01*
X0174775Y0078840D01*
X0174835Y0078754D01*
X0174898Y0078670D01*
X0174965Y0078588D01*
X0175034Y0078509D01*
X0175107Y0078433D01*
X0175182Y0078359D01*
X0175260Y0078288D01*
X0175340Y0078220D01*
X0175423Y0078156D01*
X0175509Y0078094D01*
X0175597Y0078036D01*
X0175686Y0077981D01*
X0175778Y0077929D01*
X0175872Y0077881D01*
X0175967Y0077837D01*
X0176064Y0077796D01*
X0176163Y0077759D01*
X0176262Y0077725D01*
X0176363Y0077695D01*
X0176465Y0077670D01*
X0176568Y0077648D01*
X0176672Y0077629D01*
X0176776Y0077615D01*
X0176881Y0077605D01*
X0176986Y0077598D01*
X0177091Y0077596D01*
X0177197Y0077598D01*
X0177302Y0077603D01*
X0177407Y0077613D01*
X0177511Y0077626D01*
X0177615Y0077643D01*
X0177718Y0077664D01*
X0177820Y0077689D01*
X0177921Y0077718D01*
X0178022Y0077751D01*
X0178120Y0077787D01*
X0178218Y0077827D01*
X0178313Y0077871D01*
X0178407Y0077918D01*
X0178500Y0077969D01*
X0178590Y0078023D01*
X0178678Y0078081D01*
X0178764Y0078142D01*
X0178847Y0078206D01*
X0178929Y0078273D01*
X0179007Y0078343D01*
X0179083Y0078416D01*
X0179156Y0078492D01*
X0179226Y0078570D01*
X0179293Y0078652D01*
X0179357Y0078735D01*
X0179418Y0078821D01*
X0179476Y0078909D01*
X0179530Y0078999D01*
X0179581Y0079092D01*
X0179628Y0079186D01*
X0179672Y0079281D01*
X0179712Y0079379D01*
X0179748Y0079477D01*
X0179781Y0079578D01*
X0179810Y0079679D01*
X0179835Y0079781D01*
X0179856Y0079884D01*
X0179873Y0079988D01*
X0179886Y0080092D01*
X0179896Y0080197D01*
X0179901Y0080302D01*
X0179903Y0080408D01*
X0179901Y0080513D01*
X0179894Y0080618D01*
X0179884Y0080723D01*
X0179870Y0080827D01*
X0179851Y0080931D01*
X0179829Y0081034D01*
X0179804Y0081136D01*
X0179774Y0081237D01*
X0179740Y0081336D01*
X0179703Y0081435D01*
X0179662Y0081532D01*
X0179618Y0081627D01*
X0179570Y0081721D01*
X0179518Y0081813D01*
X0179463Y0081902D01*
X0179405Y0081990D01*
X0179343Y0082076D01*
X0179279Y0082159D01*
X0179211Y0082239D01*
X0179140Y0082317D01*
X0179066Y0082392D01*
X0178990Y0082465D01*
X0178911Y0082534D01*
X0178829Y0082601D01*
X0178745Y0082664D01*
X0178659Y0082724D01*
X0178570Y0082781D01*
X0178479Y0082834D01*
X0178387Y0082884D01*
X0178292Y0082931D01*
X0178196Y0082974D01*
X0178099Y0083013D01*
X0178000Y0083049D01*
X0177899Y0083080D01*
X0177798Y0083108D01*
X0177695Y0083133D01*
X0177592Y0083153D01*
X0177488Y0083169D01*
X0177384Y0083182D01*
X0177279Y0083190D01*
X0177173Y0083195D01*
X0177068Y0083196D01*
X0177041Y0084095D01*
X0177161Y0084096D01*
X0177281Y0084092D01*
X0177401Y0084084D01*
X0177521Y0084072D01*
X0177640Y0084057D01*
X0177759Y0084037D01*
X0177877Y0084014D01*
X0177994Y0083987D01*
X0178111Y0083956D01*
X0178226Y0083922D01*
X0178340Y0083883D01*
X0178452Y0083841D01*
X0178564Y0083796D01*
X0178673Y0083746D01*
X0178781Y0083693D01*
X0178888Y0083637D01*
X0178992Y0083577D01*
X0179094Y0083514D01*
X0179195Y0083448D01*
X0179293Y0083378D01*
X0179389Y0083306D01*
X0179482Y0083230D01*
X0179573Y0083151D01*
X0179661Y0083069D01*
X0179747Y0082985D01*
X0179829Y0082897D01*
X0179909Y0082808D01*
X0179986Y0082715D01*
X0180060Y0082620D01*
X0180131Y0082523D01*
X0180198Y0082423D01*
X0180262Y0082322D01*
X0180323Y0082218D01*
X0180381Y0082112D01*
X0180435Y0082005D01*
X0180485Y0081896D01*
X0180532Y0081785D01*
X0180576Y0081673D01*
X0180615Y0081559D01*
X0180651Y0081444D01*
X0180684Y0081329D01*
X0180712Y0081212D01*
X0180737Y0081094D01*
X0180757Y0080976D01*
X0180774Y0080856D01*
X0180787Y0080737D01*
X0180796Y0080617D01*
X0180802Y0080497D01*
X0180803Y0080377D01*
X0180800Y0080256D01*
X0180794Y0080136D01*
X0180783Y0080016D01*
X0180769Y0079897D01*
X0180751Y0079778D01*
X0180729Y0079660D01*
X0180703Y0079542D01*
X0180674Y0079426D01*
X0180640Y0079310D01*
X0180603Y0079196D01*
X0180562Y0079083D01*
X0180518Y0078971D01*
X0180470Y0078861D01*
X0180418Y0078752D01*
X0180363Y0078645D01*
X0180304Y0078540D01*
X0180242Y0078437D01*
X0180177Y0078336D01*
X0180108Y0078238D01*
X0180036Y0078141D01*
X0179962Y0078047D01*
X0179884Y0077955D01*
X0179803Y0077866D01*
X0179719Y0077780D01*
X0179633Y0077696D01*
X0179544Y0077615D01*
X0179452Y0077537D01*
X0179358Y0077463D01*
X0179261Y0077391D01*
X0179163Y0077322D01*
X0179062Y0077257D01*
X0178959Y0077195D01*
X0178854Y0077136D01*
X0178747Y0077081D01*
X0178638Y0077029D01*
X0178528Y0076981D01*
X0178416Y0076937D01*
X0178303Y0076896D01*
X0178189Y0076859D01*
X0178073Y0076825D01*
X0177957Y0076796D01*
X0177839Y0076770D01*
X0177721Y0076748D01*
X0177602Y0076730D01*
X0177483Y0076716D01*
X0177363Y0076705D01*
X0177243Y0076699D01*
X0177122Y0076696D01*
X0177002Y0076697D01*
X0176882Y0076703D01*
X0176762Y0076712D01*
X0176643Y0076725D01*
X0176523Y0076742D01*
X0176405Y0076762D01*
X0176287Y0076787D01*
X0176170Y0076815D01*
X0176055Y0076848D01*
X0175940Y0076884D01*
X0175826Y0076923D01*
X0175714Y0076967D01*
X0175603Y0077014D01*
X0175494Y0077064D01*
X0175387Y0077118D01*
X0175281Y0077176D01*
X0175177Y0077237D01*
X0175076Y0077301D01*
X0174976Y0077368D01*
X0174879Y0077439D01*
X0174784Y0077513D01*
X0174691Y0077590D01*
X0174602Y0077670D01*
X0174514Y0077752D01*
X0174430Y0077838D01*
X0174348Y0077926D01*
X0174269Y0078017D01*
X0174193Y0078110D01*
X0174121Y0078206D01*
X0174051Y0078304D01*
X0173985Y0078405D01*
X0173922Y0078507D01*
X0173862Y0078611D01*
X0173806Y0078718D01*
X0173753Y0078826D01*
X0173703Y0078935D01*
X0173658Y0079047D01*
X0173616Y0079159D01*
X0173577Y0079273D01*
X0173543Y0079388D01*
X0173512Y0079505D01*
X0173485Y0079622D01*
X0173462Y0079740D01*
X0173442Y0079859D01*
X0173427Y0079978D01*
X0173415Y0080098D01*
X0173407Y0080218D01*
X0173403Y0080338D01*
X0173404Y0080458D01*
X0173497Y0080455D01*
X0173498Y0080336D01*
X0173501Y0080216D01*
X0173509Y0080097D01*
X0173521Y0079978D01*
X0173537Y0079859D01*
X0173557Y0079741D01*
X0173581Y0079624D01*
X0173608Y0079507D01*
X0173640Y0079392D01*
X0173675Y0079277D01*
X0173714Y0079164D01*
X0173757Y0079053D01*
X0173803Y0078942D01*
X0173853Y0078834D01*
X0173907Y0078727D01*
X0173964Y0078621D01*
X0174024Y0078518D01*
X0174088Y0078417D01*
X0174156Y0078318D01*
X0174226Y0078222D01*
X0174300Y0078127D01*
X0174377Y0078036D01*
X0174457Y0077946D01*
X0174539Y0077860D01*
X0174625Y0077776D01*
X0174713Y0077696D01*
X0174804Y0077618D01*
X0174898Y0077543D01*
X0174993Y0077471D01*
X0175092Y0077403D01*
X0175192Y0077338D01*
X0175295Y0077276D01*
X0175399Y0077218D01*
X0175505Y0077163D01*
X0175614Y0077112D01*
X0175723Y0077064D01*
X0175835Y0077020D01*
X0175947Y0076980D01*
X0176061Y0076944D01*
X0176176Y0076911D01*
X0176293Y0076882D01*
X0176410Y0076857D01*
X0176527Y0076836D01*
X0176646Y0076819D01*
X0176765Y0076806D01*
X0176884Y0076797D01*
X0177003Y0076791D01*
X0177123Y0076790D01*
X0177243Y0076793D01*
X0177362Y0076799D01*
X0177481Y0076810D01*
X0177600Y0076824D01*
X0177718Y0076843D01*
X0177836Y0076865D01*
X0177953Y0076892D01*
X0178068Y0076922D01*
X0178183Y0076956D01*
X0178297Y0076993D01*
X0178409Y0077035D01*
X0178520Y0077080D01*
X0178629Y0077129D01*
X0178737Y0077181D01*
X0178842Y0077237D01*
X0178946Y0077297D01*
X0179048Y0077360D01*
X0179148Y0077426D01*
X0179245Y0077495D01*
X0179340Y0077568D01*
X0179433Y0077644D01*
X0179523Y0077722D01*
X0179610Y0077804D01*
X0179695Y0077889D01*
X0179777Y0077976D01*
X0179855Y0078066D01*
X0179931Y0078159D01*
X0180004Y0078254D01*
X0180073Y0078351D01*
X0180139Y0078451D01*
X0180202Y0078553D01*
X0180262Y0078657D01*
X0180318Y0078762D01*
X0180370Y0078870D01*
X0180419Y0078979D01*
X0180464Y0079090D01*
X0180506Y0079202D01*
X0180543Y0079316D01*
X0180577Y0079431D01*
X0180607Y0079546D01*
X0180634Y0079663D01*
X0180656Y0079781D01*
X0180675Y0079899D01*
X0180689Y0080018D01*
X0180700Y0080137D01*
X0180706Y0080256D01*
X0180709Y0080376D01*
X0180708Y0080496D01*
X0180702Y0080615D01*
X0180693Y0080734D01*
X0180680Y0080853D01*
X0180663Y0080972D01*
X0180642Y0081089D01*
X0180617Y0081206D01*
X0180588Y0081323D01*
X0180555Y0081438D01*
X0180519Y0081552D01*
X0180479Y0081664D01*
X0180435Y0081776D01*
X0180387Y0081885D01*
X0180336Y0081994D01*
X0180281Y0082100D01*
X0180223Y0082204D01*
X0180161Y0082307D01*
X0180096Y0082407D01*
X0180028Y0082506D01*
X0179956Y0082601D01*
X0179881Y0082695D01*
X0179803Y0082786D01*
X0179723Y0082874D01*
X0179639Y0082960D01*
X0179553Y0083042D01*
X0179463Y0083122D01*
X0179372Y0083199D01*
X0179277Y0083273D01*
X0179181Y0083343D01*
X0179082Y0083411D01*
X0178981Y0083475D01*
X0178878Y0083535D01*
X0178772Y0083592D01*
X0178665Y0083646D01*
X0178557Y0083696D01*
X0178446Y0083742D01*
X0178335Y0083785D01*
X0178222Y0083824D01*
X0178107Y0083859D01*
X0177992Y0083891D01*
X0177875Y0083918D01*
X0177758Y0083942D01*
X0177640Y0083962D01*
X0177521Y0083978D01*
X0177402Y0083990D01*
X0177283Y0083998D01*
X0177163Y0084001D01*
X0177044Y0084002D01*
X0177047Y0083908D01*
X0177164Y0083907D01*
X0177281Y0083903D01*
X0177398Y0083896D01*
X0177515Y0083884D01*
X0177631Y0083868D01*
X0177747Y0083848D01*
X0177862Y0083825D01*
X0177976Y0083798D01*
X0178089Y0083767D01*
X0178201Y0083732D01*
X0178312Y0083693D01*
X0178422Y0083651D01*
X0178530Y0083605D01*
X0178636Y0083556D01*
X0178741Y0083503D01*
X0178844Y0083446D01*
X0178945Y0083386D01*
X0179043Y0083323D01*
X0179140Y0083257D01*
X0179235Y0083187D01*
X0179327Y0083114D01*
X0179416Y0083039D01*
X0179503Y0082960D01*
X0179587Y0082878D01*
X0179669Y0082794D01*
X0179748Y0082707D01*
X0179823Y0082617D01*
X0179896Y0082525D01*
X0179966Y0082431D01*
X0180032Y0082334D01*
X0180095Y0082235D01*
X0180155Y0082134D01*
X0180211Y0082031D01*
X0180264Y0081926D01*
X0180313Y0081820D01*
X0180359Y0081712D01*
X0180401Y0081602D01*
X0180440Y0081491D01*
X0180475Y0081379D01*
X0180505Y0081266D01*
X0180533Y0081152D01*
X0180556Y0081037D01*
X0180575Y0080921D01*
X0180591Y0080805D01*
X0180603Y0080688D01*
X0180611Y0080571D01*
X0180615Y0080454D01*
X0180614Y0080337D01*
X0180611Y0080219D01*
X0180603Y0080102D01*
X0180591Y0079985D01*
X0180575Y0079869D01*
X0180556Y0079753D01*
X0180532Y0079639D01*
X0180505Y0079524D01*
X0180474Y0079411D01*
X0180439Y0079299D01*
X0180401Y0079188D01*
X0180359Y0079079D01*
X0180313Y0078971D01*
X0180263Y0078864D01*
X0180210Y0078760D01*
X0180154Y0078657D01*
X0180094Y0078556D01*
X0180031Y0078457D01*
X0179965Y0078360D01*
X0179895Y0078266D01*
X0179822Y0078174D01*
X0179747Y0078084D01*
X0179668Y0077997D01*
X0179586Y0077913D01*
X0179502Y0077831D01*
X0179415Y0077752D01*
X0179325Y0077677D01*
X0179233Y0077604D01*
X0179139Y0077534D01*
X0179042Y0077468D01*
X0178943Y0077405D01*
X0178842Y0077345D01*
X0178739Y0077289D01*
X0178635Y0077236D01*
X0178528Y0077186D01*
X0178420Y0077140D01*
X0178311Y0077098D01*
X0178200Y0077060D01*
X0178088Y0077025D01*
X0177975Y0076994D01*
X0177860Y0076967D01*
X0177746Y0076943D01*
X0177630Y0076924D01*
X0177514Y0076908D01*
X0177397Y0076896D01*
X0177280Y0076888D01*
X0177162Y0076885D01*
X0177045Y0076884D01*
X0176928Y0076888D01*
X0176811Y0076896D01*
X0176694Y0076908D01*
X0176578Y0076924D01*
X0176462Y0076943D01*
X0176347Y0076966D01*
X0176233Y0076994D01*
X0176120Y0077024D01*
X0176008Y0077059D01*
X0175897Y0077098D01*
X0175787Y0077140D01*
X0175679Y0077186D01*
X0175573Y0077235D01*
X0175468Y0077288D01*
X0175365Y0077344D01*
X0175264Y0077404D01*
X0175165Y0077467D01*
X0175068Y0077533D01*
X0174974Y0077603D01*
X0174882Y0077676D01*
X0174792Y0077751D01*
X0174705Y0077830D01*
X0174621Y0077912D01*
X0174539Y0077996D01*
X0174460Y0078083D01*
X0174385Y0078172D01*
X0174312Y0078264D01*
X0174242Y0078359D01*
X0174176Y0078456D01*
X0174113Y0078554D01*
X0174053Y0078655D01*
X0173996Y0078758D01*
X0173943Y0078863D01*
X0173894Y0078969D01*
X0173848Y0079077D01*
X0173806Y0079187D01*
X0173767Y0079298D01*
X0173732Y0079410D01*
X0173701Y0079523D01*
X0173674Y0079637D01*
X0173651Y0079752D01*
X0173631Y0079868D01*
X0173615Y0079984D01*
X0173603Y0080101D01*
X0173596Y0080218D01*
X0173592Y0080335D01*
X0173591Y0080452D01*
X0173685Y0080450D01*
X0173686Y0080333D01*
X0173690Y0080216D01*
X0173698Y0080100D01*
X0173710Y0079984D01*
X0173726Y0079868D01*
X0173746Y0079753D01*
X0173770Y0079639D01*
X0173798Y0079526D01*
X0173829Y0079414D01*
X0173865Y0079303D01*
X0173904Y0079193D01*
X0173947Y0079084D01*
X0173993Y0078977D01*
X0174044Y0078872D01*
X0174097Y0078769D01*
X0174155Y0078667D01*
X0174215Y0078567D01*
X0174279Y0078470D01*
X0174347Y0078375D01*
X0174417Y0078282D01*
X0174491Y0078191D01*
X0174568Y0078104D01*
X0174647Y0078018D01*
X0174730Y0077936D01*
X0174815Y0077856D01*
X0174903Y0077780D01*
X0174994Y0077706D01*
X0175087Y0077636D01*
X0175182Y0077569D01*
X0175280Y0077505D01*
X0175379Y0077444D01*
X0175481Y0077387D01*
X0175585Y0077334D01*
X0175690Y0077284D01*
X0175797Y0077237D01*
X0175906Y0077195D01*
X0176016Y0077156D01*
X0176127Y0077120D01*
X0176239Y0077089D01*
X0176353Y0077061D01*
X0176467Y0077038D01*
X0176582Y0077018D01*
X0176697Y0077002D01*
X0176813Y0076990D01*
X0176930Y0076982D01*
X0177046Y0076978D01*
X0177163Y0076979D01*
X0177279Y0076983D01*
X0177396Y0076991D01*
X0177512Y0077003D01*
X0177627Y0077018D01*
X0177742Y0077038D01*
X0177857Y0077062D01*
X0177970Y0077090D01*
X0178082Y0077121D01*
X0178193Y0077157D01*
X0178303Y0077196D01*
X0178412Y0077238D01*
X0178519Y0077285D01*
X0178624Y0077335D01*
X0178728Y0077389D01*
X0178829Y0077446D01*
X0178929Y0077507D01*
X0179026Y0077571D01*
X0179122Y0077638D01*
X0179215Y0077708D01*
X0179305Y0077782D01*
X0179393Y0077859D01*
X0179478Y0077938D01*
X0179561Y0078021D01*
X0179640Y0078106D01*
X0179717Y0078194D01*
X0179791Y0078284D01*
X0179861Y0078377D01*
X0179928Y0078473D01*
X0179992Y0078570D01*
X0180053Y0078670D01*
X0180110Y0078771D01*
X0180164Y0078875D01*
X0180214Y0078980D01*
X0180261Y0079087D01*
X0180303Y0079196D01*
X0180342Y0079306D01*
X0180378Y0079417D01*
X0180409Y0079529D01*
X0180437Y0079642D01*
X0180461Y0079757D01*
X0180481Y0079872D01*
X0180496Y0079987D01*
X0180508Y0080103D01*
X0180516Y0080220D01*
X0180520Y0080336D01*
X0180521Y0080453D01*
X0180517Y0080569D01*
X0180509Y0080686D01*
X0180497Y0080802D01*
X0180481Y0080917D01*
X0180461Y0081032D01*
X0180438Y0081146D01*
X0180410Y0081260D01*
X0180379Y0081372D01*
X0180343Y0081483D01*
X0180304Y0081593D01*
X0180262Y0081702D01*
X0180215Y0081809D01*
X0180165Y0081914D01*
X0180112Y0082018D01*
X0180055Y0082120D01*
X0179994Y0082219D01*
X0179930Y0082317D01*
X0179863Y0082412D01*
X0179793Y0082505D01*
X0179719Y0082596D01*
X0179643Y0082684D01*
X0179563Y0082769D01*
X0179481Y0082852D01*
X0179395Y0082931D01*
X0179308Y0083008D01*
X0179217Y0083082D01*
X0179124Y0083152D01*
X0179029Y0083220D01*
X0178932Y0083284D01*
X0178832Y0083344D01*
X0178730Y0083402D01*
X0178627Y0083455D01*
X0178522Y0083506D01*
X0178415Y0083552D01*
X0178306Y0083595D01*
X0178196Y0083634D01*
X0178085Y0083670D01*
X0177973Y0083701D01*
X0177860Y0083729D01*
X0177746Y0083753D01*
X0177631Y0083773D01*
X0177515Y0083789D01*
X0177399Y0083801D01*
X0177283Y0083809D01*
X0177166Y0083813D01*
X0177049Y0083814D01*
X0177052Y0083720D01*
X0177167Y0083719D01*
X0177281Y0083715D01*
X0177395Y0083707D01*
X0177508Y0083695D01*
X0177621Y0083679D01*
X0177734Y0083660D01*
X0177846Y0083636D01*
X0177957Y0083609D01*
X0178066Y0083577D01*
X0178175Y0083542D01*
X0178283Y0083504D01*
X0178389Y0083461D01*
X0178493Y0083415D01*
X0178596Y0083366D01*
X0178697Y0083313D01*
X0178797Y0083256D01*
X0178894Y0083196D01*
X0178989Y0083133D01*
X0179082Y0083067D01*
X0179173Y0082997D01*
X0179261Y0082924D01*
X0179346Y0082849D01*
X0179429Y0082770D01*
X0179510Y0082689D01*
X0179587Y0082605D01*
X0179661Y0082518D01*
X0179733Y0082429D01*
X0179801Y0082337D01*
X0179866Y0082244D01*
X0179928Y0082148D01*
X0179987Y0082049D01*
X0180042Y0081949D01*
X0180093Y0081847D01*
X0180141Y0081744D01*
X0180186Y0081639D01*
X0180227Y0081532D01*
X0180264Y0081424D01*
X0180298Y0081315D01*
X0180327Y0081204D01*
X0180353Y0081093D01*
X0180375Y0080981D01*
X0180393Y0080868D01*
X0180408Y0080755D01*
X0180418Y0080641D01*
X0180424Y0080527D01*
X0180427Y0080413D01*
X0180426Y0080299D01*
X0180420Y0080185D01*
X0180411Y0080071D01*
X0180398Y0079957D01*
X0180381Y0079844D01*
X0180360Y0079732D01*
X0180335Y0079620D01*
X0180307Y0079510D01*
X0180274Y0079400D01*
X0180238Y0079292D01*
X0180198Y0079185D01*
X0180155Y0079079D01*
X0180108Y0078975D01*
X0180057Y0078873D01*
X0180003Y0078772D01*
X0179946Y0078673D01*
X0179885Y0078577D01*
X0179821Y0078482D01*
X0179753Y0078390D01*
X0179683Y0078300D01*
X0179609Y0078213D01*
X0179533Y0078128D01*
X0179453Y0078046D01*
X0179371Y0077966D01*
X0179286Y0077890D01*
X0179199Y0077816D01*
X0179109Y0077746D01*
X0179017Y0077678D01*
X0178922Y0077614D01*
X0178826Y0077553D01*
X0178727Y0077496D01*
X0178626Y0077442D01*
X0178524Y0077391D01*
X0178420Y0077344D01*
X0178314Y0077301D01*
X0178207Y0077261D01*
X0178099Y0077225D01*
X0177989Y0077192D01*
X0177879Y0077164D01*
X0177767Y0077139D01*
X0177655Y0077118D01*
X0177542Y0077101D01*
X0177428Y0077088D01*
X0177314Y0077079D01*
X0177200Y0077073D01*
X0177086Y0077072D01*
X0176972Y0077075D01*
X0176858Y0077081D01*
X0176744Y0077091D01*
X0176631Y0077106D01*
X0176518Y0077124D01*
X0176406Y0077146D01*
X0176295Y0077172D01*
X0176184Y0077201D01*
X0176075Y0077235D01*
X0175967Y0077272D01*
X0175860Y0077313D01*
X0175755Y0077358D01*
X0175652Y0077406D01*
X0175550Y0077457D01*
X0175450Y0077512D01*
X0175351Y0077571D01*
X0175255Y0077633D01*
X0175162Y0077698D01*
X0175070Y0077766D01*
X0174981Y0077838D01*
X0174894Y0077912D01*
X0174810Y0077989D01*
X0174729Y0078070D01*
X0174650Y0078153D01*
X0174575Y0078238D01*
X0174502Y0078326D01*
X0174432Y0078417D01*
X0174366Y0078510D01*
X0174303Y0078605D01*
X0174243Y0078702D01*
X0174186Y0078802D01*
X0174133Y0078903D01*
X0174084Y0079006D01*
X0174038Y0079110D01*
X0173995Y0079216D01*
X0173957Y0079324D01*
X0173922Y0079433D01*
X0173890Y0079542D01*
X0173863Y0079653D01*
X0173839Y0079765D01*
X0173820Y0079878D01*
X0173804Y0079991D01*
X0173792Y0080104D01*
X0173784Y0080218D01*
X0173780Y0080332D01*
X0173779Y0080447D01*
X0173873Y0080444D01*
X0173874Y0080331D01*
X0173878Y0080219D01*
X0173886Y0080106D01*
X0173898Y0079994D01*
X0173914Y0079883D01*
X0173934Y0079772D01*
X0173958Y0079662D01*
X0173985Y0079553D01*
X0174016Y0079445D01*
X0174051Y0079338D01*
X0174090Y0079232D01*
X0174133Y0079127D01*
X0174179Y0079025D01*
X0174228Y0078924D01*
X0174281Y0078824D01*
X0174338Y0078727D01*
X0174398Y0078631D01*
X0174461Y0078538D01*
X0174527Y0078447D01*
X0174597Y0078359D01*
X0174669Y0078272D01*
X0174745Y0078189D01*
X0174823Y0078108D01*
X0174904Y0078030D01*
X0174988Y0077955D01*
X0175074Y0077883D01*
X0175163Y0077813D01*
X0175254Y0077747D01*
X0175348Y0077684D01*
X0175444Y0077625D01*
X0175541Y0077569D01*
X0175641Y0077516D01*
X0175742Y0077467D01*
X0175845Y0077421D01*
X0175949Y0077379D01*
X0176055Y0077341D01*
X0176162Y0077306D01*
X0176271Y0077275D01*
X0176380Y0077248D01*
X0176490Y0077225D01*
X0176601Y0077205D01*
X0176713Y0077190D01*
X0176825Y0077178D01*
X0176937Y0077170D01*
X0177050Y0077166D01*
X0177162Y0077167D01*
X0177275Y0077171D01*
X0177387Y0077179D01*
X0177499Y0077190D01*
X0177611Y0077206D01*
X0177721Y0077226D01*
X0177832Y0077249D01*
X0177941Y0077277D01*
X0178049Y0077308D01*
X0178156Y0077343D01*
X0178262Y0077381D01*
X0178366Y0077423D01*
X0178469Y0077469D01*
X0178570Y0077519D01*
X0178670Y0077571D01*
X0178767Y0077628D01*
X0178863Y0077688D01*
X0178956Y0077750D01*
X0179047Y0077817D01*
X0179136Y0077886D01*
X0179222Y0077958D01*
X0179306Y0078034D01*
X0179387Y0078112D01*
X0179465Y0078193D01*
X0179541Y0078277D01*
X0179613Y0078363D01*
X0179682Y0078452D01*
X0179749Y0078543D01*
X0179811Y0078636D01*
X0179871Y0078732D01*
X0179928Y0078829D01*
X0179980Y0078929D01*
X0180030Y0079030D01*
X0180076Y0079133D01*
X0180118Y0079237D01*
X0180156Y0079343D01*
X0180191Y0079450D01*
X0180222Y0079558D01*
X0180250Y0079667D01*
X0180273Y0079778D01*
X0180293Y0079888D01*
X0180309Y0080000D01*
X0180320Y0080112D01*
X0180328Y0080224D01*
X0180332Y0080337D01*
X0180333Y0080449D01*
X0180329Y0080562D01*
X0180321Y0080674D01*
X0180309Y0080786D01*
X0180294Y0080898D01*
X0180274Y0081009D01*
X0180251Y0081119D01*
X0180224Y0081228D01*
X0180193Y0081337D01*
X0180158Y0081444D01*
X0180120Y0081550D01*
X0180078Y0081654D01*
X0180032Y0081757D01*
X0179983Y0081858D01*
X0179930Y0081958D01*
X0179874Y0082055D01*
X0179815Y0082151D01*
X0179752Y0082245D01*
X0179686Y0082336D01*
X0179616Y0082425D01*
X0179544Y0082511D01*
X0179469Y0082595D01*
X0179391Y0082676D01*
X0179310Y0082754D01*
X0179227Y0082830D01*
X0179140Y0082902D01*
X0179052Y0082972D01*
X0178961Y0083038D01*
X0178868Y0083101D01*
X0178772Y0083161D01*
X0178675Y0083218D01*
X0178575Y0083271D01*
X0178474Y0083320D01*
X0178372Y0083366D01*
X0178267Y0083409D01*
X0178161Y0083448D01*
X0178054Y0083483D01*
X0177946Y0083514D01*
X0177837Y0083541D01*
X0177727Y0083565D01*
X0177616Y0083585D01*
X0177505Y0083601D01*
X0177393Y0083613D01*
X0177280Y0083621D01*
X0177168Y0083625D01*
X0177055Y0083626D01*
X0177058Y0083532D01*
X0177170Y0083531D01*
X0177281Y0083527D01*
X0177393Y0083519D01*
X0177504Y0083506D01*
X0177615Y0083490D01*
X0177725Y0083470D01*
X0177834Y0083446D01*
X0177942Y0083418D01*
X0178049Y0083386D01*
X0178155Y0083350D01*
X0178260Y0083311D01*
X0178363Y0083268D01*
X0178464Y0083221D01*
X0178564Y0083171D01*
X0178662Y0083117D01*
X0178758Y0083060D01*
X0178852Y0082999D01*
X0178944Y0082935D01*
X0179033Y0082868D01*
X0179120Y0082797D01*
X0179204Y0082724D01*
X0179286Y0082648D01*
X0179365Y0082568D01*
X0179441Y0082486D01*
X0179514Y0082402D01*
X0179584Y0082315D01*
X0179650Y0082225D01*
X0179714Y0082133D01*
X0179774Y0082039D01*
X0179831Y0081943D01*
X0179885Y0081844D01*
X0179934Y0081744D01*
X0179981Y0081643D01*
X0180023Y0081539D01*
X0180062Y0081434D01*
X0180097Y0081328D01*
X0180129Y0081221D01*
X0180156Y0081113D01*
X0180180Y0081003D01*
X0180199Y0080893D01*
X0180215Y0080783D01*
X0180227Y0080671D01*
X0180235Y0080560D01*
X0180239Y0080448D01*
X0180238Y0080336D01*
X0180234Y0080225D01*
X0180226Y0080113D01*
X0180214Y0080002D01*
X0180198Y0079892D01*
X0180178Y0079782D01*
X0180154Y0079672D01*
X0180127Y0079564D01*
X0180095Y0079457D01*
X0180060Y0079351D01*
X0180021Y0079246D01*
X0179978Y0079143D01*
X0179931Y0079041D01*
X0179881Y0078941D01*
X0179828Y0078843D01*
X0179770Y0078747D01*
X0179710Y0078653D01*
X0179646Y0078561D01*
X0179579Y0078472D01*
X0179509Y0078385D01*
X0179436Y0078300D01*
X0179360Y0078218D01*
X0179281Y0078139D01*
X0179199Y0078063D01*
X0179114Y0077990D01*
X0179027Y0077920D01*
X0178938Y0077853D01*
X0178846Y0077789D01*
X0178752Y0077729D01*
X0178656Y0077671D01*
X0178558Y0077618D01*
X0178458Y0077568D01*
X0178356Y0077521D01*
X0178253Y0077478D01*
X0178148Y0077439D01*
X0178042Y0077404D01*
X0177935Y0077372D01*
X0177827Y0077345D01*
X0177717Y0077321D01*
X0177607Y0077301D01*
X0177497Y0077285D01*
X0177386Y0077273D01*
X0177274Y0077265D01*
X0177163Y0077261D01*
X0177051Y0077260D01*
X0176939Y0077264D01*
X0176828Y0077272D01*
X0176716Y0077284D01*
X0176606Y0077300D01*
X0176496Y0077319D01*
X0176386Y0077343D01*
X0176278Y0077370D01*
X0176171Y0077402D01*
X0176065Y0077437D01*
X0175960Y0077476D01*
X0175856Y0077518D01*
X0175755Y0077565D01*
X0175655Y0077614D01*
X0175556Y0077668D01*
X0175460Y0077725D01*
X0175366Y0077785D01*
X0175274Y0077849D01*
X0175184Y0077915D01*
X0175097Y0077985D01*
X0175013Y0078058D01*
X0174931Y0078134D01*
X0174851Y0078213D01*
X0174775Y0078295D01*
X0174702Y0078379D01*
X0174631Y0078466D01*
X0174564Y0078555D01*
X0174500Y0078647D01*
X0174439Y0078741D01*
X0174382Y0078837D01*
X0174328Y0078935D01*
X0174278Y0079035D01*
X0174231Y0079136D01*
X0174188Y0079239D01*
X0174149Y0079344D01*
X0174113Y0079450D01*
X0174081Y0079557D01*
X0174053Y0079665D01*
X0174029Y0079774D01*
X0174009Y0079884D01*
X0173993Y0079995D01*
X0173980Y0080106D01*
X0173972Y0080218D01*
X0173968Y0080329D01*
X0173967Y0080441D01*
X0174061Y0080438D01*
X0174062Y0080329D01*
X0174066Y0080220D01*
X0174074Y0080111D01*
X0174087Y0080002D01*
X0174103Y0079894D01*
X0174123Y0079787D01*
X0174146Y0079680D01*
X0174174Y0079575D01*
X0174205Y0079470D01*
X0174241Y0079367D01*
X0174279Y0079264D01*
X0174322Y0079164D01*
X0174368Y0079065D01*
X0174417Y0078967D01*
X0174470Y0078872D01*
X0174527Y0078778D01*
X0174587Y0078687D01*
X0174650Y0078598D01*
X0174716Y0078511D01*
X0174785Y0078426D01*
X0174857Y0078344D01*
X0174932Y0078265D01*
X0175010Y0078188D01*
X0175091Y0078115D01*
X0175174Y0078044D01*
X0175260Y0077976D01*
X0175348Y0077912D01*
X0175438Y0077850D01*
X0175530Y0077792D01*
X0175625Y0077737D01*
X0175721Y0077686D01*
X0175820Y0077638D01*
X0175919Y0077594D01*
X0176021Y0077553D01*
X0176124Y0077516D01*
X0176228Y0077483D01*
X0176333Y0077453D01*
X0176439Y0077427D01*
X0176546Y0077405D01*
X0176654Y0077387D01*
X0176762Y0077373D01*
X0176871Y0077363D01*
X0176980Y0077356D01*
X0177089Y0077354D01*
X0177198Y0077355D01*
X0177307Y0077361D01*
X0177416Y0077370D01*
X0177525Y0077383D01*
X0177632Y0077400D01*
X0177740Y0077421D01*
X0177846Y0077446D01*
X0177951Y0077475D01*
X0178056Y0077507D01*
X0178159Y0077543D01*
X0178261Y0077583D01*
X0178361Y0077626D01*
X0178460Y0077673D01*
X0178556Y0077724D01*
X0178651Y0077778D01*
X0178744Y0077835D01*
X0178835Y0077895D01*
X0178924Y0077959D01*
X0179010Y0078026D01*
X0179094Y0078096D01*
X0179175Y0078169D01*
X0179254Y0078245D01*
X0179330Y0078324D01*
X0179403Y0078405D01*
X0179473Y0078489D01*
X0179540Y0078575D01*
X0179604Y0078664D01*
X0179664Y0078755D01*
X0179721Y0078848D01*
X0179775Y0078943D01*
X0179826Y0079039D01*
X0179873Y0079138D01*
X0179916Y0079238D01*
X0179956Y0079340D01*
X0179992Y0079443D01*
X0180024Y0079548D01*
X0180053Y0079653D01*
X0180078Y0079759D01*
X0180099Y0079867D01*
X0180116Y0079974D01*
X0180129Y0080083D01*
X0180138Y0080192D01*
X0180144Y0080301D01*
X0180145Y0080410D01*
X0180143Y0080519D01*
X0180136Y0080628D01*
X0180126Y0080737D01*
X0180112Y0080845D01*
X0180094Y0080953D01*
X0180072Y0081060D01*
X0180046Y0081166D01*
X0180016Y0081271D01*
X0179983Y0081375D01*
X0179946Y0081478D01*
X0179905Y0081580D01*
X0179861Y0081679D01*
X0179813Y0081778D01*
X0179762Y0081874D01*
X0179707Y0081969D01*
X0179649Y0082061D01*
X0179587Y0082151D01*
X0179523Y0082239D01*
X0179455Y0082325D01*
X0179384Y0082408D01*
X0179311Y0082489D01*
X0179234Y0082567D01*
X0179155Y0082642D01*
X0179073Y0082714D01*
X0178988Y0082783D01*
X0178901Y0082849D01*
X0178812Y0082912D01*
X0178721Y0082972D01*
X0178627Y0083029D01*
X0178532Y0083082D01*
X0178434Y0083131D01*
X0178335Y0083177D01*
X0178235Y0083220D01*
X0178132Y0083258D01*
X0178029Y0083294D01*
X0177924Y0083325D01*
X0177819Y0083353D01*
X0177712Y0083376D01*
X0177605Y0083396D01*
X0177497Y0083412D01*
X0177388Y0083425D01*
X0177279Y0083433D01*
X0177170Y0083437D01*
X0177061Y0083438D01*
X0177064Y0083344D01*
X0177172Y0083343D01*
X0177280Y0083339D01*
X0177388Y0083330D01*
X0177496Y0083318D01*
X0177603Y0083301D01*
X0177709Y0083281D01*
X0177815Y0083257D01*
X0177919Y0083229D01*
X0178023Y0083197D01*
X0178125Y0083161D01*
X0178226Y0083122D01*
X0178325Y0083079D01*
X0178423Y0083032D01*
X0178519Y0082982D01*
X0178613Y0082928D01*
X0178705Y0082871D01*
X0178795Y0082810D01*
X0178882Y0082747D01*
X0178967Y0082680D01*
X0179050Y0082610D01*
X0179130Y0082537D01*
X0179207Y0082461D01*
X0179282Y0082382D01*
X0179353Y0082301D01*
X0179422Y0082217D01*
X0179487Y0082130D01*
X0179549Y0082042D01*
X0179608Y0081951D01*
X0179663Y0081858D01*
X0179715Y0081763D01*
X0179764Y0081666D01*
X0179808Y0081567D01*
X0179850Y0081467D01*
X0179887Y0081365D01*
X0179921Y0081263D01*
X0179951Y0081158D01*
X0179977Y0081053D01*
X0179999Y0080947D01*
X0180017Y0080841D01*
X0180032Y0080733D01*
X0180042Y0080625D01*
X0180049Y0080517D01*
X0180051Y0080409D01*
X0180049Y0080301D01*
X0180044Y0080193D01*
X0180035Y0080085D01*
X0180021Y0079977D01*
X0180004Y0079870D01*
X0179983Y0079764D01*
X0179957Y0079659D01*
X0179928Y0079555D01*
X0179896Y0079451D01*
X0179859Y0079349D01*
X0179819Y0079249D01*
X0179775Y0079150D01*
X0179727Y0079053D01*
X0179676Y0078957D01*
X0179621Y0078864D01*
X0179563Y0078772D01*
X0179502Y0078683D01*
X0179438Y0078596D01*
X0179370Y0078511D01*
X0179299Y0078429D01*
X0179225Y0078350D01*
X0179149Y0078274D01*
X0179070Y0078200D01*
X0178988Y0078129D01*
X0178903Y0078061D01*
X0178816Y0077997D01*
X0178727Y0077936D01*
X0178635Y0077878D01*
X0178542Y0077823D01*
X0178446Y0077772D01*
X0178349Y0077724D01*
X0178250Y0077680D01*
X0178150Y0077640D01*
X0178048Y0077603D01*
X0177944Y0077571D01*
X0177840Y0077542D01*
X0177735Y0077516D01*
X0177629Y0077495D01*
X0177522Y0077478D01*
X0177414Y0077464D01*
X0177306Y0077455D01*
X0177198Y0077450D01*
X0177090Y0077448D01*
X0176982Y0077450D01*
X0176874Y0077457D01*
X0176766Y0077467D01*
X0176658Y0077482D01*
X0176552Y0077500D01*
X0176446Y0077522D01*
X0176341Y0077548D01*
X0176236Y0077578D01*
X0176134Y0077612D01*
X0176032Y0077649D01*
X0175932Y0077691D01*
X0175833Y0077735D01*
X0175736Y0077784D01*
X0175641Y0077836D01*
X0175548Y0077891D01*
X0175457Y0077950D01*
X0175369Y0078012D01*
X0175282Y0078077D01*
X0175198Y0078146D01*
X0175117Y0078217D01*
X0175038Y0078292D01*
X0174962Y0078369D01*
X0174889Y0078449D01*
X0174819Y0078532D01*
X0174752Y0078617D01*
X0174689Y0078704D01*
X0174628Y0078794D01*
X0174571Y0078886D01*
X0174517Y0078980D01*
X0174467Y0079076D01*
X0174420Y0079174D01*
X0174377Y0079273D01*
X0174338Y0079374D01*
X0174302Y0079476D01*
X0174270Y0079580D01*
X0174242Y0079684D01*
X0174218Y0079790D01*
X0174198Y0079896D01*
X0174181Y0080003D01*
X0174169Y0080111D01*
X0174160Y0080219D01*
X0174156Y0080327D01*
X0174155Y0080435D01*
X0174249Y0080432D01*
X0174250Y0080326D01*
X0174254Y0080220D01*
X0174263Y0080113D01*
X0174276Y0080008D01*
X0174292Y0079903D01*
X0174312Y0079798D01*
X0174337Y0079694D01*
X0174365Y0079592D01*
X0174397Y0079490D01*
X0174432Y0079390D01*
X0174472Y0079291D01*
X0174515Y0079194D01*
X0174561Y0079098D01*
X0174612Y0079004D01*
X0174665Y0078912D01*
X0174722Y0078822D01*
X0174783Y0078734D01*
X0174846Y0078649D01*
X0174913Y0078566D01*
X0174983Y0078486D01*
X0175055Y0078408D01*
X0175131Y0078333D01*
X0175209Y0078261D01*
X0175290Y0078192D01*
X0175374Y0078126D01*
X0175460Y0078063D01*
X0175548Y0078003D01*
X0175638Y0077947D01*
X0175731Y0077894D01*
X0175825Y0077844D01*
X0175921Y0077798D01*
X0176019Y0077756D01*
X0176118Y0077717D01*
X0176218Y0077683D01*
X0176320Y0077651D01*
X0176423Y0077624D01*
X0176527Y0077601D01*
X0176632Y0077581D01*
X0176737Y0077566D01*
X0176843Y0077554D01*
X0176949Y0077546D01*
X0177055Y0077542D01*
X0177162Y0077543D01*
X0177268Y0077547D01*
X0177374Y0077555D01*
X0177480Y0077567D01*
X0177585Y0077583D01*
X0177690Y0077603D01*
X0177794Y0077627D01*
X0177897Y0077655D01*
X0177998Y0077686D01*
X0178099Y0077721D01*
X0178198Y0077760D01*
X0178295Y0077803D01*
X0178391Y0077849D01*
X0178485Y0077899D01*
X0178577Y0077952D01*
X0178668Y0078009D01*
X0178756Y0078069D01*
X0178841Y0078132D01*
X0178924Y0078199D01*
X0179005Y0078268D01*
X0179083Y0078341D01*
X0179158Y0078416D01*
X0179231Y0078494D01*
X0179300Y0078575D01*
X0179367Y0078658D01*
X0179430Y0078743D01*
X0179490Y0078831D01*
X0179547Y0078922D01*
X0179600Y0079014D01*
X0179650Y0079108D01*
X0179696Y0079204D01*
X0179739Y0079301D01*
X0179778Y0079400D01*
X0179813Y0079501D01*
X0179844Y0079602D01*
X0179872Y0079705D01*
X0179896Y0079809D01*
X0179916Y0079914D01*
X0179932Y0080019D01*
X0179944Y0080125D01*
X0179952Y0080231D01*
X0179956Y0080337D01*
X0179957Y0080444D01*
X0179953Y0080550D01*
X0179945Y0080656D01*
X0179933Y0080762D01*
X0179918Y0080867D01*
X0179898Y0080972D01*
X0179875Y0081076D01*
X0179848Y0081179D01*
X0179816Y0081281D01*
X0179782Y0081381D01*
X0179743Y0081480D01*
X0179701Y0081578D01*
X0179655Y0081674D01*
X0179605Y0081768D01*
X0179552Y0081861D01*
X0179496Y0081951D01*
X0179436Y0082039D01*
X0179373Y0082125D01*
X0179307Y0082209D01*
X0179238Y0082290D01*
X0179166Y0082368D01*
X0179091Y0082444D01*
X0179013Y0082516D01*
X0178933Y0082586D01*
X0178850Y0082653D01*
X0178765Y0082716D01*
X0178677Y0082777D01*
X0178587Y0082834D01*
X0178495Y0082887D01*
X0178401Y0082938D01*
X0178305Y0082984D01*
X0178208Y0083027D01*
X0178109Y0083067D01*
X0178009Y0083102D01*
X0177907Y0083134D01*
X0177805Y0083162D01*
X0177701Y0083187D01*
X0177596Y0083207D01*
X0177491Y0083223D01*
X0177386Y0083236D01*
X0177279Y0083245D01*
X0177173Y0083249D01*
X0177067Y0083250D01*
X0177041Y0084768D02*
X0177069Y0085668D01*
X0177068Y0085667D02*
X0177173Y0085668D01*
X0177279Y0085673D01*
X0177384Y0085681D01*
X0177488Y0085694D01*
X0177592Y0085710D01*
X0177695Y0085730D01*
X0177798Y0085755D01*
X0177899Y0085783D01*
X0178000Y0085814D01*
X0178099Y0085850D01*
X0178196Y0085889D01*
X0178292Y0085932D01*
X0178387Y0085979D01*
X0178479Y0086029D01*
X0178570Y0086082D01*
X0178659Y0086139D01*
X0178745Y0086199D01*
X0178829Y0086262D01*
X0178911Y0086329D01*
X0178990Y0086398D01*
X0179066Y0086471D01*
X0179140Y0086546D01*
X0179211Y0086624D01*
X0179279Y0086704D01*
X0179343Y0086787D01*
X0179405Y0086873D01*
X0179463Y0086961D01*
X0179518Y0087050D01*
X0179570Y0087142D01*
X0179618Y0087236D01*
X0179662Y0087331D01*
X0179703Y0087428D01*
X0179740Y0087527D01*
X0179774Y0087626D01*
X0179804Y0087727D01*
X0179829Y0087829D01*
X0179851Y0087932D01*
X0179870Y0088036D01*
X0179884Y0088140D01*
X0179894Y0088245D01*
X0179901Y0088350D01*
X0179903Y0088455D01*
X0179901Y0088561D01*
X0179896Y0088666D01*
X0179886Y0088771D01*
X0179873Y0088875D01*
X0179856Y0088979D01*
X0179835Y0089082D01*
X0179810Y0089184D01*
X0179781Y0089285D01*
X0179748Y0089386D01*
X0179712Y0089484D01*
X0179672Y0089582D01*
X0179628Y0089677D01*
X0179581Y0089771D01*
X0179530Y0089864D01*
X0179476Y0089954D01*
X0179418Y0090042D01*
X0179357Y0090128D01*
X0179293Y0090211D01*
X0179226Y0090293D01*
X0179156Y0090371D01*
X0179083Y0090447D01*
X0179007Y0090520D01*
X0178929Y0090590D01*
X0178847Y0090657D01*
X0178764Y0090721D01*
X0178678Y0090782D01*
X0178590Y0090840D01*
X0178500Y0090894D01*
X0178407Y0090945D01*
X0178313Y0090992D01*
X0178218Y0091036D01*
X0178120Y0091076D01*
X0178022Y0091112D01*
X0177921Y0091145D01*
X0177820Y0091174D01*
X0177718Y0091199D01*
X0177615Y0091220D01*
X0177511Y0091237D01*
X0177407Y0091250D01*
X0177302Y0091260D01*
X0177197Y0091265D01*
X0177091Y0091267D01*
X0176986Y0091265D01*
X0176881Y0091258D01*
X0176776Y0091248D01*
X0176672Y0091234D01*
X0176568Y0091215D01*
X0176465Y0091193D01*
X0176363Y0091168D01*
X0176262Y0091138D01*
X0176163Y0091104D01*
X0176064Y0091067D01*
X0175967Y0091026D01*
X0175872Y0090982D01*
X0175778Y0090934D01*
X0175686Y0090882D01*
X0175597Y0090827D01*
X0175509Y0090769D01*
X0175423Y0090707D01*
X0175340Y0090643D01*
X0175260Y0090575D01*
X0175182Y0090504D01*
X0175107Y0090430D01*
X0175034Y0090354D01*
X0174965Y0090275D01*
X0174898Y0090193D01*
X0174835Y0090109D01*
X0174775Y0090023D01*
X0174718Y0089934D01*
X0174665Y0089843D01*
X0174615Y0089751D01*
X0174568Y0089656D01*
X0174525Y0089560D01*
X0174486Y0089463D01*
X0174450Y0089364D01*
X0174419Y0089263D01*
X0174391Y0089162D01*
X0174366Y0089059D01*
X0174346Y0088956D01*
X0174330Y0088852D01*
X0174317Y0088748D01*
X0174309Y0088643D01*
X0174304Y0088537D01*
X0174303Y0088432D01*
X0173404Y0088405D01*
X0173403Y0088525D01*
X0173407Y0088645D01*
X0173415Y0088765D01*
X0173427Y0088885D01*
X0173442Y0089004D01*
X0173462Y0089123D01*
X0173485Y0089241D01*
X0173512Y0089358D01*
X0173543Y0089475D01*
X0173577Y0089590D01*
X0173616Y0089704D01*
X0173658Y0089816D01*
X0173703Y0089928D01*
X0173753Y0090037D01*
X0173806Y0090145D01*
X0173862Y0090252D01*
X0173922Y0090356D01*
X0173985Y0090458D01*
X0174051Y0090559D01*
X0174121Y0090657D01*
X0174193Y0090753D01*
X0174269Y0090846D01*
X0174348Y0090937D01*
X0174430Y0091025D01*
X0174514Y0091111D01*
X0174602Y0091193D01*
X0174691Y0091273D01*
X0174784Y0091350D01*
X0174879Y0091424D01*
X0174976Y0091495D01*
X0175076Y0091562D01*
X0175177Y0091626D01*
X0175281Y0091687D01*
X0175387Y0091745D01*
X0175494Y0091799D01*
X0175603Y0091849D01*
X0175714Y0091896D01*
X0175826Y0091940D01*
X0175940Y0091979D01*
X0176055Y0092015D01*
X0176170Y0092048D01*
X0176287Y0092076D01*
X0176405Y0092101D01*
X0176523Y0092121D01*
X0176643Y0092138D01*
X0176762Y0092151D01*
X0176882Y0092160D01*
X0177002Y0092166D01*
X0177122Y0092167D01*
X0177243Y0092164D01*
X0177363Y0092158D01*
X0177483Y0092147D01*
X0177602Y0092133D01*
X0177721Y0092115D01*
X0177839Y0092093D01*
X0177957Y0092067D01*
X0178073Y0092038D01*
X0178189Y0092004D01*
X0178303Y0091967D01*
X0178416Y0091926D01*
X0178528Y0091882D01*
X0178638Y0091834D01*
X0178747Y0091782D01*
X0178854Y0091727D01*
X0178959Y0091668D01*
X0179062Y0091606D01*
X0179163Y0091541D01*
X0179261Y0091472D01*
X0179358Y0091400D01*
X0179452Y0091326D01*
X0179544Y0091248D01*
X0179633Y0091167D01*
X0179719Y0091083D01*
X0179803Y0090997D01*
X0179884Y0090908D01*
X0179962Y0090816D01*
X0180036Y0090722D01*
X0180108Y0090625D01*
X0180177Y0090527D01*
X0180242Y0090426D01*
X0180304Y0090323D01*
X0180363Y0090218D01*
X0180418Y0090111D01*
X0180470Y0090002D01*
X0180518Y0089892D01*
X0180562Y0089780D01*
X0180603Y0089667D01*
X0180640Y0089553D01*
X0180674Y0089437D01*
X0180703Y0089321D01*
X0180729Y0089203D01*
X0180751Y0089085D01*
X0180769Y0088966D01*
X0180783Y0088847D01*
X0180794Y0088727D01*
X0180800Y0088607D01*
X0180803Y0088486D01*
X0180802Y0088366D01*
X0180796Y0088246D01*
X0180787Y0088126D01*
X0180774Y0088007D01*
X0180757Y0087887D01*
X0180737Y0087769D01*
X0180712Y0087651D01*
X0180684Y0087534D01*
X0180651Y0087419D01*
X0180615Y0087304D01*
X0180576Y0087190D01*
X0180532Y0087078D01*
X0180485Y0086967D01*
X0180435Y0086858D01*
X0180381Y0086751D01*
X0180323Y0086645D01*
X0180262Y0086541D01*
X0180198Y0086440D01*
X0180131Y0086340D01*
X0180060Y0086243D01*
X0179986Y0086148D01*
X0179909Y0086055D01*
X0179829Y0085966D01*
X0179747Y0085878D01*
X0179661Y0085794D01*
X0179573Y0085712D01*
X0179482Y0085633D01*
X0179389Y0085557D01*
X0179293Y0085485D01*
X0179195Y0085415D01*
X0179094Y0085349D01*
X0178992Y0085286D01*
X0178888Y0085226D01*
X0178781Y0085170D01*
X0178673Y0085117D01*
X0178564Y0085067D01*
X0178452Y0085022D01*
X0178340Y0084980D01*
X0178226Y0084941D01*
X0178111Y0084907D01*
X0177994Y0084876D01*
X0177877Y0084849D01*
X0177759Y0084826D01*
X0177640Y0084806D01*
X0177521Y0084791D01*
X0177401Y0084779D01*
X0177281Y0084771D01*
X0177161Y0084767D01*
X0177041Y0084768D01*
X0177044Y0084861D01*
X0177163Y0084862D01*
X0177283Y0084865D01*
X0177402Y0084873D01*
X0177521Y0084885D01*
X0177640Y0084901D01*
X0177758Y0084921D01*
X0177875Y0084945D01*
X0177992Y0084972D01*
X0178107Y0085004D01*
X0178222Y0085039D01*
X0178335Y0085078D01*
X0178446Y0085121D01*
X0178557Y0085167D01*
X0178665Y0085217D01*
X0178772Y0085271D01*
X0178878Y0085328D01*
X0178981Y0085388D01*
X0179082Y0085452D01*
X0179181Y0085520D01*
X0179277Y0085590D01*
X0179372Y0085664D01*
X0179463Y0085741D01*
X0179553Y0085821D01*
X0179639Y0085903D01*
X0179723Y0085989D01*
X0179803Y0086077D01*
X0179881Y0086168D01*
X0179956Y0086262D01*
X0180028Y0086357D01*
X0180096Y0086456D01*
X0180161Y0086556D01*
X0180223Y0086659D01*
X0180281Y0086763D01*
X0180336Y0086869D01*
X0180387Y0086978D01*
X0180435Y0087087D01*
X0180479Y0087199D01*
X0180519Y0087311D01*
X0180555Y0087425D01*
X0180588Y0087540D01*
X0180617Y0087657D01*
X0180642Y0087774D01*
X0180663Y0087891D01*
X0180680Y0088010D01*
X0180693Y0088129D01*
X0180702Y0088248D01*
X0180708Y0088367D01*
X0180709Y0088487D01*
X0180706Y0088607D01*
X0180700Y0088726D01*
X0180689Y0088845D01*
X0180675Y0088964D01*
X0180656Y0089082D01*
X0180634Y0089200D01*
X0180607Y0089317D01*
X0180577Y0089432D01*
X0180543Y0089547D01*
X0180506Y0089661D01*
X0180464Y0089773D01*
X0180419Y0089884D01*
X0180370Y0089993D01*
X0180318Y0090101D01*
X0180262Y0090206D01*
X0180202Y0090310D01*
X0180139Y0090412D01*
X0180073Y0090512D01*
X0180004Y0090609D01*
X0179931Y0090704D01*
X0179855Y0090797D01*
X0179777Y0090887D01*
X0179695Y0090974D01*
X0179610Y0091059D01*
X0179523Y0091141D01*
X0179433Y0091219D01*
X0179340Y0091295D01*
X0179245Y0091368D01*
X0179148Y0091437D01*
X0179048Y0091503D01*
X0178946Y0091566D01*
X0178842Y0091626D01*
X0178737Y0091682D01*
X0178629Y0091734D01*
X0178520Y0091783D01*
X0178409Y0091828D01*
X0178297Y0091870D01*
X0178183Y0091907D01*
X0178068Y0091941D01*
X0177953Y0091971D01*
X0177836Y0091998D01*
X0177718Y0092020D01*
X0177600Y0092039D01*
X0177481Y0092053D01*
X0177362Y0092064D01*
X0177243Y0092070D01*
X0177123Y0092073D01*
X0177003Y0092072D01*
X0176884Y0092066D01*
X0176765Y0092057D01*
X0176646Y0092044D01*
X0176527Y0092027D01*
X0176410Y0092006D01*
X0176293Y0091981D01*
X0176176Y0091952D01*
X0176061Y0091919D01*
X0175947Y0091883D01*
X0175835Y0091843D01*
X0175723Y0091799D01*
X0175614Y0091751D01*
X0175505Y0091700D01*
X0175399Y0091645D01*
X0175295Y0091587D01*
X0175192Y0091525D01*
X0175092Y0091460D01*
X0174993Y0091392D01*
X0174898Y0091320D01*
X0174804Y0091245D01*
X0174713Y0091167D01*
X0174625Y0091087D01*
X0174539Y0091003D01*
X0174457Y0090917D01*
X0174377Y0090827D01*
X0174300Y0090736D01*
X0174226Y0090641D01*
X0174156Y0090545D01*
X0174088Y0090446D01*
X0174024Y0090345D01*
X0173964Y0090242D01*
X0173907Y0090136D01*
X0173853Y0090029D01*
X0173803Y0089921D01*
X0173757Y0089810D01*
X0173714Y0089699D01*
X0173675Y0089586D01*
X0173640Y0089471D01*
X0173608Y0089356D01*
X0173581Y0089239D01*
X0173557Y0089122D01*
X0173537Y0089004D01*
X0173521Y0088885D01*
X0173509Y0088766D01*
X0173501Y0088647D01*
X0173498Y0088527D01*
X0173497Y0088408D01*
X0173591Y0088411D01*
X0173592Y0088528D01*
X0173596Y0088645D01*
X0173603Y0088762D01*
X0173615Y0088879D01*
X0173631Y0088995D01*
X0173651Y0089111D01*
X0173674Y0089226D01*
X0173701Y0089340D01*
X0173732Y0089453D01*
X0173767Y0089565D01*
X0173806Y0089676D01*
X0173848Y0089786D01*
X0173894Y0089894D01*
X0173943Y0090000D01*
X0173996Y0090105D01*
X0174053Y0090208D01*
X0174113Y0090309D01*
X0174176Y0090407D01*
X0174242Y0090504D01*
X0174312Y0090599D01*
X0174385Y0090691D01*
X0174460Y0090780D01*
X0174539Y0090867D01*
X0174621Y0090951D01*
X0174705Y0091033D01*
X0174792Y0091112D01*
X0174882Y0091187D01*
X0174974Y0091260D01*
X0175068Y0091330D01*
X0175165Y0091396D01*
X0175264Y0091459D01*
X0175365Y0091519D01*
X0175468Y0091575D01*
X0175573Y0091628D01*
X0175679Y0091677D01*
X0175787Y0091723D01*
X0175897Y0091765D01*
X0176008Y0091804D01*
X0176120Y0091839D01*
X0176233Y0091869D01*
X0176347Y0091897D01*
X0176462Y0091920D01*
X0176578Y0091939D01*
X0176694Y0091955D01*
X0176811Y0091967D01*
X0176928Y0091975D01*
X0177045Y0091979D01*
X0177162Y0091978D01*
X0177280Y0091975D01*
X0177397Y0091967D01*
X0177514Y0091955D01*
X0177630Y0091939D01*
X0177746Y0091920D01*
X0177860Y0091896D01*
X0177975Y0091869D01*
X0178088Y0091838D01*
X0178200Y0091803D01*
X0178311Y0091765D01*
X0178420Y0091723D01*
X0178528Y0091677D01*
X0178635Y0091627D01*
X0178739Y0091574D01*
X0178842Y0091518D01*
X0178943Y0091458D01*
X0179042Y0091395D01*
X0179139Y0091329D01*
X0179233Y0091259D01*
X0179325Y0091186D01*
X0179415Y0091111D01*
X0179502Y0091032D01*
X0179586Y0090950D01*
X0179668Y0090866D01*
X0179747Y0090779D01*
X0179822Y0090689D01*
X0179895Y0090597D01*
X0179965Y0090503D01*
X0180031Y0090406D01*
X0180094Y0090307D01*
X0180154Y0090206D01*
X0180210Y0090103D01*
X0180263Y0089999D01*
X0180313Y0089892D01*
X0180359Y0089784D01*
X0180401Y0089675D01*
X0180439Y0089564D01*
X0180474Y0089452D01*
X0180505Y0089339D01*
X0180532Y0089224D01*
X0180556Y0089110D01*
X0180575Y0088994D01*
X0180591Y0088878D01*
X0180603Y0088761D01*
X0180611Y0088644D01*
X0180614Y0088526D01*
X0180615Y0088409D01*
X0180611Y0088292D01*
X0180603Y0088175D01*
X0180591Y0088058D01*
X0180575Y0087942D01*
X0180556Y0087826D01*
X0180533Y0087711D01*
X0180505Y0087597D01*
X0180475Y0087484D01*
X0180440Y0087372D01*
X0180401Y0087261D01*
X0180359Y0087151D01*
X0180313Y0087043D01*
X0180264Y0086937D01*
X0180211Y0086832D01*
X0180155Y0086729D01*
X0180095Y0086628D01*
X0180032Y0086529D01*
X0179966Y0086432D01*
X0179896Y0086338D01*
X0179823Y0086246D01*
X0179748Y0086156D01*
X0179669Y0086069D01*
X0179587Y0085985D01*
X0179503Y0085903D01*
X0179416Y0085824D01*
X0179327Y0085749D01*
X0179235Y0085676D01*
X0179140Y0085606D01*
X0179043Y0085540D01*
X0178945Y0085477D01*
X0178844Y0085417D01*
X0178741Y0085360D01*
X0178636Y0085307D01*
X0178530Y0085258D01*
X0178422Y0085212D01*
X0178312Y0085170D01*
X0178201Y0085131D01*
X0178089Y0085096D01*
X0177976Y0085065D01*
X0177862Y0085038D01*
X0177747Y0085015D01*
X0177631Y0084995D01*
X0177515Y0084979D01*
X0177398Y0084967D01*
X0177281Y0084960D01*
X0177164Y0084956D01*
X0177047Y0084955D01*
X0177049Y0085049D01*
X0177166Y0085050D01*
X0177283Y0085054D01*
X0177399Y0085062D01*
X0177515Y0085074D01*
X0177631Y0085090D01*
X0177746Y0085110D01*
X0177860Y0085134D01*
X0177973Y0085162D01*
X0178085Y0085193D01*
X0178196Y0085229D01*
X0178306Y0085268D01*
X0178415Y0085311D01*
X0178522Y0085357D01*
X0178627Y0085408D01*
X0178730Y0085461D01*
X0178832Y0085519D01*
X0178932Y0085579D01*
X0179029Y0085643D01*
X0179124Y0085711D01*
X0179217Y0085781D01*
X0179308Y0085855D01*
X0179395Y0085932D01*
X0179481Y0086011D01*
X0179563Y0086094D01*
X0179643Y0086179D01*
X0179719Y0086267D01*
X0179793Y0086358D01*
X0179863Y0086451D01*
X0179930Y0086546D01*
X0179994Y0086644D01*
X0180055Y0086743D01*
X0180112Y0086845D01*
X0180165Y0086949D01*
X0180215Y0087054D01*
X0180262Y0087161D01*
X0180304Y0087270D01*
X0180343Y0087380D01*
X0180379Y0087491D01*
X0180410Y0087603D01*
X0180438Y0087717D01*
X0180461Y0087831D01*
X0180481Y0087946D01*
X0180497Y0088061D01*
X0180509Y0088177D01*
X0180517Y0088294D01*
X0180521Y0088410D01*
X0180520Y0088527D01*
X0180516Y0088643D01*
X0180508Y0088760D01*
X0180496Y0088876D01*
X0180481Y0088991D01*
X0180461Y0089106D01*
X0180437Y0089221D01*
X0180409Y0089334D01*
X0180378Y0089446D01*
X0180342Y0089557D01*
X0180303Y0089667D01*
X0180261Y0089776D01*
X0180214Y0089883D01*
X0180164Y0089988D01*
X0180110Y0090092D01*
X0180053Y0090193D01*
X0179992Y0090293D01*
X0179928Y0090390D01*
X0179861Y0090486D01*
X0179791Y0090579D01*
X0179717Y0090669D01*
X0179640Y0090757D01*
X0179561Y0090842D01*
X0179478Y0090925D01*
X0179393Y0091004D01*
X0179305Y0091081D01*
X0179215Y0091155D01*
X0179122Y0091225D01*
X0179026Y0091292D01*
X0178929Y0091356D01*
X0178829Y0091417D01*
X0178728Y0091474D01*
X0178624Y0091528D01*
X0178519Y0091578D01*
X0178412Y0091625D01*
X0178303Y0091667D01*
X0178193Y0091706D01*
X0178082Y0091742D01*
X0177970Y0091773D01*
X0177857Y0091801D01*
X0177742Y0091825D01*
X0177627Y0091845D01*
X0177512Y0091860D01*
X0177396Y0091872D01*
X0177279Y0091880D01*
X0177163Y0091884D01*
X0177046Y0091885D01*
X0176930Y0091881D01*
X0176813Y0091873D01*
X0176697Y0091861D01*
X0176582Y0091845D01*
X0176467Y0091825D01*
X0176353Y0091802D01*
X0176239Y0091774D01*
X0176127Y0091743D01*
X0176016Y0091707D01*
X0175906Y0091668D01*
X0175797Y0091626D01*
X0175690Y0091579D01*
X0175585Y0091529D01*
X0175481Y0091476D01*
X0175379Y0091419D01*
X0175280Y0091358D01*
X0175182Y0091294D01*
X0175087Y0091227D01*
X0174994Y0091157D01*
X0174903Y0091083D01*
X0174815Y0091007D01*
X0174730Y0090927D01*
X0174647Y0090845D01*
X0174568Y0090759D01*
X0174491Y0090672D01*
X0174417Y0090581D01*
X0174347Y0090488D01*
X0174279Y0090393D01*
X0174215Y0090296D01*
X0174155Y0090196D01*
X0174097Y0090094D01*
X0174044Y0089991D01*
X0173993Y0089886D01*
X0173947Y0089779D01*
X0173904Y0089670D01*
X0173865Y0089560D01*
X0173829Y0089449D01*
X0173798Y0089337D01*
X0173770Y0089224D01*
X0173746Y0089110D01*
X0173726Y0088995D01*
X0173710Y0088879D01*
X0173698Y0088763D01*
X0173690Y0088647D01*
X0173686Y0088530D01*
X0173685Y0088413D01*
X0173779Y0088416D01*
X0173780Y0088531D01*
X0173784Y0088645D01*
X0173792Y0088759D01*
X0173804Y0088872D01*
X0173820Y0088985D01*
X0173839Y0089098D01*
X0173863Y0089210D01*
X0173890Y0089321D01*
X0173922Y0089430D01*
X0173957Y0089539D01*
X0173995Y0089647D01*
X0174038Y0089753D01*
X0174084Y0089857D01*
X0174133Y0089960D01*
X0174186Y0090061D01*
X0174243Y0090161D01*
X0174303Y0090258D01*
X0174366Y0090353D01*
X0174432Y0090446D01*
X0174502Y0090537D01*
X0174575Y0090625D01*
X0174650Y0090710D01*
X0174729Y0090793D01*
X0174810Y0090874D01*
X0174894Y0090951D01*
X0174981Y0091025D01*
X0175070Y0091097D01*
X0175162Y0091165D01*
X0175255Y0091230D01*
X0175351Y0091292D01*
X0175450Y0091351D01*
X0175550Y0091406D01*
X0175652Y0091457D01*
X0175755Y0091505D01*
X0175860Y0091550D01*
X0175967Y0091591D01*
X0176075Y0091628D01*
X0176184Y0091662D01*
X0176295Y0091691D01*
X0176406Y0091717D01*
X0176518Y0091739D01*
X0176631Y0091757D01*
X0176744Y0091772D01*
X0176858Y0091782D01*
X0176972Y0091788D01*
X0177086Y0091791D01*
X0177200Y0091790D01*
X0177314Y0091784D01*
X0177428Y0091775D01*
X0177542Y0091762D01*
X0177655Y0091745D01*
X0177767Y0091724D01*
X0177879Y0091699D01*
X0177989Y0091671D01*
X0178099Y0091638D01*
X0178207Y0091602D01*
X0178314Y0091562D01*
X0178420Y0091519D01*
X0178524Y0091472D01*
X0178626Y0091421D01*
X0178727Y0091367D01*
X0178826Y0091310D01*
X0178922Y0091249D01*
X0179017Y0091185D01*
X0179109Y0091117D01*
X0179199Y0091047D01*
X0179286Y0090973D01*
X0179371Y0090897D01*
X0179453Y0090817D01*
X0179533Y0090735D01*
X0179609Y0090650D01*
X0179683Y0090563D01*
X0179753Y0090473D01*
X0179821Y0090381D01*
X0179885Y0090286D01*
X0179946Y0090190D01*
X0180003Y0090091D01*
X0180057Y0089990D01*
X0180108Y0089888D01*
X0180155Y0089784D01*
X0180198Y0089678D01*
X0180238Y0089571D01*
X0180274Y0089463D01*
X0180307Y0089353D01*
X0180335Y0089243D01*
X0180360Y0089131D01*
X0180381Y0089019D01*
X0180398Y0088906D01*
X0180411Y0088792D01*
X0180420Y0088678D01*
X0180426Y0088564D01*
X0180427Y0088450D01*
X0180424Y0088336D01*
X0180418Y0088222D01*
X0180408Y0088108D01*
X0180393Y0087995D01*
X0180375Y0087882D01*
X0180353Y0087770D01*
X0180327Y0087659D01*
X0180298Y0087548D01*
X0180264Y0087439D01*
X0180227Y0087331D01*
X0180186Y0087224D01*
X0180141Y0087119D01*
X0180093Y0087016D01*
X0180042Y0086914D01*
X0179987Y0086814D01*
X0179928Y0086715D01*
X0179866Y0086619D01*
X0179801Y0086526D01*
X0179733Y0086434D01*
X0179661Y0086345D01*
X0179587Y0086258D01*
X0179510Y0086174D01*
X0179429Y0086093D01*
X0179346Y0086014D01*
X0179261Y0085939D01*
X0179173Y0085866D01*
X0179082Y0085796D01*
X0178989Y0085730D01*
X0178894Y0085667D01*
X0178797Y0085607D01*
X0178697Y0085550D01*
X0178596Y0085497D01*
X0178493Y0085448D01*
X0178389Y0085402D01*
X0178283Y0085359D01*
X0178175Y0085321D01*
X0178066Y0085286D01*
X0177957Y0085254D01*
X0177846Y0085227D01*
X0177734Y0085203D01*
X0177621Y0085184D01*
X0177508Y0085168D01*
X0177395Y0085156D01*
X0177281Y0085148D01*
X0177167Y0085144D01*
X0177052Y0085143D01*
X0177055Y0085237D01*
X0177168Y0085238D01*
X0177280Y0085242D01*
X0177393Y0085250D01*
X0177505Y0085262D01*
X0177616Y0085278D01*
X0177727Y0085298D01*
X0177837Y0085322D01*
X0177946Y0085349D01*
X0178054Y0085380D01*
X0178161Y0085415D01*
X0178267Y0085454D01*
X0178372Y0085497D01*
X0178474Y0085543D01*
X0178575Y0085592D01*
X0178675Y0085645D01*
X0178772Y0085702D01*
X0178868Y0085762D01*
X0178961Y0085825D01*
X0179052Y0085891D01*
X0179140Y0085961D01*
X0179227Y0086033D01*
X0179310Y0086109D01*
X0179391Y0086187D01*
X0179469Y0086268D01*
X0179544Y0086352D01*
X0179616Y0086438D01*
X0179686Y0086527D01*
X0179752Y0086618D01*
X0179815Y0086712D01*
X0179874Y0086808D01*
X0179930Y0086905D01*
X0179983Y0087005D01*
X0180032Y0087106D01*
X0180078Y0087209D01*
X0180120Y0087313D01*
X0180158Y0087419D01*
X0180193Y0087526D01*
X0180224Y0087635D01*
X0180251Y0087744D01*
X0180274Y0087854D01*
X0180294Y0087965D01*
X0180309Y0088077D01*
X0180321Y0088189D01*
X0180329Y0088301D01*
X0180333Y0088414D01*
X0180332Y0088526D01*
X0180328Y0088639D01*
X0180320Y0088751D01*
X0180309Y0088863D01*
X0180293Y0088975D01*
X0180273Y0089085D01*
X0180250Y0089196D01*
X0180222Y0089305D01*
X0180191Y0089413D01*
X0180156Y0089520D01*
X0180118Y0089626D01*
X0180076Y0089730D01*
X0180030Y0089833D01*
X0179980Y0089934D01*
X0179928Y0090034D01*
X0179871Y0090131D01*
X0179811Y0090227D01*
X0179749Y0090320D01*
X0179682Y0090411D01*
X0179613Y0090500D01*
X0179541Y0090586D01*
X0179465Y0090670D01*
X0179387Y0090751D01*
X0179306Y0090829D01*
X0179222Y0090905D01*
X0179136Y0090977D01*
X0179047Y0091046D01*
X0178956Y0091113D01*
X0178863Y0091175D01*
X0178767Y0091235D01*
X0178670Y0091292D01*
X0178570Y0091344D01*
X0178469Y0091394D01*
X0178366Y0091440D01*
X0178262Y0091482D01*
X0178156Y0091520D01*
X0178049Y0091555D01*
X0177941Y0091586D01*
X0177832Y0091614D01*
X0177721Y0091637D01*
X0177611Y0091657D01*
X0177499Y0091673D01*
X0177387Y0091684D01*
X0177275Y0091692D01*
X0177162Y0091696D01*
X0177050Y0091697D01*
X0176937Y0091693D01*
X0176825Y0091685D01*
X0176713Y0091673D01*
X0176601Y0091658D01*
X0176490Y0091638D01*
X0176380Y0091615D01*
X0176271Y0091588D01*
X0176162Y0091557D01*
X0176055Y0091522D01*
X0175949Y0091484D01*
X0175845Y0091442D01*
X0175742Y0091396D01*
X0175641Y0091347D01*
X0175541Y0091294D01*
X0175444Y0091238D01*
X0175348Y0091179D01*
X0175254Y0091116D01*
X0175163Y0091050D01*
X0175074Y0090980D01*
X0174988Y0090908D01*
X0174904Y0090833D01*
X0174823Y0090755D01*
X0174745Y0090674D01*
X0174669Y0090591D01*
X0174597Y0090504D01*
X0174527Y0090416D01*
X0174461Y0090325D01*
X0174398Y0090232D01*
X0174338Y0090136D01*
X0174281Y0090039D01*
X0174228Y0089939D01*
X0174179Y0089838D01*
X0174133Y0089736D01*
X0174090Y0089631D01*
X0174051Y0089525D01*
X0174016Y0089418D01*
X0173985Y0089310D01*
X0173958Y0089201D01*
X0173934Y0089091D01*
X0173914Y0088980D01*
X0173898Y0088869D01*
X0173886Y0088757D01*
X0173878Y0088644D01*
X0173874Y0088532D01*
X0173873Y0088419D01*
X0173967Y0088422D01*
X0173968Y0088534D01*
X0173972Y0088645D01*
X0173980Y0088757D01*
X0173993Y0088868D01*
X0174009Y0088979D01*
X0174029Y0089089D01*
X0174053Y0089198D01*
X0174081Y0089306D01*
X0174113Y0089413D01*
X0174149Y0089519D01*
X0174188Y0089624D01*
X0174231Y0089727D01*
X0174278Y0089828D01*
X0174328Y0089928D01*
X0174382Y0090026D01*
X0174439Y0090122D01*
X0174500Y0090216D01*
X0174564Y0090308D01*
X0174631Y0090397D01*
X0174702Y0090484D01*
X0174775Y0090568D01*
X0174851Y0090650D01*
X0174931Y0090729D01*
X0175013Y0090805D01*
X0175097Y0090878D01*
X0175184Y0090948D01*
X0175274Y0091014D01*
X0175366Y0091078D01*
X0175460Y0091138D01*
X0175556Y0091195D01*
X0175655Y0091249D01*
X0175755Y0091298D01*
X0175856Y0091345D01*
X0175960Y0091387D01*
X0176065Y0091426D01*
X0176171Y0091461D01*
X0176278Y0091493D01*
X0176386Y0091520D01*
X0176496Y0091544D01*
X0176606Y0091563D01*
X0176716Y0091579D01*
X0176828Y0091591D01*
X0176939Y0091599D01*
X0177051Y0091603D01*
X0177163Y0091602D01*
X0177274Y0091598D01*
X0177386Y0091590D01*
X0177497Y0091578D01*
X0177607Y0091562D01*
X0177717Y0091542D01*
X0177827Y0091518D01*
X0177935Y0091491D01*
X0178042Y0091459D01*
X0178148Y0091424D01*
X0178253Y0091385D01*
X0178356Y0091342D01*
X0178458Y0091295D01*
X0178558Y0091245D01*
X0178656Y0091192D01*
X0178752Y0091134D01*
X0178846Y0091074D01*
X0178938Y0091010D01*
X0179027Y0090943D01*
X0179114Y0090873D01*
X0179199Y0090800D01*
X0179281Y0090724D01*
X0179360Y0090645D01*
X0179436Y0090563D01*
X0179509Y0090478D01*
X0179579Y0090391D01*
X0179646Y0090302D01*
X0179710Y0090210D01*
X0179770Y0090116D01*
X0179828Y0090020D01*
X0179881Y0089922D01*
X0179931Y0089822D01*
X0179978Y0089720D01*
X0180021Y0089617D01*
X0180060Y0089512D01*
X0180095Y0089406D01*
X0180127Y0089299D01*
X0180154Y0089191D01*
X0180178Y0089081D01*
X0180198Y0088971D01*
X0180214Y0088861D01*
X0180226Y0088750D01*
X0180234Y0088638D01*
X0180238Y0088527D01*
X0180239Y0088415D01*
X0180235Y0088303D01*
X0180227Y0088192D01*
X0180215Y0088080D01*
X0180199Y0087970D01*
X0180180Y0087860D01*
X0180156Y0087750D01*
X0180129Y0087642D01*
X0180097Y0087535D01*
X0180062Y0087429D01*
X0180023Y0087324D01*
X0179981Y0087220D01*
X0179934Y0087119D01*
X0179885Y0087019D01*
X0179831Y0086920D01*
X0179774Y0086824D01*
X0179714Y0086730D01*
X0179650Y0086638D01*
X0179584Y0086548D01*
X0179514Y0086461D01*
X0179441Y0086377D01*
X0179365Y0086295D01*
X0179286Y0086215D01*
X0179204Y0086139D01*
X0179120Y0086066D01*
X0179033Y0085995D01*
X0178944Y0085928D01*
X0178852Y0085864D01*
X0178758Y0085803D01*
X0178662Y0085746D01*
X0178564Y0085692D01*
X0178464Y0085642D01*
X0178363Y0085595D01*
X0178260Y0085552D01*
X0178155Y0085513D01*
X0178049Y0085477D01*
X0177942Y0085445D01*
X0177834Y0085417D01*
X0177725Y0085393D01*
X0177615Y0085373D01*
X0177504Y0085357D01*
X0177393Y0085344D01*
X0177281Y0085336D01*
X0177170Y0085332D01*
X0177058Y0085331D01*
X0177061Y0085425D01*
X0177170Y0085426D01*
X0177279Y0085430D01*
X0177388Y0085438D01*
X0177497Y0085451D01*
X0177605Y0085467D01*
X0177712Y0085487D01*
X0177819Y0085510D01*
X0177924Y0085538D01*
X0178029Y0085569D01*
X0178132Y0085605D01*
X0178235Y0085643D01*
X0178335Y0085686D01*
X0178434Y0085732D01*
X0178532Y0085781D01*
X0178627Y0085834D01*
X0178721Y0085891D01*
X0178812Y0085951D01*
X0178901Y0086014D01*
X0178988Y0086080D01*
X0179073Y0086149D01*
X0179155Y0086221D01*
X0179234Y0086296D01*
X0179311Y0086374D01*
X0179384Y0086455D01*
X0179455Y0086538D01*
X0179523Y0086624D01*
X0179587Y0086712D01*
X0179649Y0086802D01*
X0179707Y0086894D01*
X0179762Y0086989D01*
X0179813Y0087085D01*
X0179861Y0087184D01*
X0179905Y0087283D01*
X0179946Y0087385D01*
X0179983Y0087488D01*
X0180016Y0087592D01*
X0180046Y0087697D01*
X0180072Y0087803D01*
X0180094Y0087910D01*
X0180112Y0088018D01*
X0180126Y0088126D01*
X0180136Y0088235D01*
X0180143Y0088344D01*
X0180145Y0088453D01*
X0180144Y0088562D01*
X0180138Y0088671D01*
X0180129Y0088780D01*
X0180116Y0088889D01*
X0180099Y0088996D01*
X0180078Y0089104D01*
X0180053Y0089210D01*
X0180024Y0089315D01*
X0179992Y0089420D01*
X0179956Y0089523D01*
X0179916Y0089625D01*
X0179873Y0089725D01*
X0179826Y0089824D01*
X0179775Y0089920D01*
X0179721Y0090015D01*
X0179664Y0090108D01*
X0179604Y0090199D01*
X0179540Y0090288D01*
X0179473Y0090374D01*
X0179403Y0090458D01*
X0179330Y0090539D01*
X0179254Y0090618D01*
X0179175Y0090694D01*
X0179094Y0090767D01*
X0179010Y0090837D01*
X0178924Y0090904D01*
X0178835Y0090968D01*
X0178744Y0091028D01*
X0178651Y0091085D01*
X0178556Y0091139D01*
X0178460Y0091190D01*
X0178361Y0091237D01*
X0178261Y0091280D01*
X0178159Y0091320D01*
X0178056Y0091356D01*
X0177951Y0091388D01*
X0177846Y0091417D01*
X0177740Y0091442D01*
X0177632Y0091463D01*
X0177525Y0091480D01*
X0177416Y0091493D01*
X0177307Y0091502D01*
X0177198Y0091508D01*
X0177089Y0091509D01*
X0176980Y0091507D01*
X0176871Y0091500D01*
X0176762Y0091490D01*
X0176654Y0091476D01*
X0176546Y0091458D01*
X0176439Y0091436D01*
X0176333Y0091410D01*
X0176228Y0091380D01*
X0176124Y0091347D01*
X0176021Y0091310D01*
X0175919Y0091269D01*
X0175820Y0091225D01*
X0175721Y0091177D01*
X0175625Y0091126D01*
X0175530Y0091071D01*
X0175438Y0091013D01*
X0175348Y0090951D01*
X0175260Y0090887D01*
X0175174Y0090819D01*
X0175091Y0090748D01*
X0175010Y0090675D01*
X0174932Y0090598D01*
X0174857Y0090519D01*
X0174785Y0090437D01*
X0174716Y0090352D01*
X0174650Y0090265D01*
X0174587Y0090176D01*
X0174527Y0090085D01*
X0174470Y0089991D01*
X0174417Y0089896D01*
X0174368Y0089798D01*
X0174322Y0089699D01*
X0174279Y0089599D01*
X0174241Y0089496D01*
X0174205Y0089393D01*
X0174174Y0089288D01*
X0174146Y0089183D01*
X0174123Y0089076D01*
X0174103Y0088969D01*
X0174087Y0088861D01*
X0174074Y0088752D01*
X0174066Y0088643D01*
X0174062Y0088534D01*
X0174061Y0088425D01*
X0174155Y0088428D01*
X0174156Y0088536D01*
X0174160Y0088644D01*
X0174169Y0088752D01*
X0174181Y0088860D01*
X0174198Y0088967D01*
X0174218Y0089073D01*
X0174242Y0089179D01*
X0174270Y0089283D01*
X0174302Y0089387D01*
X0174338Y0089489D01*
X0174377Y0089590D01*
X0174420Y0089689D01*
X0174467Y0089787D01*
X0174517Y0089883D01*
X0174571Y0089977D01*
X0174628Y0090069D01*
X0174689Y0090159D01*
X0174752Y0090246D01*
X0174819Y0090331D01*
X0174889Y0090414D01*
X0174962Y0090494D01*
X0175038Y0090571D01*
X0175117Y0090646D01*
X0175198Y0090717D01*
X0175282Y0090786D01*
X0175369Y0090851D01*
X0175457Y0090913D01*
X0175548Y0090972D01*
X0175641Y0091027D01*
X0175736Y0091079D01*
X0175833Y0091128D01*
X0175932Y0091172D01*
X0176032Y0091214D01*
X0176134Y0091251D01*
X0176236Y0091285D01*
X0176341Y0091315D01*
X0176446Y0091341D01*
X0176552Y0091363D01*
X0176658Y0091381D01*
X0176766Y0091396D01*
X0176874Y0091406D01*
X0176982Y0091413D01*
X0177090Y0091415D01*
X0177198Y0091413D01*
X0177306Y0091408D01*
X0177414Y0091399D01*
X0177522Y0091385D01*
X0177629Y0091368D01*
X0177735Y0091347D01*
X0177840Y0091321D01*
X0177944Y0091292D01*
X0178048Y0091260D01*
X0178150Y0091223D01*
X0178250Y0091183D01*
X0178349Y0091139D01*
X0178446Y0091091D01*
X0178542Y0091040D01*
X0178635Y0090985D01*
X0178727Y0090927D01*
X0178816Y0090866D01*
X0178903Y0090802D01*
X0178988Y0090734D01*
X0179070Y0090663D01*
X0179149Y0090589D01*
X0179225Y0090513D01*
X0179299Y0090434D01*
X0179370Y0090352D01*
X0179438Y0090267D01*
X0179502Y0090180D01*
X0179563Y0090091D01*
X0179621Y0089999D01*
X0179676Y0089906D01*
X0179727Y0089810D01*
X0179775Y0089713D01*
X0179819Y0089614D01*
X0179859Y0089514D01*
X0179896Y0089412D01*
X0179928Y0089308D01*
X0179957Y0089204D01*
X0179983Y0089099D01*
X0180004Y0088993D01*
X0180021Y0088886D01*
X0180035Y0088778D01*
X0180044Y0088670D01*
X0180049Y0088562D01*
X0180051Y0088454D01*
X0180049Y0088346D01*
X0180042Y0088238D01*
X0180032Y0088130D01*
X0180017Y0088022D01*
X0179999Y0087916D01*
X0179977Y0087810D01*
X0179951Y0087705D01*
X0179921Y0087600D01*
X0179887Y0087498D01*
X0179850Y0087396D01*
X0179808Y0087296D01*
X0179764Y0087197D01*
X0179715Y0087100D01*
X0179663Y0087005D01*
X0179608Y0086912D01*
X0179549Y0086821D01*
X0179487Y0086733D01*
X0179422Y0086646D01*
X0179353Y0086562D01*
X0179282Y0086481D01*
X0179207Y0086402D01*
X0179130Y0086326D01*
X0179050Y0086253D01*
X0178967Y0086183D01*
X0178882Y0086116D01*
X0178795Y0086053D01*
X0178705Y0085992D01*
X0178613Y0085935D01*
X0178519Y0085881D01*
X0178423Y0085831D01*
X0178325Y0085784D01*
X0178226Y0085741D01*
X0178125Y0085702D01*
X0178023Y0085666D01*
X0177919Y0085634D01*
X0177815Y0085606D01*
X0177709Y0085582D01*
X0177603Y0085562D01*
X0177496Y0085545D01*
X0177388Y0085533D01*
X0177280Y0085524D01*
X0177172Y0085520D01*
X0177064Y0085519D01*
X0177067Y0085613D01*
X0177173Y0085614D01*
X0177279Y0085618D01*
X0177386Y0085627D01*
X0177491Y0085640D01*
X0177596Y0085656D01*
X0177701Y0085676D01*
X0177805Y0085701D01*
X0177907Y0085729D01*
X0178009Y0085761D01*
X0178109Y0085796D01*
X0178208Y0085836D01*
X0178305Y0085879D01*
X0178401Y0085925D01*
X0178495Y0085976D01*
X0178587Y0086029D01*
X0178677Y0086086D01*
X0178765Y0086147D01*
X0178850Y0086210D01*
X0178933Y0086277D01*
X0179013Y0086347D01*
X0179091Y0086419D01*
X0179166Y0086495D01*
X0179238Y0086573D01*
X0179307Y0086654D01*
X0179373Y0086738D01*
X0179436Y0086824D01*
X0179496Y0086912D01*
X0179552Y0087002D01*
X0179605Y0087095D01*
X0179655Y0087189D01*
X0179701Y0087285D01*
X0179743Y0087383D01*
X0179782Y0087482D01*
X0179816Y0087582D01*
X0179848Y0087684D01*
X0179875Y0087787D01*
X0179898Y0087891D01*
X0179918Y0087996D01*
X0179933Y0088101D01*
X0179945Y0088207D01*
X0179953Y0088313D01*
X0179957Y0088419D01*
X0179956Y0088526D01*
X0179952Y0088632D01*
X0179944Y0088738D01*
X0179932Y0088844D01*
X0179916Y0088949D01*
X0179896Y0089054D01*
X0179872Y0089158D01*
X0179844Y0089261D01*
X0179813Y0089362D01*
X0179778Y0089463D01*
X0179739Y0089562D01*
X0179696Y0089659D01*
X0179650Y0089755D01*
X0179600Y0089849D01*
X0179547Y0089941D01*
X0179490Y0090032D01*
X0179430Y0090120D01*
X0179367Y0090205D01*
X0179300Y0090288D01*
X0179231Y0090369D01*
X0179158Y0090447D01*
X0179083Y0090522D01*
X0179005Y0090595D01*
X0178924Y0090664D01*
X0178841Y0090731D01*
X0178756Y0090794D01*
X0178668Y0090854D01*
X0178577Y0090911D01*
X0178485Y0090964D01*
X0178391Y0091014D01*
X0178295Y0091060D01*
X0178198Y0091103D01*
X0178099Y0091142D01*
X0177998Y0091177D01*
X0177897Y0091208D01*
X0177794Y0091236D01*
X0177690Y0091260D01*
X0177585Y0091280D01*
X0177480Y0091296D01*
X0177374Y0091308D01*
X0177268Y0091316D01*
X0177162Y0091320D01*
X0177055Y0091321D01*
X0176949Y0091317D01*
X0176843Y0091309D01*
X0176737Y0091297D01*
X0176632Y0091282D01*
X0176527Y0091262D01*
X0176423Y0091239D01*
X0176320Y0091212D01*
X0176218Y0091180D01*
X0176118Y0091146D01*
X0176019Y0091107D01*
X0175921Y0091065D01*
X0175825Y0091019D01*
X0175731Y0090969D01*
X0175638Y0090916D01*
X0175548Y0090860D01*
X0175460Y0090800D01*
X0175374Y0090737D01*
X0175290Y0090671D01*
X0175209Y0090602D01*
X0175131Y0090530D01*
X0175055Y0090455D01*
X0174983Y0090377D01*
X0174913Y0090297D01*
X0174846Y0090214D01*
X0174783Y0090129D01*
X0174722Y0090041D01*
X0174665Y0089951D01*
X0174612Y0089859D01*
X0174561Y0089765D01*
X0174515Y0089669D01*
X0174472Y0089572D01*
X0174432Y0089473D01*
X0174397Y0089373D01*
X0174365Y0089271D01*
X0174337Y0089169D01*
X0174312Y0089065D01*
X0174292Y0088960D01*
X0174276Y0088855D01*
X0174263Y0088750D01*
X0174254Y0088643D01*
X0174250Y0088537D01*
X0174249Y0088431D01*
X0172337Y0088405D02*
X0171437Y0088433D01*
X0171438Y0088432D02*
X0171437Y0088537D01*
X0171432Y0088643D01*
X0171424Y0088748D01*
X0171411Y0088852D01*
X0171395Y0088956D01*
X0171375Y0089059D01*
X0171350Y0089162D01*
X0171322Y0089263D01*
X0171291Y0089364D01*
X0171255Y0089463D01*
X0171216Y0089560D01*
X0171173Y0089656D01*
X0171126Y0089751D01*
X0171076Y0089843D01*
X0171023Y0089934D01*
X0170966Y0090023D01*
X0170906Y0090109D01*
X0170843Y0090193D01*
X0170776Y0090275D01*
X0170707Y0090354D01*
X0170634Y0090430D01*
X0170559Y0090504D01*
X0170481Y0090575D01*
X0170401Y0090643D01*
X0170318Y0090707D01*
X0170232Y0090769D01*
X0170144Y0090827D01*
X0170055Y0090882D01*
X0169963Y0090934D01*
X0169869Y0090982D01*
X0169774Y0091026D01*
X0169677Y0091067D01*
X0169578Y0091104D01*
X0169479Y0091138D01*
X0169378Y0091168D01*
X0169276Y0091193D01*
X0169173Y0091215D01*
X0169069Y0091234D01*
X0168965Y0091248D01*
X0168860Y0091258D01*
X0168755Y0091265D01*
X0168650Y0091267D01*
X0168544Y0091265D01*
X0168439Y0091260D01*
X0168334Y0091250D01*
X0168230Y0091237D01*
X0168126Y0091220D01*
X0168023Y0091199D01*
X0167921Y0091174D01*
X0167820Y0091145D01*
X0167719Y0091112D01*
X0167621Y0091076D01*
X0167523Y0091036D01*
X0167428Y0090992D01*
X0167334Y0090945D01*
X0167241Y0090894D01*
X0167151Y0090840D01*
X0167063Y0090782D01*
X0166977Y0090721D01*
X0166894Y0090657D01*
X0166812Y0090590D01*
X0166734Y0090520D01*
X0166658Y0090447D01*
X0166585Y0090371D01*
X0166515Y0090293D01*
X0166448Y0090211D01*
X0166384Y0090128D01*
X0166323Y0090042D01*
X0166265Y0089954D01*
X0166211Y0089864D01*
X0166160Y0089771D01*
X0166113Y0089677D01*
X0166069Y0089582D01*
X0166029Y0089484D01*
X0165993Y0089386D01*
X0165960Y0089285D01*
X0165931Y0089184D01*
X0165906Y0089082D01*
X0165885Y0088979D01*
X0165868Y0088875D01*
X0165855Y0088771D01*
X0165845Y0088666D01*
X0165840Y0088561D01*
X0165838Y0088455D01*
X0165840Y0088350D01*
X0165847Y0088245D01*
X0165857Y0088140D01*
X0165871Y0088036D01*
X0165890Y0087932D01*
X0165912Y0087829D01*
X0165937Y0087727D01*
X0165967Y0087626D01*
X0166001Y0087527D01*
X0166038Y0087428D01*
X0166079Y0087331D01*
X0166123Y0087236D01*
X0166171Y0087142D01*
X0166223Y0087050D01*
X0166278Y0086961D01*
X0166336Y0086873D01*
X0166398Y0086787D01*
X0166462Y0086704D01*
X0166530Y0086624D01*
X0166601Y0086546D01*
X0166675Y0086471D01*
X0166751Y0086398D01*
X0166830Y0086329D01*
X0166912Y0086262D01*
X0166996Y0086199D01*
X0167082Y0086139D01*
X0167171Y0086082D01*
X0167262Y0086029D01*
X0167354Y0085979D01*
X0167449Y0085932D01*
X0167545Y0085889D01*
X0167642Y0085850D01*
X0167741Y0085814D01*
X0167842Y0085783D01*
X0167943Y0085755D01*
X0168046Y0085730D01*
X0168149Y0085710D01*
X0168253Y0085694D01*
X0168357Y0085681D01*
X0168462Y0085673D01*
X0168568Y0085668D01*
X0168673Y0085667D01*
X0168700Y0084768D01*
X0168580Y0084767D01*
X0168460Y0084771D01*
X0168340Y0084779D01*
X0168220Y0084791D01*
X0168101Y0084806D01*
X0167982Y0084826D01*
X0167864Y0084849D01*
X0167747Y0084876D01*
X0167630Y0084907D01*
X0167515Y0084941D01*
X0167401Y0084980D01*
X0167289Y0085022D01*
X0167177Y0085067D01*
X0167068Y0085117D01*
X0166960Y0085170D01*
X0166853Y0085226D01*
X0166749Y0085286D01*
X0166647Y0085349D01*
X0166546Y0085415D01*
X0166448Y0085485D01*
X0166352Y0085557D01*
X0166259Y0085633D01*
X0166168Y0085712D01*
X0166080Y0085794D01*
X0165994Y0085878D01*
X0165912Y0085966D01*
X0165832Y0086055D01*
X0165755Y0086148D01*
X0165681Y0086243D01*
X0165610Y0086340D01*
X0165543Y0086440D01*
X0165479Y0086541D01*
X0165418Y0086645D01*
X0165360Y0086751D01*
X0165306Y0086858D01*
X0165256Y0086967D01*
X0165209Y0087078D01*
X0165165Y0087190D01*
X0165126Y0087304D01*
X0165090Y0087419D01*
X0165057Y0087534D01*
X0165029Y0087651D01*
X0165004Y0087769D01*
X0164984Y0087887D01*
X0164967Y0088007D01*
X0164954Y0088126D01*
X0164945Y0088246D01*
X0164939Y0088366D01*
X0164938Y0088486D01*
X0164941Y0088607D01*
X0164947Y0088727D01*
X0164958Y0088847D01*
X0164972Y0088966D01*
X0164990Y0089085D01*
X0165012Y0089203D01*
X0165038Y0089321D01*
X0165067Y0089437D01*
X0165101Y0089553D01*
X0165138Y0089667D01*
X0165179Y0089780D01*
X0165223Y0089892D01*
X0165271Y0090002D01*
X0165323Y0090111D01*
X0165378Y0090218D01*
X0165437Y0090323D01*
X0165499Y0090426D01*
X0165564Y0090527D01*
X0165633Y0090625D01*
X0165705Y0090722D01*
X0165779Y0090816D01*
X0165857Y0090908D01*
X0165938Y0090997D01*
X0166022Y0091083D01*
X0166108Y0091167D01*
X0166197Y0091248D01*
X0166289Y0091326D01*
X0166383Y0091400D01*
X0166480Y0091472D01*
X0166578Y0091541D01*
X0166679Y0091606D01*
X0166782Y0091668D01*
X0166887Y0091727D01*
X0166994Y0091782D01*
X0167103Y0091834D01*
X0167213Y0091882D01*
X0167325Y0091926D01*
X0167438Y0091967D01*
X0167552Y0092004D01*
X0167668Y0092038D01*
X0167784Y0092067D01*
X0167902Y0092093D01*
X0168020Y0092115D01*
X0168139Y0092133D01*
X0168258Y0092147D01*
X0168378Y0092158D01*
X0168498Y0092164D01*
X0168619Y0092167D01*
X0168739Y0092166D01*
X0168859Y0092160D01*
X0168979Y0092151D01*
X0169098Y0092138D01*
X0169218Y0092121D01*
X0169336Y0092101D01*
X0169454Y0092076D01*
X0169571Y0092048D01*
X0169686Y0092015D01*
X0169801Y0091979D01*
X0169915Y0091940D01*
X0170027Y0091896D01*
X0170138Y0091849D01*
X0170247Y0091799D01*
X0170354Y0091745D01*
X0170460Y0091687D01*
X0170564Y0091626D01*
X0170665Y0091562D01*
X0170765Y0091495D01*
X0170862Y0091424D01*
X0170957Y0091350D01*
X0171050Y0091273D01*
X0171139Y0091193D01*
X0171227Y0091111D01*
X0171311Y0091025D01*
X0171393Y0090937D01*
X0171472Y0090846D01*
X0171548Y0090753D01*
X0171620Y0090657D01*
X0171690Y0090559D01*
X0171756Y0090458D01*
X0171819Y0090356D01*
X0171879Y0090252D01*
X0171935Y0090145D01*
X0171988Y0090037D01*
X0172038Y0089928D01*
X0172083Y0089816D01*
X0172125Y0089704D01*
X0172164Y0089590D01*
X0172198Y0089475D01*
X0172229Y0089358D01*
X0172256Y0089241D01*
X0172279Y0089123D01*
X0172299Y0089004D01*
X0172314Y0088885D01*
X0172326Y0088765D01*
X0172334Y0088645D01*
X0172338Y0088525D01*
X0172337Y0088405D01*
X0172244Y0088408D01*
X0172243Y0088527D01*
X0172240Y0088647D01*
X0172232Y0088766D01*
X0172220Y0088885D01*
X0172204Y0089004D01*
X0172184Y0089122D01*
X0172160Y0089239D01*
X0172133Y0089356D01*
X0172101Y0089471D01*
X0172066Y0089586D01*
X0172027Y0089699D01*
X0171984Y0089810D01*
X0171938Y0089921D01*
X0171888Y0090029D01*
X0171834Y0090136D01*
X0171777Y0090242D01*
X0171717Y0090345D01*
X0171653Y0090446D01*
X0171585Y0090545D01*
X0171515Y0090641D01*
X0171441Y0090736D01*
X0171364Y0090827D01*
X0171284Y0090917D01*
X0171202Y0091003D01*
X0171116Y0091087D01*
X0171028Y0091167D01*
X0170937Y0091245D01*
X0170843Y0091320D01*
X0170748Y0091392D01*
X0170649Y0091460D01*
X0170549Y0091525D01*
X0170446Y0091587D01*
X0170342Y0091645D01*
X0170236Y0091700D01*
X0170127Y0091751D01*
X0170018Y0091799D01*
X0169906Y0091843D01*
X0169794Y0091883D01*
X0169680Y0091919D01*
X0169565Y0091952D01*
X0169448Y0091981D01*
X0169331Y0092006D01*
X0169214Y0092027D01*
X0169095Y0092044D01*
X0168976Y0092057D01*
X0168857Y0092066D01*
X0168738Y0092072D01*
X0168618Y0092073D01*
X0168498Y0092070D01*
X0168379Y0092064D01*
X0168260Y0092053D01*
X0168141Y0092039D01*
X0168023Y0092020D01*
X0167905Y0091998D01*
X0167788Y0091971D01*
X0167673Y0091941D01*
X0167558Y0091907D01*
X0167444Y0091870D01*
X0167332Y0091828D01*
X0167221Y0091783D01*
X0167112Y0091734D01*
X0167004Y0091682D01*
X0166899Y0091626D01*
X0166795Y0091566D01*
X0166693Y0091503D01*
X0166593Y0091437D01*
X0166496Y0091368D01*
X0166401Y0091295D01*
X0166308Y0091219D01*
X0166218Y0091141D01*
X0166131Y0091059D01*
X0166046Y0090974D01*
X0165964Y0090887D01*
X0165886Y0090797D01*
X0165810Y0090704D01*
X0165737Y0090609D01*
X0165668Y0090512D01*
X0165602Y0090412D01*
X0165539Y0090310D01*
X0165479Y0090206D01*
X0165423Y0090101D01*
X0165371Y0089993D01*
X0165322Y0089884D01*
X0165277Y0089773D01*
X0165235Y0089661D01*
X0165198Y0089547D01*
X0165164Y0089432D01*
X0165134Y0089317D01*
X0165107Y0089200D01*
X0165085Y0089082D01*
X0165066Y0088964D01*
X0165052Y0088845D01*
X0165041Y0088726D01*
X0165035Y0088607D01*
X0165032Y0088487D01*
X0165033Y0088367D01*
X0165039Y0088248D01*
X0165048Y0088129D01*
X0165061Y0088010D01*
X0165078Y0087891D01*
X0165099Y0087774D01*
X0165124Y0087657D01*
X0165153Y0087540D01*
X0165186Y0087425D01*
X0165222Y0087311D01*
X0165262Y0087199D01*
X0165306Y0087087D01*
X0165354Y0086978D01*
X0165405Y0086869D01*
X0165460Y0086763D01*
X0165518Y0086659D01*
X0165580Y0086556D01*
X0165645Y0086456D01*
X0165713Y0086357D01*
X0165785Y0086262D01*
X0165860Y0086168D01*
X0165938Y0086077D01*
X0166018Y0085989D01*
X0166102Y0085903D01*
X0166188Y0085821D01*
X0166278Y0085741D01*
X0166369Y0085664D01*
X0166464Y0085590D01*
X0166560Y0085520D01*
X0166659Y0085452D01*
X0166760Y0085388D01*
X0166863Y0085328D01*
X0166969Y0085271D01*
X0167076Y0085217D01*
X0167184Y0085167D01*
X0167295Y0085121D01*
X0167406Y0085078D01*
X0167519Y0085039D01*
X0167634Y0085004D01*
X0167749Y0084972D01*
X0167866Y0084945D01*
X0167983Y0084921D01*
X0168101Y0084901D01*
X0168220Y0084885D01*
X0168339Y0084873D01*
X0168458Y0084865D01*
X0168578Y0084862D01*
X0168697Y0084861D01*
X0168694Y0084955D01*
X0168577Y0084956D01*
X0168460Y0084960D01*
X0168343Y0084967D01*
X0168226Y0084979D01*
X0168110Y0084995D01*
X0167994Y0085015D01*
X0167879Y0085038D01*
X0167765Y0085065D01*
X0167652Y0085096D01*
X0167540Y0085131D01*
X0167429Y0085170D01*
X0167319Y0085212D01*
X0167211Y0085258D01*
X0167105Y0085307D01*
X0167000Y0085360D01*
X0166897Y0085417D01*
X0166796Y0085477D01*
X0166698Y0085540D01*
X0166601Y0085606D01*
X0166506Y0085676D01*
X0166414Y0085749D01*
X0166325Y0085824D01*
X0166238Y0085903D01*
X0166154Y0085985D01*
X0166072Y0086069D01*
X0165993Y0086156D01*
X0165918Y0086246D01*
X0165845Y0086338D01*
X0165775Y0086432D01*
X0165709Y0086529D01*
X0165646Y0086628D01*
X0165586Y0086729D01*
X0165530Y0086832D01*
X0165477Y0086937D01*
X0165428Y0087043D01*
X0165382Y0087151D01*
X0165340Y0087261D01*
X0165301Y0087372D01*
X0165266Y0087484D01*
X0165236Y0087597D01*
X0165208Y0087711D01*
X0165185Y0087826D01*
X0165166Y0087942D01*
X0165150Y0088058D01*
X0165138Y0088175D01*
X0165130Y0088292D01*
X0165126Y0088409D01*
X0165127Y0088526D01*
X0165130Y0088644D01*
X0165138Y0088761D01*
X0165150Y0088878D01*
X0165166Y0088994D01*
X0165185Y0089110D01*
X0165209Y0089224D01*
X0165236Y0089339D01*
X0165267Y0089452D01*
X0165302Y0089564D01*
X0165340Y0089675D01*
X0165382Y0089784D01*
X0165428Y0089892D01*
X0165478Y0089999D01*
X0165531Y0090103D01*
X0165587Y0090206D01*
X0165647Y0090307D01*
X0165710Y0090406D01*
X0165776Y0090503D01*
X0165846Y0090597D01*
X0165919Y0090689D01*
X0165994Y0090779D01*
X0166073Y0090866D01*
X0166155Y0090950D01*
X0166239Y0091032D01*
X0166326Y0091111D01*
X0166416Y0091186D01*
X0166508Y0091259D01*
X0166602Y0091329D01*
X0166699Y0091395D01*
X0166798Y0091458D01*
X0166899Y0091518D01*
X0167002Y0091574D01*
X0167106Y0091627D01*
X0167213Y0091677D01*
X0167321Y0091723D01*
X0167430Y0091765D01*
X0167541Y0091803D01*
X0167653Y0091838D01*
X0167766Y0091869D01*
X0167881Y0091896D01*
X0167995Y0091920D01*
X0168111Y0091939D01*
X0168227Y0091955D01*
X0168344Y0091967D01*
X0168461Y0091975D01*
X0168579Y0091978D01*
X0168696Y0091979D01*
X0168813Y0091975D01*
X0168930Y0091967D01*
X0169047Y0091955D01*
X0169163Y0091939D01*
X0169279Y0091920D01*
X0169394Y0091897D01*
X0169508Y0091869D01*
X0169621Y0091839D01*
X0169733Y0091804D01*
X0169844Y0091765D01*
X0169954Y0091723D01*
X0170062Y0091677D01*
X0170168Y0091628D01*
X0170273Y0091575D01*
X0170376Y0091519D01*
X0170477Y0091459D01*
X0170576Y0091396D01*
X0170673Y0091330D01*
X0170767Y0091260D01*
X0170859Y0091187D01*
X0170949Y0091112D01*
X0171036Y0091033D01*
X0171120Y0090951D01*
X0171202Y0090867D01*
X0171281Y0090780D01*
X0171356Y0090691D01*
X0171429Y0090599D01*
X0171499Y0090504D01*
X0171565Y0090407D01*
X0171628Y0090309D01*
X0171688Y0090208D01*
X0171745Y0090105D01*
X0171798Y0090000D01*
X0171847Y0089894D01*
X0171893Y0089786D01*
X0171935Y0089676D01*
X0171974Y0089565D01*
X0172009Y0089453D01*
X0172040Y0089340D01*
X0172067Y0089226D01*
X0172090Y0089111D01*
X0172110Y0088995D01*
X0172126Y0088879D01*
X0172138Y0088762D01*
X0172145Y0088645D01*
X0172149Y0088528D01*
X0172150Y0088411D01*
X0172056Y0088413D01*
X0172055Y0088530D01*
X0172051Y0088647D01*
X0172043Y0088763D01*
X0172031Y0088879D01*
X0172015Y0088995D01*
X0171995Y0089110D01*
X0171971Y0089224D01*
X0171943Y0089337D01*
X0171912Y0089449D01*
X0171876Y0089560D01*
X0171837Y0089670D01*
X0171794Y0089779D01*
X0171748Y0089886D01*
X0171697Y0089991D01*
X0171644Y0090094D01*
X0171586Y0090196D01*
X0171526Y0090296D01*
X0171462Y0090393D01*
X0171394Y0090488D01*
X0171324Y0090581D01*
X0171250Y0090672D01*
X0171173Y0090759D01*
X0171094Y0090845D01*
X0171011Y0090927D01*
X0170926Y0091007D01*
X0170838Y0091083D01*
X0170747Y0091157D01*
X0170654Y0091227D01*
X0170559Y0091294D01*
X0170461Y0091358D01*
X0170362Y0091419D01*
X0170260Y0091476D01*
X0170156Y0091529D01*
X0170051Y0091579D01*
X0169944Y0091626D01*
X0169835Y0091668D01*
X0169725Y0091707D01*
X0169614Y0091743D01*
X0169502Y0091774D01*
X0169388Y0091802D01*
X0169274Y0091825D01*
X0169159Y0091845D01*
X0169044Y0091861D01*
X0168928Y0091873D01*
X0168811Y0091881D01*
X0168695Y0091885D01*
X0168578Y0091884D01*
X0168462Y0091880D01*
X0168345Y0091872D01*
X0168229Y0091860D01*
X0168114Y0091845D01*
X0167999Y0091825D01*
X0167884Y0091801D01*
X0167771Y0091773D01*
X0167659Y0091742D01*
X0167548Y0091706D01*
X0167438Y0091667D01*
X0167329Y0091625D01*
X0167222Y0091578D01*
X0167117Y0091528D01*
X0167013Y0091474D01*
X0166912Y0091417D01*
X0166812Y0091356D01*
X0166715Y0091292D01*
X0166619Y0091225D01*
X0166526Y0091155D01*
X0166436Y0091081D01*
X0166348Y0091004D01*
X0166263Y0090925D01*
X0166180Y0090842D01*
X0166101Y0090757D01*
X0166024Y0090669D01*
X0165950Y0090579D01*
X0165880Y0090486D01*
X0165813Y0090390D01*
X0165749Y0090293D01*
X0165688Y0090193D01*
X0165631Y0090092D01*
X0165577Y0089988D01*
X0165527Y0089883D01*
X0165480Y0089776D01*
X0165438Y0089667D01*
X0165399Y0089557D01*
X0165363Y0089446D01*
X0165332Y0089334D01*
X0165304Y0089221D01*
X0165280Y0089106D01*
X0165260Y0088991D01*
X0165245Y0088876D01*
X0165233Y0088760D01*
X0165225Y0088643D01*
X0165221Y0088527D01*
X0165220Y0088410D01*
X0165224Y0088294D01*
X0165232Y0088177D01*
X0165244Y0088061D01*
X0165260Y0087946D01*
X0165280Y0087831D01*
X0165303Y0087717D01*
X0165331Y0087603D01*
X0165362Y0087491D01*
X0165398Y0087380D01*
X0165437Y0087270D01*
X0165479Y0087161D01*
X0165526Y0087054D01*
X0165576Y0086949D01*
X0165629Y0086845D01*
X0165686Y0086743D01*
X0165747Y0086644D01*
X0165811Y0086546D01*
X0165878Y0086451D01*
X0165948Y0086358D01*
X0166022Y0086267D01*
X0166098Y0086179D01*
X0166178Y0086094D01*
X0166260Y0086011D01*
X0166346Y0085932D01*
X0166433Y0085855D01*
X0166524Y0085781D01*
X0166617Y0085711D01*
X0166712Y0085643D01*
X0166809Y0085579D01*
X0166909Y0085519D01*
X0167011Y0085461D01*
X0167114Y0085408D01*
X0167219Y0085357D01*
X0167326Y0085311D01*
X0167435Y0085268D01*
X0167545Y0085229D01*
X0167656Y0085193D01*
X0167768Y0085162D01*
X0167881Y0085134D01*
X0167995Y0085110D01*
X0168110Y0085090D01*
X0168226Y0085074D01*
X0168342Y0085062D01*
X0168458Y0085054D01*
X0168575Y0085050D01*
X0168692Y0085049D01*
X0168689Y0085143D01*
X0168574Y0085144D01*
X0168460Y0085148D01*
X0168346Y0085156D01*
X0168233Y0085168D01*
X0168120Y0085184D01*
X0168007Y0085203D01*
X0167895Y0085227D01*
X0167784Y0085254D01*
X0167675Y0085286D01*
X0167566Y0085321D01*
X0167458Y0085359D01*
X0167352Y0085402D01*
X0167248Y0085448D01*
X0167145Y0085497D01*
X0167044Y0085550D01*
X0166944Y0085607D01*
X0166847Y0085667D01*
X0166752Y0085730D01*
X0166659Y0085796D01*
X0166568Y0085866D01*
X0166480Y0085939D01*
X0166395Y0086014D01*
X0166312Y0086093D01*
X0166231Y0086174D01*
X0166154Y0086258D01*
X0166080Y0086345D01*
X0166008Y0086434D01*
X0165940Y0086526D01*
X0165875Y0086619D01*
X0165813Y0086715D01*
X0165754Y0086814D01*
X0165699Y0086914D01*
X0165648Y0087016D01*
X0165600Y0087119D01*
X0165555Y0087224D01*
X0165514Y0087331D01*
X0165477Y0087439D01*
X0165443Y0087548D01*
X0165414Y0087659D01*
X0165388Y0087770D01*
X0165366Y0087882D01*
X0165348Y0087995D01*
X0165333Y0088108D01*
X0165323Y0088222D01*
X0165317Y0088336D01*
X0165314Y0088450D01*
X0165315Y0088564D01*
X0165321Y0088678D01*
X0165330Y0088792D01*
X0165343Y0088906D01*
X0165360Y0089019D01*
X0165381Y0089131D01*
X0165406Y0089243D01*
X0165434Y0089353D01*
X0165467Y0089463D01*
X0165503Y0089571D01*
X0165543Y0089678D01*
X0165586Y0089784D01*
X0165633Y0089888D01*
X0165684Y0089990D01*
X0165738Y0090091D01*
X0165795Y0090190D01*
X0165856Y0090286D01*
X0165920Y0090381D01*
X0165988Y0090473D01*
X0166058Y0090563D01*
X0166132Y0090650D01*
X0166208Y0090735D01*
X0166288Y0090817D01*
X0166370Y0090897D01*
X0166455Y0090973D01*
X0166542Y0091047D01*
X0166632Y0091117D01*
X0166724Y0091185D01*
X0166819Y0091249D01*
X0166915Y0091310D01*
X0167014Y0091367D01*
X0167115Y0091421D01*
X0167217Y0091472D01*
X0167321Y0091519D01*
X0167427Y0091562D01*
X0167534Y0091602D01*
X0167642Y0091638D01*
X0167752Y0091671D01*
X0167862Y0091699D01*
X0167974Y0091724D01*
X0168086Y0091745D01*
X0168199Y0091762D01*
X0168313Y0091775D01*
X0168427Y0091784D01*
X0168541Y0091790D01*
X0168655Y0091791D01*
X0168769Y0091788D01*
X0168883Y0091782D01*
X0168997Y0091772D01*
X0169110Y0091757D01*
X0169223Y0091739D01*
X0169335Y0091717D01*
X0169446Y0091691D01*
X0169557Y0091662D01*
X0169666Y0091628D01*
X0169774Y0091591D01*
X0169881Y0091550D01*
X0169986Y0091505D01*
X0170089Y0091457D01*
X0170191Y0091406D01*
X0170291Y0091351D01*
X0170390Y0091292D01*
X0170486Y0091230D01*
X0170579Y0091165D01*
X0170671Y0091097D01*
X0170760Y0091025D01*
X0170847Y0090951D01*
X0170931Y0090874D01*
X0171012Y0090793D01*
X0171091Y0090710D01*
X0171166Y0090625D01*
X0171239Y0090537D01*
X0171309Y0090446D01*
X0171375Y0090353D01*
X0171438Y0090258D01*
X0171498Y0090161D01*
X0171555Y0090061D01*
X0171608Y0089960D01*
X0171657Y0089857D01*
X0171703Y0089753D01*
X0171746Y0089647D01*
X0171784Y0089539D01*
X0171819Y0089430D01*
X0171851Y0089321D01*
X0171878Y0089210D01*
X0171902Y0089098D01*
X0171921Y0088985D01*
X0171937Y0088872D01*
X0171949Y0088759D01*
X0171957Y0088645D01*
X0171961Y0088531D01*
X0171962Y0088416D01*
X0171868Y0088419D01*
X0171867Y0088532D01*
X0171863Y0088644D01*
X0171855Y0088757D01*
X0171843Y0088869D01*
X0171827Y0088980D01*
X0171807Y0089091D01*
X0171783Y0089201D01*
X0171756Y0089310D01*
X0171725Y0089418D01*
X0171690Y0089525D01*
X0171651Y0089631D01*
X0171608Y0089736D01*
X0171562Y0089838D01*
X0171513Y0089939D01*
X0171460Y0090039D01*
X0171403Y0090136D01*
X0171343Y0090232D01*
X0171280Y0090325D01*
X0171214Y0090416D01*
X0171144Y0090504D01*
X0171072Y0090591D01*
X0170996Y0090674D01*
X0170918Y0090755D01*
X0170837Y0090833D01*
X0170753Y0090908D01*
X0170667Y0090980D01*
X0170578Y0091050D01*
X0170487Y0091116D01*
X0170393Y0091179D01*
X0170297Y0091238D01*
X0170200Y0091294D01*
X0170100Y0091347D01*
X0169999Y0091396D01*
X0169896Y0091442D01*
X0169792Y0091484D01*
X0169686Y0091522D01*
X0169579Y0091557D01*
X0169470Y0091588D01*
X0169361Y0091615D01*
X0169251Y0091638D01*
X0169140Y0091658D01*
X0169028Y0091673D01*
X0168916Y0091685D01*
X0168804Y0091693D01*
X0168691Y0091697D01*
X0168579Y0091696D01*
X0168466Y0091692D01*
X0168354Y0091684D01*
X0168242Y0091673D01*
X0168130Y0091657D01*
X0168020Y0091637D01*
X0167909Y0091614D01*
X0167800Y0091586D01*
X0167692Y0091555D01*
X0167585Y0091520D01*
X0167479Y0091482D01*
X0167375Y0091440D01*
X0167272Y0091394D01*
X0167171Y0091344D01*
X0167071Y0091292D01*
X0166974Y0091235D01*
X0166878Y0091175D01*
X0166785Y0091113D01*
X0166694Y0091046D01*
X0166605Y0090977D01*
X0166519Y0090905D01*
X0166435Y0090829D01*
X0166354Y0090751D01*
X0166276Y0090670D01*
X0166200Y0090586D01*
X0166128Y0090500D01*
X0166059Y0090411D01*
X0165992Y0090320D01*
X0165930Y0090227D01*
X0165870Y0090131D01*
X0165813Y0090034D01*
X0165761Y0089934D01*
X0165711Y0089833D01*
X0165665Y0089730D01*
X0165623Y0089626D01*
X0165585Y0089520D01*
X0165550Y0089413D01*
X0165519Y0089305D01*
X0165491Y0089196D01*
X0165468Y0089085D01*
X0165448Y0088975D01*
X0165432Y0088863D01*
X0165421Y0088751D01*
X0165413Y0088639D01*
X0165409Y0088526D01*
X0165408Y0088414D01*
X0165412Y0088301D01*
X0165420Y0088189D01*
X0165432Y0088077D01*
X0165447Y0087965D01*
X0165467Y0087854D01*
X0165490Y0087744D01*
X0165517Y0087635D01*
X0165548Y0087526D01*
X0165583Y0087419D01*
X0165621Y0087313D01*
X0165663Y0087209D01*
X0165709Y0087106D01*
X0165758Y0087005D01*
X0165811Y0086905D01*
X0165867Y0086808D01*
X0165926Y0086712D01*
X0165989Y0086618D01*
X0166055Y0086527D01*
X0166125Y0086438D01*
X0166197Y0086352D01*
X0166272Y0086268D01*
X0166350Y0086187D01*
X0166431Y0086109D01*
X0166514Y0086033D01*
X0166601Y0085961D01*
X0166689Y0085891D01*
X0166780Y0085825D01*
X0166873Y0085762D01*
X0166969Y0085702D01*
X0167066Y0085645D01*
X0167166Y0085592D01*
X0167267Y0085543D01*
X0167369Y0085497D01*
X0167474Y0085454D01*
X0167580Y0085415D01*
X0167687Y0085380D01*
X0167795Y0085349D01*
X0167904Y0085322D01*
X0168014Y0085298D01*
X0168125Y0085278D01*
X0168236Y0085262D01*
X0168348Y0085250D01*
X0168461Y0085242D01*
X0168573Y0085238D01*
X0168686Y0085237D01*
X0168683Y0085331D01*
X0168571Y0085332D01*
X0168460Y0085336D01*
X0168348Y0085344D01*
X0168237Y0085357D01*
X0168126Y0085373D01*
X0168016Y0085393D01*
X0167907Y0085417D01*
X0167799Y0085445D01*
X0167692Y0085477D01*
X0167586Y0085513D01*
X0167481Y0085552D01*
X0167378Y0085595D01*
X0167277Y0085642D01*
X0167177Y0085692D01*
X0167079Y0085746D01*
X0166983Y0085803D01*
X0166889Y0085864D01*
X0166797Y0085928D01*
X0166708Y0085995D01*
X0166621Y0086066D01*
X0166537Y0086139D01*
X0166455Y0086215D01*
X0166376Y0086295D01*
X0166300Y0086377D01*
X0166227Y0086461D01*
X0166157Y0086548D01*
X0166091Y0086638D01*
X0166027Y0086730D01*
X0165967Y0086824D01*
X0165910Y0086920D01*
X0165856Y0087019D01*
X0165807Y0087119D01*
X0165760Y0087220D01*
X0165718Y0087324D01*
X0165679Y0087429D01*
X0165644Y0087535D01*
X0165612Y0087642D01*
X0165585Y0087750D01*
X0165561Y0087860D01*
X0165542Y0087970D01*
X0165526Y0088080D01*
X0165514Y0088192D01*
X0165506Y0088303D01*
X0165502Y0088415D01*
X0165503Y0088527D01*
X0165507Y0088638D01*
X0165515Y0088750D01*
X0165527Y0088861D01*
X0165543Y0088971D01*
X0165563Y0089081D01*
X0165587Y0089191D01*
X0165614Y0089299D01*
X0165646Y0089406D01*
X0165681Y0089512D01*
X0165720Y0089617D01*
X0165763Y0089720D01*
X0165810Y0089822D01*
X0165860Y0089922D01*
X0165913Y0090020D01*
X0165971Y0090116D01*
X0166031Y0090210D01*
X0166095Y0090302D01*
X0166162Y0090391D01*
X0166232Y0090478D01*
X0166305Y0090563D01*
X0166381Y0090645D01*
X0166460Y0090724D01*
X0166542Y0090800D01*
X0166627Y0090873D01*
X0166714Y0090943D01*
X0166803Y0091010D01*
X0166895Y0091074D01*
X0166989Y0091134D01*
X0167085Y0091192D01*
X0167183Y0091245D01*
X0167283Y0091295D01*
X0167385Y0091342D01*
X0167488Y0091385D01*
X0167593Y0091424D01*
X0167699Y0091459D01*
X0167806Y0091491D01*
X0167914Y0091518D01*
X0168024Y0091542D01*
X0168134Y0091562D01*
X0168244Y0091578D01*
X0168355Y0091590D01*
X0168467Y0091598D01*
X0168578Y0091602D01*
X0168690Y0091603D01*
X0168802Y0091599D01*
X0168913Y0091591D01*
X0169025Y0091579D01*
X0169135Y0091563D01*
X0169245Y0091544D01*
X0169355Y0091520D01*
X0169463Y0091493D01*
X0169570Y0091461D01*
X0169676Y0091426D01*
X0169781Y0091387D01*
X0169885Y0091345D01*
X0169986Y0091298D01*
X0170086Y0091249D01*
X0170185Y0091195D01*
X0170281Y0091138D01*
X0170375Y0091078D01*
X0170467Y0091014D01*
X0170557Y0090948D01*
X0170644Y0090878D01*
X0170728Y0090805D01*
X0170810Y0090729D01*
X0170890Y0090650D01*
X0170966Y0090568D01*
X0171039Y0090484D01*
X0171110Y0090397D01*
X0171177Y0090308D01*
X0171241Y0090216D01*
X0171302Y0090122D01*
X0171359Y0090026D01*
X0171413Y0089928D01*
X0171463Y0089828D01*
X0171510Y0089727D01*
X0171553Y0089624D01*
X0171592Y0089519D01*
X0171628Y0089413D01*
X0171660Y0089306D01*
X0171688Y0089198D01*
X0171712Y0089089D01*
X0171732Y0088979D01*
X0171748Y0088868D01*
X0171761Y0088757D01*
X0171769Y0088645D01*
X0171773Y0088534D01*
X0171774Y0088422D01*
X0171680Y0088425D01*
X0171679Y0088534D01*
X0171675Y0088643D01*
X0171667Y0088752D01*
X0171654Y0088861D01*
X0171638Y0088969D01*
X0171618Y0089076D01*
X0171595Y0089183D01*
X0171567Y0089288D01*
X0171536Y0089393D01*
X0171500Y0089496D01*
X0171462Y0089599D01*
X0171419Y0089699D01*
X0171373Y0089798D01*
X0171324Y0089896D01*
X0171271Y0089991D01*
X0171214Y0090085D01*
X0171154Y0090176D01*
X0171091Y0090265D01*
X0171025Y0090352D01*
X0170956Y0090437D01*
X0170884Y0090519D01*
X0170809Y0090598D01*
X0170731Y0090675D01*
X0170650Y0090748D01*
X0170567Y0090819D01*
X0170481Y0090887D01*
X0170393Y0090951D01*
X0170303Y0091013D01*
X0170211Y0091071D01*
X0170116Y0091126D01*
X0170020Y0091177D01*
X0169921Y0091225D01*
X0169822Y0091269D01*
X0169720Y0091310D01*
X0169617Y0091347D01*
X0169513Y0091380D01*
X0169408Y0091410D01*
X0169302Y0091436D01*
X0169195Y0091458D01*
X0169087Y0091476D01*
X0168979Y0091490D01*
X0168870Y0091500D01*
X0168761Y0091507D01*
X0168652Y0091509D01*
X0168543Y0091508D01*
X0168434Y0091502D01*
X0168325Y0091493D01*
X0168216Y0091480D01*
X0168109Y0091463D01*
X0168001Y0091442D01*
X0167895Y0091417D01*
X0167790Y0091388D01*
X0167685Y0091356D01*
X0167582Y0091320D01*
X0167480Y0091280D01*
X0167380Y0091237D01*
X0167281Y0091190D01*
X0167185Y0091139D01*
X0167090Y0091085D01*
X0166997Y0091028D01*
X0166906Y0090968D01*
X0166817Y0090904D01*
X0166731Y0090837D01*
X0166647Y0090767D01*
X0166566Y0090694D01*
X0166487Y0090618D01*
X0166411Y0090539D01*
X0166338Y0090458D01*
X0166268Y0090374D01*
X0166201Y0090288D01*
X0166137Y0090199D01*
X0166077Y0090108D01*
X0166020Y0090015D01*
X0165966Y0089920D01*
X0165915Y0089824D01*
X0165868Y0089725D01*
X0165825Y0089625D01*
X0165785Y0089523D01*
X0165749Y0089420D01*
X0165717Y0089315D01*
X0165688Y0089210D01*
X0165663Y0089104D01*
X0165642Y0088996D01*
X0165625Y0088889D01*
X0165612Y0088780D01*
X0165603Y0088671D01*
X0165597Y0088562D01*
X0165596Y0088453D01*
X0165598Y0088344D01*
X0165605Y0088235D01*
X0165615Y0088126D01*
X0165629Y0088018D01*
X0165647Y0087910D01*
X0165669Y0087803D01*
X0165695Y0087697D01*
X0165725Y0087592D01*
X0165758Y0087488D01*
X0165795Y0087385D01*
X0165836Y0087283D01*
X0165880Y0087184D01*
X0165928Y0087085D01*
X0165979Y0086989D01*
X0166034Y0086894D01*
X0166092Y0086802D01*
X0166154Y0086712D01*
X0166218Y0086624D01*
X0166286Y0086538D01*
X0166357Y0086455D01*
X0166430Y0086374D01*
X0166507Y0086296D01*
X0166586Y0086221D01*
X0166668Y0086149D01*
X0166753Y0086080D01*
X0166840Y0086014D01*
X0166929Y0085951D01*
X0167020Y0085891D01*
X0167114Y0085834D01*
X0167209Y0085781D01*
X0167307Y0085732D01*
X0167406Y0085686D01*
X0167506Y0085643D01*
X0167609Y0085605D01*
X0167712Y0085569D01*
X0167817Y0085538D01*
X0167922Y0085510D01*
X0168029Y0085487D01*
X0168136Y0085467D01*
X0168244Y0085451D01*
X0168353Y0085438D01*
X0168462Y0085430D01*
X0168571Y0085426D01*
X0168680Y0085425D01*
X0168677Y0085519D01*
X0168569Y0085520D01*
X0168461Y0085524D01*
X0168353Y0085533D01*
X0168245Y0085545D01*
X0168138Y0085562D01*
X0168032Y0085582D01*
X0167926Y0085606D01*
X0167822Y0085634D01*
X0167718Y0085666D01*
X0167616Y0085702D01*
X0167515Y0085741D01*
X0167416Y0085784D01*
X0167318Y0085831D01*
X0167222Y0085881D01*
X0167128Y0085935D01*
X0167036Y0085992D01*
X0166946Y0086053D01*
X0166859Y0086116D01*
X0166774Y0086183D01*
X0166691Y0086253D01*
X0166611Y0086326D01*
X0166534Y0086402D01*
X0166459Y0086481D01*
X0166388Y0086562D01*
X0166319Y0086646D01*
X0166254Y0086733D01*
X0166192Y0086821D01*
X0166133Y0086912D01*
X0166078Y0087005D01*
X0166026Y0087100D01*
X0165977Y0087197D01*
X0165933Y0087296D01*
X0165891Y0087396D01*
X0165854Y0087498D01*
X0165820Y0087600D01*
X0165790Y0087705D01*
X0165764Y0087810D01*
X0165742Y0087916D01*
X0165724Y0088022D01*
X0165709Y0088130D01*
X0165699Y0088238D01*
X0165692Y0088346D01*
X0165690Y0088454D01*
X0165692Y0088562D01*
X0165697Y0088670D01*
X0165706Y0088778D01*
X0165720Y0088886D01*
X0165737Y0088993D01*
X0165758Y0089099D01*
X0165784Y0089204D01*
X0165813Y0089308D01*
X0165845Y0089412D01*
X0165882Y0089514D01*
X0165922Y0089614D01*
X0165966Y0089713D01*
X0166014Y0089810D01*
X0166065Y0089906D01*
X0166120Y0089999D01*
X0166178Y0090091D01*
X0166239Y0090180D01*
X0166303Y0090267D01*
X0166371Y0090352D01*
X0166442Y0090434D01*
X0166516Y0090513D01*
X0166592Y0090589D01*
X0166671Y0090663D01*
X0166753Y0090734D01*
X0166838Y0090802D01*
X0166925Y0090866D01*
X0167014Y0090927D01*
X0167106Y0090985D01*
X0167199Y0091040D01*
X0167295Y0091091D01*
X0167392Y0091139D01*
X0167491Y0091183D01*
X0167591Y0091223D01*
X0167693Y0091260D01*
X0167797Y0091292D01*
X0167901Y0091321D01*
X0168006Y0091347D01*
X0168112Y0091368D01*
X0168219Y0091385D01*
X0168327Y0091399D01*
X0168435Y0091408D01*
X0168543Y0091413D01*
X0168651Y0091415D01*
X0168759Y0091413D01*
X0168867Y0091406D01*
X0168975Y0091396D01*
X0169083Y0091381D01*
X0169189Y0091363D01*
X0169295Y0091341D01*
X0169400Y0091315D01*
X0169505Y0091285D01*
X0169607Y0091251D01*
X0169709Y0091214D01*
X0169809Y0091172D01*
X0169908Y0091128D01*
X0170005Y0091079D01*
X0170100Y0091027D01*
X0170193Y0090972D01*
X0170284Y0090913D01*
X0170372Y0090851D01*
X0170459Y0090786D01*
X0170543Y0090717D01*
X0170624Y0090646D01*
X0170703Y0090571D01*
X0170779Y0090494D01*
X0170852Y0090414D01*
X0170922Y0090331D01*
X0170989Y0090246D01*
X0171052Y0090159D01*
X0171113Y0090069D01*
X0171170Y0089977D01*
X0171224Y0089883D01*
X0171274Y0089787D01*
X0171321Y0089689D01*
X0171364Y0089590D01*
X0171403Y0089489D01*
X0171439Y0089387D01*
X0171471Y0089283D01*
X0171499Y0089179D01*
X0171523Y0089073D01*
X0171543Y0088967D01*
X0171560Y0088860D01*
X0171572Y0088752D01*
X0171581Y0088644D01*
X0171585Y0088536D01*
X0171586Y0088428D01*
X0171492Y0088431D01*
X0171491Y0088537D01*
X0171487Y0088643D01*
X0171478Y0088750D01*
X0171465Y0088855D01*
X0171449Y0088960D01*
X0171429Y0089065D01*
X0171404Y0089169D01*
X0171376Y0089271D01*
X0171344Y0089373D01*
X0171309Y0089473D01*
X0171269Y0089572D01*
X0171226Y0089669D01*
X0171180Y0089765D01*
X0171129Y0089859D01*
X0171076Y0089951D01*
X0171019Y0090041D01*
X0170958Y0090129D01*
X0170895Y0090214D01*
X0170828Y0090297D01*
X0170758Y0090377D01*
X0170686Y0090455D01*
X0170610Y0090530D01*
X0170532Y0090602D01*
X0170451Y0090671D01*
X0170367Y0090737D01*
X0170281Y0090800D01*
X0170193Y0090860D01*
X0170103Y0090916D01*
X0170010Y0090969D01*
X0169916Y0091019D01*
X0169820Y0091065D01*
X0169722Y0091107D01*
X0169623Y0091146D01*
X0169523Y0091180D01*
X0169421Y0091212D01*
X0169318Y0091239D01*
X0169214Y0091262D01*
X0169109Y0091282D01*
X0169004Y0091297D01*
X0168898Y0091309D01*
X0168792Y0091317D01*
X0168686Y0091321D01*
X0168579Y0091320D01*
X0168473Y0091316D01*
X0168367Y0091308D01*
X0168261Y0091296D01*
X0168156Y0091280D01*
X0168051Y0091260D01*
X0167947Y0091236D01*
X0167844Y0091208D01*
X0167743Y0091177D01*
X0167642Y0091142D01*
X0167543Y0091103D01*
X0167446Y0091060D01*
X0167350Y0091014D01*
X0167256Y0090964D01*
X0167164Y0090911D01*
X0167073Y0090854D01*
X0166985Y0090794D01*
X0166900Y0090731D01*
X0166817Y0090664D01*
X0166736Y0090595D01*
X0166658Y0090522D01*
X0166583Y0090447D01*
X0166510Y0090369D01*
X0166441Y0090288D01*
X0166374Y0090205D01*
X0166311Y0090120D01*
X0166251Y0090032D01*
X0166194Y0089941D01*
X0166141Y0089849D01*
X0166091Y0089755D01*
X0166045Y0089659D01*
X0166002Y0089562D01*
X0165963Y0089463D01*
X0165928Y0089362D01*
X0165897Y0089261D01*
X0165869Y0089158D01*
X0165845Y0089054D01*
X0165825Y0088949D01*
X0165809Y0088844D01*
X0165797Y0088738D01*
X0165789Y0088632D01*
X0165785Y0088526D01*
X0165784Y0088419D01*
X0165788Y0088313D01*
X0165796Y0088207D01*
X0165808Y0088101D01*
X0165823Y0087996D01*
X0165843Y0087891D01*
X0165866Y0087787D01*
X0165893Y0087684D01*
X0165925Y0087582D01*
X0165959Y0087482D01*
X0165998Y0087383D01*
X0166040Y0087285D01*
X0166086Y0087189D01*
X0166136Y0087095D01*
X0166189Y0087002D01*
X0166245Y0086912D01*
X0166305Y0086824D01*
X0166368Y0086738D01*
X0166434Y0086654D01*
X0166503Y0086573D01*
X0166575Y0086495D01*
X0166650Y0086419D01*
X0166728Y0086347D01*
X0166808Y0086277D01*
X0166891Y0086210D01*
X0166976Y0086147D01*
X0167064Y0086086D01*
X0167154Y0086029D01*
X0167246Y0085976D01*
X0167340Y0085925D01*
X0167436Y0085879D01*
X0167533Y0085836D01*
X0167632Y0085796D01*
X0167732Y0085761D01*
X0167834Y0085729D01*
X0167936Y0085701D01*
X0168040Y0085676D01*
X0168145Y0085656D01*
X0168250Y0085640D01*
X0168355Y0085627D01*
X0168462Y0085618D01*
X0168568Y0085614D01*
X0168674Y0085613D01*
X0168700Y0084095D02*
X0168672Y0083195D01*
X0168673Y0083196D02*
X0168568Y0083195D01*
X0168462Y0083190D01*
X0168357Y0083182D01*
X0168253Y0083169D01*
X0168149Y0083153D01*
X0168046Y0083133D01*
X0167943Y0083108D01*
X0167842Y0083080D01*
X0167741Y0083049D01*
X0167642Y0083013D01*
X0167545Y0082974D01*
X0167449Y0082931D01*
X0167354Y0082884D01*
X0167262Y0082834D01*
X0167171Y0082781D01*
X0167082Y0082724D01*
X0166996Y0082664D01*
X0166912Y0082601D01*
X0166830Y0082534D01*
X0166751Y0082465D01*
X0166675Y0082392D01*
X0166601Y0082317D01*
X0166530Y0082239D01*
X0166462Y0082159D01*
X0166398Y0082076D01*
X0166336Y0081990D01*
X0166278Y0081902D01*
X0166223Y0081813D01*
X0166171Y0081721D01*
X0166123Y0081627D01*
X0166079Y0081532D01*
X0166038Y0081435D01*
X0166001Y0081336D01*
X0165967Y0081237D01*
X0165937Y0081136D01*
X0165912Y0081034D01*
X0165890Y0080931D01*
X0165871Y0080827D01*
X0165857Y0080723D01*
X0165847Y0080618D01*
X0165840Y0080513D01*
X0165838Y0080408D01*
X0165840Y0080302D01*
X0165845Y0080197D01*
X0165855Y0080092D01*
X0165868Y0079988D01*
X0165885Y0079884D01*
X0165906Y0079781D01*
X0165931Y0079679D01*
X0165960Y0079578D01*
X0165993Y0079477D01*
X0166029Y0079379D01*
X0166069Y0079281D01*
X0166113Y0079186D01*
X0166160Y0079092D01*
X0166211Y0078999D01*
X0166265Y0078909D01*
X0166323Y0078821D01*
X0166384Y0078735D01*
X0166448Y0078652D01*
X0166515Y0078570D01*
X0166585Y0078492D01*
X0166658Y0078416D01*
X0166734Y0078343D01*
X0166812Y0078273D01*
X0166894Y0078206D01*
X0166977Y0078142D01*
X0167063Y0078081D01*
X0167151Y0078023D01*
X0167241Y0077969D01*
X0167334Y0077918D01*
X0167428Y0077871D01*
X0167523Y0077827D01*
X0167621Y0077787D01*
X0167719Y0077751D01*
X0167820Y0077718D01*
X0167921Y0077689D01*
X0168023Y0077664D01*
X0168126Y0077643D01*
X0168230Y0077626D01*
X0168334Y0077613D01*
X0168439Y0077603D01*
X0168544Y0077598D01*
X0168650Y0077596D01*
X0168755Y0077598D01*
X0168860Y0077605D01*
X0168965Y0077615D01*
X0169069Y0077629D01*
X0169173Y0077648D01*
X0169276Y0077670D01*
X0169378Y0077695D01*
X0169479Y0077725D01*
X0169578Y0077759D01*
X0169677Y0077796D01*
X0169774Y0077837D01*
X0169869Y0077881D01*
X0169963Y0077929D01*
X0170055Y0077981D01*
X0170144Y0078036D01*
X0170232Y0078094D01*
X0170318Y0078156D01*
X0170401Y0078220D01*
X0170481Y0078288D01*
X0170559Y0078359D01*
X0170634Y0078433D01*
X0170707Y0078509D01*
X0170776Y0078588D01*
X0170843Y0078670D01*
X0170906Y0078754D01*
X0170966Y0078840D01*
X0171023Y0078929D01*
X0171076Y0079020D01*
X0171126Y0079112D01*
X0171173Y0079207D01*
X0171216Y0079303D01*
X0171255Y0079400D01*
X0171291Y0079499D01*
X0171322Y0079600D01*
X0171350Y0079701D01*
X0171375Y0079804D01*
X0171395Y0079907D01*
X0171411Y0080011D01*
X0171424Y0080115D01*
X0171432Y0080220D01*
X0171437Y0080326D01*
X0171438Y0080431D01*
X0172337Y0080458D01*
X0172338Y0080338D01*
X0172334Y0080218D01*
X0172326Y0080098D01*
X0172314Y0079978D01*
X0172299Y0079859D01*
X0172279Y0079740D01*
X0172256Y0079622D01*
X0172229Y0079505D01*
X0172198Y0079388D01*
X0172164Y0079273D01*
X0172125Y0079159D01*
X0172083Y0079047D01*
X0172038Y0078935D01*
X0171988Y0078826D01*
X0171935Y0078718D01*
X0171879Y0078611D01*
X0171819Y0078507D01*
X0171756Y0078405D01*
X0171690Y0078304D01*
X0171620Y0078206D01*
X0171548Y0078110D01*
X0171472Y0078017D01*
X0171393Y0077926D01*
X0171311Y0077838D01*
X0171227Y0077752D01*
X0171139Y0077670D01*
X0171050Y0077590D01*
X0170957Y0077513D01*
X0170862Y0077439D01*
X0170765Y0077368D01*
X0170665Y0077301D01*
X0170564Y0077237D01*
X0170460Y0077176D01*
X0170354Y0077118D01*
X0170247Y0077064D01*
X0170138Y0077014D01*
X0170027Y0076967D01*
X0169915Y0076923D01*
X0169801Y0076884D01*
X0169686Y0076848D01*
X0169571Y0076815D01*
X0169454Y0076787D01*
X0169336Y0076762D01*
X0169218Y0076742D01*
X0169098Y0076725D01*
X0168979Y0076712D01*
X0168859Y0076703D01*
X0168739Y0076697D01*
X0168619Y0076696D01*
X0168498Y0076699D01*
X0168378Y0076705D01*
X0168258Y0076716D01*
X0168139Y0076730D01*
X0168020Y0076748D01*
X0167902Y0076770D01*
X0167784Y0076796D01*
X0167668Y0076825D01*
X0167552Y0076859D01*
X0167438Y0076896D01*
X0167325Y0076937D01*
X0167213Y0076981D01*
X0167103Y0077029D01*
X0166994Y0077081D01*
X0166887Y0077136D01*
X0166782Y0077195D01*
X0166679Y0077257D01*
X0166578Y0077322D01*
X0166480Y0077391D01*
X0166383Y0077463D01*
X0166289Y0077537D01*
X0166197Y0077615D01*
X0166108Y0077696D01*
X0166022Y0077780D01*
X0165938Y0077866D01*
X0165857Y0077955D01*
X0165779Y0078047D01*
X0165705Y0078141D01*
X0165633Y0078238D01*
X0165564Y0078336D01*
X0165499Y0078437D01*
X0165437Y0078540D01*
X0165378Y0078645D01*
X0165323Y0078752D01*
X0165271Y0078861D01*
X0165223Y0078971D01*
X0165179Y0079083D01*
X0165138Y0079196D01*
X0165101Y0079310D01*
X0165067Y0079426D01*
X0165038Y0079542D01*
X0165012Y0079660D01*
X0164990Y0079778D01*
X0164972Y0079897D01*
X0164958Y0080016D01*
X0164947Y0080136D01*
X0164941Y0080256D01*
X0164938Y0080377D01*
X0164939Y0080497D01*
X0164945Y0080617D01*
X0164954Y0080737D01*
X0164967Y0080856D01*
X0164984Y0080976D01*
X0165004Y0081094D01*
X0165029Y0081212D01*
X0165057Y0081329D01*
X0165090Y0081444D01*
X0165126Y0081559D01*
X0165165Y0081673D01*
X0165209Y0081785D01*
X0165256Y0081896D01*
X0165306Y0082005D01*
X0165360Y0082112D01*
X0165418Y0082218D01*
X0165479Y0082322D01*
X0165543Y0082423D01*
X0165610Y0082523D01*
X0165681Y0082620D01*
X0165755Y0082715D01*
X0165832Y0082808D01*
X0165912Y0082897D01*
X0165994Y0082985D01*
X0166080Y0083069D01*
X0166168Y0083151D01*
X0166259Y0083230D01*
X0166352Y0083306D01*
X0166448Y0083378D01*
X0166546Y0083448D01*
X0166647Y0083514D01*
X0166749Y0083577D01*
X0166853Y0083637D01*
X0166960Y0083693D01*
X0167068Y0083746D01*
X0167177Y0083796D01*
X0167289Y0083841D01*
X0167401Y0083883D01*
X0167515Y0083922D01*
X0167630Y0083956D01*
X0167747Y0083987D01*
X0167864Y0084014D01*
X0167982Y0084037D01*
X0168101Y0084057D01*
X0168220Y0084072D01*
X0168340Y0084084D01*
X0168460Y0084092D01*
X0168580Y0084096D01*
X0168700Y0084095D01*
X0168697Y0084002D01*
X0168578Y0084001D01*
X0168458Y0083998D01*
X0168339Y0083990D01*
X0168220Y0083978D01*
X0168101Y0083962D01*
X0167983Y0083942D01*
X0167866Y0083918D01*
X0167749Y0083891D01*
X0167634Y0083859D01*
X0167519Y0083824D01*
X0167406Y0083785D01*
X0167295Y0083742D01*
X0167184Y0083696D01*
X0167076Y0083646D01*
X0166969Y0083592D01*
X0166863Y0083535D01*
X0166760Y0083475D01*
X0166659Y0083411D01*
X0166560Y0083343D01*
X0166464Y0083273D01*
X0166369Y0083199D01*
X0166278Y0083122D01*
X0166188Y0083042D01*
X0166102Y0082960D01*
X0166018Y0082874D01*
X0165938Y0082786D01*
X0165860Y0082695D01*
X0165785Y0082601D01*
X0165713Y0082506D01*
X0165645Y0082407D01*
X0165580Y0082307D01*
X0165518Y0082204D01*
X0165460Y0082100D01*
X0165405Y0081994D01*
X0165354Y0081885D01*
X0165306Y0081776D01*
X0165262Y0081664D01*
X0165222Y0081552D01*
X0165186Y0081438D01*
X0165153Y0081323D01*
X0165124Y0081206D01*
X0165099Y0081089D01*
X0165078Y0080972D01*
X0165061Y0080853D01*
X0165048Y0080734D01*
X0165039Y0080615D01*
X0165033Y0080496D01*
X0165032Y0080376D01*
X0165035Y0080256D01*
X0165041Y0080137D01*
X0165052Y0080018D01*
X0165066Y0079899D01*
X0165085Y0079781D01*
X0165107Y0079663D01*
X0165134Y0079546D01*
X0165164Y0079431D01*
X0165198Y0079316D01*
X0165235Y0079202D01*
X0165277Y0079090D01*
X0165322Y0078979D01*
X0165371Y0078870D01*
X0165423Y0078762D01*
X0165479Y0078657D01*
X0165539Y0078553D01*
X0165602Y0078451D01*
X0165668Y0078351D01*
X0165737Y0078254D01*
X0165810Y0078159D01*
X0165886Y0078066D01*
X0165964Y0077976D01*
X0166046Y0077889D01*
X0166131Y0077804D01*
X0166218Y0077722D01*
X0166308Y0077644D01*
X0166401Y0077568D01*
X0166496Y0077495D01*
X0166593Y0077426D01*
X0166693Y0077360D01*
X0166795Y0077297D01*
X0166899Y0077237D01*
X0167004Y0077181D01*
X0167112Y0077129D01*
X0167221Y0077080D01*
X0167332Y0077035D01*
X0167444Y0076993D01*
X0167558Y0076956D01*
X0167673Y0076922D01*
X0167788Y0076892D01*
X0167905Y0076865D01*
X0168023Y0076843D01*
X0168141Y0076824D01*
X0168260Y0076810D01*
X0168379Y0076799D01*
X0168498Y0076793D01*
X0168618Y0076790D01*
X0168738Y0076791D01*
X0168857Y0076797D01*
X0168976Y0076806D01*
X0169095Y0076819D01*
X0169214Y0076836D01*
X0169331Y0076857D01*
X0169448Y0076882D01*
X0169565Y0076911D01*
X0169680Y0076944D01*
X0169794Y0076980D01*
X0169906Y0077020D01*
X0170018Y0077064D01*
X0170127Y0077112D01*
X0170236Y0077163D01*
X0170342Y0077218D01*
X0170446Y0077276D01*
X0170549Y0077338D01*
X0170649Y0077403D01*
X0170748Y0077471D01*
X0170843Y0077543D01*
X0170937Y0077618D01*
X0171028Y0077696D01*
X0171116Y0077776D01*
X0171202Y0077860D01*
X0171284Y0077946D01*
X0171364Y0078036D01*
X0171441Y0078127D01*
X0171515Y0078222D01*
X0171585Y0078318D01*
X0171653Y0078417D01*
X0171717Y0078518D01*
X0171777Y0078621D01*
X0171834Y0078727D01*
X0171888Y0078834D01*
X0171938Y0078942D01*
X0171984Y0079053D01*
X0172027Y0079164D01*
X0172066Y0079277D01*
X0172101Y0079392D01*
X0172133Y0079507D01*
X0172160Y0079624D01*
X0172184Y0079741D01*
X0172204Y0079859D01*
X0172220Y0079978D01*
X0172232Y0080097D01*
X0172240Y0080216D01*
X0172243Y0080336D01*
X0172244Y0080455D01*
X0172150Y0080452D01*
X0172149Y0080335D01*
X0172145Y0080218D01*
X0172138Y0080101D01*
X0172126Y0079984D01*
X0172110Y0079868D01*
X0172090Y0079752D01*
X0172067Y0079637D01*
X0172040Y0079523D01*
X0172009Y0079410D01*
X0171974Y0079298D01*
X0171935Y0079187D01*
X0171893Y0079077D01*
X0171847Y0078969D01*
X0171798Y0078863D01*
X0171745Y0078758D01*
X0171688Y0078655D01*
X0171628Y0078554D01*
X0171565Y0078456D01*
X0171499Y0078359D01*
X0171429Y0078264D01*
X0171356Y0078172D01*
X0171281Y0078083D01*
X0171202Y0077996D01*
X0171120Y0077912D01*
X0171036Y0077830D01*
X0170949Y0077751D01*
X0170859Y0077676D01*
X0170767Y0077603D01*
X0170673Y0077533D01*
X0170576Y0077467D01*
X0170477Y0077404D01*
X0170376Y0077344D01*
X0170273Y0077288D01*
X0170168Y0077235D01*
X0170062Y0077186D01*
X0169954Y0077140D01*
X0169844Y0077098D01*
X0169733Y0077059D01*
X0169621Y0077024D01*
X0169508Y0076994D01*
X0169394Y0076966D01*
X0169279Y0076943D01*
X0169163Y0076924D01*
X0169047Y0076908D01*
X0168930Y0076896D01*
X0168813Y0076888D01*
X0168696Y0076884D01*
X0168579Y0076885D01*
X0168461Y0076888D01*
X0168344Y0076896D01*
X0168227Y0076908D01*
X0168111Y0076924D01*
X0167995Y0076943D01*
X0167881Y0076967D01*
X0167766Y0076994D01*
X0167653Y0077025D01*
X0167541Y0077060D01*
X0167430Y0077098D01*
X0167321Y0077140D01*
X0167213Y0077186D01*
X0167106Y0077236D01*
X0167002Y0077289D01*
X0166899Y0077345D01*
X0166798Y0077405D01*
X0166699Y0077468D01*
X0166602Y0077534D01*
X0166508Y0077604D01*
X0166416Y0077677D01*
X0166326Y0077752D01*
X0166239Y0077831D01*
X0166155Y0077913D01*
X0166073Y0077997D01*
X0165994Y0078084D01*
X0165919Y0078174D01*
X0165846Y0078266D01*
X0165776Y0078360D01*
X0165710Y0078457D01*
X0165647Y0078556D01*
X0165587Y0078657D01*
X0165531Y0078760D01*
X0165478Y0078864D01*
X0165428Y0078971D01*
X0165382Y0079079D01*
X0165340Y0079188D01*
X0165302Y0079299D01*
X0165267Y0079411D01*
X0165236Y0079524D01*
X0165209Y0079639D01*
X0165185Y0079753D01*
X0165166Y0079869D01*
X0165150Y0079985D01*
X0165138Y0080102D01*
X0165130Y0080219D01*
X0165127Y0080337D01*
X0165126Y0080454D01*
X0165130Y0080571D01*
X0165138Y0080688D01*
X0165150Y0080805D01*
X0165166Y0080921D01*
X0165185Y0081037D01*
X0165208Y0081152D01*
X0165236Y0081266D01*
X0165266Y0081379D01*
X0165301Y0081491D01*
X0165340Y0081602D01*
X0165382Y0081712D01*
X0165428Y0081820D01*
X0165477Y0081926D01*
X0165530Y0082031D01*
X0165586Y0082134D01*
X0165646Y0082235D01*
X0165709Y0082334D01*
X0165775Y0082431D01*
X0165845Y0082525D01*
X0165918Y0082617D01*
X0165993Y0082707D01*
X0166072Y0082794D01*
X0166154Y0082878D01*
X0166238Y0082960D01*
X0166325Y0083039D01*
X0166414Y0083114D01*
X0166506Y0083187D01*
X0166601Y0083257D01*
X0166698Y0083323D01*
X0166796Y0083386D01*
X0166897Y0083446D01*
X0167000Y0083503D01*
X0167105Y0083556D01*
X0167211Y0083605D01*
X0167319Y0083651D01*
X0167429Y0083693D01*
X0167540Y0083732D01*
X0167652Y0083767D01*
X0167765Y0083798D01*
X0167879Y0083825D01*
X0167994Y0083848D01*
X0168110Y0083868D01*
X0168226Y0083884D01*
X0168343Y0083896D01*
X0168460Y0083903D01*
X0168577Y0083907D01*
X0168694Y0083908D01*
X0168692Y0083814D01*
X0168575Y0083813D01*
X0168458Y0083809D01*
X0168342Y0083801D01*
X0168226Y0083789D01*
X0168110Y0083773D01*
X0167995Y0083753D01*
X0167881Y0083729D01*
X0167768Y0083701D01*
X0167656Y0083670D01*
X0167545Y0083634D01*
X0167435Y0083595D01*
X0167326Y0083552D01*
X0167219Y0083506D01*
X0167114Y0083455D01*
X0167011Y0083402D01*
X0166909Y0083344D01*
X0166809Y0083284D01*
X0166712Y0083220D01*
X0166617Y0083152D01*
X0166524Y0083082D01*
X0166433Y0083008D01*
X0166346Y0082931D01*
X0166260Y0082852D01*
X0166178Y0082769D01*
X0166098Y0082684D01*
X0166022Y0082596D01*
X0165948Y0082505D01*
X0165878Y0082412D01*
X0165811Y0082317D01*
X0165747Y0082219D01*
X0165686Y0082120D01*
X0165629Y0082018D01*
X0165576Y0081914D01*
X0165526Y0081809D01*
X0165479Y0081702D01*
X0165437Y0081593D01*
X0165398Y0081483D01*
X0165362Y0081372D01*
X0165331Y0081260D01*
X0165303Y0081146D01*
X0165280Y0081032D01*
X0165260Y0080917D01*
X0165244Y0080802D01*
X0165232Y0080686D01*
X0165224Y0080569D01*
X0165220Y0080453D01*
X0165221Y0080336D01*
X0165225Y0080220D01*
X0165233Y0080103D01*
X0165245Y0079987D01*
X0165260Y0079872D01*
X0165280Y0079757D01*
X0165304Y0079642D01*
X0165332Y0079529D01*
X0165363Y0079417D01*
X0165399Y0079306D01*
X0165438Y0079196D01*
X0165480Y0079087D01*
X0165527Y0078980D01*
X0165577Y0078875D01*
X0165631Y0078771D01*
X0165688Y0078670D01*
X0165749Y0078570D01*
X0165813Y0078473D01*
X0165880Y0078377D01*
X0165950Y0078284D01*
X0166024Y0078194D01*
X0166101Y0078106D01*
X0166180Y0078021D01*
X0166263Y0077938D01*
X0166348Y0077859D01*
X0166436Y0077782D01*
X0166526Y0077708D01*
X0166619Y0077638D01*
X0166715Y0077571D01*
X0166812Y0077507D01*
X0166912Y0077446D01*
X0167013Y0077389D01*
X0167117Y0077335D01*
X0167222Y0077285D01*
X0167329Y0077238D01*
X0167438Y0077196D01*
X0167548Y0077157D01*
X0167659Y0077121D01*
X0167771Y0077090D01*
X0167884Y0077062D01*
X0167999Y0077038D01*
X0168114Y0077018D01*
X0168229Y0077003D01*
X0168345Y0076991D01*
X0168462Y0076983D01*
X0168578Y0076979D01*
X0168695Y0076978D01*
X0168811Y0076982D01*
X0168928Y0076990D01*
X0169044Y0077002D01*
X0169159Y0077018D01*
X0169274Y0077038D01*
X0169388Y0077061D01*
X0169502Y0077089D01*
X0169614Y0077120D01*
X0169725Y0077156D01*
X0169835Y0077195D01*
X0169944Y0077237D01*
X0170051Y0077284D01*
X0170156Y0077334D01*
X0170260Y0077387D01*
X0170362Y0077444D01*
X0170461Y0077505D01*
X0170559Y0077569D01*
X0170654Y0077636D01*
X0170747Y0077706D01*
X0170838Y0077780D01*
X0170926Y0077856D01*
X0171011Y0077936D01*
X0171094Y0078018D01*
X0171173Y0078104D01*
X0171250Y0078191D01*
X0171324Y0078282D01*
X0171394Y0078375D01*
X0171462Y0078470D01*
X0171526Y0078567D01*
X0171586Y0078667D01*
X0171644Y0078769D01*
X0171697Y0078872D01*
X0171748Y0078977D01*
X0171794Y0079084D01*
X0171837Y0079193D01*
X0171876Y0079303D01*
X0171912Y0079414D01*
X0171943Y0079526D01*
X0171971Y0079639D01*
X0171995Y0079753D01*
X0172015Y0079868D01*
X0172031Y0079984D01*
X0172043Y0080100D01*
X0172051Y0080216D01*
X0172055Y0080333D01*
X0172056Y0080450D01*
X0171962Y0080447D01*
X0171961Y0080332D01*
X0171957Y0080218D01*
X0171949Y0080104D01*
X0171937Y0079991D01*
X0171921Y0079878D01*
X0171902Y0079765D01*
X0171878Y0079653D01*
X0171851Y0079542D01*
X0171819Y0079433D01*
X0171784Y0079324D01*
X0171746Y0079216D01*
X0171703Y0079110D01*
X0171657Y0079006D01*
X0171608Y0078903D01*
X0171555Y0078802D01*
X0171498Y0078702D01*
X0171438Y0078605D01*
X0171375Y0078510D01*
X0171309Y0078417D01*
X0171239Y0078326D01*
X0171166Y0078238D01*
X0171091Y0078153D01*
X0171012Y0078070D01*
X0170931Y0077989D01*
X0170847Y0077912D01*
X0170760Y0077838D01*
X0170671Y0077766D01*
X0170579Y0077698D01*
X0170486Y0077633D01*
X0170390Y0077571D01*
X0170291Y0077512D01*
X0170191Y0077457D01*
X0170089Y0077406D01*
X0169986Y0077358D01*
X0169881Y0077313D01*
X0169774Y0077272D01*
X0169666Y0077235D01*
X0169557Y0077201D01*
X0169446Y0077172D01*
X0169335Y0077146D01*
X0169223Y0077124D01*
X0169110Y0077106D01*
X0168997Y0077091D01*
X0168883Y0077081D01*
X0168769Y0077075D01*
X0168655Y0077072D01*
X0168541Y0077073D01*
X0168427Y0077079D01*
X0168313Y0077088D01*
X0168199Y0077101D01*
X0168086Y0077118D01*
X0167974Y0077139D01*
X0167862Y0077164D01*
X0167752Y0077192D01*
X0167642Y0077225D01*
X0167534Y0077261D01*
X0167427Y0077301D01*
X0167321Y0077344D01*
X0167217Y0077391D01*
X0167115Y0077442D01*
X0167014Y0077496D01*
X0166915Y0077553D01*
X0166819Y0077614D01*
X0166724Y0077678D01*
X0166632Y0077746D01*
X0166542Y0077816D01*
X0166455Y0077890D01*
X0166370Y0077966D01*
X0166288Y0078046D01*
X0166208Y0078128D01*
X0166132Y0078213D01*
X0166058Y0078300D01*
X0165988Y0078390D01*
X0165920Y0078482D01*
X0165856Y0078577D01*
X0165795Y0078673D01*
X0165738Y0078772D01*
X0165684Y0078873D01*
X0165633Y0078975D01*
X0165586Y0079079D01*
X0165543Y0079185D01*
X0165503Y0079292D01*
X0165467Y0079400D01*
X0165434Y0079510D01*
X0165406Y0079620D01*
X0165381Y0079732D01*
X0165360Y0079844D01*
X0165343Y0079957D01*
X0165330Y0080071D01*
X0165321Y0080185D01*
X0165315Y0080299D01*
X0165314Y0080413D01*
X0165317Y0080527D01*
X0165323Y0080641D01*
X0165333Y0080755D01*
X0165348Y0080868D01*
X0165366Y0080981D01*
X0165388Y0081093D01*
X0165414Y0081204D01*
X0165443Y0081315D01*
X0165477Y0081424D01*
X0165514Y0081532D01*
X0165555Y0081639D01*
X0165600Y0081744D01*
X0165648Y0081847D01*
X0165699Y0081949D01*
X0165754Y0082049D01*
X0165813Y0082148D01*
X0165875Y0082244D01*
X0165940Y0082337D01*
X0166008Y0082429D01*
X0166080Y0082518D01*
X0166154Y0082605D01*
X0166231Y0082689D01*
X0166312Y0082770D01*
X0166395Y0082849D01*
X0166480Y0082924D01*
X0166568Y0082997D01*
X0166659Y0083067D01*
X0166752Y0083133D01*
X0166847Y0083196D01*
X0166944Y0083256D01*
X0167044Y0083313D01*
X0167145Y0083366D01*
X0167248Y0083415D01*
X0167352Y0083461D01*
X0167458Y0083504D01*
X0167566Y0083542D01*
X0167675Y0083577D01*
X0167784Y0083609D01*
X0167895Y0083636D01*
X0168007Y0083660D01*
X0168120Y0083679D01*
X0168233Y0083695D01*
X0168346Y0083707D01*
X0168460Y0083715D01*
X0168574Y0083719D01*
X0168689Y0083720D01*
X0168686Y0083626D01*
X0168573Y0083625D01*
X0168461Y0083621D01*
X0168348Y0083613D01*
X0168236Y0083601D01*
X0168125Y0083585D01*
X0168014Y0083565D01*
X0167904Y0083541D01*
X0167795Y0083514D01*
X0167687Y0083483D01*
X0167580Y0083448D01*
X0167474Y0083409D01*
X0167369Y0083366D01*
X0167267Y0083320D01*
X0167166Y0083271D01*
X0167066Y0083218D01*
X0166969Y0083161D01*
X0166873Y0083101D01*
X0166780Y0083038D01*
X0166689Y0082972D01*
X0166601Y0082902D01*
X0166514Y0082830D01*
X0166431Y0082754D01*
X0166350Y0082676D01*
X0166272Y0082595D01*
X0166197Y0082511D01*
X0166125Y0082425D01*
X0166055Y0082336D01*
X0165989Y0082245D01*
X0165926Y0082151D01*
X0165867Y0082055D01*
X0165811Y0081958D01*
X0165758Y0081858D01*
X0165709Y0081757D01*
X0165663Y0081654D01*
X0165621Y0081550D01*
X0165583Y0081444D01*
X0165548Y0081337D01*
X0165517Y0081228D01*
X0165490Y0081119D01*
X0165467Y0081009D01*
X0165447Y0080898D01*
X0165432Y0080786D01*
X0165420Y0080674D01*
X0165412Y0080562D01*
X0165408Y0080449D01*
X0165409Y0080337D01*
X0165413Y0080224D01*
X0165421Y0080112D01*
X0165432Y0080000D01*
X0165448Y0079888D01*
X0165468Y0079778D01*
X0165491Y0079667D01*
X0165519Y0079558D01*
X0165550Y0079450D01*
X0165585Y0079343D01*
X0165623Y0079237D01*
X0165665Y0079133D01*
X0165711Y0079030D01*
X0165761Y0078929D01*
X0165813Y0078829D01*
X0165870Y0078732D01*
X0165930Y0078636D01*
X0165992Y0078543D01*
X0166059Y0078452D01*
X0166128Y0078363D01*
X0166200Y0078277D01*
X0166276Y0078193D01*
X0166354Y0078112D01*
X0166435Y0078034D01*
X0166519Y0077958D01*
X0166605Y0077886D01*
X0166694Y0077817D01*
X0166785Y0077750D01*
X0166878Y0077688D01*
X0166974Y0077628D01*
X0167071Y0077571D01*
X0167171Y0077519D01*
X0167272Y0077469D01*
X0167375Y0077423D01*
X0167479Y0077381D01*
X0167585Y0077343D01*
X0167692Y0077308D01*
X0167800Y0077277D01*
X0167909Y0077249D01*
X0168020Y0077226D01*
X0168130Y0077206D01*
X0168242Y0077190D01*
X0168354Y0077179D01*
X0168466Y0077171D01*
X0168579Y0077167D01*
X0168691Y0077166D01*
X0168804Y0077170D01*
X0168916Y0077178D01*
X0169028Y0077190D01*
X0169140Y0077205D01*
X0169251Y0077225D01*
X0169361Y0077248D01*
X0169470Y0077275D01*
X0169579Y0077306D01*
X0169686Y0077341D01*
X0169792Y0077379D01*
X0169896Y0077421D01*
X0169999Y0077467D01*
X0170100Y0077516D01*
X0170200Y0077569D01*
X0170297Y0077625D01*
X0170393Y0077684D01*
X0170487Y0077747D01*
X0170578Y0077813D01*
X0170667Y0077883D01*
X0170753Y0077955D01*
X0170837Y0078030D01*
X0170918Y0078108D01*
X0170996Y0078189D01*
X0171072Y0078272D01*
X0171144Y0078359D01*
X0171214Y0078447D01*
X0171280Y0078538D01*
X0171343Y0078631D01*
X0171403Y0078727D01*
X0171460Y0078824D01*
X0171513Y0078924D01*
X0171562Y0079025D01*
X0171608Y0079127D01*
X0171651Y0079232D01*
X0171690Y0079338D01*
X0171725Y0079445D01*
X0171756Y0079553D01*
X0171783Y0079662D01*
X0171807Y0079772D01*
X0171827Y0079883D01*
X0171843Y0079994D01*
X0171855Y0080106D01*
X0171863Y0080219D01*
X0171867Y0080331D01*
X0171868Y0080444D01*
X0171774Y0080441D01*
X0171773Y0080329D01*
X0171769Y0080218D01*
X0171761Y0080106D01*
X0171748Y0079995D01*
X0171732Y0079884D01*
X0171712Y0079774D01*
X0171688Y0079665D01*
X0171660Y0079557D01*
X0171628Y0079450D01*
X0171592Y0079344D01*
X0171553Y0079239D01*
X0171510Y0079136D01*
X0171463Y0079035D01*
X0171413Y0078935D01*
X0171359Y0078837D01*
X0171302Y0078741D01*
X0171241Y0078647D01*
X0171177Y0078555D01*
X0171110Y0078466D01*
X0171039Y0078379D01*
X0170966Y0078295D01*
X0170890Y0078213D01*
X0170810Y0078134D01*
X0170728Y0078058D01*
X0170644Y0077985D01*
X0170557Y0077915D01*
X0170467Y0077849D01*
X0170375Y0077785D01*
X0170281Y0077725D01*
X0170185Y0077668D01*
X0170086Y0077614D01*
X0169986Y0077565D01*
X0169885Y0077518D01*
X0169781Y0077476D01*
X0169676Y0077437D01*
X0169570Y0077402D01*
X0169463Y0077370D01*
X0169355Y0077343D01*
X0169245Y0077319D01*
X0169135Y0077300D01*
X0169025Y0077284D01*
X0168913Y0077272D01*
X0168802Y0077264D01*
X0168690Y0077260D01*
X0168578Y0077261D01*
X0168467Y0077265D01*
X0168355Y0077273D01*
X0168244Y0077285D01*
X0168134Y0077301D01*
X0168024Y0077321D01*
X0167914Y0077345D01*
X0167806Y0077372D01*
X0167699Y0077404D01*
X0167593Y0077439D01*
X0167488Y0077478D01*
X0167385Y0077521D01*
X0167283Y0077568D01*
X0167183Y0077618D01*
X0167085Y0077671D01*
X0166989Y0077729D01*
X0166895Y0077789D01*
X0166803Y0077853D01*
X0166714Y0077920D01*
X0166627Y0077990D01*
X0166542Y0078063D01*
X0166460Y0078139D01*
X0166381Y0078218D01*
X0166305Y0078300D01*
X0166232Y0078385D01*
X0166162Y0078472D01*
X0166095Y0078561D01*
X0166031Y0078653D01*
X0165971Y0078747D01*
X0165913Y0078843D01*
X0165860Y0078941D01*
X0165810Y0079041D01*
X0165763Y0079143D01*
X0165720Y0079246D01*
X0165681Y0079351D01*
X0165646Y0079457D01*
X0165614Y0079564D01*
X0165587Y0079672D01*
X0165563Y0079782D01*
X0165543Y0079892D01*
X0165527Y0080002D01*
X0165515Y0080113D01*
X0165507Y0080225D01*
X0165503Y0080336D01*
X0165502Y0080448D01*
X0165506Y0080560D01*
X0165514Y0080671D01*
X0165526Y0080783D01*
X0165542Y0080893D01*
X0165561Y0081003D01*
X0165585Y0081113D01*
X0165612Y0081221D01*
X0165644Y0081328D01*
X0165679Y0081434D01*
X0165718Y0081539D01*
X0165760Y0081643D01*
X0165807Y0081744D01*
X0165856Y0081844D01*
X0165910Y0081943D01*
X0165967Y0082039D01*
X0166027Y0082133D01*
X0166091Y0082225D01*
X0166157Y0082315D01*
X0166227Y0082402D01*
X0166300Y0082486D01*
X0166376Y0082568D01*
X0166455Y0082648D01*
X0166537Y0082724D01*
X0166621Y0082797D01*
X0166708Y0082868D01*
X0166797Y0082935D01*
X0166889Y0082999D01*
X0166983Y0083060D01*
X0167079Y0083117D01*
X0167177Y0083171D01*
X0167277Y0083221D01*
X0167378Y0083268D01*
X0167481Y0083311D01*
X0167586Y0083350D01*
X0167692Y0083386D01*
X0167799Y0083418D01*
X0167907Y0083446D01*
X0168016Y0083470D01*
X0168126Y0083490D01*
X0168237Y0083506D01*
X0168348Y0083519D01*
X0168460Y0083527D01*
X0168571Y0083531D01*
X0168683Y0083532D01*
X0168680Y0083438D01*
X0168571Y0083437D01*
X0168462Y0083433D01*
X0168353Y0083425D01*
X0168244Y0083412D01*
X0168136Y0083396D01*
X0168029Y0083376D01*
X0167922Y0083353D01*
X0167817Y0083325D01*
X0167712Y0083294D01*
X0167609Y0083258D01*
X0167506Y0083220D01*
X0167406Y0083177D01*
X0167307Y0083131D01*
X0167209Y0083082D01*
X0167114Y0083029D01*
X0167020Y0082972D01*
X0166929Y0082912D01*
X0166840Y0082849D01*
X0166753Y0082783D01*
X0166668Y0082714D01*
X0166586Y0082642D01*
X0166507Y0082567D01*
X0166430Y0082489D01*
X0166357Y0082408D01*
X0166286Y0082325D01*
X0166218Y0082239D01*
X0166154Y0082151D01*
X0166092Y0082061D01*
X0166034Y0081969D01*
X0165979Y0081874D01*
X0165928Y0081778D01*
X0165880Y0081679D01*
X0165836Y0081580D01*
X0165795Y0081478D01*
X0165758Y0081375D01*
X0165725Y0081271D01*
X0165695Y0081166D01*
X0165669Y0081060D01*
X0165647Y0080953D01*
X0165629Y0080845D01*
X0165615Y0080737D01*
X0165605Y0080628D01*
X0165598Y0080519D01*
X0165596Y0080410D01*
X0165597Y0080301D01*
X0165603Y0080192D01*
X0165612Y0080083D01*
X0165625Y0079974D01*
X0165642Y0079867D01*
X0165663Y0079759D01*
X0165688Y0079653D01*
X0165717Y0079548D01*
X0165749Y0079443D01*
X0165785Y0079340D01*
X0165825Y0079238D01*
X0165868Y0079138D01*
X0165915Y0079039D01*
X0165966Y0078943D01*
X0166020Y0078848D01*
X0166077Y0078755D01*
X0166137Y0078664D01*
X0166201Y0078575D01*
X0166268Y0078489D01*
X0166338Y0078405D01*
X0166411Y0078324D01*
X0166487Y0078245D01*
X0166566Y0078169D01*
X0166647Y0078096D01*
X0166731Y0078026D01*
X0166817Y0077959D01*
X0166906Y0077895D01*
X0166997Y0077835D01*
X0167090Y0077778D01*
X0167185Y0077724D01*
X0167281Y0077673D01*
X0167380Y0077626D01*
X0167480Y0077583D01*
X0167582Y0077543D01*
X0167685Y0077507D01*
X0167790Y0077475D01*
X0167895Y0077446D01*
X0168001Y0077421D01*
X0168109Y0077400D01*
X0168216Y0077383D01*
X0168325Y0077370D01*
X0168434Y0077361D01*
X0168543Y0077355D01*
X0168652Y0077354D01*
X0168761Y0077356D01*
X0168870Y0077363D01*
X0168979Y0077373D01*
X0169087Y0077387D01*
X0169195Y0077405D01*
X0169302Y0077427D01*
X0169408Y0077453D01*
X0169513Y0077483D01*
X0169617Y0077516D01*
X0169720Y0077553D01*
X0169822Y0077594D01*
X0169921Y0077638D01*
X0170020Y0077686D01*
X0170116Y0077737D01*
X0170211Y0077792D01*
X0170303Y0077850D01*
X0170393Y0077912D01*
X0170481Y0077976D01*
X0170567Y0078044D01*
X0170650Y0078115D01*
X0170731Y0078188D01*
X0170809Y0078265D01*
X0170884Y0078344D01*
X0170956Y0078426D01*
X0171025Y0078511D01*
X0171091Y0078598D01*
X0171154Y0078687D01*
X0171214Y0078778D01*
X0171271Y0078872D01*
X0171324Y0078967D01*
X0171373Y0079065D01*
X0171419Y0079164D01*
X0171462Y0079264D01*
X0171500Y0079367D01*
X0171536Y0079470D01*
X0171567Y0079575D01*
X0171595Y0079680D01*
X0171618Y0079787D01*
X0171638Y0079894D01*
X0171654Y0080002D01*
X0171667Y0080111D01*
X0171675Y0080220D01*
X0171679Y0080329D01*
X0171680Y0080438D01*
X0171586Y0080435D01*
X0171585Y0080327D01*
X0171581Y0080219D01*
X0171572Y0080111D01*
X0171560Y0080003D01*
X0171543Y0079896D01*
X0171523Y0079790D01*
X0171499Y0079684D01*
X0171471Y0079580D01*
X0171439Y0079476D01*
X0171403Y0079374D01*
X0171364Y0079273D01*
X0171321Y0079174D01*
X0171274Y0079076D01*
X0171224Y0078980D01*
X0171170Y0078886D01*
X0171113Y0078794D01*
X0171052Y0078704D01*
X0170989Y0078617D01*
X0170922Y0078532D01*
X0170852Y0078449D01*
X0170779Y0078369D01*
X0170703Y0078292D01*
X0170624Y0078217D01*
X0170543Y0078146D01*
X0170459Y0078077D01*
X0170372Y0078012D01*
X0170284Y0077950D01*
X0170193Y0077891D01*
X0170100Y0077836D01*
X0170005Y0077784D01*
X0169908Y0077735D01*
X0169809Y0077691D01*
X0169709Y0077649D01*
X0169607Y0077612D01*
X0169505Y0077578D01*
X0169400Y0077548D01*
X0169295Y0077522D01*
X0169189Y0077500D01*
X0169083Y0077482D01*
X0168975Y0077467D01*
X0168867Y0077457D01*
X0168759Y0077450D01*
X0168651Y0077448D01*
X0168543Y0077450D01*
X0168435Y0077455D01*
X0168327Y0077464D01*
X0168219Y0077478D01*
X0168112Y0077495D01*
X0168006Y0077516D01*
X0167901Y0077542D01*
X0167797Y0077571D01*
X0167693Y0077603D01*
X0167591Y0077640D01*
X0167491Y0077680D01*
X0167392Y0077724D01*
X0167295Y0077772D01*
X0167199Y0077823D01*
X0167106Y0077878D01*
X0167014Y0077936D01*
X0166925Y0077997D01*
X0166838Y0078061D01*
X0166753Y0078129D01*
X0166671Y0078200D01*
X0166592Y0078274D01*
X0166516Y0078350D01*
X0166442Y0078429D01*
X0166371Y0078511D01*
X0166303Y0078596D01*
X0166239Y0078683D01*
X0166178Y0078772D01*
X0166120Y0078864D01*
X0166065Y0078957D01*
X0166014Y0079053D01*
X0165966Y0079150D01*
X0165922Y0079249D01*
X0165882Y0079349D01*
X0165845Y0079451D01*
X0165813Y0079555D01*
X0165784Y0079659D01*
X0165758Y0079764D01*
X0165737Y0079870D01*
X0165720Y0079977D01*
X0165706Y0080085D01*
X0165697Y0080193D01*
X0165692Y0080301D01*
X0165690Y0080409D01*
X0165692Y0080517D01*
X0165699Y0080625D01*
X0165709Y0080733D01*
X0165724Y0080841D01*
X0165742Y0080947D01*
X0165764Y0081053D01*
X0165790Y0081158D01*
X0165820Y0081263D01*
X0165854Y0081365D01*
X0165891Y0081467D01*
X0165933Y0081567D01*
X0165977Y0081666D01*
X0166026Y0081763D01*
X0166078Y0081858D01*
X0166133Y0081951D01*
X0166192Y0082042D01*
X0166254Y0082130D01*
X0166319Y0082217D01*
X0166388Y0082301D01*
X0166459Y0082382D01*
X0166534Y0082461D01*
X0166611Y0082537D01*
X0166691Y0082610D01*
X0166774Y0082680D01*
X0166859Y0082747D01*
X0166946Y0082810D01*
X0167036Y0082871D01*
X0167128Y0082928D01*
X0167222Y0082982D01*
X0167318Y0083032D01*
X0167416Y0083079D01*
X0167515Y0083122D01*
X0167616Y0083161D01*
X0167718Y0083197D01*
X0167822Y0083229D01*
X0167926Y0083257D01*
X0168032Y0083281D01*
X0168138Y0083301D01*
X0168245Y0083318D01*
X0168353Y0083330D01*
X0168461Y0083339D01*
X0168569Y0083343D01*
X0168677Y0083344D01*
X0168674Y0083250D01*
X0168568Y0083249D01*
X0168462Y0083245D01*
X0168355Y0083236D01*
X0168250Y0083223D01*
X0168145Y0083207D01*
X0168040Y0083187D01*
X0167936Y0083162D01*
X0167834Y0083134D01*
X0167732Y0083102D01*
X0167632Y0083067D01*
X0167533Y0083027D01*
X0167436Y0082984D01*
X0167340Y0082938D01*
X0167246Y0082887D01*
X0167154Y0082834D01*
X0167064Y0082777D01*
X0166976Y0082716D01*
X0166891Y0082653D01*
X0166808Y0082586D01*
X0166728Y0082516D01*
X0166650Y0082444D01*
X0166575Y0082368D01*
X0166503Y0082290D01*
X0166434Y0082209D01*
X0166368Y0082125D01*
X0166305Y0082039D01*
X0166245Y0081951D01*
X0166189Y0081861D01*
X0166136Y0081768D01*
X0166086Y0081674D01*
X0166040Y0081578D01*
X0165998Y0081480D01*
X0165959Y0081381D01*
X0165925Y0081281D01*
X0165893Y0081179D01*
X0165866Y0081076D01*
X0165843Y0080972D01*
X0165823Y0080867D01*
X0165808Y0080762D01*
X0165796Y0080656D01*
X0165788Y0080550D01*
X0165784Y0080444D01*
X0165785Y0080337D01*
X0165789Y0080231D01*
X0165797Y0080125D01*
X0165809Y0080019D01*
X0165825Y0079914D01*
X0165845Y0079809D01*
X0165869Y0079705D01*
X0165897Y0079602D01*
X0165928Y0079501D01*
X0165963Y0079400D01*
X0166002Y0079301D01*
X0166045Y0079204D01*
X0166091Y0079108D01*
X0166141Y0079014D01*
X0166194Y0078922D01*
X0166251Y0078831D01*
X0166311Y0078743D01*
X0166374Y0078658D01*
X0166441Y0078575D01*
X0166510Y0078494D01*
X0166583Y0078416D01*
X0166658Y0078341D01*
X0166736Y0078268D01*
X0166817Y0078199D01*
X0166900Y0078132D01*
X0166985Y0078069D01*
X0167073Y0078009D01*
X0167164Y0077952D01*
X0167256Y0077899D01*
X0167350Y0077849D01*
X0167446Y0077803D01*
X0167543Y0077760D01*
X0167642Y0077721D01*
X0167743Y0077686D01*
X0167844Y0077655D01*
X0167947Y0077627D01*
X0168051Y0077603D01*
X0168156Y0077583D01*
X0168261Y0077567D01*
X0168367Y0077555D01*
X0168473Y0077547D01*
X0168579Y0077543D01*
X0168686Y0077542D01*
X0168792Y0077546D01*
X0168898Y0077554D01*
X0169004Y0077566D01*
X0169109Y0077581D01*
X0169214Y0077601D01*
X0169318Y0077624D01*
X0169421Y0077651D01*
X0169523Y0077683D01*
X0169623Y0077717D01*
X0169722Y0077756D01*
X0169820Y0077798D01*
X0169916Y0077844D01*
X0170010Y0077894D01*
X0170103Y0077947D01*
X0170193Y0078003D01*
X0170281Y0078063D01*
X0170367Y0078126D01*
X0170451Y0078192D01*
X0170532Y0078261D01*
X0170610Y0078333D01*
X0170686Y0078408D01*
X0170758Y0078486D01*
X0170828Y0078566D01*
X0170895Y0078649D01*
X0170958Y0078734D01*
X0171019Y0078822D01*
X0171076Y0078912D01*
X0171129Y0079004D01*
X0171180Y0079098D01*
X0171226Y0079194D01*
X0171269Y0079291D01*
X0171309Y0079390D01*
X0171344Y0079490D01*
X0171376Y0079592D01*
X0171404Y0079694D01*
X0171429Y0079798D01*
X0171449Y0079903D01*
X0171465Y0080008D01*
X0171478Y0080113D01*
X0171487Y0080220D01*
X0171491Y0080326D01*
X0171492Y0080432D01*
D14*
X0657680Y0077831D03*
X0157680Y0428224D03*
D15*
X0230081Y0395902D03*
X0249924Y0395902D03*
X0269766Y0395902D03*
X0269766Y0366138D03*
X0249924Y0366138D03*
X0230081Y0366138D03*
X0370081Y0366138D03*
X0389924Y0366138D03*
X0409766Y0366138D03*
X0409766Y0395902D03*
X0389924Y0395902D03*
X0370081Y0395902D03*
X0510081Y0395902D03*
X0529924Y0395902D03*
X0549766Y0395902D03*
X0549766Y0366138D03*
X0529924Y0366138D03*
X0510081Y0366138D03*
X0510081Y0257402D03*
X0529924Y0257402D03*
X0549766Y0257402D03*
X0549766Y0227638D03*
X0529924Y0227638D03*
X0510081Y0227638D03*
X0409766Y0227638D03*
X0389924Y0227638D03*
X0370081Y0227638D03*
X0370081Y0257402D03*
X0389924Y0257402D03*
X0409766Y0257402D03*
X0269766Y0257402D03*
X0249924Y0257402D03*
X0230081Y0257402D03*
X0230081Y0227638D03*
X0249924Y0227638D03*
X0269766Y0227638D03*
D16*
X0329294Y0227638D03*
X0329294Y0257402D03*
X0469294Y0257402D03*
X0469294Y0227638D03*
X0609294Y0227638D03*
X0609294Y0257402D03*
X0609294Y0366138D03*
X0609294Y0395902D03*
X0469294Y0395902D03*
X0469294Y0366138D03*
X0329294Y0366138D03*
X0329294Y0395902D03*
X0168113Y0359425D03*
X0168113Y0344425D03*
X0168113Y0329425D03*
X0168113Y0314425D03*
X0168113Y0299425D03*
X0168113Y0284425D03*
X0168113Y0269425D03*
X0168113Y0233441D03*
X0168113Y0218441D03*
X0168113Y0203441D03*
X0168113Y0188441D03*
X0168113Y0173441D03*
X0168113Y0158441D03*
X0168113Y0143441D03*
X0118113Y0143441D03*
X0118113Y0158441D03*
X0118113Y0173441D03*
X0118113Y0188441D03*
X0118113Y0203441D03*
X0118113Y0218441D03*
X0118113Y0233441D03*
X0118113Y0248441D03*
X0118113Y0269425D03*
X0118113Y0284425D03*
X0118113Y0299425D03*
X0118113Y0314425D03*
X0118113Y0329425D03*
X0118113Y0344425D03*
X0118113Y0359425D03*
X0118113Y0374425D03*
D17*
X0231424Y0422520D02*
X0237424Y0422520D01*
X0260951Y0412520D02*
X0266951Y0412520D01*
X0371424Y0422520D02*
X0377424Y0422520D01*
X0400951Y0412520D02*
X0406951Y0412520D01*
X0377424Y0350020D02*
X0371424Y0350020D01*
X0400951Y0340020D02*
X0406951Y0340020D01*
X0377424Y0284020D02*
X0371424Y0284020D01*
X0400951Y0274020D02*
X0406951Y0274020D01*
X0377424Y0210020D02*
X0371424Y0210020D01*
X0400951Y0200020D02*
X0406951Y0200020D01*
X0511424Y0210020D02*
X0517424Y0210020D01*
X0540951Y0200020D02*
X0546951Y0200020D01*
X0546951Y0340020D02*
X0540951Y0340020D01*
X0517424Y0350020D02*
X0511424Y0350020D01*
X0540951Y0412520D02*
X0546951Y0412520D01*
X0517424Y0422520D02*
X0511424Y0422520D01*
X0266951Y0274020D02*
X0260951Y0274020D01*
X0237424Y0284020D02*
X0231424Y0284020D01*
X0231424Y0210270D02*
X0237424Y0210270D01*
X0260951Y0200270D02*
X0266951Y0200270D01*
D18*
X0168113Y0248441D03*
X0168113Y0374425D03*
D19*
X0137995Y0087673D03*
X0137995Y0418382D03*
D20*
X0457938Y0163520D03*
X0460938Y0163520D03*
X0435938Y0150520D03*
X0435938Y0147520D03*
X0438688Y0141020D03*
X0438688Y0138020D03*
X0446188Y0133770D03*
X0457938Y0126520D03*
X0476188Y0112770D03*
X0488188Y0122770D03*
X0486688Y0134520D03*
X0512938Y0137770D03*
X0527438Y0135270D03*
X0541688Y0126270D03*
X0546438Y0122020D03*
X0551438Y0145520D03*
X0551438Y0148520D03*
X0551438Y0151520D03*
X0569438Y0151770D03*
X0623688Y0165520D03*
X0629438Y0165520D03*
X0588188Y0107270D03*
X0452938Y0108020D03*
D21*
X0465188Y0097520D03*
X0468938Y0095520D03*
X0472938Y0093770D03*
X0501938Y0117770D03*
X0499188Y0125520D03*
X0503188Y0135270D03*
X0494688Y0138020D03*
X0477688Y0122770D03*
X0467938Y0124770D03*
X0437938Y0158520D03*
X0447688Y0171020D03*
X0452188Y0173520D03*
X0458188Y0171520D03*
X0480438Y0169770D03*
X0549688Y0140520D03*
X0568188Y0124520D03*
X0585188Y0132520D03*
X0587188Y0128520D03*
X0576438Y0140520D03*
X0574538Y0150920D03*
X0575838Y0156270D03*
X0569938Y0160020D03*
X0575688Y0165770D03*
X0582438Y0153770D03*
X0622438Y0184770D03*
X0605938Y0094270D03*
X0602438Y0091270D03*
X0598688Y0089270D03*
X0593438Y0086020D03*
X0608938Y0086520D03*
X0563438Y0084270D03*
X0413938Y0120770D03*
X0411188Y0124020D03*
X0585688Y0277270D03*
X0589938Y0284520D03*
X0596188Y0293270D03*
X0596188Y0273020D03*
X0557438Y0289770D03*
X0596188Y0411520D03*
X0590938Y0423270D03*
X0456188Y0411520D03*
X0450938Y0423520D03*
X0316188Y0411520D03*
X0311938Y0423270D03*
D22*
X0316188Y0411520D02*
X0316188Y0215270D01*
X0367688Y0163770D01*
X0447438Y0163770D01*
X0456188Y0173520D02*
X0458188Y0171520D01*
X0456188Y0173520D02*
X0456188Y0411520D01*
X0469294Y0366138D02*
X0459938Y0356781D01*
X0459938Y0227520D01*
X0459938Y0175520D01*
X0462688Y0172770D01*
X0462688Y0167270D01*
X0477938Y0167270D01*
X0480438Y0169770D01*
X0462688Y0167270D02*
X0369438Y0167270D01*
X0319938Y0216770D01*
X0319938Y0227638D01*
X0329294Y0227638D01*
X0319938Y0227638D02*
X0319938Y0356781D01*
X0329294Y0366138D01*
X0460056Y0227638D02*
X0459938Y0227520D01*
X0460056Y0227638D02*
X0469294Y0227638D01*
X0599938Y0227270D02*
X0599938Y0207270D01*
X0622438Y0184770D01*
X0596438Y0167020D02*
X0596188Y0167020D01*
X0596188Y0167270D02*
X0596438Y0167020D01*
X0596188Y0167270D02*
X0596188Y0273020D01*
X0596188Y0293270D01*
X0596188Y0411520D01*
X0609294Y0366138D02*
X0599938Y0356781D01*
X0599938Y0227270D01*
X0600306Y0227638D01*
X0609294Y0227638D01*
D23*
X0588938Y0274020D02*
X0585688Y0277270D01*
X0588938Y0274020D02*
X0588938Y0175770D01*
X0578938Y0165770D01*
X0578938Y0159370D01*
X0575838Y0156270D01*
X0580688Y0156270D02*
X0575338Y0150920D01*
X0574538Y0150920D01*
X0580688Y0156270D02*
X0580688Y0165020D01*
X0590938Y0175270D01*
X0590938Y0283520D01*
X0589938Y0284520D01*
X0592938Y0174770D02*
X0582438Y0164270D01*
X0582438Y0153770D01*
X0575688Y0165770D02*
X0569938Y0160020D01*
X0592938Y0174770D02*
X0592938Y0421270D01*
X0590938Y0423270D01*
X0452938Y0421520D02*
X0452938Y0174270D01*
X0452188Y0173520D01*
X0437938Y0158520D02*
X0435188Y0161270D01*
X0366188Y0161270D01*
X0312938Y0214520D01*
X0312938Y0422270D01*
X0311938Y0423270D01*
X0450938Y0423520D02*
X0452938Y0421520D01*
X0549688Y0140520D02*
X0576438Y0140520D01*
X0583688Y0132520D02*
X0585188Y0132520D01*
X0583688Y0132520D02*
X0569938Y0118770D01*
X0505438Y0118770D01*
X0503438Y0120770D01*
X0495188Y0120770D01*
X0492438Y0118020D01*
X0450188Y0118020D01*
X0439333Y0107165D01*
X0439333Y0105232D01*
X0439333Y0115232D02*
X0444650Y0115232D01*
X0449188Y0119770D01*
X0491688Y0119770D01*
X0494438Y0122520D01*
X0500438Y0122520D01*
X0503188Y0125270D01*
X0503188Y0135270D01*
X0495188Y0137520D02*
X0495188Y0129520D01*
X0499188Y0125520D01*
X0501938Y0117770D02*
X0502688Y0117020D01*
X0570688Y0117020D01*
X0582188Y0128520D01*
X0587188Y0128520D01*
X0601188Y0092520D02*
X0478188Y0092520D01*
X0474688Y0089020D01*
X0388188Y0089020D01*
X0374438Y0102770D01*
X0374438Y0110128D01*
X0369333Y0115232D01*
X0354438Y0110020D02*
X0354438Y0101270D01*
X0370188Y0085520D01*
X0476188Y0085520D01*
X0479688Y0089020D01*
X0594688Y0089020D01*
X0597438Y0086270D01*
X0608688Y0086270D01*
X0608938Y0086520D01*
X0602438Y0091270D02*
X0601188Y0092520D01*
X0598688Y0089270D02*
X0597188Y0090770D01*
X0478938Y0090770D01*
X0475438Y0087270D01*
X0387296Y0087270D01*
X0369333Y0105232D01*
X0379333Y0105232D02*
X0379438Y0105128D01*
X0379438Y0100270D01*
X0388938Y0090770D01*
X0473938Y0090770D01*
X0477438Y0094270D01*
X0605938Y0094270D01*
X0593438Y0086020D02*
X0592188Y0087270D01*
X0480438Y0087270D01*
X0476938Y0083770D01*
X0369438Y0083770D01*
X0349333Y0103874D01*
X0349333Y0105232D01*
X0354438Y0110020D02*
X0349333Y0115124D01*
X0349333Y0115232D01*
X0324438Y0110128D02*
X0324438Y0102520D01*
X0344938Y0082020D01*
X0477688Y0082020D01*
X0481188Y0085520D01*
X0562188Y0085520D01*
X0563438Y0084270D01*
X0495188Y0137520D02*
X0494688Y0138020D01*
X0477688Y0122770D02*
X0476688Y0121770D01*
X0414938Y0121770D01*
X0413938Y0120770D01*
X0415438Y0123520D02*
X0414938Y0124020D01*
X0411188Y0124020D01*
X0415438Y0123520D02*
X0466688Y0123520D01*
X0467938Y0124770D01*
X0465188Y0097520D02*
X0463688Y0096020D01*
X0411688Y0096020D01*
X0404688Y0103020D01*
X0404688Y0107520D01*
X0402188Y0110020D01*
X0394546Y0110020D01*
X0389333Y0115232D01*
X0389333Y0105232D02*
X0402046Y0092520D01*
X0471688Y0092520D01*
X0472938Y0093770D01*
X0468938Y0095520D02*
X0467688Y0094270D01*
X0410296Y0094270D01*
X0399333Y0105232D01*
X0324438Y0110128D02*
X0319333Y0115232D01*
D24*
X0372688Y0171020D02*
X0336688Y0207020D01*
X0336688Y0250008D01*
X0329294Y0257402D01*
X0372688Y0171020D02*
X0447688Y0171020D01*
D25*
X0469294Y0257402D02*
X0501662Y0289770D01*
X0557438Y0289770D01*
D26*
X0269766Y0257402D02*
X0269766Y0227638D01*
X0269766Y0206598D01*
X0263951Y0200783D01*
X0263951Y0200270D01*
X0261201Y0197520D01*
X0218188Y0197520D01*
X0197266Y0218441D01*
X0168113Y0218441D01*
X0118113Y0218441D01*
X0118113Y0248441D02*
X0168113Y0248441D01*
X0221121Y0248441D01*
X0230081Y0257402D01*
X0230081Y0279677D01*
X0234424Y0284020D01*
X0230081Y0257402D02*
X0230081Y0227638D01*
X0236938Y0350520D02*
X0220688Y0350520D01*
X0211782Y0359425D01*
X0168113Y0359425D01*
X0118113Y0359425D01*
X0118113Y0374425D02*
X0168113Y0374425D01*
X0221794Y0374425D01*
X0230081Y0366138D01*
X0230081Y0395902D01*
X0230081Y0418177D01*
X0234424Y0422520D01*
X0249924Y0401256D02*
X0261188Y0412520D01*
X0263951Y0412520D01*
X0249924Y0401256D02*
X0249924Y0395902D01*
X0249924Y0366138D01*
X0249924Y0363506D01*
X0236938Y0350520D01*
M02*
