G75*
%MOIN*%
%OFA0B0*%
%FSLAX25Y25*%
%IPPOS*%
%LPD*%
%AMOC8*
5,1,8,0,0,1.08239X$1,22.5*
%
%ADD10C,0.00500*%
D10*
X0359846Y0120520D02*
X0360597Y0119770D01*
X0362849Y0119770D01*
X0362849Y0124274D01*
X0360597Y0124274D01*
X0359846Y0123523D01*
X0359846Y0122772D01*
X0360597Y0122022D01*
X0362849Y0122022D01*
X0360597Y0122022D02*
X0359846Y0121271D01*
X0359846Y0120520D01*
X0364417Y0119770D02*
X0365918Y0119770D01*
X0365167Y0119770D02*
X0365167Y0124274D01*
X0364417Y0124274D02*
X0365918Y0124274D01*
X0367519Y0123523D02*
X0368270Y0124274D01*
X0370522Y0124274D01*
X0370522Y0119770D01*
X0368270Y0119770D01*
X0367519Y0120520D01*
X0367519Y0123523D01*
X0376727Y0123523D02*
X0379730Y0120520D01*
X0379730Y0119770D01*
X0376727Y0119770D01*
X0376727Y0123523D02*
X0376727Y0124274D01*
X0379730Y0124274D01*
X0381331Y0124274D02*
X0384334Y0124274D01*
X0384334Y0119770D01*
X0381331Y0119770D01*
X0382832Y0122022D02*
X0384334Y0122022D01*
X0385935Y0124274D02*
X0388938Y0124274D01*
X0388938Y0119770D01*
X0385935Y0119770D01*
X0387436Y0122022D02*
X0388938Y0122022D01*
X0649171Y0271930D02*
X0649171Y0272681D01*
X0649921Y0273432D01*
X0653674Y0273432D01*
X0655176Y0273432D02*
X0655926Y0273432D01*
X0653674Y0275750D02*
X0653674Y0277251D01*
X0652924Y0278002D01*
X0652173Y0278002D01*
X0652173Y0275000D01*
X0651423Y0275000D02*
X0652924Y0275000D01*
X0653674Y0275750D01*
X0651423Y0275000D02*
X0650672Y0275750D01*
X0650672Y0277251D01*
X0651423Y0279603D02*
X0650672Y0280354D01*
X0650672Y0282606D01*
X0651423Y0284958D02*
X0650672Y0285709D01*
X0651423Y0284958D02*
X0654425Y0284958D01*
X0653674Y0284207D02*
X0653674Y0285709D01*
X0653674Y0282606D02*
X0653674Y0280354D01*
X0652924Y0279603D01*
X0651423Y0279603D01*
X0658172Y0279553D02*
X0658172Y0277302D01*
X0662676Y0277302D01*
X0662676Y0279553D01*
X0661925Y0280304D01*
X0658923Y0280304D01*
X0658172Y0279553D01*
X0658172Y0281905D02*
X0658172Y0283407D01*
X0658172Y0282656D02*
X0662676Y0282656D01*
X0662676Y0281905D02*
X0662676Y0283407D01*
X0662676Y0284975D02*
X0662676Y0287227D01*
X0661925Y0287977D01*
X0661174Y0287977D01*
X0660424Y0287227D01*
X0660424Y0284975D01*
X0660424Y0287227D02*
X0659673Y0287977D01*
X0658923Y0287977D01*
X0658172Y0287227D01*
X0658172Y0284975D01*
X0662676Y0284975D01*
X0653674Y0292631D02*
X0652924Y0291881D01*
X0652173Y0292631D01*
X0652173Y0294133D01*
X0651423Y0294883D01*
X0650672Y0294133D01*
X0650672Y0291881D01*
X0653674Y0292631D02*
X0653674Y0294883D01*
X0652924Y0296485D02*
X0651423Y0296485D01*
X0650672Y0297235D01*
X0650672Y0298736D01*
X0651423Y0299487D01*
X0652924Y0299487D01*
X0653674Y0298736D01*
X0653674Y0297235D01*
X0652924Y0296485D01*
X0653674Y0301088D02*
X0651423Y0301088D01*
X0650672Y0301839D01*
X0650672Y0304091D01*
X0653674Y0304091D01*
X0653674Y0305692D02*
X0650672Y0305692D01*
X0652173Y0305692D02*
X0653674Y0307194D01*
X0653674Y0307944D01*
X0652924Y0309529D02*
X0651423Y0309529D01*
X0650672Y0310280D01*
X0650672Y0312532D01*
X0651423Y0314133D02*
X0652924Y0314133D01*
X0653674Y0314884D01*
X0653674Y0316385D01*
X0652924Y0317135D01*
X0652173Y0317135D01*
X0652173Y0314133D01*
X0651423Y0314133D02*
X0650672Y0314884D01*
X0650672Y0316385D01*
X0653674Y0312532D02*
X0653674Y0310280D01*
X0652924Y0309529D01*
X0658172Y0310997D02*
X0658172Y0307994D01*
X0662676Y0307994D01*
X0662676Y0306393D02*
X0662676Y0303390D01*
X0658172Y0303390D01*
X0658172Y0306393D01*
X0660424Y0304892D02*
X0660424Y0303390D01*
X0660424Y0301789D02*
X0659673Y0301038D01*
X0659673Y0298787D01*
X0659673Y0300288D02*
X0658172Y0301789D01*
X0660424Y0301789D02*
X0661925Y0301789D01*
X0662676Y0301038D01*
X0662676Y0298787D01*
X0658172Y0298787D01*
X0660424Y0297185D02*
X0659673Y0296434D01*
X0659673Y0294183D01*
X0658172Y0294183D02*
X0662676Y0294183D01*
X0662676Y0296434D01*
X0661925Y0297185D01*
X0660424Y0297185D01*
X0660424Y0312598D02*
X0660424Y0314850D01*
X0659673Y0315601D01*
X0658923Y0315601D01*
X0658172Y0314850D01*
X0658172Y0313349D01*
X0658923Y0312598D01*
X0660424Y0312598D01*
X0661925Y0314100D01*
X0662676Y0315601D01*
X0661174Y0321806D02*
X0662676Y0323307D01*
X0661925Y0324875D02*
X0662676Y0325626D01*
X0662676Y0327127D01*
X0661925Y0327878D01*
X0658923Y0324875D01*
X0658172Y0325626D01*
X0658172Y0327127D01*
X0658923Y0327878D01*
X0661925Y0327878D01*
X0661925Y0329479D02*
X0661174Y0329479D01*
X0660424Y0330230D01*
X0660424Y0332482D01*
X0661925Y0332482D02*
X0662676Y0331731D01*
X0662676Y0330230D01*
X0661925Y0329479D01*
X0658923Y0329479D02*
X0658172Y0330230D01*
X0658172Y0331731D01*
X0658923Y0332482D01*
X0661925Y0332482D01*
X0658172Y0334083D02*
X0662676Y0337086D01*
X0661925Y0338687D02*
X0662676Y0339438D01*
X0662676Y0340939D01*
X0661925Y0341690D01*
X0661174Y0341690D01*
X0658172Y0338687D01*
X0658172Y0341690D01*
X0658923Y0343291D02*
X0661925Y0346294D01*
X0658923Y0346294D01*
X0658172Y0345543D01*
X0658172Y0344042D01*
X0658923Y0343291D01*
X0661925Y0343291D01*
X0662676Y0344042D01*
X0662676Y0345543D01*
X0661925Y0346294D01*
X0661925Y0347895D02*
X0662676Y0348646D01*
X0662676Y0350147D01*
X0661925Y0350898D01*
X0661174Y0350898D01*
X0658172Y0347895D01*
X0658172Y0350898D01*
X0658923Y0352499D02*
X0661925Y0355502D01*
X0658923Y0355502D01*
X0658172Y0354751D01*
X0658172Y0353250D01*
X0658923Y0352499D01*
X0661925Y0352499D01*
X0662676Y0353250D01*
X0662676Y0354751D01*
X0661925Y0355502D01*
X0655926Y0354017D02*
X0655176Y0354017D01*
X0653674Y0354017D02*
X0650672Y0354017D01*
X0650672Y0353266D02*
X0650672Y0354768D01*
X0651423Y0357086D02*
X0650672Y0357837D01*
X0651423Y0357086D02*
X0654425Y0357086D01*
X0653674Y0356336D02*
X0653674Y0357837D01*
X0652924Y0359405D02*
X0653674Y0360155D01*
X0653674Y0361657D01*
X0652924Y0362407D01*
X0650672Y0362407D01*
X0651423Y0364009D02*
X0650672Y0364759D01*
X0650672Y0367011D01*
X0653674Y0367011D01*
X0653674Y0368613D02*
X0653674Y0370865D01*
X0652924Y0371615D01*
X0651423Y0371615D01*
X0650672Y0370865D01*
X0650672Y0368613D01*
X0655176Y0368613D01*
X0658172Y0368546D02*
X0658172Y0365543D01*
X0658172Y0367045D02*
X0662676Y0367045D01*
X0661174Y0365543D01*
X0661174Y0363959D02*
X0661174Y0363208D01*
X0659673Y0361707D01*
X0658172Y0361707D02*
X0661174Y0361707D01*
X0655176Y0359405D02*
X0650672Y0359405D01*
X0651423Y0364009D02*
X0653674Y0364009D01*
X0658172Y0370147D02*
X0658172Y0372399D01*
X0658923Y0373150D01*
X0659673Y0373150D01*
X0660424Y0372399D01*
X0660424Y0370147D01*
X0662676Y0370147D02*
X0662676Y0372399D01*
X0661925Y0373150D01*
X0661174Y0373150D01*
X0660424Y0372399D01*
X0661925Y0374751D02*
X0662676Y0375502D01*
X0662676Y0377003D01*
X0661925Y0377754D01*
X0661174Y0377754D01*
X0660424Y0377003D01*
X0659673Y0377754D01*
X0658923Y0377754D01*
X0658172Y0377003D01*
X0658172Y0375502D01*
X0658923Y0374751D01*
X0660424Y0376253D02*
X0660424Y0377003D01*
X0662676Y0379355D02*
X0661174Y0380856D01*
X0659673Y0380856D01*
X0658172Y0379355D01*
X0653674Y0378521D02*
X0653674Y0376269D01*
X0652924Y0375519D01*
X0651423Y0375519D01*
X0650672Y0376269D01*
X0650672Y0378521D01*
X0651423Y0380122D02*
X0650672Y0380873D01*
X0650672Y0382374D01*
X0651423Y0383125D01*
X0652924Y0383125D01*
X0653674Y0382374D01*
X0653674Y0380873D01*
X0652924Y0380122D01*
X0651423Y0380122D01*
X0650672Y0384726D02*
X0653674Y0384726D01*
X0653674Y0385477D01*
X0652924Y0386228D01*
X0653674Y0386978D01*
X0652924Y0387729D01*
X0650672Y0387729D01*
X0650672Y0386228D02*
X0652924Y0386228D01*
X0650672Y0389330D02*
X0655176Y0392333D01*
X0652924Y0393934D02*
X0653674Y0394685D01*
X0653674Y0396186D01*
X0652924Y0396937D01*
X0652173Y0396937D01*
X0652173Y0393934D01*
X0651423Y0393934D02*
X0652924Y0393934D01*
X0651423Y0393934D02*
X0650672Y0394685D01*
X0650672Y0396186D01*
X0651423Y0398538D02*
X0652924Y0398538D01*
X0653674Y0399289D01*
X0653674Y0400790D01*
X0652924Y0401541D01*
X0652173Y0401541D01*
X0652173Y0398538D01*
X0651423Y0398538D02*
X0650672Y0399289D01*
X0650672Y0400790D01*
X0650672Y0403142D02*
X0650672Y0406145D01*
X0652924Y0407746D02*
X0652924Y0410749D01*
X0652924Y0412350D02*
X0651423Y0412350D01*
X0650672Y0413101D01*
X0650672Y0414602D01*
X0651423Y0415353D01*
X0652924Y0415353D01*
X0653674Y0414602D01*
X0653674Y0413101D01*
X0652924Y0412350D01*
X0653674Y0416954D02*
X0649171Y0416954D01*
X0650672Y0416954D02*
X0650672Y0419206D01*
X0651423Y0419956D01*
X0652924Y0419956D01*
X0653674Y0419206D01*
X0653674Y0416954D01*
X0652924Y0421558D02*
X0653674Y0422308D01*
X0653674Y0423810D01*
X0652924Y0424560D01*
X0652173Y0424560D01*
X0652173Y0421558D01*
X0651423Y0421558D02*
X0652924Y0421558D01*
X0651423Y0421558D02*
X0650672Y0422308D01*
X0650672Y0423810D01*
X0650672Y0426162D02*
X0653674Y0426162D01*
X0653674Y0428414D01*
X0652924Y0429164D01*
X0650672Y0429164D01*
X0653674Y0406145D02*
X0650672Y0403142D01*
X0653674Y0403142D02*
X0653674Y0406145D01*
X0651423Y0373967D02*
X0650672Y0373967D01*
X0650672Y0373217D01*
X0651423Y0373217D01*
X0651423Y0373967D01*
X0658172Y0370147D02*
X0662676Y0370147D01*
X0653674Y0354017D02*
X0653674Y0353266D01*
X0653674Y0351665D02*
X0653674Y0349413D01*
X0652924Y0348662D01*
X0651423Y0348662D01*
X0650672Y0349413D01*
X0650672Y0351665D01*
X0649921Y0351665D02*
X0653674Y0351665D01*
X0649921Y0351665D02*
X0649171Y0350914D01*
X0649171Y0350164D01*
X0650672Y0342507D02*
X0650672Y0341756D01*
X0651423Y0341756D01*
X0651423Y0342507D01*
X0650672Y0342507D01*
X0652924Y0342507D02*
X0652924Y0341756D01*
X0653674Y0341756D01*
X0653674Y0342507D01*
X0652924Y0342507D01*
X0652924Y0340155D02*
X0652173Y0340155D01*
X0652173Y0337153D01*
X0651423Y0337153D02*
X0652924Y0337153D01*
X0653674Y0337903D01*
X0653674Y0339404D01*
X0652924Y0340155D01*
X0650672Y0339404D02*
X0650672Y0337903D01*
X0651423Y0337153D01*
X0650672Y0335551D02*
X0650672Y0333299D01*
X0651423Y0332549D01*
X0652924Y0332549D01*
X0653674Y0333299D01*
X0653674Y0335551D01*
X0655176Y0335551D02*
X0650672Y0335551D01*
X0651423Y0330947D02*
X0652924Y0330947D01*
X0653674Y0330197D01*
X0653674Y0328695D01*
X0652924Y0327945D01*
X0651423Y0327945D01*
X0650672Y0328695D01*
X0650672Y0330197D01*
X0651423Y0330947D01*
X0650672Y0326343D02*
X0650672Y0324091D01*
X0651423Y0323341D01*
X0652924Y0323341D01*
X0653674Y0324091D01*
X0653674Y0326343D01*
X0658172Y0323307D02*
X0659673Y0321806D01*
X0661174Y0321806D01*
X0661925Y0324875D02*
X0658923Y0324875D01*
X0658172Y0271096D02*
X0658172Y0268094D01*
X0658923Y0268094D01*
X0661925Y0271096D01*
X0662676Y0271096D01*
X0662676Y0268094D01*
X0662676Y0266492D02*
X0662676Y0263490D01*
X0658172Y0263490D01*
X0658172Y0266492D01*
X0660424Y0264991D02*
X0660424Y0263490D01*
X0662676Y0261888D02*
X0662676Y0258886D01*
X0658172Y0258886D01*
X0658172Y0261888D01*
X0660424Y0260387D02*
X0660424Y0258886D01*
X0655176Y0258886D02*
X0655176Y0261138D01*
X0654425Y0261888D01*
X0652924Y0261888D01*
X0652173Y0261138D01*
X0652173Y0258886D01*
X0650672Y0258886D02*
X0655176Y0258886D01*
X0653674Y0263490D02*
X0650672Y0263490D01*
X0652173Y0263490D02*
X0653674Y0264991D01*
X0653674Y0265742D01*
X0652924Y0267326D02*
X0651423Y0267326D01*
X0650672Y0268077D01*
X0650672Y0269578D01*
X0651423Y0270329D01*
X0652924Y0270329D01*
X0653674Y0269578D01*
X0653674Y0268077D01*
X0652924Y0267326D01*
M02*
