%
M48
M72
T01C0.01575
T02C0.03937
T03C0.04000
T04C0.05118
T05C0.12598
%
T01
X316188Y273020
X309938Y284770
X449938Y284520
X456188Y273020
X589938Y284520
X596188Y273020
X622438Y184770
X623688Y165520
X629438Y165520
X582438Y153770
X574438Y151020
X569438Y151770
X576438Y140520
X583688Y132770
X586438Y129770
X568188Y124520
X546438Y122020
X541688Y126270
X527438Y135270
X512938Y137770
X503188Y134020
X499188Y125520
X501938Y117770
X488188Y122770
X477688Y122770
X467938Y124770
X457938Y126520
X446188Y133770
X438688Y138020
X438688Y141020
X431188Y149020
X450938Y171270
X455188Y171270
X460938Y169770
X468688Y169770
X465438Y161270
X459688Y158270
X495188Y138020
X485438Y134020
X476188Y112770
X465188Y97520
X468938Y95520
X472938Y93770
X452938Y108020
X413938Y120770
X411188Y124020
X549688Y140520
X551438Y145520
X551438Y148520
X551438Y151520
X588188Y107270
X602438Y91270
X598688Y89270
X593438Y86020
X605938Y94270
X608938Y86520
X563438Y84270
X596188Y411520
X590938Y423270
X456188Y411520
X450938Y423520
X316188Y411520
X311938Y423270
T02
X626438Y150770
X626438Y140770
X626438Y130770
X626438Y120770
X626438Y110770
X626438Y100770
X439333Y105232
X429333Y105232
X419333Y105232
X409333Y105232
X399333Y105232
X389333Y105232
X379333Y105232
X369333Y105232
X359333Y105232
X349333Y105232
X339333Y105232
X329333Y105232
X319333Y105232
X309333Y105232
X309333Y115232
X319333Y115232
X329333Y115232
X339333Y115232
X349333Y115232
X359333Y115232
X369333Y115232
X379333Y115232
X389333Y115232
X399333Y115232
X409333Y115232
X419333Y115232
X429333Y115232
X439333Y115232
T03
X403951Y200020
X374424Y210020
X403951Y274020
X374424Y284020
X403951Y340020
X374424Y350020
X403951Y412520
X374424Y422520
X263951Y412520
X234424Y422520
X234424Y284020
X263951Y274020
X234424Y210270
X263951Y200270
X514424Y210020
X543951Y200020
X543951Y340020
X514424Y350020
X543951Y412520
X514424Y422520
T04
X510081Y395902
X529924Y395902
X549766Y395902
X549766Y366138
X529924Y366138
X510081Y366138
X469294Y366138
X469294Y395902
X409766Y395902
X389924Y395902
X370081Y395902
X370081Y366138
X389924Y366138
X409766Y366138
X329294Y366138
X329294Y395902
X269766Y395902
X249924Y395902
X230081Y395902
X230081Y366138
X249924Y366138
X269766Y366138
X176774Y359425
X176774Y374425
X176774Y344425
X176774Y329425
X176774Y314425
X176774Y299425
X176774Y284425
X176774Y269425
X176774Y248441
X176774Y233441
X176774Y218441
X176774Y203441
X176774Y188441
X176774Y173441
X176774Y158441
X176774Y143441
X126774Y143441
X126774Y158441
X126774Y173441
X126774Y188441
X126774Y203441
X126774Y218441
X126774Y233441
X126774Y248441
X126774Y269425
X126774Y284425
X126774Y299425
X126774Y314425
X126774Y329425
X126774Y344425
X126774Y359425
X126774Y374425
X230081Y257402
X249924Y257402
X269766Y257402
X269766Y227638
X249924Y227638
X230081Y227638
X329294Y227638
X329294Y257402
X370081Y257402
X389924Y257402
X409766Y257402
X409766Y227638
X389924Y227638
X370081Y227638
X469294Y227638
X469294Y257402
X510081Y257402
X529924Y257402
X549766Y257402
X549766Y227638
X529924Y227638
X510081Y227638
X609294Y227638
X609294Y257402
X609294Y366138
X609294Y395902
T05
X137995Y87673
X137995Y87673
X137995Y418382
X137995Y418382
M30
